G04 #@! TF.GenerationSoftware,KiCad,Pcbnew,(2017-01-11 revision e99b79cb2)-master*
G04 #@! TF.CreationDate,2017-11-18T14:01:15+02:00*
G04 #@! TF.ProjectId,csb,6373622E6B696361645F706362000000,rev?*
G04 #@! TF.FileFunction,Copper,L2,Bot,Signal*
G04 #@! TF.FilePolarity,Positive*
%FSLAX46Y46*%
G04 Gerber Fmt 4.6, Leading zero omitted, Abs format (unit mm)*
G04 Created by KiCad (PCBNEW (2017-01-11 revision e99b79cb2)-master) date Sat Nov 18 14:01:15 2017*
%MOMM*%
%LPD*%
G01*
G04 APERTURE LIST*
%ADD10C,0.100000*%
%ADD11R,2.623820X2.623820*%
%ADD12C,2.623820*%
%ADD13C,2.999740*%
%ADD14C,0.800000*%
%ADD15C,0.200000*%
%ADD16C,0.500000*%
G04 APERTURE END LIST*
D10*
D11*
X164002040Y-119002040D03*
D12*
X168000000Y-119002040D03*
X171997960Y-119002040D03*
X166001020Y-123000000D03*
X169998980Y-123000000D03*
X164002040Y-126997960D03*
X168000000Y-126997960D03*
X171997960Y-126997960D03*
D13*
X154301780Y-112202460D03*
X181698220Y-112202460D03*
X183199360Y-130299960D03*
X152800640Y-130299960D03*
D11*
X154002060Y-61002040D03*
D12*
X158000020Y-61002040D03*
X162000520Y-61002040D03*
X166001020Y-61002040D03*
X169998980Y-61002040D03*
X173999480Y-61002040D03*
X177999980Y-61002040D03*
X181997940Y-61002040D03*
X156001040Y-65000000D03*
X160001540Y-65000000D03*
X164002040Y-65000000D03*
X168000000Y-65000000D03*
X171997960Y-65000000D03*
X175998460Y-65000000D03*
X179998960Y-65000000D03*
X154002060Y-68997960D03*
X158000020Y-68997960D03*
X162000520Y-68997960D03*
X166001020Y-68997960D03*
X169998980Y-68997960D03*
X173999480Y-68997960D03*
X177999980Y-68997960D03*
X181997940Y-68997960D03*
D13*
X144301800Y-54202460D03*
X191698200Y-54202460D03*
X142800660Y-72299960D03*
X193199340Y-72299960D03*
D14*
X161750000Y-87800000D03*
X161850000Y-92750000D03*
X167550000Y-93150000D03*
X168050000Y-88400000D03*
X173300000Y-91600000D03*
X173200000Y-75350000D03*
X167950000Y-70950000D03*
X161300000Y-74150000D03*
X153400000Y-73100000D03*
X140100000Y-89250000D03*
X143800000Y-86200000D03*
X144450000Y-75750000D03*
X144350000Y-68700000D03*
X134450000Y-63350000D03*
X134650000Y-60300000D03*
X148200000Y-60950000D03*
X149400000Y-50400000D03*
X162950000Y-50150000D03*
X168400000Y-57950000D03*
X177950000Y-50300000D03*
X187350000Y-60050000D03*
X193600000Y-50100000D03*
X206150000Y-50200000D03*
X216250000Y-55200000D03*
X216200000Y-64550000D03*
X191000000Y-69250000D03*
X216000000Y-74700000D03*
X190850000Y-79800000D03*
X216200000Y-84350000D03*
X190650000Y-89150000D03*
X216350000Y-93650000D03*
X194600000Y-98600000D03*
X216350000Y-104250000D03*
X194750000Y-106550000D03*
X194750000Y-120050000D03*
X187000000Y-127350000D03*
X216450000Y-115500000D03*
X216400000Y-128900000D03*
X210750000Y-137250000D03*
X190300000Y-137200000D03*
X179950000Y-132300000D03*
X170250000Y-138000000D03*
X163500000Y-133750000D03*
X152000000Y-135350000D03*
X145050000Y-123950000D03*
X141650000Y-108200000D03*
X142800000Y-95200000D03*
X133200000Y-97500000D03*
X130250000Y-84850000D03*
X124000000Y-87750000D03*
X121450000Y-87750000D03*
X118950000Y-87750000D03*
X119100000Y-71250000D03*
X121650000Y-74500000D03*
X124000000Y-76700000D03*
X124900000Y-98250000D03*
X132550000Y-106900000D03*
X131750000Y-111450000D03*
X119500000Y-106050000D03*
X119100000Y-120250000D03*
X120650000Y-130600000D03*
X132400000Y-121000000D03*
X129800000Y-118400000D03*
X132550000Y-55850000D03*
X137231468Y-67918532D03*
X138899968Y-71304050D03*
X132550000Y-68050000D03*
X132250000Y-73000000D03*
X132650000Y-76800000D03*
X174650000Y-104300000D03*
X168300000Y-101250000D03*
X162800000Y-101150000D03*
X149400000Y-88500000D03*
X157000000Y-88450000D03*
X178900000Y-88350000D03*
X186650000Y-88500000D03*
X137200000Y-124500000D03*
X137100000Y-129000000D03*
X121271500Y-99590015D03*
X123500000Y-120200000D03*
X123500000Y-115700000D03*
X128800000Y-61200000D03*
X137500000Y-55500000D03*
X131749998Y-114950002D03*
X121200000Y-56100000D03*
X128800000Y-64700000D03*
X125000000Y-68300000D03*
X119800000Y-68100000D03*
X137700000Y-114100000D03*
X128700000Y-132100000D03*
X127200000Y-135300000D03*
X135000000Y-128700000D03*
X124500000Y-137900000D03*
X133500000Y-135100000D03*
X127000000Y-124600000D03*
X140100000Y-135900000D03*
X140100000Y-115300000D03*
X140248952Y-116651048D03*
X144900000Y-65200000D03*
X145400000Y-63400000D03*
X141734535Y-103951257D03*
X167250000Y-102611800D03*
X141135574Y-103043906D03*
X165650000Y-102611800D03*
X144200000Y-91300000D03*
X148600000Y-91500000D03*
X156182169Y-91899990D03*
X142150000Y-92850000D03*
X178220000Y-91500000D03*
X143100000Y-88250000D03*
X144893364Y-89767644D03*
X185770000Y-91500000D03*
X139312631Y-105458515D03*
X172050000Y-102611800D03*
X141589847Y-106400118D03*
X173650000Y-102611800D03*
X158472091Y-91950041D03*
X141151400Y-92903121D03*
X141921387Y-102425423D03*
X164050000Y-102611800D03*
X150870018Y-91550041D03*
X143400000Y-92100000D03*
X140600000Y-101200000D03*
X162450000Y-102611800D03*
X180500000Y-91500000D03*
X144400000Y-88850000D03*
X142700000Y-104211836D03*
X168850000Y-102611800D03*
X140301047Y-105258988D03*
X170450000Y-102611800D03*
X143677936Y-90133930D03*
X188050000Y-91500000D03*
D15*
X161750000Y-87800000D02*
X161100000Y-88450000D01*
X161100000Y-88450000D02*
X157000000Y-88450000D01*
X167550000Y-93150000D02*
X167150000Y-92750000D01*
X167150000Y-92750000D02*
X161850000Y-92750000D01*
X173300000Y-91600000D02*
X170100000Y-88400000D01*
X170100000Y-88400000D02*
X168050000Y-88400000D01*
X173200000Y-75350000D02*
X173200000Y-91500000D01*
X173200000Y-91500000D02*
X173300000Y-91600000D01*
X167950000Y-70950000D02*
X172350000Y-75350000D01*
X172350000Y-75350000D02*
X173200000Y-75350000D01*
X161300000Y-74150000D02*
X164750000Y-74150000D01*
X164750000Y-74150000D02*
X167950000Y-70950000D01*
X153400000Y-73100000D02*
X154450000Y-74150000D01*
X154450000Y-74150000D02*
X161300000Y-74150000D01*
X149400000Y-88500000D02*
X149400000Y-77100000D01*
X149400000Y-77100000D02*
X153400000Y-73100000D01*
X140100000Y-89250000D02*
X133200000Y-96150000D01*
X133200000Y-96150000D02*
X133200000Y-97500000D01*
X143800000Y-86200000D02*
X143150000Y-86200000D01*
X143150000Y-86200000D02*
X140100000Y-89250000D01*
X144450000Y-75750000D02*
X143800000Y-76400000D01*
X143800000Y-76400000D02*
X143800000Y-86200000D01*
X146650000Y-71300000D02*
X146650000Y-73550000D01*
X146650000Y-73550000D02*
X144450000Y-75750000D01*
X144749999Y-69399999D02*
X146650000Y-71300000D01*
X144350000Y-68700000D02*
X144749999Y-69099999D01*
X144749999Y-69099999D02*
X144749999Y-69399999D01*
X141904018Y-68300000D02*
X143950000Y-68300000D01*
X143950000Y-68300000D02*
X144350000Y-68700000D01*
X138899968Y-71304050D02*
X141904018Y-68300000D01*
X134450000Y-63350000D02*
X132250000Y-65550000D01*
X132250000Y-65550000D02*
X132250000Y-73000000D01*
X134650000Y-60300000D02*
X134650000Y-63150000D01*
X134650000Y-63150000D02*
X134450000Y-63350000D01*
X138700000Y-60200000D02*
X134750000Y-60200000D01*
X134750000Y-60200000D02*
X134650000Y-60300000D01*
X139450000Y-60950000D02*
X138700000Y-60200000D01*
X148200000Y-60950000D02*
X139450000Y-60950000D01*
X149400000Y-50400000D02*
X148200000Y-51600000D01*
X148200000Y-51600000D02*
X148200000Y-60950000D01*
X162950000Y-50150000D02*
X149650000Y-50150000D01*
X149650000Y-50150000D02*
X149400000Y-50400000D01*
X168400000Y-57950000D02*
X162950000Y-52500000D01*
X162950000Y-52500000D02*
X162950000Y-50150000D01*
X177950000Y-50300000D02*
X176050000Y-50300000D01*
X176050000Y-50300000D02*
X168400000Y-57950000D01*
X187350000Y-60050000D02*
X177950000Y-50650000D01*
X177950000Y-50650000D02*
X177950000Y-50300000D01*
X206150000Y-50200000D02*
X193700000Y-50200000D01*
X193700000Y-50200000D02*
X193600000Y-50100000D01*
X216250000Y-55200000D02*
X211250000Y-50200000D01*
X211250000Y-50200000D02*
X206150000Y-50200000D01*
X216200000Y-64550000D02*
X216200000Y-55250000D01*
X216200000Y-55250000D02*
X216250000Y-55200000D01*
X191000000Y-69250000D02*
X211500000Y-69250000D01*
X211500000Y-69250000D02*
X216200000Y-64550000D01*
X216000000Y-74700000D02*
X210550000Y-69250000D01*
X210550000Y-69250000D02*
X191000000Y-69250000D01*
X190850000Y-79800000D02*
X210900000Y-79800000D01*
X210900000Y-79800000D02*
X216000000Y-74700000D01*
X216200000Y-84350000D02*
X211650000Y-79800000D01*
X211650000Y-79800000D02*
X190850000Y-79800000D01*
X190650000Y-89150000D02*
X211400000Y-89150000D01*
X211400000Y-89150000D02*
X216200000Y-84350000D01*
X216350000Y-93650000D02*
X211850000Y-89150000D01*
X211850000Y-89150000D02*
X190650000Y-89150000D01*
X194600000Y-98600000D02*
X211400000Y-98600000D01*
X211400000Y-98600000D02*
X216350000Y-93650000D01*
X216350000Y-104250000D02*
X210700000Y-98600000D01*
X210700000Y-98600000D02*
X194600000Y-98600000D01*
X194750000Y-106550000D02*
X214050000Y-106550000D01*
X214050000Y-106550000D02*
X216350000Y-104250000D01*
X194750000Y-120050000D02*
X194750000Y-106550000D01*
X187000000Y-127350000D02*
X194300000Y-120050000D01*
X194300000Y-120050000D02*
X194750000Y-120050000D01*
X216450000Y-115500000D02*
X204600000Y-127350000D01*
X204600000Y-127350000D02*
X187000000Y-127350000D01*
X216400000Y-128900000D02*
X216400000Y-115550000D01*
X216400000Y-115550000D02*
X216450000Y-115500000D01*
X210750000Y-137250000D02*
X216400000Y-131600000D01*
X216400000Y-131600000D02*
X216400000Y-128900000D01*
X190300000Y-137200000D02*
X210700000Y-137200000D01*
X210700000Y-137200000D02*
X210750000Y-137250000D01*
X179950000Y-132300000D02*
X185400000Y-132300000D01*
X185400000Y-132300000D02*
X190300000Y-137200000D01*
X170250000Y-138000000D02*
X175950000Y-132300000D01*
X175950000Y-132300000D02*
X179950000Y-132300000D01*
X163500000Y-133750000D02*
X166000000Y-133750000D01*
X166000000Y-133750000D02*
X170250000Y-138000000D01*
X152000000Y-135350000D02*
X153600000Y-133750000D01*
X153600000Y-133750000D02*
X163500000Y-133750000D01*
X147800000Y-126700000D02*
X147800000Y-131150000D01*
X147800000Y-131150000D02*
X152000000Y-135350000D01*
X145050000Y-123950000D02*
X147800000Y-126700000D01*
X137200000Y-124500000D02*
X144500000Y-124500000D01*
X144500000Y-124500000D02*
X145050000Y-123950000D01*
X141650000Y-108200000D02*
X141650000Y-110150000D01*
X141650000Y-110150000D02*
X137700000Y-114100000D01*
X136400000Y-105950000D02*
X138650000Y-108200000D01*
X138650000Y-108200000D02*
X141650000Y-108200000D01*
X136400000Y-101600000D02*
X136400000Y-105950000D01*
X142800000Y-95200000D02*
X136400000Y-101600000D01*
X133200000Y-97500000D02*
X140500000Y-97500000D01*
X140500000Y-97500000D02*
X142800000Y-95200000D01*
X130250000Y-84850000D02*
X133200000Y-87800000D01*
X133200000Y-87800000D02*
X133200000Y-97500000D01*
X124000000Y-87750000D02*
X127350000Y-87750000D01*
X127350000Y-87750000D02*
X130250000Y-84850000D01*
X124000000Y-97350000D02*
X124000000Y-87750000D01*
X121450000Y-87750000D02*
X124000000Y-87750000D01*
X124000000Y-87750000D02*
X124000000Y-76700000D01*
X118950000Y-87750000D02*
X121450000Y-87750000D01*
X119100000Y-71250000D02*
X119100000Y-87600000D01*
X119100000Y-87600000D02*
X118950000Y-87750000D01*
X121650000Y-74500000D02*
X121650000Y-73800000D01*
X121650000Y-73800000D02*
X119100000Y-71250000D01*
X124000000Y-76700000D02*
X121800000Y-74500000D01*
X121800000Y-74500000D02*
X121650000Y-74500000D01*
X124900000Y-98250000D02*
X124000000Y-97350000D01*
X132550000Y-106900000D02*
X132550000Y-105900000D01*
X132550000Y-105900000D02*
X124900000Y-98250000D01*
X131750000Y-111450000D02*
X132550000Y-110650000D01*
X132550000Y-110650000D02*
X132550000Y-106900000D01*
X119500000Y-106050000D02*
X126350000Y-106050000D01*
X126350000Y-106050000D02*
X131750000Y-111450000D01*
X119100000Y-120250000D02*
X119500000Y-119850000D01*
X119500000Y-119850000D02*
X119500000Y-106050000D01*
X120650000Y-130600000D02*
X120650000Y-121800000D01*
X120650000Y-121800000D02*
X119100000Y-120250000D01*
X132400000Y-121000000D02*
X122800000Y-130600000D01*
X122800000Y-130600000D02*
X120650000Y-130600000D01*
X129800000Y-118400000D02*
X132400000Y-121000000D01*
X123500000Y-115700000D02*
X127100000Y-115700000D01*
X127100000Y-115700000D02*
X129800000Y-118400000D01*
X121271500Y-100155700D02*
X121271500Y-99590015D01*
X119600000Y-107000000D02*
X121271500Y-105328500D01*
X121837185Y-99590015D02*
X121271500Y-99590015D01*
X123190015Y-99590015D02*
X121837185Y-99590015D01*
X121271500Y-105328500D02*
X121271500Y-100155700D01*
X137700000Y-114100000D02*
X123190015Y-99590015D01*
X124500000Y-137900000D02*
X124500000Y-136500000D01*
X124500000Y-136500000D02*
X119700000Y-131700000D01*
X133500000Y-135100000D02*
X130700000Y-137900000D01*
X130700000Y-137900000D02*
X124500000Y-137900000D01*
D16*
X164000000Y-123000000D02*
X166001020Y-123000000D01*
X162800000Y-124200000D02*
X164000000Y-123000000D01*
X140100000Y-115300000D02*
X149000000Y-124200000D01*
X149000000Y-124200000D02*
X162800000Y-124200000D01*
X140648951Y-117051047D02*
X140248952Y-116651048D01*
X169998980Y-123000000D02*
X167898980Y-125100000D01*
X148697904Y-125100000D02*
X140648951Y-117051047D01*
X167898980Y-125100000D02*
X148697904Y-125100000D01*
D15*
X148011911Y-63388089D02*
X146200000Y-65200000D01*
X146200000Y-65200000D02*
X144900000Y-65200000D01*
X171997960Y-65000000D02*
X170386049Y-63388089D01*
X170386049Y-63388089D02*
X148011911Y-63388089D01*
X152736198Y-62900000D02*
X145900000Y-62900000D01*
X145900000Y-62900000D02*
X145400000Y-63400000D01*
X177898960Y-62900000D02*
X152736198Y-62900000D01*
X179998960Y-65000000D02*
X177898960Y-62900000D01*
X164613493Y-103650011D02*
X164151680Y-104111824D01*
X167161100Y-102611800D02*
X166122889Y-103650011D01*
X141924575Y-103951257D02*
X141734535Y-103951257D01*
X142363998Y-103511834D02*
X141924575Y-103951257D01*
X143036002Y-103511834D02*
X142363998Y-103511834D01*
X166122889Y-103650011D02*
X164613493Y-103650011D01*
X164151680Y-104111824D02*
X143635992Y-104111824D01*
X167250000Y-102611800D02*
X167161100Y-102611800D01*
X143635992Y-104111824D02*
X143036002Y-103511834D01*
X142198309Y-103111823D02*
X142110177Y-103199955D01*
X142110177Y-103199955D02*
X141291623Y-103199955D01*
X164505004Y-103192800D02*
X163985991Y-103711813D01*
X164980100Y-103192800D02*
X164505004Y-103192800D01*
X165561100Y-102611800D02*
X164980100Y-103192800D01*
X165650000Y-102611800D02*
X165561100Y-102611800D01*
X143801681Y-103711813D02*
X143201691Y-103111823D01*
X143201691Y-103111823D02*
X142198309Y-103111823D01*
X163985991Y-103711813D02*
X143801681Y-103711813D01*
X141291623Y-103199955D02*
X141135574Y-103043906D01*
X148600000Y-91500000D02*
X148600000Y-92250000D01*
X144750000Y-92550000D02*
X144200000Y-92000000D01*
X148600000Y-92250000D02*
X148300000Y-92550000D01*
X148300000Y-92550000D02*
X144750000Y-92550000D01*
X144200000Y-92000000D02*
X144200000Y-91300000D01*
X154732137Y-93350022D02*
X155782170Y-92299989D01*
X142150000Y-92850000D02*
X142650022Y-93350022D01*
X155782170Y-92299989D02*
X156182169Y-91899990D01*
X142650022Y-93350022D02*
X154732137Y-93350022D01*
X143499999Y-87850001D02*
X145100001Y-87850001D01*
X146750000Y-89500000D02*
X167750000Y-89500000D01*
X143100000Y-88250000D02*
X143499999Y-87850001D01*
X145100001Y-87850001D02*
X146750000Y-89500000D01*
X167750000Y-89500000D02*
X171350000Y-93100000D01*
X171350000Y-93100000D02*
X177650000Y-93100000D01*
X177650000Y-93100000D02*
X178220000Y-92530000D01*
X178220000Y-92530000D02*
X178220000Y-91500000D01*
X185770000Y-91500000D02*
X185770000Y-93230000D01*
X185770000Y-93230000D02*
X185099978Y-93900022D01*
X185099978Y-93900022D02*
X171018622Y-93900022D01*
X171018622Y-93900022D02*
X167418622Y-90300022D01*
X167418622Y-90300022D02*
X145991427Y-90300022D01*
X145991427Y-90300022D02*
X145459049Y-89767644D01*
X145459049Y-89767644D02*
X144893364Y-89767644D01*
X139954117Y-106100001D02*
X139712630Y-105858514D01*
X139712630Y-105858514D02*
X139312631Y-105458515D01*
X171961100Y-102611800D02*
X171261098Y-103311802D01*
X141238143Y-105311857D02*
X140449999Y-106100001D01*
X140449999Y-106100001D02*
X139954117Y-106100001D01*
X164648747Y-105311857D02*
X141238143Y-105311857D01*
X165110560Y-104850044D02*
X164648747Y-105311857D01*
X168213460Y-104850044D02*
X165110560Y-104850044D01*
X169751702Y-103311802D02*
X168213460Y-104850044D01*
X171261098Y-103311802D02*
X169751702Y-103311802D01*
X172050000Y-102611800D02*
X171961100Y-102611800D01*
X142155532Y-106400118D02*
X141589847Y-106400118D01*
X164814436Y-105711868D02*
X142843782Y-105711868D01*
X165276249Y-105250055D02*
X164814436Y-105711868D01*
X173650000Y-102611800D02*
X173561100Y-102611800D01*
X173561100Y-102611800D02*
X172272900Y-103900000D01*
X172272900Y-103900000D02*
X169729204Y-103900000D01*
X169729204Y-103900000D02*
X168379149Y-105250055D01*
X168379149Y-105250055D02*
X165276249Y-105250055D01*
X142843782Y-105711868D02*
X142155532Y-106400118D01*
X158072092Y-92350040D02*
X158472091Y-91950041D01*
X156672099Y-93750033D02*
X158072092Y-92350040D01*
X141998312Y-93750033D02*
X156672099Y-93750033D01*
X141151400Y-92903121D02*
X141998312Y-93750033D01*
X143088240Y-102425423D02*
X142487072Y-102425423D01*
X143974619Y-103311802D02*
X143088240Y-102425423D01*
X163961100Y-102611800D02*
X163261098Y-103311802D01*
X163261098Y-103311802D02*
X143974619Y-103311802D01*
X164050000Y-102611800D02*
X163961100Y-102611800D01*
X142487072Y-102425423D02*
X141921387Y-102425423D01*
X150850000Y-91570059D02*
X150870018Y-91550041D01*
X144250011Y-92950011D02*
X150349989Y-92950011D01*
X143400000Y-92100000D02*
X144250011Y-92950011D01*
X150850000Y-92450000D02*
X150850000Y-91570059D01*
X150349989Y-92950011D02*
X150850000Y-92450000D01*
X162450000Y-102611800D02*
X162161800Y-102900000D01*
X162161800Y-102900000D02*
X144128517Y-102900000D01*
X144128517Y-102900000D02*
X142428517Y-101200000D01*
X142428517Y-101200000D02*
X141165685Y-101200000D01*
X141165685Y-101200000D02*
X140600000Y-101200000D01*
X144400000Y-88850000D02*
X145534300Y-88850000D01*
X180500000Y-91550000D02*
X180500000Y-91500000D01*
X145534300Y-88850000D02*
X146584311Y-89900011D01*
X146584311Y-89900011D02*
X167584311Y-89900011D01*
X167584311Y-89900011D02*
X171184311Y-93500011D01*
X171184311Y-93500011D02*
X178549989Y-93500011D01*
X178549989Y-93500011D02*
X180500000Y-91550000D01*
X142999999Y-104511835D02*
X142700000Y-104211836D01*
X167322878Y-104050022D02*
X164779182Y-104050022D01*
X168761100Y-102611800D02*
X167322878Y-104050022D01*
X164317369Y-104511835D02*
X142999999Y-104511835D01*
X164779182Y-104050022D02*
X164317369Y-104511835D01*
X168850000Y-102611800D02*
X168761100Y-102611800D01*
X164483058Y-104911846D02*
X140648189Y-104911846D01*
X164944871Y-104450033D02*
X164483058Y-104911846D01*
X168047771Y-104450033D02*
X164944871Y-104450033D01*
X169886004Y-102611800D02*
X168047771Y-104450033D01*
X140648189Y-104911846D02*
X140301047Y-105258988D01*
X170450000Y-102611800D02*
X169886004Y-102611800D01*
X188050000Y-91500000D02*
X188050000Y-91600000D01*
X188050000Y-91600000D02*
X185349967Y-94300033D01*
X185349967Y-94300033D02*
X170852933Y-94300033D01*
X145684318Y-90700033D02*
X145534307Y-90550022D01*
X144094028Y-90550022D02*
X144077935Y-90533929D01*
X170852933Y-94300033D02*
X167252933Y-90700033D01*
X167252933Y-90700033D02*
X145684318Y-90700033D01*
X145534307Y-90550022D02*
X144094028Y-90550022D01*
X144077935Y-90533929D02*
X143677936Y-90133930D01*
G36*
X212841170Y-51020717D02*
X212923293Y-51218981D01*
X212923296Y-51218984D01*
X214007155Y-52841094D01*
X214007157Y-52841098D01*
X214083030Y-52916970D01*
X214158902Y-52992843D01*
X214158906Y-52992845D01*
X215781017Y-54076705D01*
X215781019Y-54076707D01*
X215979283Y-54158830D01*
X217450000Y-54451374D01*
X217450000Y-133548626D01*
X215979283Y-133841170D01*
X215781019Y-133923293D01*
X215781017Y-133923295D01*
X214158906Y-135007155D01*
X214158902Y-135007157D01*
X214083030Y-135083030D01*
X214007157Y-135158902D01*
X214007155Y-135158906D01*
X212923296Y-136781016D01*
X212923293Y-136781019D01*
X212841170Y-136979283D01*
X212548626Y-138450000D01*
X123451374Y-138450000D01*
X123158830Y-136979283D01*
X123076707Y-136781019D01*
X123076705Y-136781017D01*
X121992845Y-135158906D01*
X121992843Y-135158902D01*
X121916970Y-135083030D01*
X121841098Y-135007157D01*
X121841094Y-135007155D01*
X120218984Y-133923296D01*
X120218981Y-133923293D01*
X120020717Y-133841170D01*
X118550000Y-133548626D01*
X118550000Y-130696014D01*
X150800423Y-130696014D01*
X151104244Y-131431316D01*
X151666325Y-131994379D01*
X152401096Y-132299482D01*
X153196694Y-132300177D01*
X153931996Y-131996356D01*
X154495059Y-131434275D01*
X154800162Y-130699504D01*
X154800165Y-130696014D01*
X181199143Y-130696014D01*
X181502964Y-131431316D01*
X182065045Y-131994379D01*
X182799816Y-132299482D01*
X183595414Y-132300177D01*
X184330716Y-131996356D01*
X184893779Y-131434275D01*
X185198882Y-130699504D01*
X185199577Y-129903906D01*
X184895756Y-129168604D01*
X184333675Y-128605541D01*
X183598904Y-128300438D01*
X182803306Y-128299743D01*
X182068004Y-128603564D01*
X181504941Y-129165645D01*
X181199838Y-129900416D01*
X181199143Y-130696014D01*
X154800165Y-130696014D01*
X154800857Y-129903906D01*
X154497036Y-129168604D01*
X153934955Y-128605541D01*
X153200184Y-128300438D01*
X152404586Y-128299743D01*
X151669284Y-128603564D01*
X151106221Y-129165645D01*
X150801118Y-129900416D01*
X150800423Y-130696014D01*
X118550000Y-130696014D01*
X118550000Y-115478236D01*
X139199844Y-115478236D01*
X139336572Y-115809143D01*
X139577077Y-116050068D01*
X139486414Y-116140573D01*
X139349109Y-116471242D01*
X139348796Y-116829284D01*
X139485524Y-117160191D01*
X139738477Y-117413586D01*
X140069146Y-117550891D01*
X140088152Y-117550908D01*
X148167574Y-125630330D01*
X148410891Y-125792910D01*
X148697904Y-125850000D01*
X162587339Y-125850000D01*
X162466873Y-125970256D01*
X162190446Y-126635968D01*
X162189817Y-127356790D01*
X162465082Y-128022983D01*
X162974336Y-128533127D01*
X163640048Y-128809554D01*
X164360870Y-128810183D01*
X165027063Y-128534918D01*
X165537207Y-128025664D01*
X165813634Y-127359952D01*
X165814263Y-126639130D01*
X165538998Y-125972937D01*
X165416275Y-125850000D01*
X166585299Y-125850000D01*
X166464833Y-125970256D01*
X166188406Y-126635968D01*
X166187777Y-127356790D01*
X166463042Y-128022983D01*
X166972296Y-128533127D01*
X167638008Y-128809554D01*
X168358830Y-128810183D01*
X169025023Y-128534918D01*
X169535167Y-128025664D01*
X169811594Y-127359952D01*
X169811596Y-127356790D01*
X170185737Y-127356790D01*
X170461002Y-128022983D01*
X170970256Y-128533127D01*
X171635968Y-128809554D01*
X172356790Y-128810183D01*
X173022983Y-128534918D01*
X173533127Y-128025664D01*
X173809554Y-127359952D01*
X173810183Y-126639130D01*
X173534918Y-125972937D01*
X173025664Y-125462793D01*
X172359952Y-125186366D01*
X171639130Y-125185737D01*
X170972937Y-125461002D01*
X170462793Y-125970256D01*
X170186366Y-126635968D01*
X170185737Y-127356790D01*
X169811596Y-127356790D01*
X169812223Y-126639130D01*
X169536958Y-125972937D01*
X169027704Y-125462793D01*
X168723262Y-125336378D01*
X169362163Y-124697477D01*
X169636988Y-124811594D01*
X170357810Y-124812223D01*
X171024003Y-124536958D01*
X171534147Y-124027704D01*
X171810574Y-123361992D01*
X171811203Y-122641170D01*
X171535938Y-121974977D01*
X171026684Y-121464833D01*
X170360972Y-121188406D01*
X169640150Y-121187777D01*
X168973957Y-121463042D01*
X168463813Y-121972296D01*
X168187386Y-122638008D01*
X168186757Y-123358830D01*
X168301585Y-123636735D01*
X167588320Y-124350000D01*
X167213328Y-124350000D01*
X167536187Y-124027704D01*
X167812614Y-123361992D01*
X167813243Y-122641170D01*
X167537978Y-121974977D01*
X167028724Y-121464833D01*
X166363012Y-121188406D01*
X165642190Y-121187777D01*
X164975997Y-121463042D01*
X164465853Y-121972296D01*
X164350541Y-122250000D01*
X164000000Y-122250000D01*
X163712987Y-122307090D01*
X163469670Y-122469670D01*
X162489340Y-123450000D01*
X149310660Y-123450000D01*
X143550790Y-117690130D01*
X162180335Y-117690130D01*
X162180335Y-120313950D01*
X162219141Y-120509040D01*
X162329650Y-120674430D01*
X162495040Y-120784939D01*
X162690130Y-120823745D01*
X165313950Y-120823745D01*
X165509040Y-120784939D01*
X165674430Y-120674430D01*
X165784939Y-120509040D01*
X165823745Y-120313950D01*
X165823745Y-120237515D01*
X166799880Y-120237515D01*
X166934446Y-120511182D01*
X167593080Y-120804075D01*
X168313663Y-120822624D01*
X168986495Y-120564006D01*
X169065554Y-120511182D01*
X169200120Y-120237515D01*
X168000000Y-119037395D01*
X166799880Y-120237515D01*
X165823745Y-120237515D01*
X165823745Y-119315703D01*
X166179416Y-119315703D01*
X166438034Y-119988535D01*
X166490858Y-120067594D01*
X166764525Y-120202160D01*
X167964645Y-119002040D01*
X168035355Y-119002040D01*
X169235475Y-120202160D01*
X169509142Y-120067594D01*
X169802035Y-119408960D01*
X169803272Y-119360870D01*
X170185737Y-119360870D01*
X170461002Y-120027063D01*
X170970256Y-120537207D01*
X171635968Y-120813634D01*
X172356790Y-120814263D01*
X173022983Y-120538998D01*
X173533127Y-120029744D01*
X173809554Y-119364032D01*
X173810183Y-118643210D01*
X173534918Y-117977017D01*
X173025664Y-117466873D01*
X172359952Y-117190446D01*
X171639130Y-117189817D01*
X170972937Y-117465082D01*
X170462793Y-117974336D01*
X170186366Y-118640048D01*
X170185737Y-119360870D01*
X169803272Y-119360870D01*
X169820584Y-118688377D01*
X169561966Y-118015545D01*
X169509142Y-117936486D01*
X169235475Y-117801920D01*
X168035355Y-119002040D01*
X167964645Y-119002040D01*
X166764525Y-117801920D01*
X166490858Y-117936486D01*
X166197965Y-118595120D01*
X166179416Y-119315703D01*
X165823745Y-119315703D01*
X165823745Y-117766565D01*
X166799880Y-117766565D01*
X168000000Y-118966685D01*
X169200120Y-117766565D01*
X169065554Y-117492898D01*
X168406920Y-117200005D01*
X167686337Y-117181456D01*
X167013505Y-117440074D01*
X166934446Y-117492898D01*
X166799880Y-117766565D01*
X165823745Y-117766565D01*
X165823745Y-117690130D01*
X165784939Y-117495040D01*
X165674430Y-117329650D01*
X165509040Y-117219141D01*
X165313950Y-117180335D01*
X162690130Y-117180335D01*
X162495040Y-117219141D01*
X162329650Y-117329650D01*
X162219141Y-117495040D01*
X162180335Y-117690130D01*
X143550790Y-117690130D01*
X141000141Y-115139481D01*
X141000156Y-115121764D01*
X140863428Y-114790857D01*
X140610475Y-114537462D01*
X140279806Y-114400157D01*
X139921764Y-114399844D01*
X139590857Y-114536572D01*
X139337462Y-114789525D01*
X139200157Y-115120194D01*
X139199844Y-115478236D01*
X118550000Y-115478236D01*
X118550000Y-112598514D01*
X152301563Y-112598514D01*
X152605384Y-113333816D01*
X153167465Y-113896879D01*
X153902236Y-114201982D01*
X154697834Y-114202677D01*
X155433136Y-113898856D01*
X155996199Y-113336775D01*
X156301302Y-112602004D01*
X156301305Y-112598514D01*
X179698003Y-112598514D01*
X180001824Y-113333816D01*
X180563905Y-113896879D01*
X181298676Y-114201982D01*
X182094274Y-114202677D01*
X182829576Y-113898856D01*
X183392639Y-113336775D01*
X183697742Y-112602004D01*
X183698437Y-111806406D01*
X183394616Y-111071104D01*
X182832535Y-110508041D01*
X182097764Y-110202938D01*
X181302166Y-110202243D01*
X180566864Y-110506064D01*
X180003801Y-111068145D01*
X179698698Y-111802916D01*
X179698003Y-112598514D01*
X156301305Y-112598514D01*
X156301997Y-111806406D01*
X155998176Y-111071104D01*
X155436095Y-110508041D01*
X154701324Y-110202938D01*
X153905726Y-110202243D01*
X153170424Y-110506064D01*
X152607361Y-111068145D01*
X152302258Y-111802916D01*
X152301563Y-112598514D01*
X118550000Y-112598514D01*
X118550000Y-105636751D01*
X138412475Y-105636751D01*
X138549203Y-105967658D01*
X138802156Y-106221053D01*
X139132825Y-106358358D01*
X139364148Y-106358560D01*
X139529853Y-106524265D01*
X139724507Y-106654329D01*
X139954117Y-106700001D01*
X140449999Y-106700001D01*
X140679609Y-106654329D01*
X140712110Y-106632612D01*
X140826419Y-106909261D01*
X141079372Y-107162656D01*
X141410041Y-107299961D01*
X141768083Y-107300274D01*
X142098990Y-107163546D01*
X142289372Y-106973496D01*
X142385142Y-106954446D01*
X142579796Y-106824382D01*
X143092310Y-106311868D01*
X164814436Y-106311868D01*
X165044046Y-106266196D01*
X165238700Y-106136132D01*
X165524777Y-105850055D01*
X168379149Y-105850055D01*
X168608759Y-105804383D01*
X168803413Y-105674319D01*
X169977732Y-104500000D01*
X172272900Y-104500000D01*
X172502510Y-104454328D01*
X172697164Y-104324264D01*
X173509750Y-103511678D01*
X173828236Y-103511956D01*
X174159143Y-103375228D01*
X174412538Y-103122275D01*
X174549843Y-102791606D01*
X174550156Y-102433564D01*
X174413428Y-102102657D01*
X174160475Y-101849262D01*
X173829806Y-101711957D01*
X173471764Y-101711644D01*
X173140857Y-101848372D01*
X172887462Y-102101325D01*
X172850078Y-102191356D01*
X172813428Y-102102657D01*
X172560475Y-101849262D01*
X172229806Y-101711957D01*
X171871764Y-101711644D01*
X171540857Y-101848372D01*
X171287462Y-102101325D01*
X171250078Y-102191356D01*
X171213428Y-102102657D01*
X170960475Y-101849262D01*
X170629806Y-101711957D01*
X170271764Y-101711644D01*
X169940857Y-101848372D01*
X169750054Y-102038842D01*
X169656394Y-102057472D01*
X169603562Y-102092773D01*
X169360475Y-101849262D01*
X169029806Y-101711957D01*
X168671764Y-101711644D01*
X168340857Y-101848372D01*
X168087462Y-102101325D01*
X168050078Y-102191356D01*
X168013428Y-102102657D01*
X167760475Y-101849262D01*
X167429806Y-101711957D01*
X167071764Y-101711644D01*
X166740857Y-101848372D01*
X166487462Y-102101325D01*
X166450078Y-102191356D01*
X166413428Y-102102657D01*
X166160475Y-101849262D01*
X165829806Y-101711957D01*
X165471764Y-101711644D01*
X165140857Y-101848372D01*
X164887462Y-102101325D01*
X164850078Y-102191356D01*
X164813428Y-102102657D01*
X164560475Y-101849262D01*
X164229806Y-101711957D01*
X163871764Y-101711644D01*
X163540857Y-101848372D01*
X163287462Y-102101325D01*
X163250078Y-102191356D01*
X163213428Y-102102657D01*
X162960475Y-101849262D01*
X162629806Y-101711957D01*
X162271764Y-101711644D01*
X161940857Y-101848372D01*
X161687462Y-102101325D01*
X161604965Y-102300000D01*
X144377045Y-102300000D01*
X142852781Y-100775736D01*
X142658127Y-100645672D01*
X142428517Y-100600000D01*
X141272729Y-100600000D01*
X141110475Y-100437462D01*
X140779806Y-100300157D01*
X140421764Y-100299844D01*
X140090857Y-100436572D01*
X139837462Y-100689525D01*
X139700157Y-101020194D01*
X139699844Y-101378236D01*
X139836572Y-101709143D01*
X140089525Y-101962538D01*
X140420194Y-102099843D01*
X140778236Y-102100156D01*
X141109143Y-101963428D01*
X141272857Y-101800000D01*
X141273998Y-101800000D01*
X141158849Y-101914948D01*
X141063804Y-102143843D01*
X140957338Y-102143750D01*
X140626431Y-102280478D01*
X140373036Y-102533431D01*
X140235731Y-102864100D01*
X140235418Y-103222142D01*
X140372146Y-103553049D01*
X140625099Y-103806444D01*
X140834585Y-103893430D01*
X140834379Y-104129493D01*
X140909726Y-104311846D01*
X140648189Y-104311846D01*
X140418579Y-104357518D01*
X140416229Y-104359089D01*
X140122811Y-104358832D01*
X139791904Y-104495560D01*
X139659281Y-104627951D01*
X139492437Y-104558672D01*
X139134395Y-104558359D01*
X138803488Y-104695087D01*
X138550093Y-104948040D01*
X138412788Y-105278709D01*
X138412475Y-105636751D01*
X118550000Y-105636751D01*
X118550000Y-93081357D01*
X140251244Y-93081357D01*
X140387972Y-93412264D01*
X140640925Y-93665659D01*
X140971594Y-93802964D01*
X141202917Y-93803166D01*
X141574048Y-94174297D01*
X141768701Y-94304361D01*
X141998312Y-94350033D01*
X156672099Y-94350033D01*
X156901709Y-94304361D01*
X157096363Y-94174297D01*
X158420664Y-92849996D01*
X158650327Y-92850197D01*
X158981234Y-92713469D01*
X159234629Y-92460516D01*
X159371934Y-92129847D01*
X159372247Y-91771805D01*
X159235519Y-91440898D01*
X159094900Y-91300033D01*
X167004405Y-91300033D01*
X170428669Y-94724297D01*
X170623323Y-94854361D01*
X170852933Y-94900033D01*
X185349967Y-94900033D01*
X185579577Y-94854361D01*
X185774231Y-94724297D01*
X188098485Y-92400043D01*
X188228236Y-92400156D01*
X188559143Y-92263428D01*
X188812538Y-92010475D01*
X188949843Y-91679806D01*
X188950156Y-91321764D01*
X188813428Y-90990857D01*
X188560475Y-90737462D01*
X188229806Y-90600157D01*
X187871764Y-90599844D01*
X187540857Y-90736572D01*
X187287462Y-90989525D01*
X187150157Y-91320194D01*
X187149867Y-91651605D01*
X186370000Y-92431472D01*
X186370000Y-92172729D01*
X186532538Y-92010475D01*
X186669843Y-91679806D01*
X186670156Y-91321764D01*
X186533428Y-90990857D01*
X186280475Y-90737462D01*
X185949806Y-90600157D01*
X185591764Y-90599844D01*
X185260857Y-90736572D01*
X185007462Y-90989525D01*
X184870157Y-91320194D01*
X184869844Y-91678236D01*
X185006572Y-92009143D01*
X185170000Y-92172857D01*
X185170000Y-92981472D01*
X184851450Y-93300022D01*
X179598506Y-93300022D01*
X180498529Y-92399999D01*
X180678236Y-92400156D01*
X181009143Y-92263428D01*
X181262538Y-92010475D01*
X181399843Y-91679806D01*
X181400156Y-91321764D01*
X181263428Y-90990857D01*
X181010475Y-90737462D01*
X180679806Y-90600157D01*
X180321764Y-90599844D01*
X179990857Y-90736572D01*
X179737462Y-90989525D01*
X179600157Y-91320194D01*
X179599911Y-91601561D01*
X178820000Y-92381472D01*
X178820000Y-92172729D01*
X178982538Y-92010475D01*
X179119843Y-91679806D01*
X179120156Y-91321764D01*
X178983428Y-90990857D01*
X178730475Y-90737462D01*
X178399806Y-90600157D01*
X178041764Y-90599844D01*
X177710857Y-90736572D01*
X177457462Y-90989525D01*
X177320157Y-91320194D01*
X177319844Y-91678236D01*
X177456572Y-92009143D01*
X177620000Y-92172857D01*
X177620000Y-92281472D01*
X177401472Y-92500000D01*
X171598528Y-92500000D01*
X168174264Y-89075736D01*
X167979610Y-88945672D01*
X167750000Y-88900000D01*
X146998528Y-88900000D01*
X145524265Y-87425737D01*
X145329611Y-87295673D01*
X145100001Y-87250001D01*
X143499999Y-87250001D01*
X143270389Y-87295673D01*
X143188967Y-87350078D01*
X142921764Y-87349844D01*
X142590857Y-87486572D01*
X142337462Y-87739525D01*
X142200157Y-88070194D01*
X142199844Y-88428236D01*
X142336572Y-88759143D01*
X142589525Y-89012538D01*
X142920194Y-89149843D01*
X143278236Y-89150156D01*
X143510557Y-89054163D01*
X143584801Y-89233848D01*
X143499700Y-89233774D01*
X143168793Y-89370502D01*
X142915398Y-89623455D01*
X142778093Y-89954124D01*
X142777780Y-90312166D01*
X142914508Y-90643073D01*
X143167461Y-90896468D01*
X143359879Y-90976367D01*
X143300157Y-91120194D01*
X143300087Y-91199912D01*
X143221764Y-91199844D01*
X142890857Y-91336572D01*
X142637462Y-91589525D01*
X142500157Y-91920194D01*
X142500069Y-92020856D01*
X142329806Y-91950157D01*
X141971764Y-91949844D01*
X141640857Y-92086572D01*
X141608820Y-92118553D01*
X141331206Y-92003278D01*
X140973164Y-92002965D01*
X140642257Y-92139693D01*
X140388862Y-92392646D01*
X140251557Y-92723315D01*
X140251244Y-93081357D01*
X118550000Y-93081357D01*
X118550000Y-72696014D01*
X140800443Y-72696014D01*
X141104264Y-73431316D01*
X141666345Y-73994379D01*
X142401116Y-74299482D01*
X143196714Y-74300177D01*
X143932016Y-73996356D01*
X144495079Y-73434275D01*
X144800182Y-72699504D01*
X144800185Y-72696014D01*
X191199123Y-72696014D01*
X191502944Y-73431316D01*
X192065025Y-73994379D01*
X192799796Y-74299482D01*
X193595394Y-74300177D01*
X194330696Y-73996356D01*
X194893759Y-73434275D01*
X195198862Y-72699504D01*
X195199557Y-71903906D01*
X194895736Y-71168604D01*
X194333655Y-70605541D01*
X193598884Y-70300438D01*
X192803286Y-70299743D01*
X192067984Y-70603564D01*
X191504921Y-71165645D01*
X191199818Y-71900416D01*
X191199123Y-72696014D01*
X144800185Y-72696014D01*
X144800877Y-71903906D01*
X144497056Y-71168604D01*
X143934975Y-70605541D01*
X143200204Y-70300438D01*
X142404606Y-70299743D01*
X141669304Y-70603564D01*
X141106241Y-71165645D01*
X140801138Y-71900416D01*
X140800443Y-72696014D01*
X118550000Y-72696014D01*
X118550000Y-69356790D01*
X152189837Y-69356790D01*
X152465102Y-70022983D01*
X152974356Y-70533127D01*
X153640068Y-70809554D01*
X154360890Y-70810183D01*
X155027083Y-70534918D01*
X155537227Y-70025664D01*
X155813654Y-69359952D01*
X155813656Y-69356790D01*
X156187797Y-69356790D01*
X156463062Y-70022983D01*
X156972316Y-70533127D01*
X157638028Y-70809554D01*
X158358850Y-70810183D01*
X159025043Y-70534918D01*
X159535187Y-70025664D01*
X159811614Y-69359952D01*
X159811616Y-69356790D01*
X160188297Y-69356790D01*
X160463562Y-70022983D01*
X160972816Y-70533127D01*
X161638528Y-70809554D01*
X162359350Y-70810183D01*
X163025543Y-70534918D01*
X163535687Y-70025664D01*
X163812114Y-69359952D01*
X163812116Y-69356790D01*
X164188797Y-69356790D01*
X164464062Y-70022983D01*
X164973316Y-70533127D01*
X165639028Y-70809554D01*
X166359850Y-70810183D01*
X167026043Y-70534918D01*
X167536187Y-70025664D01*
X167812614Y-69359952D01*
X167812616Y-69356790D01*
X168186757Y-69356790D01*
X168462022Y-70022983D01*
X168971276Y-70533127D01*
X169636988Y-70809554D01*
X170357810Y-70810183D01*
X171024003Y-70534918D01*
X171534147Y-70025664D01*
X171810574Y-69359952D01*
X171810576Y-69356790D01*
X172187257Y-69356790D01*
X172462522Y-70022983D01*
X172971776Y-70533127D01*
X173637488Y-70809554D01*
X174358310Y-70810183D01*
X175024503Y-70534918D01*
X175534647Y-70025664D01*
X175811074Y-69359952D01*
X175811076Y-69356790D01*
X176187757Y-69356790D01*
X176463022Y-70022983D01*
X176972276Y-70533127D01*
X177637988Y-70809554D01*
X178358810Y-70810183D01*
X179025003Y-70534918D01*
X179535147Y-70025664D01*
X179811574Y-69359952D01*
X179811576Y-69356790D01*
X180185717Y-69356790D01*
X180460982Y-70022983D01*
X180970236Y-70533127D01*
X181635948Y-70809554D01*
X182356770Y-70810183D01*
X183022963Y-70534918D01*
X183533107Y-70025664D01*
X183809534Y-69359952D01*
X183810163Y-68639130D01*
X183534898Y-67972937D01*
X183025644Y-67462793D01*
X182359932Y-67186366D01*
X181639110Y-67185737D01*
X180972917Y-67461002D01*
X180462773Y-67970256D01*
X180186346Y-68635968D01*
X180185717Y-69356790D01*
X179811576Y-69356790D01*
X179812203Y-68639130D01*
X179536938Y-67972937D01*
X179027684Y-67462793D01*
X178361972Y-67186366D01*
X177641150Y-67185737D01*
X176974957Y-67461002D01*
X176464813Y-67970256D01*
X176188386Y-68635968D01*
X176187757Y-69356790D01*
X175811076Y-69356790D01*
X175811703Y-68639130D01*
X175536438Y-67972937D01*
X175027184Y-67462793D01*
X174361472Y-67186366D01*
X173640650Y-67185737D01*
X172974457Y-67461002D01*
X172464313Y-67970256D01*
X172187886Y-68635968D01*
X172187257Y-69356790D01*
X171810576Y-69356790D01*
X171811203Y-68639130D01*
X171535938Y-67972937D01*
X171026684Y-67462793D01*
X170360972Y-67186366D01*
X169640150Y-67185737D01*
X168973957Y-67461002D01*
X168463813Y-67970256D01*
X168187386Y-68635968D01*
X168186757Y-69356790D01*
X167812616Y-69356790D01*
X167813243Y-68639130D01*
X167537978Y-67972937D01*
X167028724Y-67462793D01*
X166363012Y-67186366D01*
X165642190Y-67185737D01*
X164975997Y-67461002D01*
X164465853Y-67970256D01*
X164189426Y-68635968D01*
X164188797Y-69356790D01*
X163812116Y-69356790D01*
X163812743Y-68639130D01*
X163537478Y-67972937D01*
X163028224Y-67462793D01*
X162362512Y-67186366D01*
X161641690Y-67185737D01*
X160975497Y-67461002D01*
X160465353Y-67970256D01*
X160188926Y-68635968D01*
X160188297Y-69356790D01*
X159811616Y-69356790D01*
X159812243Y-68639130D01*
X159536978Y-67972937D01*
X159027724Y-67462793D01*
X158362012Y-67186366D01*
X157641190Y-67185737D01*
X156974997Y-67461002D01*
X156464853Y-67970256D01*
X156188426Y-68635968D01*
X156187797Y-69356790D01*
X155813656Y-69356790D01*
X155814283Y-68639130D01*
X155539018Y-67972937D01*
X155029764Y-67462793D01*
X154364052Y-67186366D01*
X153643230Y-67185737D01*
X152977037Y-67461002D01*
X152466893Y-67970256D01*
X152190466Y-68635968D01*
X152189837Y-69356790D01*
X118550000Y-69356790D01*
X118550000Y-65378236D01*
X143999844Y-65378236D01*
X144136572Y-65709143D01*
X144389525Y-65962538D01*
X144720194Y-66099843D01*
X145078236Y-66100156D01*
X145409143Y-65963428D01*
X145572857Y-65800000D01*
X146200000Y-65800000D01*
X146429610Y-65754328D01*
X146624264Y-65624264D01*
X148260439Y-63988089D01*
X154459315Y-63988089D01*
X154189446Y-64638008D01*
X154188817Y-65358830D01*
X154464082Y-66025023D01*
X154973336Y-66535167D01*
X155639048Y-66811594D01*
X156359870Y-66812223D01*
X157026063Y-66536958D01*
X157536207Y-66027704D01*
X157812634Y-65361992D01*
X157813263Y-64641170D01*
X157543416Y-63988089D01*
X158459815Y-63988089D01*
X158189946Y-64638008D01*
X158189317Y-65358830D01*
X158464582Y-66025023D01*
X158973836Y-66535167D01*
X159639548Y-66811594D01*
X160360370Y-66812223D01*
X161026563Y-66536958D01*
X161536707Y-66027704D01*
X161813134Y-65361992D01*
X161813763Y-64641170D01*
X161543916Y-63988089D01*
X162460315Y-63988089D01*
X162190446Y-64638008D01*
X162189817Y-65358830D01*
X162465082Y-66025023D01*
X162974336Y-66535167D01*
X163640048Y-66811594D01*
X164360870Y-66812223D01*
X165027063Y-66536958D01*
X165537207Y-66027704D01*
X165813634Y-65361992D01*
X165814263Y-64641170D01*
X165544416Y-63988089D01*
X166458275Y-63988089D01*
X166188406Y-64638008D01*
X166187777Y-65358830D01*
X166463042Y-66025023D01*
X166972296Y-66535167D01*
X167638008Y-66811594D01*
X168358830Y-66812223D01*
X169025023Y-66536958D01*
X169535167Y-66027704D01*
X169811594Y-65361992D01*
X169812223Y-64641170D01*
X169542376Y-63988089D01*
X170137521Y-63988089D01*
X170362723Y-64213291D01*
X170186366Y-64638008D01*
X170185737Y-65358830D01*
X170461002Y-66025023D01*
X170970256Y-66535167D01*
X171635968Y-66811594D01*
X172356790Y-66812223D01*
X173022983Y-66536958D01*
X173533127Y-66027704D01*
X173809554Y-65361992D01*
X173810183Y-64641170D01*
X173534918Y-63974977D01*
X173060770Y-63500000D01*
X174936414Y-63500000D01*
X174463293Y-63972296D01*
X174186866Y-64638008D01*
X174186237Y-65358830D01*
X174461502Y-66025023D01*
X174970756Y-66535167D01*
X175636468Y-66811594D01*
X176357290Y-66812223D01*
X177023483Y-66536958D01*
X177533627Y-66027704D01*
X177810054Y-65361992D01*
X177810683Y-64641170D01*
X177535418Y-63974977D01*
X177061270Y-63500000D01*
X177650432Y-63500000D01*
X178363723Y-64213291D01*
X178187366Y-64638008D01*
X178186737Y-65358830D01*
X178462002Y-66025023D01*
X178971256Y-66535167D01*
X179636968Y-66811594D01*
X180357790Y-66812223D01*
X181023983Y-66536958D01*
X181534127Y-66027704D01*
X181810554Y-65361992D01*
X181811183Y-64641170D01*
X181535918Y-63974977D01*
X181026664Y-63464833D01*
X180360952Y-63188406D01*
X179640130Y-63187777D01*
X179212116Y-63364628D01*
X178573177Y-62725689D01*
X179025003Y-62538998D01*
X179535147Y-62029744D01*
X179811574Y-61364032D01*
X179811576Y-61360870D01*
X180185717Y-61360870D01*
X180460982Y-62027063D01*
X180970236Y-62537207D01*
X181635948Y-62813634D01*
X182356770Y-62814263D01*
X183022963Y-62538998D01*
X183533107Y-62029744D01*
X183809534Y-61364032D01*
X183810163Y-60643210D01*
X183534898Y-59977017D01*
X183025644Y-59466873D01*
X182359932Y-59190446D01*
X181639110Y-59189817D01*
X180972917Y-59465082D01*
X180462773Y-59974336D01*
X180186346Y-60640048D01*
X180185717Y-61360870D01*
X179811576Y-61360870D01*
X179812203Y-60643210D01*
X179536938Y-59977017D01*
X179027684Y-59466873D01*
X178361972Y-59190446D01*
X177641150Y-59189817D01*
X176974957Y-59465082D01*
X176464813Y-59974336D01*
X176188386Y-60640048D01*
X176187757Y-61360870D01*
X176463022Y-62027063D01*
X176735483Y-62300000D01*
X175263919Y-62300000D01*
X175534647Y-62029744D01*
X175811074Y-61364032D01*
X175811703Y-60643210D01*
X175536438Y-59977017D01*
X175027184Y-59466873D01*
X174361472Y-59190446D01*
X173640650Y-59189817D01*
X172974457Y-59465082D01*
X172464313Y-59974336D01*
X172187886Y-60640048D01*
X172187257Y-61360870D01*
X172462522Y-62027063D01*
X172734983Y-62300000D01*
X171263419Y-62300000D01*
X171534147Y-62029744D01*
X171810574Y-61364032D01*
X171811203Y-60643210D01*
X171535938Y-59977017D01*
X171026684Y-59466873D01*
X170360972Y-59190446D01*
X169640150Y-59189817D01*
X168973957Y-59465082D01*
X168463813Y-59974336D01*
X168187386Y-60640048D01*
X168186757Y-61360870D01*
X168462022Y-62027063D01*
X168734483Y-62300000D01*
X167265459Y-62300000D01*
X167536187Y-62029744D01*
X167812614Y-61364032D01*
X167813243Y-60643210D01*
X167537978Y-59977017D01*
X167028724Y-59466873D01*
X166363012Y-59190446D01*
X165642190Y-59189817D01*
X164975997Y-59465082D01*
X164465853Y-59974336D01*
X164189426Y-60640048D01*
X164188797Y-61360870D01*
X164464062Y-62027063D01*
X164736523Y-62300000D01*
X163264959Y-62300000D01*
X163535687Y-62029744D01*
X163812114Y-61364032D01*
X163812743Y-60643210D01*
X163537478Y-59977017D01*
X163028224Y-59466873D01*
X162362512Y-59190446D01*
X161641690Y-59189817D01*
X160975497Y-59465082D01*
X160465353Y-59974336D01*
X160188926Y-60640048D01*
X160188297Y-61360870D01*
X160463562Y-62027063D01*
X160736023Y-62300000D01*
X159264459Y-62300000D01*
X159535187Y-62029744D01*
X159811614Y-61364032D01*
X159812243Y-60643210D01*
X159536978Y-59977017D01*
X159027724Y-59466873D01*
X158362012Y-59190446D01*
X157641190Y-59189817D01*
X156974997Y-59465082D01*
X156464853Y-59974336D01*
X156188426Y-60640048D01*
X156187797Y-61360870D01*
X156463062Y-62027063D01*
X156735523Y-62300000D01*
X155823765Y-62300000D01*
X155823765Y-59690130D01*
X155784959Y-59495040D01*
X155674450Y-59329650D01*
X155509060Y-59219141D01*
X155313970Y-59180335D01*
X152690150Y-59180335D01*
X152495060Y-59219141D01*
X152329670Y-59329650D01*
X152219161Y-59495040D01*
X152180355Y-59690130D01*
X152180355Y-62300000D01*
X145900000Y-62300000D01*
X145670390Y-62345672D01*
X145475736Y-62475736D01*
X145451427Y-62500045D01*
X145221764Y-62499844D01*
X144890857Y-62636572D01*
X144637462Y-62889525D01*
X144500157Y-63220194D01*
X144499844Y-63578236D01*
X144636572Y-63909143D01*
X144889525Y-64162538D01*
X145220194Y-64299843D01*
X145578236Y-64300156D01*
X145909143Y-64163428D01*
X146162538Y-63910475D01*
X146299843Y-63579806D01*
X146299913Y-63500000D01*
X147051472Y-63500000D01*
X145951472Y-64600000D01*
X145572729Y-64600000D01*
X145410475Y-64437462D01*
X145079806Y-64300157D01*
X144721764Y-64299844D01*
X144390857Y-64436572D01*
X144137462Y-64689525D01*
X144000157Y-65020194D01*
X143999844Y-65378236D01*
X118550000Y-65378236D01*
X118550000Y-54598514D01*
X142301583Y-54598514D01*
X142605404Y-55333816D01*
X143167485Y-55896879D01*
X143902256Y-56201982D01*
X144697854Y-56202677D01*
X145433156Y-55898856D01*
X145996219Y-55336775D01*
X146301322Y-54602004D01*
X146301325Y-54598514D01*
X189697983Y-54598514D01*
X190001804Y-55333816D01*
X190563885Y-55896879D01*
X191298656Y-56201982D01*
X192094254Y-56202677D01*
X192829556Y-55898856D01*
X193392619Y-55336775D01*
X193697722Y-54602004D01*
X193698417Y-53806406D01*
X193394596Y-53071104D01*
X192832515Y-52508041D01*
X192097744Y-52202938D01*
X191302146Y-52202243D01*
X190566844Y-52506064D01*
X190003781Y-53068145D01*
X189698678Y-53802916D01*
X189697983Y-54598514D01*
X146301325Y-54598514D01*
X146302017Y-53806406D01*
X145998196Y-53071104D01*
X145436115Y-52508041D01*
X144701344Y-52202938D01*
X143905746Y-52202243D01*
X143170444Y-52506064D01*
X142607381Y-53068145D01*
X142302278Y-53802916D01*
X142301583Y-54598514D01*
X118550000Y-54598514D01*
X118550000Y-54451374D01*
X120020717Y-54158830D01*
X120218981Y-54076707D01*
X120218984Y-54076704D01*
X121841094Y-52992845D01*
X121841098Y-52992843D01*
X121916970Y-52916970D01*
X121992843Y-52841098D01*
X121992845Y-52841094D01*
X123076705Y-51218983D01*
X123076707Y-51218981D01*
X123158830Y-51020717D01*
X123451374Y-49550000D01*
X212548626Y-49550000D01*
X212841170Y-51020717D01*
X212841170Y-51020717D01*
G37*
X212841170Y-51020717D02*
X212923293Y-51218981D01*
X212923296Y-51218984D01*
X214007155Y-52841094D01*
X214007157Y-52841098D01*
X214083030Y-52916970D01*
X214158902Y-52992843D01*
X214158906Y-52992845D01*
X215781017Y-54076705D01*
X215781019Y-54076707D01*
X215979283Y-54158830D01*
X217450000Y-54451374D01*
X217450000Y-133548626D01*
X215979283Y-133841170D01*
X215781019Y-133923293D01*
X215781017Y-133923295D01*
X214158906Y-135007155D01*
X214158902Y-135007157D01*
X214083030Y-135083030D01*
X214007157Y-135158902D01*
X214007155Y-135158906D01*
X212923296Y-136781016D01*
X212923293Y-136781019D01*
X212841170Y-136979283D01*
X212548626Y-138450000D01*
X123451374Y-138450000D01*
X123158830Y-136979283D01*
X123076707Y-136781019D01*
X123076705Y-136781017D01*
X121992845Y-135158906D01*
X121992843Y-135158902D01*
X121916970Y-135083030D01*
X121841098Y-135007157D01*
X121841094Y-135007155D01*
X120218984Y-133923296D01*
X120218981Y-133923293D01*
X120020717Y-133841170D01*
X118550000Y-133548626D01*
X118550000Y-130696014D01*
X150800423Y-130696014D01*
X151104244Y-131431316D01*
X151666325Y-131994379D01*
X152401096Y-132299482D01*
X153196694Y-132300177D01*
X153931996Y-131996356D01*
X154495059Y-131434275D01*
X154800162Y-130699504D01*
X154800165Y-130696014D01*
X181199143Y-130696014D01*
X181502964Y-131431316D01*
X182065045Y-131994379D01*
X182799816Y-132299482D01*
X183595414Y-132300177D01*
X184330716Y-131996356D01*
X184893779Y-131434275D01*
X185198882Y-130699504D01*
X185199577Y-129903906D01*
X184895756Y-129168604D01*
X184333675Y-128605541D01*
X183598904Y-128300438D01*
X182803306Y-128299743D01*
X182068004Y-128603564D01*
X181504941Y-129165645D01*
X181199838Y-129900416D01*
X181199143Y-130696014D01*
X154800165Y-130696014D01*
X154800857Y-129903906D01*
X154497036Y-129168604D01*
X153934955Y-128605541D01*
X153200184Y-128300438D01*
X152404586Y-128299743D01*
X151669284Y-128603564D01*
X151106221Y-129165645D01*
X150801118Y-129900416D01*
X150800423Y-130696014D01*
X118550000Y-130696014D01*
X118550000Y-115478236D01*
X139199844Y-115478236D01*
X139336572Y-115809143D01*
X139577077Y-116050068D01*
X139486414Y-116140573D01*
X139349109Y-116471242D01*
X139348796Y-116829284D01*
X139485524Y-117160191D01*
X139738477Y-117413586D01*
X140069146Y-117550891D01*
X140088152Y-117550908D01*
X148167574Y-125630330D01*
X148410891Y-125792910D01*
X148697904Y-125850000D01*
X162587339Y-125850000D01*
X162466873Y-125970256D01*
X162190446Y-126635968D01*
X162189817Y-127356790D01*
X162465082Y-128022983D01*
X162974336Y-128533127D01*
X163640048Y-128809554D01*
X164360870Y-128810183D01*
X165027063Y-128534918D01*
X165537207Y-128025664D01*
X165813634Y-127359952D01*
X165814263Y-126639130D01*
X165538998Y-125972937D01*
X165416275Y-125850000D01*
X166585299Y-125850000D01*
X166464833Y-125970256D01*
X166188406Y-126635968D01*
X166187777Y-127356790D01*
X166463042Y-128022983D01*
X166972296Y-128533127D01*
X167638008Y-128809554D01*
X168358830Y-128810183D01*
X169025023Y-128534918D01*
X169535167Y-128025664D01*
X169811594Y-127359952D01*
X169811596Y-127356790D01*
X170185737Y-127356790D01*
X170461002Y-128022983D01*
X170970256Y-128533127D01*
X171635968Y-128809554D01*
X172356790Y-128810183D01*
X173022983Y-128534918D01*
X173533127Y-128025664D01*
X173809554Y-127359952D01*
X173810183Y-126639130D01*
X173534918Y-125972937D01*
X173025664Y-125462793D01*
X172359952Y-125186366D01*
X171639130Y-125185737D01*
X170972937Y-125461002D01*
X170462793Y-125970256D01*
X170186366Y-126635968D01*
X170185737Y-127356790D01*
X169811596Y-127356790D01*
X169812223Y-126639130D01*
X169536958Y-125972937D01*
X169027704Y-125462793D01*
X168723262Y-125336378D01*
X169362163Y-124697477D01*
X169636988Y-124811594D01*
X170357810Y-124812223D01*
X171024003Y-124536958D01*
X171534147Y-124027704D01*
X171810574Y-123361992D01*
X171811203Y-122641170D01*
X171535938Y-121974977D01*
X171026684Y-121464833D01*
X170360972Y-121188406D01*
X169640150Y-121187777D01*
X168973957Y-121463042D01*
X168463813Y-121972296D01*
X168187386Y-122638008D01*
X168186757Y-123358830D01*
X168301585Y-123636735D01*
X167588320Y-124350000D01*
X167213328Y-124350000D01*
X167536187Y-124027704D01*
X167812614Y-123361992D01*
X167813243Y-122641170D01*
X167537978Y-121974977D01*
X167028724Y-121464833D01*
X166363012Y-121188406D01*
X165642190Y-121187777D01*
X164975997Y-121463042D01*
X164465853Y-121972296D01*
X164350541Y-122250000D01*
X164000000Y-122250000D01*
X163712987Y-122307090D01*
X163469670Y-122469670D01*
X162489340Y-123450000D01*
X149310660Y-123450000D01*
X143550790Y-117690130D01*
X162180335Y-117690130D01*
X162180335Y-120313950D01*
X162219141Y-120509040D01*
X162329650Y-120674430D01*
X162495040Y-120784939D01*
X162690130Y-120823745D01*
X165313950Y-120823745D01*
X165509040Y-120784939D01*
X165674430Y-120674430D01*
X165784939Y-120509040D01*
X165823745Y-120313950D01*
X165823745Y-120237515D01*
X166799880Y-120237515D01*
X166934446Y-120511182D01*
X167593080Y-120804075D01*
X168313663Y-120822624D01*
X168986495Y-120564006D01*
X169065554Y-120511182D01*
X169200120Y-120237515D01*
X168000000Y-119037395D01*
X166799880Y-120237515D01*
X165823745Y-120237515D01*
X165823745Y-119315703D01*
X166179416Y-119315703D01*
X166438034Y-119988535D01*
X166490858Y-120067594D01*
X166764525Y-120202160D01*
X167964645Y-119002040D01*
X168035355Y-119002040D01*
X169235475Y-120202160D01*
X169509142Y-120067594D01*
X169802035Y-119408960D01*
X169803272Y-119360870D01*
X170185737Y-119360870D01*
X170461002Y-120027063D01*
X170970256Y-120537207D01*
X171635968Y-120813634D01*
X172356790Y-120814263D01*
X173022983Y-120538998D01*
X173533127Y-120029744D01*
X173809554Y-119364032D01*
X173810183Y-118643210D01*
X173534918Y-117977017D01*
X173025664Y-117466873D01*
X172359952Y-117190446D01*
X171639130Y-117189817D01*
X170972937Y-117465082D01*
X170462793Y-117974336D01*
X170186366Y-118640048D01*
X170185737Y-119360870D01*
X169803272Y-119360870D01*
X169820584Y-118688377D01*
X169561966Y-118015545D01*
X169509142Y-117936486D01*
X169235475Y-117801920D01*
X168035355Y-119002040D01*
X167964645Y-119002040D01*
X166764525Y-117801920D01*
X166490858Y-117936486D01*
X166197965Y-118595120D01*
X166179416Y-119315703D01*
X165823745Y-119315703D01*
X165823745Y-117766565D01*
X166799880Y-117766565D01*
X168000000Y-118966685D01*
X169200120Y-117766565D01*
X169065554Y-117492898D01*
X168406920Y-117200005D01*
X167686337Y-117181456D01*
X167013505Y-117440074D01*
X166934446Y-117492898D01*
X166799880Y-117766565D01*
X165823745Y-117766565D01*
X165823745Y-117690130D01*
X165784939Y-117495040D01*
X165674430Y-117329650D01*
X165509040Y-117219141D01*
X165313950Y-117180335D01*
X162690130Y-117180335D01*
X162495040Y-117219141D01*
X162329650Y-117329650D01*
X162219141Y-117495040D01*
X162180335Y-117690130D01*
X143550790Y-117690130D01*
X141000141Y-115139481D01*
X141000156Y-115121764D01*
X140863428Y-114790857D01*
X140610475Y-114537462D01*
X140279806Y-114400157D01*
X139921764Y-114399844D01*
X139590857Y-114536572D01*
X139337462Y-114789525D01*
X139200157Y-115120194D01*
X139199844Y-115478236D01*
X118550000Y-115478236D01*
X118550000Y-112598514D01*
X152301563Y-112598514D01*
X152605384Y-113333816D01*
X153167465Y-113896879D01*
X153902236Y-114201982D01*
X154697834Y-114202677D01*
X155433136Y-113898856D01*
X155996199Y-113336775D01*
X156301302Y-112602004D01*
X156301305Y-112598514D01*
X179698003Y-112598514D01*
X180001824Y-113333816D01*
X180563905Y-113896879D01*
X181298676Y-114201982D01*
X182094274Y-114202677D01*
X182829576Y-113898856D01*
X183392639Y-113336775D01*
X183697742Y-112602004D01*
X183698437Y-111806406D01*
X183394616Y-111071104D01*
X182832535Y-110508041D01*
X182097764Y-110202938D01*
X181302166Y-110202243D01*
X180566864Y-110506064D01*
X180003801Y-111068145D01*
X179698698Y-111802916D01*
X179698003Y-112598514D01*
X156301305Y-112598514D01*
X156301997Y-111806406D01*
X155998176Y-111071104D01*
X155436095Y-110508041D01*
X154701324Y-110202938D01*
X153905726Y-110202243D01*
X153170424Y-110506064D01*
X152607361Y-111068145D01*
X152302258Y-111802916D01*
X152301563Y-112598514D01*
X118550000Y-112598514D01*
X118550000Y-105636751D01*
X138412475Y-105636751D01*
X138549203Y-105967658D01*
X138802156Y-106221053D01*
X139132825Y-106358358D01*
X139364148Y-106358560D01*
X139529853Y-106524265D01*
X139724507Y-106654329D01*
X139954117Y-106700001D01*
X140449999Y-106700001D01*
X140679609Y-106654329D01*
X140712110Y-106632612D01*
X140826419Y-106909261D01*
X141079372Y-107162656D01*
X141410041Y-107299961D01*
X141768083Y-107300274D01*
X142098990Y-107163546D01*
X142289372Y-106973496D01*
X142385142Y-106954446D01*
X142579796Y-106824382D01*
X143092310Y-106311868D01*
X164814436Y-106311868D01*
X165044046Y-106266196D01*
X165238700Y-106136132D01*
X165524777Y-105850055D01*
X168379149Y-105850055D01*
X168608759Y-105804383D01*
X168803413Y-105674319D01*
X169977732Y-104500000D01*
X172272900Y-104500000D01*
X172502510Y-104454328D01*
X172697164Y-104324264D01*
X173509750Y-103511678D01*
X173828236Y-103511956D01*
X174159143Y-103375228D01*
X174412538Y-103122275D01*
X174549843Y-102791606D01*
X174550156Y-102433564D01*
X174413428Y-102102657D01*
X174160475Y-101849262D01*
X173829806Y-101711957D01*
X173471764Y-101711644D01*
X173140857Y-101848372D01*
X172887462Y-102101325D01*
X172850078Y-102191356D01*
X172813428Y-102102657D01*
X172560475Y-101849262D01*
X172229806Y-101711957D01*
X171871764Y-101711644D01*
X171540857Y-101848372D01*
X171287462Y-102101325D01*
X171250078Y-102191356D01*
X171213428Y-102102657D01*
X170960475Y-101849262D01*
X170629806Y-101711957D01*
X170271764Y-101711644D01*
X169940857Y-101848372D01*
X169750054Y-102038842D01*
X169656394Y-102057472D01*
X169603562Y-102092773D01*
X169360475Y-101849262D01*
X169029806Y-101711957D01*
X168671764Y-101711644D01*
X168340857Y-101848372D01*
X168087462Y-102101325D01*
X168050078Y-102191356D01*
X168013428Y-102102657D01*
X167760475Y-101849262D01*
X167429806Y-101711957D01*
X167071764Y-101711644D01*
X166740857Y-101848372D01*
X166487462Y-102101325D01*
X166450078Y-102191356D01*
X166413428Y-102102657D01*
X166160475Y-101849262D01*
X165829806Y-101711957D01*
X165471764Y-101711644D01*
X165140857Y-101848372D01*
X164887462Y-102101325D01*
X164850078Y-102191356D01*
X164813428Y-102102657D01*
X164560475Y-101849262D01*
X164229806Y-101711957D01*
X163871764Y-101711644D01*
X163540857Y-101848372D01*
X163287462Y-102101325D01*
X163250078Y-102191356D01*
X163213428Y-102102657D01*
X162960475Y-101849262D01*
X162629806Y-101711957D01*
X162271764Y-101711644D01*
X161940857Y-101848372D01*
X161687462Y-102101325D01*
X161604965Y-102300000D01*
X144377045Y-102300000D01*
X142852781Y-100775736D01*
X142658127Y-100645672D01*
X142428517Y-100600000D01*
X141272729Y-100600000D01*
X141110475Y-100437462D01*
X140779806Y-100300157D01*
X140421764Y-100299844D01*
X140090857Y-100436572D01*
X139837462Y-100689525D01*
X139700157Y-101020194D01*
X139699844Y-101378236D01*
X139836572Y-101709143D01*
X140089525Y-101962538D01*
X140420194Y-102099843D01*
X140778236Y-102100156D01*
X141109143Y-101963428D01*
X141272857Y-101800000D01*
X141273998Y-101800000D01*
X141158849Y-101914948D01*
X141063804Y-102143843D01*
X140957338Y-102143750D01*
X140626431Y-102280478D01*
X140373036Y-102533431D01*
X140235731Y-102864100D01*
X140235418Y-103222142D01*
X140372146Y-103553049D01*
X140625099Y-103806444D01*
X140834585Y-103893430D01*
X140834379Y-104129493D01*
X140909726Y-104311846D01*
X140648189Y-104311846D01*
X140418579Y-104357518D01*
X140416229Y-104359089D01*
X140122811Y-104358832D01*
X139791904Y-104495560D01*
X139659281Y-104627951D01*
X139492437Y-104558672D01*
X139134395Y-104558359D01*
X138803488Y-104695087D01*
X138550093Y-104948040D01*
X138412788Y-105278709D01*
X138412475Y-105636751D01*
X118550000Y-105636751D01*
X118550000Y-93081357D01*
X140251244Y-93081357D01*
X140387972Y-93412264D01*
X140640925Y-93665659D01*
X140971594Y-93802964D01*
X141202917Y-93803166D01*
X141574048Y-94174297D01*
X141768701Y-94304361D01*
X141998312Y-94350033D01*
X156672099Y-94350033D01*
X156901709Y-94304361D01*
X157096363Y-94174297D01*
X158420664Y-92849996D01*
X158650327Y-92850197D01*
X158981234Y-92713469D01*
X159234629Y-92460516D01*
X159371934Y-92129847D01*
X159372247Y-91771805D01*
X159235519Y-91440898D01*
X159094900Y-91300033D01*
X167004405Y-91300033D01*
X170428669Y-94724297D01*
X170623323Y-94854361D01*
X170852933Y-94900033D01*
X185349967Y-94900033D01*
X185579577Y-94854361D01*
X185774231Y-94724297D01*
X188098485Y-92400043D01*
X188228236Y-92400156D01*
X188559143Y-92263428D01*
X188812538Y-92010475D01*
X188949843Y-91679806D01*
X188950156Y-91321764D01*
X188813428Y-90990857D01*
X188560475Y-90737462D01*
X188229806Y-90600157D01*
X187871764Y-90599844D01*
X187540857Y-90736572D01*
X187287462Y-90989525D01*
X187150157Y-91320194D01*
X187149867Y-91651605D01*
X186370000Y-92431472D01*
X186370000Y-92172729D01*
X186532538Y-92010475D01*
X186669843Y-91679806D01*
X186670156Y-91321764D01*
X186533428Y-90990857D01*
X186280475Y-90737462D01*
X185949806Y-90600157D01*
X185591764Y-90599844D01*
X185260857Y-90736572D01*
X185007462Y-90989525D01*
X184870157Y-91320194D01*
X184869844Y-91678236D01*
X185006572Y-92009143D01*
X185170000Y-92172857D01*
X185170000Y-92981472D01*
X184851450Y-93300022D01*
X179598506Y-93300022D01*
X180498529Y-92399999D01*
X180678236Y-92400156D01*
X181009143Y-92263428D01*
X181262538Y-92010475D01*
X181399843Y-91679806D01*
X181400156Y-91321764D01*
X181263428Y-90990857D01*
X181010475Y-90737462D01*
X180679806Y-90600157D01*
X180321764Y-90599844D01*
X179990857Y-90736572D01*
X179737462Y-90989525D01*
X179600157Y-91320194D01*
X179599911Y-91601561D01*
X178820000Y-92381472D01*
X178820000Y-92172729D01*
X178982538Y-92010475D01*
X179119843Y-91679806D01*
X179120156Y-91321764D01*
X178983428Y-90990857D01*
X178730475Y-90737462D01*
X178399806Y-90600157D01*
X178041764Y-90599844D01*
X177710857Y-90736572D01*
X177457462Y-90989525D01*
X177320157Y-91320194D01*
X177319844Y-91678236D01*
X177456572Y-92009143D01*
X177620000Y-92172857D01*
X177620000Y-92281472D01*
X177401472Y-92500000D01*
X171598528Y-92500000D01*
X168174264Y-89075736D01*
X167979610Y-88945672D01*
X167750000Y-88900000D01*
X146998528Y-88900000D01*
X145524265Y-87425737D01*
X145329611Y-87295673D01*
X145100001Y-87250001D01*
X143499999Y-87250001D01*
X143270389Y-87295673D01*
X143188967Y-87350078D01*
X142921764Y-87349844D01*
X142590857Y-87486572D01*
X142337462Y-87739525D01*
X142200157Y-88070194D01*
X142199844Y-88428236D01*
X142336572Y-88759143D01*
X142589525Y-89012538D01*
X142920194Y-89149843D01*
X143278236Y-89150156D01*
X143510557Y-89054163D01*
X143584801Y-89233848D01*
X143499700Y-89233774D01*
X143168793Y-89370502D01*
X142915398Y-89623455D01*
X142778093Y-89954124D01*
X142777780Y-90312166D01*
X142914508Y-90643073D01*
X143167461Y-90896468D01*
X143359879Y-90976367D01*
X143300157Y-91120194D01*
X143300087Y-91199912D01*
X143221764Y-91199844D01*
X142890857Y-91336572D01*
X142637462Y-91589525D01*
X142500157Y-91920194D01*
X142500069Y-92020856D01*
X142329806Y-91950157D01*
X141971764Y-91949844D01*
X141640857Y-92086572D01*
X141608820Y-92118553D01*
X141331206Y-92003278D01*
X140973164Y-92002965D01*
X140642257Y-92139693D01*
X140388862Y-92392646D01*
X140251557Y-92723315D01*
X140251244Y-93081357D01*
X118550000Y-93081357D01*
X118550000Y-72696014D01*
X140800443Y-72696014D01*
X141104264Y-73431316D01*
X141666345Y-73994379D01*
X142401116Y-74299482D01*
X143196714Y-74300177D01*
X143932016Y-73996356D01*
X144495079Y-73434275D01*
X144800182Y-72699504D01*
X144800185Y-72696014D01*
X191199123Y-72696014D01*
X191502944Y-73431316D01*
X192065025Y-73994379D01*
X192799796Y-74299482D01*
X193595394Y-74300177D01*
X194330696Y-73996356D01*
X194893759Y-73434275D01*
X195198862Y-72699504D01*
X195199557Y-71903906D01*
X194895736Y-71168604D01*
X194333655Y-70605541D01*
X193598884Y-70300438D01*
X192803286Y-70299743D01*
X192067984Y-70603564D01*
X191504921Y-71165645D01*
X191199818Y-71900416D01*
X191199123Y-72696014D01*
X144800185Y-72696014D01*
X144800877Y-71903906D01*
X144497056Y-71168604D01*
X143934975Y-70605541D01*
X143200204Y-70300438D01*
X142404606Y-70299743D01*
X141669304Y-70603564D01*
X141106241Y-71165645D01*
X140801138Y-71900416D01*
X140800443Y-72696014D01*
X118550000Y-72696014D01*
X118550000Y-69356790D01*
X152189837Y-69356790D01*
X152465102Y-70022983D01*
X152974356Y-70533127D01*
X153640068Y-70809554D01*
X154360890Y-70810183D01*
X155027083Y-70534918D01*
X155537227Y-70025664D01*
X155813654Y-69359952D01*
X155813656Y-69356790D01*
X156187797Y-69356790D01*
X156463062Y-70022983D01*
X156972316Y-70533127D01*
X157638028Y-70809554D01*
X158358850Y-70810183D01*
X159025043Y-70534918D01*
X159535187Y-70025664D01*
X159811614Y-69359952D01*
X159811616Y-69356790D01*
X160188297Y-69356790D01*
X160463562Y-70022983D01*
X160972816Y-70533127D01*
X161638528Y-70809554D01*
X162359350Y-70810183D01*
X163025543Y-70534918D01*
X163535687Y-70025664D01*
X163812114Y-69359952D01*
X163812116Y-69356790D01*
X164188797Y-69356790D01*
X164464062Y-70022983D01*
X164973316Y-70533127D01*
X165639028Y-70809554D01*
X166359850Y-70810183D01*
X167026043Y-70534918D01*
X167536187Y-70025664D01*
X167812614Y-69359952D01*
X167812616Y-69356790D01*
X168186757Y-69356790D01*
X168462022Y-70022983D01*
X168971276Y-70533127D01*
X169636988Y-70809554D01*
X170357810Y-70810183D01*
X171024003Y-70534918D01*
X171534147Y-70025664D01*
X171810574Y-69359952D01*
X171810576Y-69356790D01*
X172187257Y-69356790D01*
X172462522Y-70022983D01*
X172971776Y-70533127D01*
X173637488Y-70809554D01*
X174358310Y-70810183D01*
X175024503Y-70534918D01*
X175534647Y-70025664D01*
X175811074Y-69359952D01*
X175811076Y-69356790D01*
X176187757Y-69356790D01*
X176463022Y-70022983D01*
X176972276Y-70533127D01*
X177637988Y-70809554D01*
X178358810Y-70810183D01*
X179025003Y-70534918D01*
X179535147Y-70025664D01*
X179811574Y-69359952D01*
X179811576Y-69356790D01*
X180185717Y-69356790D01*
X180460982Y-70022983D01*
X180970236Y-70533127D01*
X181635948Y-70809554D01*
X182356770Y-70810183D01*
X183022963Y-70534918D01*
X183533107Y-70025664D01*
X183809534Y-69359952D01*
X183810163Y-68639130D01*
X183534898Y-67972937D01*
X183025644Y-67462793D01*
X182359932Y-67186366D01*
X181639110Y-67185737D01*
X180972917Y-67461002D01*
X180462773Y-67970256D01*
X180186346Y-68635968D01*
X180185717Y-69356790D01*
X179811576Y-69356790D01*
X179812203Y-68639130D01*
X179536938Y-67972937D01*
X179027684Y-67462793D01*
X178361972Y-67186366D01*
X177641150Y-67185737D01*
X176974957Y-67461002D01*
X176464813Y-67970256D01*
X176188386Y-68635968D01*
X176187757Y-69356790D01*
X175811076Y-69356790D01*
X175811703Y-68639130D01*
X175536438Y-67972937D01*
X175027184Y-67462793D01*
X174361472Y-67186366D01*
X173640650Y-67185737D01*
X172974457Y-67461002D01*
X172464313Y-67970256D01*
X172187886Y-68635968D01*
X172187257Y-69356790D01*
X171810576Y-69356790D01*
X171811203Y-68639130D01*
X171535938Y-67972937D01*
X171026684Y-67462793D01*
X170360972Y-67186366D01*
X169640150Y-67185737D01*
X168973957Y-67461002D01*
X168463813Y-67970256D01*
X168187386Y-68635968D01*
X168186757Y-69356790D01*
X167812616Y-69356790D01*
X167813243Y-68639130D01*
X167537978Y-67972937D01*
X167028724Y-67462793D01*
X166363012Y-67186366D01*
X165642190Y-67185737D01*
X164975997Y-67461002D01*
X164465853Y-67970256D01*
X164189426Y-68635968D01*
X164188797Y-69356790D01*
X163812116Y-69356790D01*
X163812743Y-68639130D01*
X163537478Y-67972937D01*
X163028224Y-67462793D01*
X162362512Y-67186366D01*
X161641690Y-67185737D01*
X160975497Y-67461002D01*
X160465353Y-67970256D01*
X160188926Y-68635968D01*
X160188297Y-69356790D01*
X159811616Y-69356790D01*
X159812243Y-68639130D01*
X159536978Y-67972937D01*
X159027724Y-67462793D01*
X158362012Y-67186366D01*
X157641190Y-67185737D01*
X156974997Y-67461002D01*
X156464853Y-67970256D01*
X156188426Y-68635968D01*
X156187797Y-69356790D01*
X155813656Y-69356790D01*
X155814283Y-68639130D01*
X155539018Y-67972937D01*
X155029764Y-67462793D01*
X154364052Y-67186366D01*
X153643230Y-67185737D01*
X152977037Y-67461002D01*
X152466893Y-67970256D01*
X152190466Y-68635968D01*
X152189837Y-69356790D01*
X118550000Y-69356790D01*
X118550000Y-65378236D01*
X143999844Y-65378236D01*
X144136572Y-65709143D01*
X144389525Y-65962538D01*
X144720194Y-66099843D01*
X145078236Y-66100156D01*
X145409143Y-65963428D01*
X145572857Y-65800000D01*
X146200000Y-65800000D01*
X146429610Y-65754328D01*
X146624264Y-65624264D01*
X148260439Y-63988089D01*
X154459315Y-63988089D01*
X154189446Y-64638008D01*
X154188817Y-65358830D01*
X154464082Y-66025023D01*
X154973336Y-66535167D01*
X155639048Y-66811594D01*
X156359870Y-66812223D01*
X157026063Y-66536958D01*
X157536207Y-66027704D01*
X157812634Y-65361992D01*
X157813263Y-64641170D01*
X157543416Y-63988089D01*
X158459815Y-63988089D01*
X158189946Y-64638008D01*
X158189317Y-65358830D01*
X158464582Y-66025023D01*
X158973836Y-66535167D01*
X159639548Y-66811594D01*
X160360370Y-66812223D01*
X161026563Y-66536958D01*
X161536707Y-66027704D01*
X161813134Y-65361992D01*
X161813763Y-64641170D01*
X161543916Y-63988089D01*
X162460315Y-63988089D01*
X162190446Y-64638008D01*
X162189817Y-65358830D01*
X162465082Y-66025023D01*
X162974336Y-66535167D01*
X163640048Y-66811594D01*
X164360870Y-66812223D01*
X165027063Y-66536958D01*
X165537207Y-66027704D01*
X165813634Y-65361992D01*
X165814263Y-64641170D01*
X165544416Y-63988089D01*
X166458275Y-63988089D01*
X166188406Y-64638008D01*
X166187777Y-65358830D01*
X166463042Y-66025023D01*
X166972296Y-66535167D01*
X167638008Y-66811594D01*
X168358830Y-66812223D01*
X169025023Y-66536958D01*
X169535167Y-66027704D01*
X169811594Y-65361992D01*
X169812223Y-64641170D01*
X169542376Y-63988089D01*
X170137521Y-63988089D01*
X170362723Y-64213291D01*
X170186366Y-64638008D01*
X170185737Y-65358830D01*
X170461002Y-66025023D01*
X170970256Y-66535167D01*
X171635968Y-66811594D01*
X172356790Y-66812223D01*
X173022983Y-66536958D01*
X173533127Y-66027704D01*
X173809554Y-65361992D01*
X173810183Y-64641170D01*
X173534918Y-63974977D01*
X173060770Y-63500000D01*
X174936414Y-63500000D01*
X174463293Y-63972296D01*
X174186866Y-64638008D01*
X174186237Y-65358830D01*
X174461502Y-66025023D01*
X174970756Y-66535167D01*
X175636468Y-66811594D01*
X176357290Y-66812223D01*
X177023483Y-66536958D01*
X177533627Y-66027704D01*
X177810054Y-65361992D01*
X177810683Y-64641170D01*
X177535418Y-63974977D01*
X177061270Y-63500000D01*
X177650432Y-63500000D01*
X178363723Y-64213291D01*
X178187366Y-64638008D01*
X178186737Y-65358830D01*
X178462002Y-66025023D01*
X178971256Y-66535167D01*
X179636968Y-66811594D01*
X180357790Y-66812223D01*
X181023983Y-66536958D01*
X181534127Y-66027704D01*
X181810554Y-65361992D01*
X181811183Y-64641170D01*
X181535918Y-63974977D01*
X181026664Y-63464833D01*
X180360952Y-63188406D01*
X179640130Y-63187777D01*
X179212116Y-63364628D01*
X178573177Y-62725689D01*
X179025003Y-62538998D01*
X179535147Y-62029744D01*
X179811574Y-61364032D01*
X179811576Y-61360870D01*
X180185717Y-61360870D01*
X180460982Y-62027063D01*
X180970236Y-62537207D01*
X181635948Y-62813634D01*
X182356770Y-62814263D01*
X183022963Y-62538998D01*
X183533107Y-62029744D01*
X183809534Y-61364032D01*
X183810163Y-60643210D01*
X183534898Y-59977017D01*
X183025644Y-59466873D01*
X182359932Y-59190446D01*
X181639110Y-59189817D01*
X180972917Y-59465082D01*
X180462773Y-59974336D01*
X180186346Y-60640048D01*
X180185717Y-61360870D01*
X179811576Y-61360870D01*
X179812203Y-60643210D01*
X179536938Y-59977017D01*
X179027684Y-59466873D01*
X178361972Y-59190446D01*
X177641150Y-59189817D01*
X176974957Y-59465082D01*
X176464813Y-59974336D01*
X176188386Y-60640048D01*
X176187757Y-61360870D01*
X176463022Y-62027063D01*
X176735483Y-62300000D01*
X175263919Y-62300000D01*
X175534647Y-62029744D01*
X175811074Y-61364032D01*
X175811703Y-60643210D01*
X175536438Y-59977017D01*
X175027184Y-59466873D01*
X174361472Y-59190446D01*
X173640650Y-59189817D01*
X172974457Y-59465082D01*
X172464313Y-59974336D01*
X172187886Y-60640048D01*
X172187257Y-61360870D01*
X172462522Y-62027063D01*
X172734983Y-62300000D01*
X171263419Y-62300000D01*
X171534147Y-62029744D01*
X171810574Y-61364032D01*
X171811203Y-60643210D01*
X171535938Y-59977017D01*
X171026684Y-59466873D01*
X170360972Y-59190446D01*
X169640150Y-59189817D01*
X168973957Y-59465082D01*
X168463813Y-59974336D01*
X168187386Y-60640048D01*
X168186757Y-61360870D01*
X168462022Y-62027063D01*
X168734483Y-62300000D01*
X167265459Y-62300000D01*
X167536187Y-62029744D01*
X167812614Y-61364032D01*
X167813243Y-60643210D01*
X167537978Y-59977017D01*
X167028724Y-59466873D01*
X166363012Y-59190446D01*
X165642190Y-59189817D01*
X164975997Y-59465082D01*
X164465853Y-59974336D01*
X164189426Y-60640048D01*
X164188797Y-61360870D01*
X164464062Y-62027063D01*
X164736523Y-62300000D01*
X163264959Y-62300000D01*
X163535687Y-62029744D01*
X163812114Y-61364032D01*
X163812743Y-60643210D01*
X163537478Y-59977017D01*
X163028224Y-59466873D01*
X162362512Y-59190446D01*
X161641690Y-59189817D01*
X160975497Y-59465082D01*
X160465353Y-59974336D01*
X160188926Y-60640048D01*
X160188297Y-61360870D01*
X160463562Y-62027063D01*
X160736023Y-62300000D01*
X159264459Y-62300000D01*
X159535187Y-62029744D01*
X159811614Y-61364032D01*
X159812243Y-60643210D01*
X159536978Y-59977017D01*
X159027724Y-59466873D01*
X158362012Y-59190446D01*
X157641190Y-59189817D01*
X156974997Y-59465082D01*
X156464853Y-59974336D01*
X156188426Y-60640048D01*
X156187797Y-61360870D01*
X156463062Y-62027063D01*
X156735523Y-62300000D01*
X155823765Y-62300000D01*
X155823765Y-59690130D01*
X155784959Y-59495040D01*
X155674450Y-59329650D01*
X155509060Y-59219141D01*
X155313970Y-59180335D01*
X152690150Y-59180335D01*
X152495060Y-59219141D01*
X152329670Y-59329650D01*
X152219161Y-59495040D01*
X152180355Y-59690130D01*
X152180355Y-62300000D01*
X145900000Y-62300000D01*
X145670390Y-62345672D01*
X145475736Y-62475736D01*
X145451427Y-62500045D01*
X145221764Y-62499844D01*
X144890857Y-62636572D01*
X144637462Y-62889525D01*
X144500157Y-63220194D01*
X144499844Y-63578236D01*
X144636572Y-63909143D01*
X144889525Y-64162538D01*
X145220194Y-64299843D01*
X145578236Y-64300156D01*
X145909143Y-64163428D01*
X146162538Y-63910475D01*
X146299843Y-63579806D01*
X146299913Y-63500000D01*
X147051472Y-63500000D01*
X145951472Y-64600000D01*
X145572729Y-64600000D01*
X145410475Y-64437462D01*
X145079806Y-64300157D01*
X144721764Y-64299844D01*
X144390857Y-64436572D01*
X144137462Y-64689525D01*
X144000157Y-65020194D01*
X143999844Y-65378236D01*
X118550000Y-65378236D01*
X118550000Y-54598514D01*
X142301583Y-54598514D01*
X142605404Y-55333816D01*
X143167485Y-55896879D01*
X143902256Y-56201982D01*
X144697854Y-56202677D01*
X145433156Y-55898856D01*
X145996219Y-55336775D01*
X146301322Y-54602004D01*
X146301325Y-54598514D01*
X189697983Y-54598514D01*
X190001804Y-55333816D01*
X190563885Y-55896879D01*
X191298656Y-56201982D01*
X192094254Y-56202677D01*
X192829556Y-55898856D01*
X193392619Y-55336775D01*
X193697722Y-54602004D01*
X193698417Y-53806406D01*
X193394596Y-53071104D01*
X192832515Y-52508041D01*
X192097744Y-52202938D01*
X191302146Y-52202243D01*
X190566844Y-52506064D01*
X190003781Y-53068145D01*
X189698678Y-53802916D01*
X189697983Y-54598514D01*
X146301325Y-54598514D01*
X146302017Y-53806406D01*
X145998196Y-53071104D01*
X145436115Y-52508041D01*
X144701344Y-52202938D01*
X143905746Y-52202243D01*
X143170444Y-52506064D01*
X142607381Y-53068145D01*
X142302278Y-53802916D01*
X142301583Y-54598514D01*
X118550000Y-54598514D01*
X118550000Y-54451374D01*
X120020717Y-54158830D01*
X120218981Y-54076707D01*
X120218984Y-54076704D01*
X121841094Y-52992845D01*
X121841098Y-52992843D01*
X121916970Y-52916970D01*
X121992843Y-52841098D01*
X121992845Y-52841094D01*
X123076705Y-51218983D01*
X123076707Y-51218981D01*
X123158830Y-51020717D01*
X123451374Y-49550000D01*
X212548626Y-49550000D01*
X212841170Y-51020717D01*
M02*
