G04 #@! TF.GenerationSoftware,KiCad,Pcbnew,(5.0.0-rc2-dev-130-g0bdae22af-dirty)*
G04 #@! TF.CreationDate,2019-01-29T19:19:46+02:00*
G04 #@! TF.ProjectId,csb,6373622E6B696361645F706362000000,rev?*
G04 #@! TF.SameCoordinates,Original*
G04 #@! TF.FileFunction,Legend,Bot*
G04 #@! TF.FilePolarity,Positive*
%FSLAX46Y46*%
G04 Gerber Fmt 4.6, Leading zero omitted, Abs format (unit mm)*
G04 Created by KiCad (PCBNEW (5.0.0-rc2-dev-130-g0bdae22af-dirty)) date Tue Jan 29 19:19:46 2019*
%MOMM*%
%LPD*%
G01*
G04 APERTURE LIST*
%ADD10C,0.200000*%
%ADD11C,0.100000*%
%ADD12C,0.076200*%
%ADD13C,0.150000*%
G04 APERTURE END LIST*
D10*
X151960400Y-82972400D02*
X150639600Y-82972400D01*
X151960400Y-80127600D02*
X151960400Y-82972400D01*
X150639600Y-80127600D02*
X151960400Y-80127600D01*
X150639600Y-82972400D02*
X150639600Y-80127600D01*
D11*
X151782600Y-81092800D02*
X150817400Y-81092800D01*
X150817400Y-81092800D02*
X150817400Y-80711800D01*
X151782600Y-80711800D02*
X151782600Y-81092800D01*
X150817400Y-82007200D02*
X151782600Y-82007200D01*
X151782600Y-82007200D02*
X151782600Y-82388200D01*
X150817400Y-82388200D02*
X150817400Y-82007200D01*
X151782600Y-81092800D02*
X151782600Y-82007200D01*
X151782600Y-82388200D02*
X150817400Y-82388200D01*
X150817400Y-82007200D02*
X150817400Y-81092800D01*
X150817400Y-80711800D02*
X151782600Y-80711800D01*
X158117400Y-80711800D02*
X159082600Y-80711800D01*
X158117400Y-82007200D02*
X158117400Y-81092800D01*
X159082600Y-82388200D02*
X158117400Y-82388200D01*
X159082600Y-81092800D02*
X159082600Y-82007200D01*
X158117400Y-82388200D02*
X158117400Y-82007200D01*
X159082600Y-82007200D02*
X159082600Y-82388200D01*
X158117400Y-82007200D02*
X159082600Y-82007200D01*
X159082600Y-80711800D02*
X159082600Y-81092800D01*
X158117400Y-81092800D02*
X158117400Y-80711800D01*
X159082600Y-81092800D02*
X158117400Y-81092800D01*
D10*
X157939600Y-82972400D02*
X157939600Y-80127600D01*
X157939600Y-80127600D02*
X159260400Y-80127600D01*
X159260400Y-80127600D02*
X159260400Y-82972400D01*
X159260400Y-82972400D02*
X157939600Y-82972400D01*
D11*
X187667400Y-80561800D02*
X188632600Y-80561800D01*
X187667400Y-81857200D02*
X187667400Y-80942800D01*
X188632600Y-82238200D02*
X187667400Y-82238200D01*
X188632600Y-80942800D02*
X188632600Y-81857200D01*
X187667400Y-82238200D02*
X187667400Y-81857200D01*
X188632600Y-81857200D02*
X188632600Y-82238200D01*
X187667400Y-81857200D02*
X188632600Y-81857200D01*
X188632600Y-80561800D02*
X188632600Y-80942800D01*
X187667400Y-80942800D02*
X187667400Y-80561800D01*
X188632600Y-80942800D02*
X187667400Y-80942800D01*
D10*
X187489600Y-82822400D02*
X187489600Y-79977600D01*
X187489600Y-79977600D02*
X188810400Y-79977600D01*
X188810400Y-79977600D02*
X188810400Y-82822400D01*
X188810400Y-82822400D02*
X187489600Y-82822400D01*
X148939600Y-80127600D02*
X150260400Y-80127600D01*
X148939600Y-82972400D02*
X148939600Y-80127600D01*
X150260400Y-82972400D02*
X148939600Y-82972400D01*
X150260400Y-80127600D02*
X150260400Y-82972400D01*
D11*
X149117400Y-82007200D02*
X150082600Y-82007200D01*
X150082600Y-82007200D02*
X150082600Y-82388200D01*
X149117400Y-82388200D02*
X149117400Y-82007200D01*
X150082600Y-81092800D02*
X149117400Y-81092800D01*
X149117400Y-81092800D02*
X149117400Y-80711800D01*
X150082600Y-80711800D02*
X150082600Y-81092800D01*
X149117400Y-82007200D02*
X149117400Y-81092800D01*
X149117400Y-80711800D02*
X150082600Y-80711800D01*
X150082600Y-81092800D02*
X150082600Y-82007200D01*
X150082600Y-82388200D02*
X149117400Y-82388200D01*
X157382600Y-82388200D02*
X156417400Y-82388200D01*
X157382600Y-81092800D02*
X157382600Y-82007200D01*
X156417400Y-80711800D02*
X157382600Y-80711800D01*
X156417400Y-82007200D02*
X156417400Y-81092800D01*
X157382600Y-80711800D02*
X157382600Y-81092800D01*
X156417400Y-81092800D02*
X156417400Y-80711800D01*
X157382600Y-81092800D02*
X156417400Y-81092800D01*
X156417400Y-82388200D02*
X156417400Y-82007200D01*
X157382600Y-82007200D02*
X157382600Y-82388200D01*
X156417400Y-82007200D02*
X157382600Y-82007200D01*
D10*
X157560400Y-80127600D02*
X157560400Y-82972400D01*
X157560400Y-82972400D02*
X156239600Y-82972400D01*
X156239600Y-82972400D02*
X156239600Y-80127600D01*
X156239600Y-80127600D02*
X157560400Y-80127600D01*
X185789600Y-79977600D02*
X187110400Y-79977600D01*
X185789600Y-82822400D02*
X185789600Y-79977600D01*
X187110400Y-82822400D02*
X185789600Y-82822400D01*
X187110400Y-79977600D02*
X187110400Y-82822400D01*
D11*
X185967400Y-81857200D02*
X186932600Y-81857200D01*
X186932600Y-81857200D02*
X186932600Y-82238200D01*
X185967400Y-82238200D02*
X185967400Y-81857200D01*
X186932600Y-80942800D02*
X185967400Y-80942800D01*
X185967400Y-80942800D02*
X185967400Y-80561800D01*
X186932600Y-80561800D02*
X186932600Y-80942800D01*
X185967400Y-81857200D02*
X185967400Y-80942800D01*
X185967400Y-80561800D02*
X186932600Y-80561800D01*
X186932600Y-80942800D02*
X186932600Y-81857200D01*
X186932600Y-82238200D02*
X185967400Y-82238200D01*
D10*
X148550000Y-83200000D02*
X148550000Y-80000000D01*
X147350000Y-80000000D02*
X147350000Y-83200000D01*
X147950000Y-81900000D02*
X148550000Y-81300000D01*
X147350000Y-81300000D02*
X147950000Y-81900000D01*
X148550000Y-81300000D02*
X147350000Y-81300000D01*
X147350000Y-83200000D02*
X148550000Y-83200000D01*
X147350000Y-80000000D02*
X148550000Y-80000000D01*
X154650000Y-80000000D02*
X155850000Y-80000000D01*
X154650000Y-83200000D02*
X155850000Y-83200000D01*
X155850000Y-81300000D02*
X154650000Y-81300000D01*
X154650000Y-81300000D02*
X155250000Y-81900000D01*
X155250000Y-81900000D02*
X155850000Y-81300000D01*
X154650000Y-80000000D02*
X154650000Y-83200000D01*
X155850000Y-83200000D02*
X155850000Y-80000000D01*
X185400000Y-83000000D02*
X185400000Y-79800000D01*
X184200000Y-79800000D02*
X184200000Y-83000000D01*
X184800000Y-81700000D02*
X185400000Y-81100000D01*
X184200000Y-81100000D02*
X184800000Y-81700000D01*
X185400000Y-81100000D02*
X184200000Y-81100000D01*
X184200000Y-83000000D02*
X185400000Y-83000000D01*
X184200000Y-79800000D02*
X185400000Y-79800000D01*
X153660400Y-82972400D02*
X152339600Y-82972400D01*
X153660400Y-80127600D02*
X153660400Y-82972400D01*
X152339600Y-80127600D02*
X153660400Y-80127600D01*
X152339600Y-82972400D02*
X152339600Y-80127600D01*
D11*
X153482600Y-81092800D02*
X152517400Y-81092800D01*
X152517400Y-81092800D02*
X152517400Y-80711800D01*
X153482600Y-80711800D02*
X153482600Y-81092800D01*
X152517400Y-82007200D02*
X153482600Y-82007200D01*
X153482600Y-82007200D02*
X153482600Y-82388200D01*
X152517400Y-82388200D02*
X152517400Y-82007200D01*
X153482600Y-81092800D02*
X153482600Y-82007200D01*
X153482600Y-82388200D02*
X152517400Y-82388200D01*
X152517400Y-82007200D02*
X152517400Y-81092800D01*
X152517400Y-80711800D02*
X153482600Y-80711800D01*
X159817400Y-80711800D02*
X160782600Y-80711800D01*
X159817400Y-82007200D02*
X159817400Y-81092800D01*
X160782600Y-82388200D02*
X159817400Y-82388200D01*
X160782600Y-81092800D02*
X160782600Y-82007200D01*
X159817400Y-82388200D02*
X159817400Y-82007200D01*
X160782600Y-82007200D02*
X160782600Y-82388200D01*
X159817400Y-82007200D02*
X160782600Y-82007200D01*
X160782600Y-80711800D02*
X160782600Y-81092800D01*
X159817400Y-81092800D02*
X159817400Y-80711800D01*
X160782600Y-81092800D02*
X159817400Y-81092800D01*
D10*
X159639600Y-82972400D02*
X159639600Y-80127600D01*
X159639600Y-80127600D02*
X160960400Y-80127600D01*
X160960400Y-80127600D02*
X160960400Y-82972400D01*
X160960400Y-82972400D02*
X159639600Y-82972400D01*
X190510400Y-82822400D02*
X189189600Y-82822400D01*
X190510400Y-79977600D02*
X190510400Y-82822400D01*
X189189600Y-79977600D02*
X190510400Y-79977600D01*
X189189600Y-82822400D02*
X189189600Y-79977600D01*
D11*
X190332600Y-80942800D02*
X189367400Y-80942800D01*
X189367400Y-80942800D02*
X189367400Y-80561800D01*
X190332600Y-80561800D02*
X190332600Y-80942800D01*
X189367400Y-81857200D02*
X190332600Y-81857200D01*
X190332600Y-81857200D02*
X190332600Y-82238200D01*
X189367400Y-82238200D02*
X189367400Y-81857200D01*
X190332600Y-80942800D02*
X190332600Y-81857200D01*
X190332600Y-82238200D02*
X189367400Y-82238200D01*
X189367400Y-81857200D02*
X189367400Y-80942800D01*
X189367400Y-80561800D02*
X190332600Y-80561800D01*
D12*
X152342695Y-77390438D02*
X151955647Y-77119504D01*
X152342695Y-76925980D02*
X151529895Y-76925980D01*
X151529895Y-77235619D01*
X151568600Y-77313028D01*
X151607304Y-77351733D01*
X151684714Y-77390438D01*
X151800828Y-77390438D01*
X151878238Y-77351733D01*
X151916942Y-77313028D01*
X151955647Y-77235619D01*
X151955647Y-76925980D01*
X151529895Y-78125828D02*
X151529895Y-77738780D01*
X151916942Y-77700076D01*
X151878238Y-77738780D01*
X151839533Y-77816190D01*
X151839533Y-78009714D01*
X151878238Y-78087123D01*
X151916942Y-78125828D01*
X151994352Y-78164533D01*
X152187876Y-78164533D01*
X152265285Y-78125828D01*
X152303990Y-78087123D01*
X152342695Y-78009714D01*
X152342695Y-77816190D01*
X152303990Y-77738780D01*
X152265285Y-77700076D01*
X151529895Y-78667695D02*
X151529895Y-78745104D01*
X151568600Y-78822514D01*
X151607304Y-78861219D01*
X151684714Y-78899923D01*
X151839533Y-78938628D01*
X152033057Y-78938628D01*
X152187876Y-78899923D01*
X152265285Y-78861219D01*
X152303990Y-78822514D01*
X152342695Y-78745104D01*
X152342695Y-78667695D01*
X152303990Y-78590285D01*
X152265285Y-78551580D01*
X152187876Y-78512876D01*
X152033057Y-78474171D01*
X151839533Y-78474171D01*
X151684714Y-78512876D01*
X151607304Y-78551580D01*
X151568600Y-78590285D01*
X151529895Y-78667695D01*
X152342695Y-79712723D02*
X152342695Y-79248266D01*
X152342695Y-79480495D02*
X151529895Y-79480495D01*
X151646009Y-79403085D01*
X151723419Y-79325676D01*
X151762123Y-79248266D01*
X151392695Y-78825828D02*
X151392695Y-78361371D01*
X151392695Y-78593600D02*
X150579895Y-78593600D01*
X150696009Y-78516190D01*
X150773419Y-78438780D01*
X150812123Y-78361371D01*
X151392695Y-79174171D02*
X150579895Y-79174171D01*
X151392695Y-79638628D02*
X150928238Y-79290285D01*
X150579895Y-79638628D02*
X151044352Y-79174171D01*
X159942695Y-77140438D02*
X159555647Y-76869504D01*
X159942695Y-76675980D02*
X159129895Y-76675980D01*
X159129895Y-76985619D01*
X159168600Y-77063028D01*
X159207304Y-77101733D01*
X159284714Y-77140438D01*
X159400828Y-77140438D01*
X159478238Y-77101733D01*
X159516942Y-77063028D01*
X159555647Y-76985619D01*
X159555647Y-76675980D01*
X159129895Y-77837123D02*
X159129895Y-77682304D01*
X159168600Y-77604895D01*
X159207304Y-77566190D01*
X159323419Y-77488780D01*
X159478238Y-77450076D01*
X159787876Y-77450076D01*
X159865285Y-77488780D01*
X159903990Y-77527485D01*
X159942695Y-77604895D01*
X159942695Y-77759714D01*
X159903990Y-77837123D01*
X159865285Y-77875828D01*
X159787876Y-77914533D01*
X159594352Y-77914533D01*
X159516942Y-77875828D01*
X159478238Y-77837123D01*
X159439533Y-77759714D01*
X159439533Y-77604895D01*
X159478238Y-77527485D01*
X159516942Y-77488780D01*
X159594352Y-77450076D01*
X159129895Y-78417695D02*
X159129895Y-78495104D01*
X159168600Y-78572514D01*
X159207304Y-78611219D01*
X159284714Y-78649923D01*
X159439533Y-78688628D01*
X159633057Y-78688628D01*
X159787876Y-78649923D01*
X159865285Y-78611219D01*
X159903990Y-78572514D01*
X159942695Y-78495104D01*
X159942695Y-78417695D01*
X159903990Y-78340285D01*
X159865285Y-78301580D01*
X159787876Y-78262876D01*
X159633057Y-78224171D01*
X159439533Y-78224171D01*
X159284714Y-78262876D01*
X159207304Y-78301580D01*
X159168600Y-78340285D01*
X159129895Y-78417695D01*
X159942695Y-79462723D02*
X159942695Y-78998266D01*
X159942695Y-79230495D02*
X159129895Y-79230495D01*
X159246009Y-79153085D01*
X159323419Y-79075676D01*
X159362123Y-78998266D01*
X159017695Y-78675828D02*
X159017695Y-78211371D01*
X159017695Y-78443600D02*
X158204895Y-78443600D01*
X158321009Y-78366190D01*
X158398419Y-78288780D01*
X158437123Y-78211371D01*
X159017695Y-79024171D02*
X158204895Y-79024171D01*
X159017695Y-79488628D02*
X158553238Y-79140285D01*
X158204895Y-79488628D02*
X158669352Y-79024171D01*
X189067695Y-77265438D02*
X188680647Y-76994504D01*
X189067695Y-76800980D02*
X188254895Y-76800980D01*
X188254895Y-77110619D01*
X188293600Y-77188028D01*
X188332304Y-77226733D01*
X188409714Y-77265438D01*
X188525828Y-77265438D01*
X188603238Y-77226733D01*
X188641942Y-77188028D01*
X188680647Y-77110619D01*
X188680647Y-76800980D01*
X188254895Y-77536371D02*
X188254895Y-78078238D01*
X189067695Y-77729895D01*
X188254895Y-78542695D02*
X188254895Y-78620104D01*
X188293600Y-78697514D01*
X188332304Y-78736219D01*
X188409714Y-78774923D01*
X188564533Y-78813628D01*
X188758057Y-78813628D01*
X188912876Y-78774923D01*
X188990285Y-78736219D01*
X189028990Y-78697514D01*
X189067695Y-78620104D01*
X189067695Y-78542695D01*
X189028990Y-78465285D01*
X188990285Y-78426580D01*
X188912876Y-78387876D01*
X188758057Y-78349171D01*
X188564533Y-78349171D01*
X188409714Y-78387876D01*
X188332304Y-78426580D01*
X188293600Y-78465285D01*
X188254895Y-78542695D01*
X189067695Y-79587723D02*
X189067695Y-79123266D01*
X189067695Y-79355495D02*
X188254895Y-79355495D01*
X188371009Y-79278085D01*
X188448419Y-79200676D01*
X188487123Y-79123266D01*
X188042695Y-78675828D02*
X188042695Y-78211371D01*
X188042695Y-78443600D02*
X187229895Y-78443600D01*
X187346009Y-78366190D01*
X187423419Y-78288780D01*
X187462123Y-78211371D01*
X188042695Y-79024171D02*
X187229895Y-79024171D01*
X188042695Y-79488628D02*
X187578238Y-79140285D01*
X187229895Y-79488628D02*
X187694352Y-79024171D01*
X150392695Y-77340438D02*
X150005647Y-77069504D01*
X150392695Y-76875980D02*
X149579895Y-76875980D01*
X149579895Y-77185619D01*
X149618600Y-77263028D01*
X149657304Y-77301733D01*
X149734714Y-77340438D01*
X149850828Y-77340438D01*
X149928238Y-77301733D01*
X149966942Y-77263028D01*
X150005647Y-77185619D01*
X150005647Y-76875980D01*
X149579895Y-78075828D02*
X149579895Y-77688780D01*
X149966942Y-77650076D01*
X149928238Y-77688780D01*
X149889533Y-77766190D01*
X149889533Y-77959714D01*
X149928238Y-78037123D01*
X149966942Y-78075828D01*
X150044352Y-78114533D01*
X150237876Y-78114533D01*
X150315285Y-78075828D01*
X150353990Y-78037123D01*
X150392695Y-77959714D01*
X150392695Y-77766190D01*
X150353990Y-77688780D01*
X150315285Y-77650076D01*
X149579895Y-78617695D02*
X149579895Y-78695104D01*
X149618600Y-78772514D01*
X149657304Y-78811219D01*
X149734714Y-78849923D01*
X149889533Y-78888628D01*
X150083057Y-78888628D01*
X150237876Y-78849923D01*
X150315285Y-78811219D01*
X150353990Y-78772514D01*
X150392695Y-78695104D01*
X150392695Y-78617695D01*
X150353990Y-78540285D01*
X150315285Y-78501580D01*
X150237876Y-78462876D01*
X150083057Y-78424171D01*
X149889533Y-78424171D01*
X149734714Y-78462876D01*
X149657304Y-78501580D01*
X149618600Y-78540285D01*
X149579895Y-78617695D01*
X149657304Y-79198266D02*
X149618600Y-79236971D01*
X149579895Y-79314380D01*
X149579895Y-79507904D01*
X149618600Y-79585314D01*
X149657304Y-79624019D01*
X149734714Y-79662723D01*
X149812123Y-79662723D01*
X149928238Y-79624019D01*
X150392695Y-79159561D01*
X150392695Y-79662723D01*
X149492695Y-78825828D02*
X149492695Y-78361371D01*
X149492695Y-78593600D02*
X148679895Y-78593600D01*
X148796009Y-78516190D01*
X148873419Y-78438780D01*
X148912123Y-78361371D01*
X149492695Y-79174171D02*
X148679895Y-79174171D01*
X149492695Y-79638628D02*
X149028238Y-79290285D01*
X148679895Y-79638628D02*
X149144352Y-79174171D01*
X158017695Y-77215438D02*
X157630647Y-76944504D01*
X158017695Y-76750980D02*
X157204895Y-76750980D01*
X157204895Y-77060619D01*
X157243600Y-77138028D01*
X157282304Y-77176733D01*
X157359714Y-77215438D01*
X157475828Y-77215438D01*
X157553238Y-77176733D01*
X157591942Y-77138028D01*
X157630647Y-77060619D01*
X157630647Y-76750980D01*
X157204895Y-77912123D02*
X157204895Y-77757304D01*
X157243600Y-77679895D01*
X157282304Y-77641190D01*
X157398419Y-77563780D01*
X157553238Y-77525076D01*
X157862876Y-77525076D01*
X157940285Y-77563780D01*
X157978990Y-77602485D01*
X158017695Y-77679895D01*
X158017695Y-77834714D01*
X157978990Y-77912123D01*
X157940285Y-77950828D01*
X157862876Y-77989533D01*
X157669352Y-77989533D01*
X157591942Y-77950828D01*
X157553238Y-77912123D01*
X157514533Y-77834714D01*
X157514533Y-77679895D01*
X157553238Y-77602485D01*
X157591942Y-77563780D01*
X157669352Y-77525076D01*
X157204895Y-78492695D02*
X157204895Y-78570104D01*
X157243600Y-78647514D01*
X157282304Y-78686219D01*
X157359714Y-78724923D01*
X157514533Y-78763628D01*
X157708057Y-78763628D01*
X157862876Y-78724923D01*
X157940285Y-78686219D01*
X157978990Y-78647514D01*
X158017695Y-78570104D01*
X158017695Y-78492695D01*
X157978990Y-78415285D01*
X157940285Y-78376580D01*
X157862876Y-78337876D01*
X157708057Y-78299171D01*
X157514533Y-78299171D01*
X157359714Y-78337876D01*
X157282304Y-78376580D01*
X157243600Y-78415285D01*
X157204895Y-78492695D01*
X157282304Y-79073266D02*
X157243600Y-79111971D01*
X157204895Y-79189380D01*
X157204895Y-79382904D01*
X157243600Y-79460314D01*
X157282304Y-79499019D01*
X157359714Y-79537723D01*
X157437123Y-79537723D01*
X157553238Y-79499019D01*
X158017695Y-79034561D01*
X158017695Y-79537723D01*
X157067695Y-78650828D02*
X157067695Y-78186371D01*
X157067695Y-78418600D02*
X156254895Y-78418600D01*
X156371009Y-78341190D01*
X156448419Y-78263780D01*
X156487123Y-78186371D01*
X157067695Y-78999171D02*
X156254895Y-78999171D01*
X157067695Y-79463628D02*
X156603238Y-79115285D01*
X156254895Y-79463628D02*
X156719352Y-78999171D01*
X187042695Y-77165438D02*
X186655647Y-76894504D01*
X187042695Y-76700980D02*
X186229895Y-76700980D01*
X186229895Y-77010619D01*
X186268600Y-77088028D01*
X186307304Y-77126733D01*
X186384714Y-77165438D01*
X186500828Y-77165438D01*
X186578238Y-77126733D01*
X186616942Y-77088028D01*
X186655647Y-77010619D01*
X186655647Y-76700980D01*
X186229895Y-77436371D02*
X186229895Y-77978238D01*
X187042695Y-77629895D01*
X186229895Y-78442695D02*
X186229895Y-78520104D01*
X186268600Y-78597514D01*
X186307304Y-78636219D01*
X186384714Y-78674923D01*
X186539533Y-78713628D01*
X186733057Y-78713628D01*
X186887876Y-78674923D01*
X186965285Y-78636219D01*
X187003990Y-78597514D01*
X187042695Y-78520104D01*
X187042695Y-78442695D01*
X187003990Y-78365285D01*
X186965285Y-78326580D01*
X186887876Y-78287876D01*
X186733057Y-78249171D01*
X186539533Y-78249171D01*
X186384714Y-78287876D01*
X186307304Y-78326580D01*
X186268600Y-78365285D01*
X186229895Y-78442695D01*
X186307304Y-79023266D02*
X186268600Y-79061971D01*
X186229895Y-79139380D01*
X186229895Y-79332904D01*
X186268600Y-79410314D01*
X186307304Y-79449019D01*
X186384714Y-79487723D01*
X186462123Y-79487723D01*
X186578238Y-79449019D01*
X187042695Y-78984561D01*
X187042695Y-79487723D01*
X186092695Y-78775828D02*
X186092695Y-78311371D01*
X186092695Y-78543600D02*
X185279895Y-78543600D01*
X185396009Y-78466190D01*
X185473419Y-78388780D01*
X185512123Y-78311371D01*
X186092695Y-79124171D02*
X185279895Y-79124171D01*
X186092695Y-79588628D02*
X185628238Y-79240285D01*
X185279895Y-79588628D02*
X185744352Y-79124171D01*
D13*
X148427380Y-78111904D02*
X147427380Y-78111904D01*
X147427380Y-78350000D01*
X147475000Y-78492857D01*
X147570238Y-78588095D01*
X147665476Y-78635714D01*
X147855952Y-78683333D01*
X147998809Y-78683333D01*
X148189285Y-78635714D01*
X148284523Y-78588095D01*
X148379761Y-78492857D01*
X148427380Y-78350000D01*
X148427380Y-78111904D01*
X147427380Y-79016666D02*
X147427380Y-79635714D01*
X147808333Y-79302380D01*
X147808333Y-79445238D01*
X147855952Y-79540476D01*
X147903571Y-79588095D01*
X147998809Y-79635714D01*
X148236904Y-79635714D01*
X148332142Y-79588095D01*
X148379761Y-79540476D01*
X148427380Y-79445238D01*
X148427380Y-79159523D01*
X148379761Y-79064285D01*
X148332142Y-79016666D01*
X155902380Y-78061904D02*
X154902380Y-78061904D01*
X154902380Y-78300000D01*
X154950000Y-78442857D01*
X155045238Y-78538095D01*
X155140476Y-78585714D01*
X155330952Y-78633333D01*
X155473809Y-78633333D01*
X155664285Y-78585714D01*
X155759523Y-78538095D01*
X155854761Y-78442857D01*
X155902380Y-78300000D01*
X155902380Y-78061904D01*
X155235714Y-79490476D02*
X155902380Y-79490476D01*
X154854761Y-79252380D02*
X155569047Y-79014285D01*
X155569047Y-79633333D01*
X184827380Y-77836904D02*
X183827380Y-77836904D01*
X183827380Y-78075000D01*
X183875000Y-78217857D01*
X183970238Y-78313095D01*
X184065476Y-78360714D01*
X184255952Y-78408333D01*
X184398809Y-78408333D01*
X184589285Y-78360714D01*
X184684523Y-78313095D01*
X184779761Y-78217857D01*
X184827380Y-78075000D01*
X184827380Y-77836904D01*
X183827380Y-79313095D02*
X183827380Y-78836904D01*
X184303571Y-78789285D01*
X184255952Y-78836904D01*
X184208333Y-78932142D01*
X184208333Y-79170238D01*
X184255952Y-79265476D01*
X184303571Y-79313095D01*
X184398809Y-79360714D01*
X184636904Y-79360714D01*
X184732142Y-79313095D01*
X184779761Y-79265476D01*
X184827380Y-79170238D01*
X184827380Y-78932142D01*
X184779761Y-78836904D01*
X184732142Y-78789285D01*
D12*
X154292695Y-78889533D02*
X153905647Y-78618600D01*
X154292695Y-78425076D02*
X153479895Y-78425076D01*
X153479895Y-78734714D01*
X153518600Y-78812123D01*
X153557304Y-78850828D01*
X153634714Y-78889533D01*
X153750828Y-78889533D01*
X153828238Y-78850828D01*
X153866942Y-78812123D01*
X153905647Y-78734714D01*
X153905647Y-78425076D01*
X154292695Y-79663628D02*
X154292695Y-79199171D01*
X154292695Y-79431400D02*
X153479895Y-79431400D01*
X153596009Y-79353990D01*
X153673419Y-79276580D01*
X153712123Y-79199171D01*
X153342695Y-78113780D02*
X153342695Y-77649323D01*
X153342695Y-77881552D02*
X152529895Y-77881552D01*
X152646009Y-77804142D01*
X152723419Y-77726733D01*
X152762123Y-77649323D01*
X152529895Y-78616942D02*
X152529895Y-78694352D01*
X152568600Y-78771761D01*
X152607304Y-78810466D01*
X152684714Y-78849171D01*
X152839533Y-78887876D01*
X153033057Y-78887876D01*
X153187876Y-78849171D01*
X153265285Y-78810466D01*
X153303990Y-78771761D01*
X153342695Y-78694352D01*
X153342695Y-78616942D01*
X153303990Y-78539533D01*
X153265285Y-78500828D01*
X153187876Y-78462123D01*
X153033057Y-78423419D01*
X152839533Y-78423419D01*
X152684714Y-78462123D01*
X152607304Y-78500828D01*
X152568600Y-78539533D01*
X152529895Y-78616942D01*
X153342695Y-79236219D02*
X152529895Y-79236219D01*
X153342695Y-79700676D02*
X152878238Y-79352333D01*
X152529895Y-79700676D02*
X152994352Y-79236219D01*
X161967695Y-78739533D02*
X161580647Y-78468600D01*
X161967695Y-78275076D02*
X161154895Y-78275076D01*
X161154895Y-78584714D01*
X161193600Y-78662123D01*
X161232304Y-78700828D01*
X161309714Y-78739533D01*
X161425828Y-78739533D01*
X161503238Y-78700828D01*
X161541942Y-78662123D01*
X161580647Y-78584714D01*
X161580647Y-78275076D01*
X161232304Y-79049171D02*
X161193600Y-79087876D01*
X161154895Y-79165285D01*
X161154895Y-79358809D01*
X161193600Y-79436219D01*
X161232304Y-79474923D01*
X161309714Y-79513628D01*
X161387123Y-79513628D01*
X161503238Y-79474923D01*
X161967695Y-79010466D01*
X161967695Y-79513628D01*
X160992695Y-77888780D02*
X160992695Y-77424323D01*
X160992695Y-77656552D02*
X160179895Y-77656552D01*
X160296009Y-77579142D01*
X160373419Y-77501733D01*
X160412123Y-77424323D01*
X160179895Y-78391942D02*
X160179895Y-78469352D01*
X160218600Y-78546761D01*
X160257304Y-78585466D01*
X160334714Y-78624171D01*
X160489533Y-78662876D01*
X160683057Y-78662876D01*
X160837876Y-78624171D01*
X160915285Y-78585466D01*
X160953990Y-78546761D01*
X160992695Y-78469352D01*
X160992695Y-78391942D01*
X160953990Y-78314533D01*
X160915285Y-78275828D01*
X160837876Y-78237123D01*
X160683057Y-78198419D01*
X160489533Y-78198419D01*
X160334714Y-78237123D01*
X160257304Y-78275828D01*
X160218600Y-78314533D01*
X160179895Y-78391942D01*
X160992695Y-79011219D02*
X160179895Y-79011219D01*
X160992695Y-79475676D02*
X160528238Y-79127333D01*
X160179895Y-79475676D02*
X160644352Y-79011219D01*
X191117695Y-78764533D02*
X190730647Y-78493600D01*
X191117695Y-78300076D02*
X190304895Y-78300076D01*
X190304895Y-78609714D01*
X190343600Y-78687123D01*
X190382304Y-78725828D01*
X190459714Y-78764533D01*
X190575828Y-78764533D01*
X190653238Y-78725828D01*
X190691942Y-78687123D01*
X190730647Y-78609714D01*
X190730647Y-78300076D01*
X190304895Y-79035466D02*
X190304895Y-79538628D01*
X190614533Y-79267695D01*
X190614533Y-79383809D01*
X190653238Y-79461219D01*
X190691942Y-79499923D01*
X190769352Y-79538628D01*
X190962876Y-79538628D01*
X191040285Y-79499923D01*
X191078990Y-79461219D01*
X191117695Y-79383809D01*
X191117695Y-79151580D01*
X191078990Y-79074171D01*
X191040285Y-79035466D01*
X190067695Y-77963780D02*
X190067695Y-77499323D01*
X190067695Y-77731552D02*
X189254895Y-77731552D01*
X189371009Y-77654142D01*
X189448419Y-77576733D01*
X189487123Y-77499323D01*
X189254895Y-78466942D02*
X189254895Y-78544352D01*
X189293600Y-78621761D01*
X189332304Y-78660466D01*
X189409714Y-78699171D01*
X189564533Y-78737876D01*
X189758057Y-78737876D01*
X189912876Y-78699171D01*
X189990285Y-78660466D01*
X190028990Y-78621761D01*
X190067695Y-78544352D01*
X190067695Y-78466942D01*
X190028990Y-78389533D01*
X189990285Y-78350828D01*
X189912876Y-78312123D01*
X189758057Y-78273419D01*
X189564533Y-78273419D01*
X189409714Y-78312123D01*
X189332304Y-78350828D01*
X189293600Y-78389533D01*
X189254895Y-78466942D01*
X190067695Y-79086219D02*
X189254895Y-79086219D01*
X190067695Y-79550676D02*
X189603238Y-79202333D01*
X189254895Y-79550676D02*
X189719352Y-79086219D01*
M02*
