G04 #@! TF.GenerationSoftware,KiCad,Pcbnew,(2017-01-11 revision e99b79cb2)-master*
G04 #@! TF.CreationDate,2017-11-18T14:01:15+02:00*
G04 #@! TF.ProjectId,csb,6373622E6B696361645F706362000000,rev?*
G04 #@! TF.FileFunction,Soldermask,Top*
G04 #@! TF.FilePolarity,Negative*
%FSLAX46Y46*%
G04 Gerber Fmt 4.6, Leading zero omitted, Abs format (unit mm)*
G04 Created by KiCad (PCBNEW (2017-01-11 revision e99b79cb2)-master) date Sat Nov 18 14:01:15 2017*
%MOMM*%
%LPD*%
G01*
G04 APERTURE LIST*
%ADD10C,0.100000*%
%ADD11R,0.939800X0.762000*%
%ADD12R,0.762000X0.939800*%
%ADD13R,2.623820X2.623820*%
%ADD14C,2.623820*%
%ADD15C,2.999740*%
%ADD16R,1.399540X1.297940*%
%ADD17R,1.900000X2.179320*%
%ADD18R,1.899920X0.998220*%
%ADD19R,0.700000X1.350000*%
%ADD20R,1.905000X0.635000*%
%ADD21R,0.398780X1.498600*%
%ADD22R,0.279400X1.498600*%
%ADD23R,1.498600X0.398780*%
%ADD24R,1.498600X0.279400*%
%ADD25R,1.524000X0.600000*%
%ADD26R,1.524000X0.635000*%
%ADD27R,3.600000X1.900000*%
%ADD28R,0.400000X1.200000*%
%ADD29R,5.600000X6.400000*%
%ADD30R,0.800000X2.200000*%
%ADD31R,1.300000X2.000000*%
%ADD32R,2.700000X2.400000*%
%ADD33R,2.800000X2.000000*%
%ADD34R,0.600000X1.524000*%
%ADD35R,0.635000X1.524000*%
%ADD36R,5.970000X6.100000*%
%ADD37R,1.900000X1.400000*%
%ADD38R,3.300000X2.400000*%
%ADD39R,0.998220X3.997960*%
G04 APERTURE END LIST*
D10*
D11*
X145600000Y-130161800D03*
X145600000Y-131838200D03*
D12*
X131861800Y-125400000D03*
X133538200Y-125400000D03*
X129838200Y-124600000D03*
X128161800Y-124600000D03*
D11*
X131300000Y-76761800D03*
X131300000Y-78438200D03*
D12*
X119661800Y-66700000D03*
X121338200Y-66700000D03*
X136961800Y-72200000D03*
X138638200Y-72200000D03*
D13*
X164002040Y-119002040D03*
D14*
X168000000Y-119002040D03*
X171997960Y-119002040D03*
X166001020Y-123000000D03*
X169998980Y-123000000D03*
X164002040Y-126997960D03*
X168000000Y-126997960D03*
X171997960Y-126997960D03*
D15*
X154301780Y-112202460D03*
X181698220Y-112202460D03*
X183199360Y-130299960D03*
X152800640Y-130299960D03*
D13*
X154002060Y-61002040D03*
D14*
X158000020Y-61002040D03*
X162000520Y-61002040D03*
X166001020Y-61002040D03*
X169998980Y-61002040D03*
X173999480Y-61002040D03*
X177999980Y-61002040D03*
X181997940Y-61002040D03*
X156001040Y-65000000D03*
X160001540Y-65000000D03*
X164002040Y-65000000D03*
X168000000Y-65000000D03*
X171997960Y-65000000D03*
X175998460Y-65000000D03*
X179998960Y-65000000D03*
X154002060Y-68997960D03*
X158000020Y-68997960D03*
X162000520Y-68997960D03*
X166001020Y-68997960D03*
X169998980Y-68997960D03*
X173999480Y-68997960D03*
X177999980Y-68997960D03*
X181997940Y-68997960D03*
D15*
X144301800Y-54202460D03*
X191698200Y-54202460D03*
X142800660Y-72299960D03*
X193199340Y-72299960D03*
D12*
X136961800Y-70300000D03*
X138638200Y-70300000D03*
D16*
X152400000Y-137165300D03*
X152400000Y-133634700D03*
D17*
X141800000Y-135900000D03*
X146800000Y-135900000D03*
D16*
X133700000Y-128634700D03*
X133700000Y-132165300D03*
D18*
X149500000Y-137298600D03*
X149500000Y-134301400D03*
D19*
X128100000Y-122800000D03*
X130100000Y-122800000D03*
X129100000Y-120200000D03*
D12*
X121138200Y-69300000D03*
X119461800Y-69300000D03*
D11*
X132400000Y-58538200D03*
X132400000Y-56861800D03*
D12*
X140038200Y-55500000D03*
X138361800Y-55500000D03*
X136538200Y-55500000D03*
X134861800Y-55500000D03*
D11*
X131750000Y-116638200D03*
X131750000Y-114961800D03*
D20*
X124260000Y-53660000D03*
X129340000Y-53660000D03*
X124260000Y-54930000D03*
X129340000Y-54930000D03*
X124260000Y-56200000D03*
X129340000Y-56200000D03*
X129340000Y-57470000D03*
X124260000Y-58740000D03*
X129340000Y-58740000D03*
D12*
X143538200Y-65100000D03*
X141861800Y-65100000D03*
X141861800Y-63300000D03*
X143538200Y-63300000D03*
X127661800Y-51900000D03*
X129338200Y-51900000D03*
X124261800Y-51900000D03*
X125938200Y-51900000D03*
D11*
X165650000Y-104288200D03*
X165650000Y-102611800D03*
X167250000Y-102611800D03*
X167250000Y-104288200D03*
D12*
X148261800Y-89200000D03*
X149938200Y-89200000D03*
X157488200Y-89200000D03*
X155811800Y-89200000D03*
X179488200Y-89200000D03*
X177811800Y-89200000D03*
X185561800Y-89200000D03*
X187238200Y-89200000D03*
D11*
X172050000Y-102611800D03*
X172050000Y-104288200D03*
X173650000Y-104288200D03*
X173650000Y-102611800D03*
D21*
X125190000Y-74897880D03*
D22*
X125751340Y-74897880D03*
X126251720Y-74897880D03*
X126752100Y-74897880D03*
X127252480Y-74897880D03*
X127750320Y-74897880D03*
X128250700Y-74897880D03*
X128751080Y-74897880D03*
X129248920Y-74897880D03*
X129749300Y-74897880D03*
X130249680Y-74897880D03*
X130747520Y-74897880D03*
X131247900Y-74897880D03*
X131748280Y-74897880D03*
X132248660Y-74897880D03*
D21*
X132810000Y-74897880D03*
D23*
X134897880Y-72810000D03*
D24*
X134897880Y-72248660D03*
X134897880Y-71748280D03*
X134897880Y-71247900D03*
X134897880Y-70747520D03*
X134897880Y-70249680D03*
X134897880Y-69749300D03*
X134897880Y-69248920D03*
X134897880Y-68751080D03*
X134897880Y-68250700D03*
X134897880Y-67750320D03*
X134897880Y-67252480D03*
X134897880Y-66752100D03*
X134897880Y-66251720D03*
X134897880Y-65751340D03*
D23*
X134897880Y-65190000D03*
D21*
X132810000Y-63102120D03*
D22*
X132248660Y-63102120D03*
X131748280Y-63102120D03*
X131247900Y-63102120D03*
X130747520Y-63102120D03*
X130249680Y-63102120D03*
X129749300Y-63102120D03*
X129248920Y-63102120D03*
X128751080Y-63102120D03*
X128250700Y-63102120D03*
X127750320Y-63102120D03*
X127252480Y-63102120D03*
X126752100Y-63102120D03*
X126251720Y-63102120D03*
X125751340Y-63102120D03*
D21*
X125190000Y-63102120D03*
D23*
X123102120Y-65190000D03*
D24*
X123102120Y-65751340D03*
X123102120Y-66251720D03*
X123102120Y-66752100D03*
X123102120Y-67252480D03*
X123102120Y-67750320D03*
X123102120Y-68250700D03*
X123102120Y-68751080D03*
X123102120Y-69248920D03*
X123102120Y-69749300D03*
X123102120Y-70249680D03*
X123102120Y-70747520D03*
X123102120Y-71247900D03*
X123102120Y-71748280D03*
X123102120Y-72248660D03*
D23*
X123102120Y-72810000D03*
D25*
X139253103Y-114090969D03*
X139253103Y-115360969D03*
X139253103Y-116630969D03*
X139253103Y-117900969D03*
X133411103Y-117900969D03*
X133411103Y-116630969D03*
D26*
X133411103Y-115395969D03*
D25*
X133411103Y-114090969D03*
D27*
X165200000Y-97900000D03*
D28*
X163200000Y-95100000D03*
X164000000Y-95100000D03*
X164800000Y-95100000D03*
X165600000Y-95100000D03*
X166400000Y-95100000D03*
X167200000Y-95100000D03*
X167200000Y-100700000D03*
X166400000Y-100700000D03*
X165600000Y-100700000D03*
X164800000Y-100700000D03*
X164000000Y-100700000D03*
X163200000Y-100700000D03*
D29*
X149740000Y-97800000D03*
D30*
X147460000Y-91500000D03*
X148600000Y-91500000D03*
X150880000Y-91500000D03*
X152020000Y-91500000D03*
X159630000Y-91500000D03*
X158490000Y-91500000D03*
X156210000Y-91500000D03*
X155070000Y-91500000D03*
D29*
X157350000Y-97800000D03*
X179360000Y-97800000D03*
D30*
X177080000Y-91500000D03*
X178220000Y-91500000D03*
X180500000Y-91500000D03*
X181640000Y-91500000D03*
X189190000Y-91500000D03*
X188050000Y-91500000D03*
X185770000Y-91500000D03*
X184630000Y-91500000D03*
D29*
X186910000Y-97800000D03*
D28*
X168700000Y-100700000D03*
X169500000Y-100700000D03*
X170300000Y-100700000D03*
X171100000Y-100700000D03*
X171900000Y-100700000D03*
X172700000Y-100700000D03*
X172700000Y-95100000D03*
X171900000Y-95100000D03*
X171100000Y-95100000D03*
X170300000Y-95100000D03*
X169500000Y-95100000D03*
X168700000Y-95100000D03*
D27*
X170700000Y-97900000D03*
D31*
X140040000Y-52700000D03*
X134960000Y-52700000D03*
D32*
X123500000Y-118000000D03*
X123500000Y-124800000D03*
D33*
X123500000Y-128600000D03*
X123500000Y-132400000D03*
D34*
X131205000Y-127600000D03*
D35*
X129900000Y-127600000D03*
D34*
X128665000Y-127600000D03*
X127395000Y-127600000D03*
X127395000Y-133442000D03*
X128665000Y-133442000D03*
X129935000Y-133442000D03*
X131205000Y-133442000D03*
D36*
X184200000Y-121500000D03*
D37*
X178115000Y-123790000D03*
X178115000Y-119210000D03*
X157785000Y-123790000D03*
X157785000Y-119210000D03*
D36*
X151700000Y-121500000D03*
D11*
X164050000Y-104288200D03*
X164050000Y-102611800D03*
X162450000Y-102611800D03*
X162450000Y-104288200D03*
D12*
X148861800Y-87550000D03*
X150538200Y-87550000D03*
X158188200Y-87550000D03*
X156511800Y-87550000D03*
X178411800Y-87550000D03*
X180088200Y-87550000D03*
X186061800Y-87550000D03*
X187738200Y-87550000D03*
D11*
X170450000Y-104288200D03*
X170450000Y-102611800D03*
X168850000Y-102611800D03*
X168850000Y-104288200D03*
D38*
X168000000Y-115400000D03*
X168000000Y-108800000D03*
D39*
X139950000Y-123903240D03*
X139950000Y-131000000D03*
M02*
