M48
;DRILL file {KiCad (5.0.0-rc2-dev-130-g0bdae22af-dirty)} date Fri Dec 21 20:00:51 2018
;FORMAT={-:-/ absolute / inch / decimal}
FMAT,2
INCH,TZ
T1C0.0157
T2C0.0688
T3C0.0787
%
G90
G05
M72
T1
X5.1191Y-4.4281
X5.1211Y-3.7234
X5.123Y-2.8435
X5.123Y-3.3051
X5.127Y-5.0591
X5.128Y-2.4026
X5.1447Y-1.9872
X5.2244Y-4.7224
X5.2303Y-5.2323
X5.2382Y-5.4335
X5.3061Y-3.6939
X5.3061Y-4.9203
X5.3169Y-3.1368
X5.3258Y-2.8219
X5.3278Y-4.1506
X5.3917Y-5.0709
X5.3976Y-4.5256
X5.437Y-3.1398
X5.4429Y-2.751
X5.4449Y-3.7008
X5.4469Y-4.2382
X5.4744Y-5.1299
X5.5217Y-5.3209
X5.5354Y-4.6535
X5.5492Y-4.8484
X5.5591Y-5.0827
X5.5748Y-4.6752
X5.5846Y-2.4291
X5.5945Y-4.5463
X5.6368Y-4.9931
X5.6497Y-4.1025
X5.6634Y-3.7264
X5.6634Y-5.4291
X5.6673Y-4.7165
X5.6821Y-4.6348
X5.6831Y-4.3465
X5.6844Y-4.1475
X5.698Y-4.1076
X5.6998Y-2.747
X5.6998Y-3.1516
X5.7224Y-4.3524
X5.7264Y-5.3071
X5.7343Y-4.4281
X5.7469Y-4.1372
X5.7531Y-4.2254
X5.7638Y-4.2638
X5.7717Y-5.1201
X5.7845Y-4.2016
X5.811Y-4.0965
X5.811Y-4.2795
X5.8189Y-4.4921
X5.8209Y-5.1398
X5.8287Y-1.9724
X5.8504Y-4.1831
X5.8543Y-4.1378
X5.8563Y-3.3169
X5.8622Y-2.2805
X5.8898Y-4.9213
X5.9213Y-3.3169
X5.9311Y-4.7795
X5.939Y-4.6772
X5.9872Y-5.4301
X5.9965Y-5.261
X6.0059Y-3.315
X6.0148Y-4.3012
X6.0256Y-2.2972
X6.0945Y-4.7461
X6.0945Y-4.94
X6.1614Y-3.3169
X6.188Y-4.4833
X6.1998Y-5.1388
X6.2283Y-3.315
X6.2539Y-3.8071
X6.2639Y-3.9149
X6.3051Y-3.2992
X6.3209Y-3.8071
X6.3602Y-5.4311
X6.3671Y-2.8268
X6.3858Y-3.4439
X6.3937Y-3.748
X6.3967Y-2.1988
X6.4035Y-1.9734
X6.4134Y-3.874
X6.5207Y-5.2205
X6.5374Y-3.878
X6.6093Y-3.438
X6.6112Y-2.7904
X6.6358Y-3.8031
X6.6634Y-3.872
X6.7266Y-3.8729
X6.7815Y-5.3573
X6.8023Y-3.8787
X6.8356Y-3.44
X6.8445Y-2.8199
X6.9331Y-3.874
X6.9409Y-1.9744
X6.9439Y-2.2037
X6.998Y-3.9213
X7.002Y-5.3602
X7.0354Y-4.4813
X7.0778Y-5.1122
X7.0925Y-3.3268
X7.1388Y-4.7096
X7.2136Y-4.313
X7.2274Y-5.3583
X7.3346Y-3.3248
X7.3976Y-2.7726
X7.4016Y-3.3228
X7.4016Y-5.2421
X7.4606Y-4.9341
X7.4803Y-3.311
X7.4911Y-4.5778
X7.5Y-4.0217
X7.5748Y-3.2077
X7.5827Y-1.9793
X7.5846Y-3.6457
X7.6033Y-4.9685
X7.6033Y-5.4203
X7.7785Y-4.6732
X7.9026Y-4.6447
X8.0896Y-5.4154
X8.0925Y-1.9921
X8.1014Y-5.0217
X8.1024Y-4.6063
X8.1033Y-2.6299
X8.1033Y-3.7106
X8.1033Y-4.1467
X8.1053Y-3.189
T2
X6.0631Y-2.4017
X6.0631Y-2.7165
X6.1418Y-2.5591
X6.2205Y-2.4017
X6.2205Y-2.7165
X6.2993Y-2.5591
X6.378Y-2.4017
X6.378Y-2.7165
X6.4568Y-2.5591
X6.5355Y-2.4017
X6.5355Y-2.7165
X6.6142Y-2.5591
X6.6929Y-2.4017
X6.6929Y-2.7165
X6.7716Y-2.5591
X6.8504Y-2.4017
X6.8504Y-2.7165
X6.9291Y-2.5591
X7.0079Y-2.4017
X7.0079Y-2.7165
X7.0866Y-2.5591
X7.1653Y-2.4017
X7.1653Y-2.7165
X6.4568Y-4.6851
X6.4568Y-4.9999
X6.5355Y-4.8425
X6.6142Y-4.6851
X6.6142Y-4.9999
X6.6929Y-4.8425
X6.7716Y-4.6851
X6.7716Y-4.9999
T3
X5.6221Y-2.8465
X5.6812Y-2.134
X7.5472Y-2.134
X7.6063Y-2.8465
X6.0158Y-5.1299
X6.0749Y-4.4174
X7.1535Y-4.4174
X7.2126Y-5.1299
T0
M30
