G04 #@! TF.GenerationSoftware,KiCad,Pcbnew,(5.0.2-dirty)*
G04 #@! TF.CreationDate,2019-02-10T17:08:03+02:00*
G04 #@! TF.ProjectId,csb,6373622e-6b69-4636-9164-5f7063625858,rev?*
G04 #@! TF.SameCoordinates,Original*
G04 #@! TF.FileFunction,Copper,L2,Bot*
G04 #@! TF.FilePolarity,Positive*
%FSLAX46Y46*%
G04 Gerber Fmt 4.6, Leading zero omitted, Abs format (unit mm)*
G04 Created by KiCad (PCBNEW (5.0.2-dirty)) date su 10. helmikuuta 2019 17.08.03*
%MOMM*%
%LPD*%
G01*
G04 APERTURE LIST*
G04 #@! TA.AperFunction,ComponentPad*
%ADD10R,2.623820X2.623820*%
G04 #@! TD*
G04 #@! TA.AperFunction,ComponentPad*
%ADD11C,2.623820*%
G04 #@! TD*
G04 #@! TA.AperFunction,ComponentPad*
%ADD12C,2.999740*%
G04 #@! TD*
G04 #@! TA.AperFunction,ViaPad*
%ADD13C,0.800000*%
G04 #@! TD*
G04 #@! TA.AperFunction,Conductor*
%ADD14C,0.500000*%
G04 #@! TD*
G04 #@! TA.AperFunction,Conductor*
%ADD15C,0.200000*%
G04 #@! TD*
G04 APERTURE END LIST*
D10*
G04 #@! TO.P,J102,P$1*
G04 #@! TO.N,/Power Supply/VIN*
X164002040Y-119002040D03*
D11*
G04 #@! TO.P,J102,P$2*
G04 #@! TO.N,GND*
X168000000Y-119002040D03*
G04 #@! TO.P,J102,P$3*
G04 #@! TO.N,/Power Supply/VIN*
X171997960Y-119002040D03*
G04 #@! TO.P,J102,P$4*
G04 #@! TO.N,/CANH*
X166001020Y-123000000D03*
G04 #@! TO.P,J102,P$5*
G04 #@! TO.N,/CANL*
X169998980Y-123000000D03*
G04 #@! TO.P,J102,P$6*
G04 #@! TO.N,/Power Supply/VIN*
X164002040Y-126997960D03*
G04 #@! TO.P,J102,P$7*
G04 #@! TO.N,Net-(J102-PadP$7)*
X168000000Y-126997960D03*
G04 #@! TO.P,J102,P$8*
G04 #@! TO.N,Net-(J102-PadP$8)*
X171997960Y-126997960D03*
D12*
G04 #@! TO.P,J102,P$9*
G04 #@! TO.N,N/C*
X154301780Y-112202460D03*
G04 #@! TO.P,J102,P$10*
X181698220Y-112202460D03*
G04 #@! TO.P,J102,P$11*
X183199360Y-130299960D03*
G04 #@! TO.P,J102,P$12*
X152800640Y-130299960D03*
G04 #@! TD*
D10*
G04 #@! TO.P,J101,P$1*
G04 #@! TO.N,/DRIVE_15A*
X154002060Y-61002040D03*
D11*
G04 #@! TO.P,J101,P$2*
X158000020Y-61002040D03*
G04 #@! TO.P,J101,P$3*
G04 #@! TO.N,/WORK_15A*
X162000520Y-61002040D03*
G04 #@! TO.P,J101,P$4*
G04 #@! TO.N,Net-(J101-PadP$4)*
X166001020Y-61002040D03*
G04 #@! TO.P,J101,P$5*
G04 #@! TO.N,Net-(J101-PadP$5)*
X169998980Y-61002040D03*
G04 #@! TO.P,J101,P$6*
G04 #@! TO.N,Net-(J101-PadP$6)*
X173999480Y-61002040D03*
G04 #@! TO.P,J101,P$7*
G04 #@! TO.N,Net-(J101-PadP$7)*
X177999980Y-61002040D03*
G04 #@! TO.P,J101,P$8*
G04 #@! TO.N,N/C*
X181997940Y-61002040D03*
G04 #@! TO.P,J101,P$9*
G04 #@! TO.N,/DRIVE_15A*
X156001040Y-65000000D03*
G04 #@! TO.P,J101,P$10*
G04 #@! TO.N,/WORK_15A*
X160001540Y-65000000D03*
G04 #@! TO.P,J101,P$11*
X164002040Y-65000000D03*
G04 #@! TO.P,J101,P$12*
G04 #@! TO.N,Net-(J101-PadP$12)*
X168000000Y-65000000D03*
G04 #@! TO.P,J101,P$13*
G04 #@! TO.N,/LPC1549/WIPER_POS*
X171997960Y-65000000D03*
G04 #@! TO.P,J101,P$14*
G04 #@! TO.N,Net-(J101-PadP$14)*
X175998460Y-65000000D03*
G04 #@! TO.P,J101,P$15*
G04 #@! TO.N,/LPC1549/COOLER_P*
X179998960Y-65000000D03*
G04 #@! TO.P,J101,P$16*
G04 #@! TO.N,/DRIVE_15A*
X154002060Y-68997960D03*
G04 #@! TO.P,J101,P$17*
G04 #@! TO.N,/WORK_15A*
X158000020Y-68997960D03*
G04 #@! TO.P,J101,P$18*
G04 #@! TO.N,/BEACON_4A*
X162000520Y-68997960D03*
G04 #@! TO.P,J101,P$19*
G04 #@! TO.N,/BACK_4A*
X166001020Y-68997960D03*
G04 #@! TO.P,J101,P$20*
G04 #@! TO.N,/IN_4A*
X169998980Y-68997960D03*
G04 #@! TO.P,J101,P$21*
G04 #@! TO.N,/WIPER_4A*
X173999480Y-68997960D03*
G04 #@! TO.P,J101,P$22*
G04 #@! TO.N,/COOLER_30A*
X177999980Y-68997960D03*
G04 #@! TO.P,J101,P$23*
X181997940Y-68997960D03*
D12*
G04 #@! TO.P,J101,P$24*
G04 #@! TO.N,N/C*
X144301800Y-54202460D03*
G04 #@! TO.P,J101,P$25*
X191698200Y-54202460D03*
G04 #@! TO.P,J101,P$26*
X142800660Y-72299960D03*
G04 #@! TO.P,J101,P$27*
X193199340Y-72299960D03*
G04 #@! TD*
D13*
G04 #@! TO.N,GND*
X173600000Y-84100000D03*
X168000000Y-77800000D03*
X168000000Y-80600000D03*
X167900000Y-83800000D03*
X162500000Y-83800000D03*
X196000000Y-125900000D03*
X191700000Y-137600000D03*
X133050000Y-138010000D03*
X152310000Y-133630000D03*
X173850000Y-71625000D03*
X147600000Y-104050000D03*
X130250000Y-61025000D03*
X130675000Y-50475000D03*
X148050000Y-50100000D03*
X162650000Y-50125000D03*
X176300000Y-50150000D03*
X192600000Y-50275000D03*
X205550000Y-50600000D03*
X187900000Y-70425000D03*
X205825000Y-66800000D03*
X205875000Y-81000000D03*
X192650000Y-92600000D03*
X205825000Y-94250000D03*
X190500000Y-102150000D03*
X183225000Y-109550000D03*
X205825000Y-105325000D03*
X205800000Y-117000000D03*
X205775000Y-127550000D03*
X205475000Y-137550000D03*
X189500000Y-125325000D03*
X200725000Y-117975000D03*
X197575000Y-118700000D03*
X190275000Y-116275000D03*
X181325000Y-119625000D03*
X178700000Y-113825000D03*
X154800000Y-120550000D03*
X157175000Y-113875000D03*
X152775000Y-109250000D03*
X147800000Y-114100000D03*
X145650000Y-112475000D03*
X142100000Y-115475000D03*
X144325000Y-117725000D03*
X134775000Y-124975000D03*
X130225000Y-128500000D03*
X143175000Y-126825000D03*
X143850000Y-137900000D03*
X152075000Y-137925000D03*
X154800000Y-125475000D03*
X157475000Y-130525000D03*
X161550000Y-137950000D03*
X165625000Y-132600000D03*
X172250000Y-136075000D03*
X188000000Y-133150000D03*
X183575000Y-136100000D03*
X179775000Y-129850000D03*
X177850000Y-136150000D03*
X159102718Y-99437247D03*
X177750000Y-99600000D03*
X162400000Y-95200000D03*
X168550000Y-96600000D03*
X132700000Y-119950000D03*
X143950000Y-119800000D03*
X150650000Y-121400002D03*
X149600000Y-125000000D03*
X150849990Y-118800000D03*
X132850000Y-132900000D03*
X136950000Y-128800000D03*
X145450000Y-134800000D03*
X140250000Y-135150000D03*
X140950000Y-123150000D03*
X187172900Y-82200000D03*
X149700000Y-81800000D03*
X141700000Y-82000000D03*
X138700000Y-62100000D03*
X132400000Y-68250000D03*
X143400000Y-104200000D03*
X167950000Y-74050000D03*
X162350000Y-72100000D03*
X162600000Y-79500000D03*
X173650000Y-79600000D03*
X148450000Y-87900000D03*
X143400000Y-87900000D03*
X139450000Y-88000000D03*
X132100000Y-87950000D03*
X176350000Y-55200000D03*
X162750000Y-55200000D03*
X148100000Y-55150000D03*
X144900000Y-57750000D03*
X171550000Y-57400000D03*
X181000000Y-87850000D03*
X173700000Y-87800000D03*
X167950000Y-87800000D03*
X162350000Y-87750000D03*
X140750000Y-57800000D03*
X132400000Y-101700000D03*
X137750000Y-108150000D03*
X130100000Y-106800000D03*
X136850000Y-115650000D03*
X138600000Y-118100000D03*
X193900000Y-81350000D03*
G04 #@! TO.N,/CANH*
X147850000Y-130550000D03*
G04 #@! TO.N,/CANL*
X146600000Y-130050000D03*
G04 #@! TO.N,/LPC1549/RESET*
X139050000Y-130300000D03*
X141200000Y-129100000D03*
G04 #@! TO.N,Net-(R301-Pad2)*
X130950000Y-68450000D03*
X131150000Y-100800000D03*
G04 #@! TO.N,Net-(R302-Pad2)*
X130100000Y-67050000D03*
X130300000Y-101850000D03*
G04 #@! TO.N,/LPC1549/BEACON_SENSE*
X146128861Y-107324746D03*
X166050000Y-98500000D03*
G04 #@! TO.N,/LPC1549/DRIVE_SENSE*
X140600000Y-84000000D03*
X140565705Y-104233048D03*
G04 #@! TO.N,/Sheet5A019745/SENSE1*
X148750000Y-84250000D03*
X144384565Y-105345973D03*
G04 #@! TO.N,/LPC1549/COOLER_SENSE*
X141600000Y-118750000D03*
X186300000Y-84450000D03*
G04 #@! TO.N,/LPC1549/IN_SENSE*
X176100000Y-98400000D03*
X145350000Y-110550000D03*
G04 #@! TO.N,/Sheet5A019745/IN1*
X145971904Y-105084529D03*
X150400000Y-84250000D03*
X158200000Y-84250000D03*
G04 #@! TO.N,/LPC1549/BACK*
X148600000Y-106250000D03*
X160550000Y-96700000D03*
G04 #@! TO.N,/LPC1549/DRIVE*
X142550000Y-84250000D03*
X141650000Y-104200000D03*
X134750000Y-84300000D03*
G04 #@! TO.N,/LPC1549/BEACON*
X148700000Y-105100000D03*
X158850000Y-96700000D03*
G04 #@! TO.N,/LPC1549/IN*
X169250000Y-98350000D03*
X146400000Y-108300000D03*
G04 #@! TO.N,/LPC1549/COOLER*
X140600000Y-118200000D03*
X188000000Y-84400000D03*
X180200000Y-84050000D03*
G04 #@! TO.N,/Sheet5A02A41E/IN1*
X170856324Y-98372913D03*
X147600000Y-108700000D03*
G04 #@! TO.N,/LPC1549/BACK_SENSE*
X146925256Y-106719950D03*
X162900000Y-98400000D03*
G04 #@! TO.N,/Sheet5A02A41E/SENSE1*
X144350000Y-110400000D03*
X172779319Y-98518590D03*
G04 #@! TD*
D14*
G04 #@! TO.N,/CANH*
X148249999Y-130150001D02*
X147850000Y-130550000D01*
X166001020Y-123000000D02*
X155400000Y-123000000D01*
X155400000Y-123000000D02*
X148249999Y-130150001D01*
G04 #@! TO.N,/CANL*
X163750000Y-122100000D02*
X164800000Y-121050000D01*
X164800000Y-121050000D02*
X168048980Y-121050000D01*
X147549999Y-129650001D02*
X155100000Y-122100000D01*
X155100000Y-122100000D02*
X163750000Y-122100000D01*
X146600000Y-130050000D02*
X146999999Y-129650001D01*
X146999999Y-129650001D02*
X147549999Y-129650001D01*
X168048980Y-121050000D02*
X169998980Y-123000000D01*
D15*
G04 #@! TO.N,/LPC1549/RESET*
X140250000Y-129100000D02*
X139050000Y-130300000D01*
X141200000Y-129100000D02*
X140250000Y-129100000D01*
G04 #@! TO.N,Net-(R301-Pad2)*
X130200000Y-99850000D02*
X131150000Y-100800000D01*
X130950000Y-68450000D02*
X130200000Y-69200000D01*
X130200000Y-69200000D02*
X130200000Y-99850000D01*
G04 #@! TO.N,Net-(R302-Pad2)*
X129700001Y-67449999D02*
X129700001Y-101250001D01*
X129700001Y-101250001D02*
X129900001Y-101450001D01*
X130100000Y-67050000D02*
X129700001Y-67449999D01*
X129900001Y-101450001D02*
X130300000Y-101850000D01*
G04 #@! TO.N,/LPC1549/BEACON_SENSE*
X149115711Y-107449989D02*
X146254104Y-107449989D01*
X166050000Y-98500000D02*
X163050011Y-101499989D01*
X163050011Y-101499989D02*
X156897111Y-101499989D01*
X156897111Y-101499989D02*
X156897067Y-101500033D01*
X156897067Y-101500033D02*
X155065667Y-101500033D01*
X155065667Y-101500033D02*
X149115711Y-107449989D01*
X146254104Y-107449989D02*
X146128861Y-107324746D01*
G04 #@! TO.N,/LPC1549/DRIVE_SENSE*
X140600000Y-104198753D02*
X140565705Y-104233048D01*
X140600000Y-84000000D02*
X140600000Y-104198753D01*
G04 #@! TO.N,/Sheet5A019745/SENSE1*
X148750000Y-85300000D02*
X148750000Y-84250000D01*
X145971892Y-88078108D02*
X148750000Y-85300000D01*
X145971892Y-104089393D02*
X145971892Y-88078108D01*
X144384565Y-105345973D02*
X144715312Y-105345973D01*
X144715312Y-105345973D02*
X145971892Y-104089393D01*
G04 #@! TO.N,/LPC1549/COOLER_SENSE*
X156375000Y-103975000D02*
X176625000Y-103975000D01*
X141600000Y-118750000D02*
X156375000Y-103975000D01*
X176625000Y-103975000D02*
X185950000Y-94650000D01*
X185950000Y-84800000D02*
X186300000Y-84450000D01*
X185950000Y-94650000D02*
X185950000Y-84800000D01*
G04 #@! TO.N,/LPC1549/IN_SENSE*
X148315699Y-110550000D02*
X155715699Y-103150000D01*
X145350000Y-110550000D02*
X148315699Y-110550000D01*
X155715699Y-103150000D02*
X170315698Y-103150000D01*
X170315698Y-103150000D02*
X175065698Y-98400000D01*
X175065698Y-98400000D02*
X176100000Y-98400000D01*
G04 #@! TO.N,/Sheet5A019745/IN1*
X146371903Y-88278097D02*
X150000001Y-84649999D01*
X150000001Y-84649999D02*
X150400000Y-84250000D01*
X146371903Y-104684530D02*
X146371903Y-88278097D01*
X145971904Y-105084529D02*
X146371903Y-104684530D01*
X157634315Y-84250000D02*
X150400000Y-84250000D01*
X158200000Y-84250000D02*
X157634315Y-84250000D01*
G04 #@! TO.N,/LPC1549/BACK*
X149499999Y-105850001D02*
X148999999Y-105850001D01*
X154649989Y-100700011D02*
X149499999Y-105850001D01*
X156565689Y-100700011D02*
X154649989Y-100700011D01*
X160550000Y-96700000D02*
X160150001Y-97099999D01*
X160150001Y-97115699D02*
X156565689Y-100700011D01*
X160150001Y-97099999D02*
X160150001Y-97115699D01*
X148999999Y-105850001D02*
X148600000Y-106250000D01*
G04 #@! TO.N,/LPC1549/DRIVE*
X142049999Y-103800001D02*
X141650000Y-104200000D01*
X141050000Y-102800002D02*
X142049999Y-103800001D01*
X142550000Y-84250000D02*
X141050000Y-85750000D01*
X141050000Y-85750000D02*
X141050000Y-102800002D01*
X142550000Y-84250000D02*
X141450000Y-83150000D01*
X141450000Y-83150000D02*
X135900000Y-83150000D01*
X135900000Y-83150000D02*
X134750000Y-84300000D01*
G04 #@! TO.N,/LPC1549/BEACON*
X158850000Y-97850000D02*
X156400000Y-100300000D01*
X156400000Y-100300000D02*
X154450000Y-100300000D01*
X158850000Y-96700000D02*
X158850000Y-97850000D01*
X149099999Y-104700001D02*
X148700000Y-105100000D01*
X154450000Y-100300000D02*
X150049999Y-104700001D01*
X150049999Y-104700001D02*
X149099999Y-104700001D01*
G04 #@! TO.N,/LPC1549/IN*
X157062800Y-101900000D02*
X167400000Y-101900000D01*
X146400000Y-108300000D02*
X146799999Y-107900001D01*
X169300000Y-98400000D02*
X169250000Y-98350000D01*
X157062756Y-101900044D02*
X157062800Y-101900000D01*
X155231356Y-101900044D02*
X157062756Y-101900044D01*
X149231399Y-107900001D02*
X155231356Y-101900044D01*
X146799999Y-107900001D02*
X149231399Y-107900001D01*
X167400000Y-101900000D02*
X169300000Y-100000000D01*
X169300000Y-100000000D02*
X169300000Y-98400000D01*
G04 #@! TO.N,/LPC1549/COOLER*
X141699999Y-117800001D02*
X155950000Y-103550000D01*
X140999999Y-117800001D02*
X141699999Y-117800001D01*
X140600000Y-118200000D02*
X140999999Y-117800001D01*
X155950000Y-103550000D02*
X176450000Y-103550000D01*
X176450000Y-103550000D02*
X185515001Y-94484999D01*
X188000000Y-84400000D02*
X187300000Y-83700000D01*
X185515001Y-94484999D02*
X185515001Y-84800000D01*
X180765685Y-84050000D02*
X180200000Y-84050000D01*
X185515001Y-84800000D02*
X185515001Y-84050000D01*
X185515001Y-84050000D02*
X180765685Y-84050000D01*
X185865001Y-83700000D02*
X186100000Y-83700000D01*
X187300000Y-83700000D02*
X186100000Y-83700000D01*
X185515001Y-84050000D02*
X185865001Y-83700000D01*
G04 #@! TO.N,/Sheet5A02A41E/IN1*
X170856324Y-98938598D02*
X170856324Y-98372913D01*
X167515700Y-102350000D02*
X170856324Y-99009376D01*
X148997100Y-108700000D02*
X155347100Y-102350000D01*
X155347100Y-102350000D02*
X167515700Y-102350000D01*
X170856324Y-99009376D02*
X170856324Y-98938598D01*
X147600000Y-108700000D02*
X148997100Y-108700000D01*
G04 #@! TO.N,/LPC1549/BACK_SENSE*
X147205306Y-107000000D02*
X146925256Y-106719950D01*
X149000000Y-107000000D02*
X147205306Y-107000000D01*
X160200022Y-101099978D02*
X156731422Y-101099978D01*
X156731378Y-101100022D02*
X154899978Y-101100022D01*
X154899978Y-101100022D02*
X149000000Y-107000000D01*
X162900000Y-98400000D02*
X160200022Y-101099978D01*
X156731422Y-101099978D02*
X156731378Y-101100022D01*
G04 #@! TO.N,/Sheet5A02A41E/SENSE1*
X170150000Y-102750000D02*
X172779319Y-100120681D01*
X155550000Y-102750000D02*
X170150000Y-102750000D01*
X172779319Y-100120681D02*
X172779319Y-98518590D01*
X148600000Y-109700000D02*
X155550000Y-102750000D01*
X144350000Y-110400000D02*
X145050000Y-109700000D01*
X145050000Y-109700000D02*
X148600000Y-109700000D01*
G04 #@! TD*
G04 #@! TO.N,GND*
G36*
X205391214Y-49662147D02*
X205750982Y-49825724D01*
X206050377Y-50083700D01*
X206265331Y-50415333D01*
X206384513Y-50813850D01*
X206400000Y-51022260D01*
X206400001Y-136957249D01*
X206337853Y-137391214D01*
X206174276Y-137750981D01*
X205916300Y-138050377D01*
X205584667Y-138265331D01*
X205186150Y-138384513D01*
X204977737Y-138400000D01*
X131042725Y-138400117D01*
X130608772Y-138338014D01*
X130249046Y-138174499D01*
X129949666Y-137916589D01*
X129734709Y-137585023D01*
X129615510Y-137186593D01*
X129600000Y-136977959D01*
X129600000Y-130120979D01*
X138150000Y-130120979D01*
X138150000Y-130479021D01*
X138287017Y-130809809D01*
X138540191Y-131062983D01*
X138870979Y-131200000D01*
X139229021Y-131200000D01*
X139559809Y-131062983D01*
X139812983Y-130809809D01*
X139950000Y-130479021D01*
X139950000Y-130248527D01*
X140498528Y-129700000D01*
X140527208Y-129700000D01*
X140690191Y-129862983D01*
X141020979Y-130000000D01*
X141379021Y-130000000D01*
X141690504Y-129870979D01*
X145700000Y-129870979D01*
X145700000Y-130229021D01*
X145837017Y-130559809D01*
X146090191Y-130812983D01*
X146420979Y-130950000D01*
X146779021Y-130950000D01*
X147003089Y-130857188D01*
X147087017Y-131059809D01*
X147340191Y-131312983D01*
X147670979Y-131450000D01*
X148029021Y-131450000D01*
X148359809Y-131312983D01*
X148612983Y-131059809D01*
X148750000Y-130729021D01*
X148750000Y-130710659D01*
X148832560Y-130628099D01*
X149558498Y-129902161D01*
X150800770Y-129902161D01*
X150800770Y-130697759D01*
X151105232Y-131432795D01*
X151667805Y-131995368D01*
X152402841Y-132299830D01*
X153198439Y-132299830D01*
X153933475Y-131995368D01*
X154496048Y-131432795D01*
X154800510Y-130697759D01*
X154800510Y-129902161D01*
X181199490Y-129902161D01*
X181199490Y-130697759D01*
X181503952Y-131432795D01*
X182066525Y-131995368D01*
X182801561Y-132299830D01*
X183597159Y-132299830D01*
X184332195Y-131995368D01*
X184894768Y-131432795D01*
X185199230Y-130697759D01*
X185199230Y-129902161D01*
X184894768Y-129167125D01*
X184332195Y-128604552D01*
X183597159Y-128300090D01*
X182801561Y-128300090D01*
X182066525Y-128604552D01*
X181503952Y-129167125D01*
X181199490Y-129902161D01*
X154800510Y-129902161D01*
X154496048Y-129167125D01*
X153933475Y-128604552D01*
X153198439Y-128300090D01*
X152402841Y-128300090D01*
X151667805Y-128604552D01*
X151105232Y-129167125D01*
X150800770Y-129902161D01*
X149558498Y-129902161D01*
X152823110Y-126637549D01*
X162190130Y-126637549D01*
X162190130Y-127358371D01*
X162465977Y-128024324D01*
X162975676Y-128534023D01*
X163641629Y-128809870D01*
X164362451Y-128809870D01*
X165028404Y-128534023D01*
X165538103Y-128024324D01*
X165813950Y-127358371D01*
X165813950Y-126637549D01*
X166188090Y-126637549D01*
X166188090Y-127358371D01*
X166463937Y-128024324D01*
X166973636Y-128534023D01*
X167639589Y-128809870D01*
X168360411Y-128809870D01*
X169026364Y-128534023D01*
X169536063Y-128024324D01*
X169811910Y-127358371D01*
X169811910Y-126637549D01*
X170186050Y-126637549D01*
X170186050Y-127358371D01*
X170461897Y-128024324D01*
X170971596Y-128534023D01*
X171637549Y-128809870D01*
X172358371Y-128809870D01*
X173024324Y-128534023D01*
X173534023Y-128024324D01*
X173809870Y-127358371D01*
X173809870Y-126637549D01*
X173534023Y-125971596D01*
X173024324Y-125461897D01*
X172358371Y-125186050D01*
X171637549Y-125186050D01*
X170971596Y-125461897D01*
X170461897Y-125971596D01*
X170186050Y-126637549D01*
X169811910Y-126637549D01*
X169536063Y-125971596D01*
X169026364Y-125461897D01*
X168360411Y-125186050D01*
X167639589Y-125186050D01*
X166973636Y-125461897D01*
X166463937Y-125971596D01*
X166188090Y-126637549D01*
X165813950Y-126637549D01*
X165538103Y-125971596D01*
X165028404Y-125461897D01*
X164362451Y-125186050D01*
X163641629Y-125186050D01*
X162975676Y-125461897D01*
X162465977Y-125971596D01*
X162190130Y-126637549D01*
X152823110Y-126637549D01*
X155710660Y-123750000D01*
X164350483Y-123750000D01*
X164464957Y-124026364D01*
X164974656Y-124536063D01*
X165640609Y-124811910D01*
X166361431Y-124811910D01*
X167027384Y-124536063D01*
X167537083Y-124026364D01*
X167812930Y-123360411D01*
X167812930Y-122639589D01*
X167537083Y-121973636D01*
X167363447Y-121800000D01*
X167738321Y-121800000D01*
X168301544Y-122363224D01*
X168187070Y-122639589D01*
X168187070Y-123360411D01*
X168462917Y-124026364D01*
X168972616Y-124536063D01*
X169638569Y-124811910D01*
X170359391Y-124811910D01*
X171025344Y-124536063D01*
X171535043Y-124026364D01*
X171810890Y-123360411D01*
X171810890Y-122639589D01*
X171535043Y-121973636D01*
X171025344Y-121463937D01*
X170359391Y-121188090D01*
X169638569Y-121188090D01*
X169362204Y-121302564D01*
X168724391Y-120664752D01*
X168986495Y-120564006D01*
X169065554Y-120511182D01*
X169200120Y-120237515D01*
X168000000Y-119037395D01*
X167985858Y-119051538D01*
X167950503Y-119016183D01*
X167964645Y-119002040D01*
X168035355Y-119002040D01*
X169235475Y-120202160D01*
X169509142Y-120067594D01*
X169802035Y-119408960D01*
X169820584Y-118688377D01*
X169802616Y-118641629D01*
X170186050Y-118641629D01*
X170186050Y-119362451D01*
X170461897Y-120028404D01*
X170971596Y-120538103D01*
X171637549Y-120813950D01*
X172358371Y-120813950D01*
X173024324Y-120538103D01*
X173534023Y-120028404D01*
X173809870Y-119362451D01*
X173809870Y-118641629D01*
X173534023Y-117975676D01*
X173024324Y-117465977D01*
X172358371Y-117190130D01*
X171637549Y-117190130D01*
X170971596Y-117465977D01*
X170461897Y-117975676D01*
X170186050Y-118641629D01*
X169802616Y-118641629D01*
X169561966Y-118015545D01*
X169509142Y-117936486D01*
X169235475Y-117801920D01*
X168035355Y-119002040D01*
X167964645Y-119002040D01*
X166764525Y-117801920D01*
X166490858Y-117936486D01*
X166197965Y-118595120D01*
X166179416Y-119315703D01*
X166438034Y-119988535D01*
X166490858Y-120067594D01*
X166764523Y-120202159D01*
X166677392Y-120289290D01*
X166688102Y-120300000D01*
X165823745Y-120300000D01*
X165823745Y-117766565D01*
X166799880Y-117766565D01*
X168000000Y-118966685D01*
X169200120Y-117766565D01*
X169065554Y-117492898D01*
X168406920Y-117200005D01*
X167686337Y-117181456D01*
X167013505Y-117440074D01*
X166934446Y-117492898D01*
X166799880Y-117766565D01*
X165823745Y-117766565D01*
X165823745Y-117690130D01*
X165784939Y-117495040D01*
X165674430Y-117329650D01*
X165509040Y-117219141D01*
X165313950Y-117180335D01*
X162690130Y-117180335D01*
X162495040Y-117219141D01*
X162329650Y-117329650D01*
X162219141Y-117495040D01*
X162180335Y-117690130D01*
X162180335Y-120313950D01*
X162219141Y-120509040D01*
X162329650Y-120674430D01*
X162495040Y-120784939D01*
X162690130Y-120823745D01*
X163965595Y-120823745D01*
X163439341Y-121350000D01*
X155173865Y-121350000D01*
X155100000Y-121335307D01*
X155026135Y-121350000D01*
X155026134Y-121350000D01*
X154807365Y-121393516D01*
X154559280Y-121559280D01*
X154517438Y-121621902D01*
X147239340Y-128900001D01*
X147073863Y-128900001D01*
X146999998Y-128885308D01*
X146926133Y-128900001D01*
X146707364Y-128943517D01*
X146459279Y-129109281D01*
X146432072Y-129150000D01*
X146420979Y-129150000D01*
X146090191Y-129287017D01*
X145837017Y-129540191D01*
X145700000Y-129870979D01*
X141690504Y-129870979D01*
X141709809Y-129862983D01*
X141962983Y-129609809D01*
X142100000Y-129279021D01*
X142100000Y-128920979D01*
X141962983Y-128590191D01*
X141709809Y-128337017D01*
X141379021Y-128200000D01*
X141020979Y-128200000D01*
X140690191Y-128337017D01*
X140527208Y-128500000D01*
X140309086Y-128500000D01*
X140249999Y-128488247D01*
X140190913Y-128500000D01*
X140190909Y-128500000D01*
X140015892Y-128534813D01*
X139817425Y-128667425D01*
X139783953Y-128717519D01*
X139101473Y-129400000D01*
X138870979Y-129400000D01*
X138540191Y-129537017D01*
X138287017Y-129790191D01*
X138150000Y-130120979D01*
X129600000Y-130120979D01*
X129600000Y-118020979D01*
X139700000Y-118020979D01*
X139700000Y-118379021D01*
X139837017Y-118709809D01*
X140090191Y-118962983D01*
X140420979Y-119100000D01*
X140770822Y-119100000D01*
X140837017Y-119259809D01*
X141090191Y-119512983D01*
X141420979Y-119650000D01*
X141779021Y-119650000D01*
X142109809Y-119512983D01*
X142362983Y-119259809D01*
X142500000Y-118929021D01*
X142500000Y-118698527D01*
X149393866Y-111804661D01*
X152301910Y-111804661D01*
X152301910Y-112600259D01*
X152606372Y-113335295D01*
X153168945Y-113897868D01*
X153903981Y-114202330D01*
X154699579Y-114202330D01*
X155434615Y-113897868D01*
X155997188Y-113335295D01*
X156301650Y-112600259D01*
X156301650Y-111804661D01*
X179698350Y-111804661D01*
X179698350Y-112600259D01*
X180002812Y-113335295D01*
X180565385Y-113897868D01*
X181300421Y-114202330D01*
X182096019Y-114202330D01*
X182831055Y-113897868D01*
X183393628Y-113335295D01*
X183698090Y-112600259D01*
X183698090Y-111804661D01*
X183393628Y-111069625D01*
X182831055Y-110507052D01*
X182096019Y-110202590D01*
X181300421Y-110202590D01*
X180565385Y-110507052D01*
X180002812Y-111069625D01*
X179698350Y-111804661D01*
X156301650Y-111804661D01*
X155997188Y-111069625D01*
X155434615Y-110507052D01*
X154699579Y-110202590D01*
X153903981Y-110202590D01*
X153168945Y-110507052D01*
X152606372Y-111069625D01*
X152301910Y-111804661D01*
X149393866Y-111804661D01*
X156623528Y-104575000D01*
X176565914Y-104575000D01*
X176625000Y-104586753D01*
X176684086Y-104575000D01*
X176684091Y-104575000D01*
X176859108Y-104540187D01*
X177057575Y-104407575D01*
X177091049Y-104357478D01*
X186332482Y-95116046D01*
X186382575Y-95082575D01*
X186515187Y-94884108D01*
X186550000Y-94709091D01*
X186550000Y-94709087D01*
X186561753Y-94650001D01*
X186550000Y-94590915D01*
X186550000Y-85320600D01*
X186809809Y-85212983D01*
X187062983Y-84959809D01*
X187160355Y-84724732D01*
X187237017Y-84909809D01*
X187490191Y-85162983D01*
X187820979Y-85300000D01*
X188179021Y-85300000D01*
X188509809Y-85162983D01*
X188762983Y-84909809D01*
X188900000Y-84579021D01*
X188900000Y-84220979D01*
X188762983Y-83890191D01*
X188509809Y-83637017D01*
X188179021Y-83500000D01*
X187948527Y-83500000D01*
X187766048Y-83317521D01*
X187732575Y-83267425D01*
X187534108Y-83134813D01*
X187359091Y-83100000D01*
X187359086Y-83100000D01*
X187300000Y-83088247D01*
X187240914Y-83100000D01*
X185924089Y-83100000D01*
X185865001Y-83088247D01*
X185805913Y-83100000D01*
X185805910Y-83100000D01*
X185672688Y-83126499D01*
X185630892Y-83134813D01*
X185550031Y-83188844D01*
X185432426Y-83267425D01*
X185398952Y-83317522D01*
X185266474Y-83450000D01*
X180872792Y-83450000D01*
X180709809Y-83287017D01*
X180379021Y-83150000D01*
X180020979Y-83150000D01*
X179690191Y-83287017D01*
X179437017Y-83540191D01*
X179300000Y-83870979D01*
X179300000Y-84229021D01*
X179437017Y-84559809D01*
X179690191Y-84812983D01*
X180020979Y-84950000D01*
X180379021Y-84950000D01*
X180709809Y-84812983D01*
X180872792Y-84650000D01*
X184915001Y-84650000D01*
X184915001Y-84859090D01*
X184915002Y-84859095D01*
X184915001Y-94236471D01*
X176201473Y-102950000D01*
X171364225Y-102950000D01*
X175314226Y-99000000D01*
X175427208Y-99000000D01*
X175590191Y-99162983D01*
X175920979Y-99300000D01*
X176279021Y-99300000D01*
X176609809Y-99162983D01*
X176862983Y-98909809D01*
X177000000Y-98579021D01*
X177000000Y-98220979D01*
X176862983Y-97890191D01*
X176609809Y-97637017D01*
X176279021Y-97500000D01*
X175920979Y-97500000D01*
X175590191Y-97637017D01*
X175427208Y-97800000D01*
X175124783Y-97800000D01*
X175065697Y-97788247D01*
X175006611Y-97800000D01*
X175006607Y-97800000D01*
X174831590Y-97834813D01*
X174808860Y-97850001D01*
X174683219Y-97933952D01*
X174633123Y-97967425D01*
X174599651Y-98017519D01*
X173379319Y-99237851D01*
X173379319Y-99191382D01*
X173542302Y-99028399D01*
X173679319Y-98697611D01*
X173679319Y-98339569D01*
X173542302Y-98008781D01*
X173289128Y-97755607D01*
X172958340Y-97618590D01*
X172600298Y-97618590D01*
X172269510Y-97755607D01*
X172016336Y-98008781D01*
X171879319Y-98339569D01*
X171879319Y-98697611D01*
X172016336Y-99028399D01*
X172179320Y-99191383D01*
X172179319Y-99872152D01*
X169901473Y-102150000D01*
X168564227Y-102150000D01*
X171238806Y-99475422D01*
X171288899Y-99441951D01*
X171336192Y-99371173D01*
X171421511Y-99243485D01*
X171429825Y-99201689D01*
X171456324Y-99068467D01*
X171456324Y-99068464D01*
X171461975Y-99040054D01*
X171619307Y-98882722D01*
X171756324Y-98551934D01*
X171756324Y-98193892D01*
X171619307Y-97863104D01*
X171366133Y-97609930D01*
X171035345Y-97472913D01*
X170677303Y-97472913D01*
X170346515Y-97609930D01*
X170093341Y-97863104D01*
X170057907Y-97948648D01*
X170012983Y-97840191D01*
X169759809Y-97587017D01*
X169429021Y-97450000D01*
X169070979Y-97450000D01*
X168740191Y-97587017D01*
X168487017Y-97840191D01*
X168350000Y-98170979D01*
X168350000Y-98529021D01*
X168487017Y-98859809D01*
X168700001Y-99072793D01*
X168700000Y-99751472D01*
X167151473Y-101300000D01*
X164098527Y-101300000D01*
X165998528Y-99400000D01*
X166229021Y-99400000D01*
X166559809Y-99262983D01*
X166812983Y-99009809D01*
X166950000Y-98679021D01*
X166950000Y-98320979D01*
X166812983Y-97990191D01*
X166559809Y-97737017D01*
X166229021Y-97600000D01*
X165870979Y-97600000D01*
X165540191Y-97737017D01*
X165287017Y-97990191D01*
X165150000Y-98320979D01*
X165150000Y-98551472D01*
X162801484Y-100899989D01*
X161248538Y-100899989D01*
X162848529Y-99300000D01*
X163079021Y-99300000D01*
X163409809Y-99162983D01*
X163662983Y-98909809D01*
X163800000Y-98579021D01*
X163800000Y-98220979D01*
X163662983Y-97890191D01*
X163409809Y-97637017D01*
X163079021Y-97500000D01*
X162720979Y-97500000D01*
X162390191Y-97637017D01*
X162137017Y-97890191D01*
X162000000Y-98220979D01*
X162000000Y-98451471D01*
X159951495Y-100499978D01*
X157614249Y-100499978D01*
X160514228Y-97600000D01*
X160729021Y-97600000D01*
X161059809Y-97462983D01*
X161312983Y-97209809D01*
X161450000Y-96879021D01*
X161450000Y-96520979D01*
X161312983Y-96190191D01*
X161059809Y-95937017D01*
X160729021Y-95800000D01*
X160370979Y-95800000D01*
X160040191Y-95937017D01*
X159787017Y-96190191D01*
X159700000Y-96400268D01*
X159612983Y-96190191D01*
X159359809Y-95937017D01*
X159029021Y-95800000D01*
X158670979Y-95800000D01*
X158340191Y-95937017D01*
X158087017Y-96190191D01*
X157950000Y-96520979D01*
X157950000Y-96879021D01*
X158087017Y-97209809D01*
X158250001Y-97372793D01*
X158250001Y-97601471D01*
X156151473Y-99700000D01*
X154509086Y-99700000D01*
X154449999Y-99688247D01*
X154390913Y-99700000D01*
X154390909Y-99700000D01*
X154215892Y-99734813D01*
X154017425Y-99867425D01*
X153983953Y-99917519D01*
X149801472Y-104100001D01*
X149159085Y-104100001D01*
X149099998Y-104088248D01*
X149040912Y-104100001D01*
X149040908Y-104100001D01*
X148865891Y-104134814D01*
X148768334Y-104200000D01*
X148520979Y-104200000D01*
X148190191Y-104337017D01*
X147937017Y-104590191D01*
X147800000Y-104920979D01*
X147800000Y-105279021D01*
X147937017Y-105609809D01*
X147952208Y-105625000D01*
X147837017Y-105740191D01*
X147700000Y-106070979D01*
X147700000Y-106238535D01*
X147688239Y-106210141D01*
X147435065Y-105956967D01*
X147104277Y-105819950D01*
X146746235Y-105819950D01*
X146415447Y-105956967D01*
X146162273Y-106210141D01*
X146073381Y-106424746D01*
X145949840Y-106424746D01*
X145619052Y-106561763D01*
X145365878Y-106814937D01*
X145228861Y-107145725D01*
X145228861Y-107503767D01*
X145365878Y-107834555D01*
X145544608Y-108013285D01*
X145500000Y-108120979D01*
X145500000Y-108479021D01*
X145637017Y-108809809D01*
X145890191Y-109062983D01*
X145979558Y-109100000D01*
X145109085Y-109100000D01*
X145049999Y-109088247D01*
X144990913Y-109100000D01*
X144990909Y-109100000D01*
X144815892Y-109134813D01*
X144617425Y-109267425D01*
X144583953Y-109317519D01*
X144401472Y-109500000D01*
X144170979Y-109500000D01*
X143840191Y-109637017D01*
X143587017Y-109890191D01*
X143450000Y-110220979D01*
X143450000Y-110579021D01*
X143587017Y-110909809D01*
X143840191Y-111162983D01*
X144170979Y-111300000D01*
X144529021Y-111300000D01*
X144739871Y-111212663D01*
X144840191Y-111312983D01*
X145170979Y-111450000D01*
X145529021Y-111450000D01*
X145859809Y-111312983D01*
X146022792Y-111150000D01*
X147501473Y-111150000D01*
X141451472Y-117200001D01*
X141059085Y-117200001D01*
X140999998Y-117188248D01*
X140940912Y-117200001D01*
X140940908Y-117200001D01*
X140765891Y-117234814D01*
X140765889Y-117234815D01*
X140765890Y-117234815D01*
X140668334Y-117300000D01*
X140420979Y-117300000D01*
X140090191Y-117437017D01*
X139837017Y-117690191D01*
X139700000Y-118020979D01*
X129600000Y-118020979D01*
X129600000Y-105166952D01*
X143484565Y-105166952D01*
X143484565Y-105524994D01*
X143621582Y-105855782D01*
X143874756Y-106108956D01*
X144205544Y-106245973D01*
X144563586Y-106245973D01*
X144894374Y-106108956D01*
X145147548Y-105855782D01*
X145213675Y-105696137D01*
X145262198Y-105647615D01*
X145462095Y-105847512D01*
X145792883Y-105984529D01*
X146150925Y-105984529D01*
X146481713Y-105847512D01*
X146734887Y-105594338D01*
X146871904Y-105263550D01*
X146871904Y-105016195D01*
X146937090Y-104918638D01*
X146971903Y-104743621D01*
X146971903Y-104743617D01*
X146983656Y-104684531D01*
X146971903Y-104625444D01*
X146971903Y-88526624D01*
X150348528Y-85150000D01*
X150579021Y-85150000D01*
X150909809Y-85012983D01*
X151072792Y-84850000D01*
X157527208Y-84850000D01*
X157690191Y-85012983D01*
X158020979Y-85150000D01*
X158379021Y-85150000D01*
X158709809Y-85012983D01*
X158962983Y-84759809D01*
X159100000Y-84429021D01*
X159100000Y-84070979D01*
X158962983Y-83740191D01*
X158709809Y-83487017D01*
X158379021Y-83350000D01*
X158020979Y-83350000D01*
X157690191Y-83487017D01*
X157527208Y-83650000D01*
X151072792Y-83650000D01*
X150909809Y-83487017D01*
X150579021Y-83350000D01*
X150220979Y-83350000D01*
X149890191Y-83487017D01*
X149637017Y-83740191D01*
X149575000Y-83889913D01*
X149512983Y-83740191D01*
X149259809Y-83487017D01*
X148929021Y-83350000D01*
X148570979Y-83350000D01*
X148240191Y-83487017D01*
X147987017Y-83740191D01*
X147850000Y-84070979D01*
X147850000Y-84429021D01*
X147987017Y-84759809D01*
X148150000Y-84922792D01*
X148150000Y-85051472D01*
X145589412Y-87612061D01*
X145539318Y-87645533D01*
X145505846Y-87695627D01*
X145505845Y-87695628D01*
X145406706Y-87844000D01*
X145360139Y-88078108D01*
X145371893Y-88137199D01*
X145371892Y-103840865D01*
X144707269Y-104505489D01*
X144563586Y-104445973D01*
X144205544Y-104445973D01*
X143874756Y-104582990D01*
X143621582Y-104836164D01*
X143484565Y-105166952D01*
X129600000Y-105166952D01*
X129600000Y-102422792D01*
X129790191Y-102612983D01*
X130120979Y-102750000D01*
X130479021Y-102750000D01*
X130809809Y-102612983D01*
X131062983Y-102359809D01*
X131200000Y-102029021D01*
X131200000Y-101700000D01*
X131329021Y-101700000D01*
X131659809Y-101562983D01*
X131912983Y-101309809D01*
X132050000Y-100979021D01*
X132050000Y-100620979D01*
X131912983Y-100290191D01*
X131659809Y-100037017D01*
X131329021Y-99900000D01*
X131098527Y-99900000D01*
X130800000Y-99601473D01*
X130800000Y-84120979D01*
X133850000Y-84120979D01*
X133850000Y-84479021D01*
X133987017Y-84809809D01*
X134240191Y-85062983D01*
X134570979Y-85200000D01*
X134929021Y-85200000D01*
X135259809Y-85062983D01*
X135512983Y-84809809D01*
X135650000Y-84479021D01*
X135650000Y-84248528D01*
X136148529Y-83750000D01*
X139729400Y-83750000D01*
X139700000Y-83820979D01*
X139700000Y-84179021D01*
X139837017Y-84509809D01*
X140000000Y-84672792D01*
X140000001Y-103525960D01*
X139802722Y-103723239D01*
X139665705Y-104054027D01*
X139665705Y-104412069D01*
X139802722Y-104742857D01*
X140055896Y-104996031D01*
X140386684Y-105133048D01*
X140744726Y-105133048D01*
X141075514Y-104996031D01*
X141124377Y-104947169D01*
X141140191Y-104962983D01*
X141470979Y-105100000D01*
X141829021Y-105100000D01*
X142159809Y-104962983D01*
X142412983Y-104709809D01*
X142550000Y-104379021D01*
X142550000Y-104131666D01*
X142615185Y-104034110D01*
X142661752Y-103800002D01*
X142658591Y-103784108D01*
X142615185Y-103565892D01*
X142516046Y-103417520D01*
X142516045Y-103417519D01*
X142482574Y-103367426D01*
X142432481Y-103333955D01*
X141650000Y-102551475D01*
X141650000Y-85998527D01*
X142498528Y-85150000D01*
X142729021Y-85150000D01*
X143059809Y-85012983D01*
X143312983Y-84759809D01*
X143450000Y-84429021D01*
X143450000Y-84070979D01*
X143312983Y-83740191D01*
X143059809Y-83487017D01*
X142729021Y-83350000D01*
X142498528Y-83350000D01*
X141916049Y-82767521D01*
X141882575Y-82717425D01*
X141684108Y-82584813D01*
X141509091Y-82550000D01*
X141509086Y-82550000D01*
X141450000Y-82538247D01*
X141390914Y-82550000D01*
X135959088Y-82550000D01*
X135900000Y-82538247D01*
X135840912Y-82550000D01*
X135840909Y-82550000D01*
X135665892Y-82584813D01*
X135517519Y-82683952D01*
X135517516Y-82683955D01*
X135467425Y-82717425D01*
X135433955Y-82767516D01*
X134801472Y-83400000D01*
X134570979Y-83400000D01*
X134240191Y-83537017D01*
X133987017Y-83790191D01*
X133850000Y-84120979D01*
X130800000Y-84120979D01*
X130800000Y-71902161D01*
X140800790Y-71902161D01*
X140800790Y-72697759D01*
X141105252Y-73432795D01*
X141667825Y-73995368D01*
X142402861Y-74299830D01*
X143198459Y-74299830D01*
X143933495Y-73995368D01*
X144496068Y-73432795D01*
X144800530Y-72697759D01*
X144800530Y-71902161D01*
X191199470Y-71902161D01*
X191199470Y-72697759D01*
X191503932Y-73432795D01*
X192066505Y-73995368D01*
X192801541Y-74299830D01*
X193597139Y-74299830D01*
X194332175Y-73995368D01*
X194894748Y-73432795D01*
X195199210Y-72697759D01*
X195199210Y-71902161D01*
X194894748Y-71167125D01*
X194332175Y-70604552D01*
X193597139Y-70300090D01*
X192801541Y-70300090D01*
X192066505Y-70604552D01*
X191503932Y-71167125D01*
X191199470Y-71902161D01*
X144800530Y-71902161D01*
X144496068Y-71167125D01*
X143933495Y-70604552D01*
X143198459Y-70300090D01*
X142402861Y-70300090D01*
X141667825Y-70604552D01*
X141105252Y-71167125D01*
X140800790Y-71902161D01*
X130800000Y-71902161D01*
X130800000Y-69448527D01*
X130898527Y-69350000D01*
X131129021Y-69350000D01*
X131459809Y-69212983D01*
X131712983Y-68959809D01*
X131846467Y-68637549D01*
X152190150Y-68637549D01*
X152190150Y-69358371D01*
X152465997Y-70024324D01*
X152975696Y-70534023D01*
X153641649Y-70809870D01*
X154362471Y-70809870D01*
X155028424Y-70534023D01*
X155538123Y-70024324D01*
X155813970Y-69358371D01*
X155813970Y-68637549D01*
X156188110Y-68637549D01*
X156188110Y-69358371D01*
X156463957Y-70024324D01*
X156973656Y-70534023D01*
X157639609Y-70809870D01*
X158360431Y-70809870D01*
X159026384Y-70534023D01*
X159536083Y-70024324D01*
X159811930Y-69358371D01*
X159811930Y-68637549D01*
X160188610Y-68637549D01*
X160188610Y-69358371D01*
X160464457Y-70024324D01*
X160974156Y-70534023D01*
X161640109Y-70809870D01*
X162360931Y-70809870D01*
X163026884Y-70534023D01*
X163536583Y-70024324D01*
X163812430Y-69358371D01*
X163812430Y-68637549D01*
X164189110Y-68637549D01*
X164189110Y-69358371D01*
X164464957Y-70024324D01*
X164974656Y-70534023D01*
X165640609Y-70809870D01*
X166361431Y-70809870D01*
X167027384Y-70534023D01*
X167537083Y-70024324D01*
X167812930Y-69358371D01*
X167812930Y-68637549D01*
X168187070Y-68637549D01*
X168187070Y-69358371D01*
X168462917Y-70024324D01*
X168972616Y-70534023D01*
X169638569Y-70809870D01*
X170359391Y-70809870D01*
X171025344Y-70534023D01*
X171535043Y-70024324D01*
X171810890Y-69358371D01*
X171810890Y-68637549D01*
X172187570Y-68637549D01*
X172187570Y-69358371D01*
X172463417Y-70024324D01*
X172973116Y-70534023D01*
X173639069Y-70809870D01*
X174359891Y-70809870D01*
X175025844Y-70534023D01*
X175535543Y-70024324D01*
X175811390Y-69358371D01*
X175811390Y-68637549D01*
X176188070Y-68637549D01*
X176188070Y-69358371D01*
X176463917Y-70024324D01*
X176973616Y-70534023D01*
X177639569Y-70809870D01*
X178360391Y-70809870D01*
X179026344Y-70534023D01*
X179536043Y-70024324D01*
X179811890Y-69358371D01*
X179811890Y-68637549D01*
X180186030Y-68637549D01*
X180186030Y-69358371D01*
X180461877Y-70024324D01*
X180971576Y-70534023D01*
X181637529Y-70809870D01*
X182358351Y-70809870D01*
X183024304Y-70534023D01*
X183534003Y-70024324D01*
X183809850Y-69358371D01*
X183809850Y-68637549D01*
X183534003Y-67971596D01*
X183024304Y-67461897D01*
X182358351Y-67186050D01*
X181637529Y-67186050D01*
X180971576Y-67461897D01*
X180461877Y-67971596D01*
X180186030Y-68637549D01*
X179811890Y-68637549D01*
X179536043Y-67971596D01*
X179026344Y-67461897D01*
X178360391Y-67186050D01*
X177639569Y-67186050D01*
X176973616Y-67461897D01*
X176463917Y-67971596D01*
X176188070Y-68637549D01*
X175811390Y-68637549D01*
X175535543Y-67971596D01*
X175025844Y-67461897D01*
X174359891Y-67186050D01*
X173639069Y-67186050D01*
X172973116Y-67461897D01*
X172463417Y-67971596D01*
X172187570Y-68637549D01*
X171810890Y-68637549D01*
X171535043Y-67971596D01*
X171025344Y-67461897D01*
X170359391Y-67186050D01*
X169638569Y-67186050D01*
X168972616Y-67461897D01*
X168462917Y-67971596D01*
X168187070Y-68637549D01*
X167812930Y-68637549D01*
X167537083Y-67971596D01*
X167027384Y-67461897D01*
X166361431Y-67186050D01*
X165640609Y-67186050D01*
X164974656Y-67461897D01*
X164464957Y-67971596D01*
X164189110Y-68637549D01*
X163812430Y-68637549D01*
X163536583Y-67971596D01*
X163026884Y-67461897D01*
X162360931Y-67186050D01*
X161640109Y-67186050D01*
X160974156Y-67461897D01*
X160464457Y-67971596D01*
X160188610Y-68637549D01*
X159811930Y-68637549D01*
X159536083Y-67971596D01*
X159026384Y-67461897D01*
X158360431Y-67186050D01*
X157639609Y-67186050D01*
X156973656Y-67461897D01*
X156463957Y-67971596D01*
X156188110Y-68637549D01*
X155813970Y-68637549D01*
X155538123Y-67971596D01*
X155028424Y-67461897D01*
X154362471Y-67186050D01*
X153641649Y-67186050D01*
X152975696Y-67461897D01*
X152465997Y-67971596D01*
X152190150Y-68637549D01*
X131846467Y-68637549D01*
X131850000Y-68629021D01*
X131850000Y-68270979D01*
X131712983Y-67940191D01*
X131459809Y-67687017D01*
X131129021Y-67550000D01*
X130867046Y-67550000D01*
X131000000Y-67229021D01*
X131000000Y-66870979D01*
X130862983Y-66540191D01*
X130609809Y-66287017D01*
X130279021Y-66150000D01*
X129920979Y-66150000D01*
X129600000Y-66282954D01*
X129600000Y-64639589D01*
X154189130Y-64639589D01*
X154189130Y-65360411D01*
X154464977Y-66026364D01*
X154974676Y-66536063D01*
X155640629Y-66811910D01*
X156361451Y-66811910D01*
X157027404Y-66536063D01*
X157537103Y-66026364D01*
X157812950Y-65360411D01*
X157812950Y-64639589D01*
X158189630Y-64639589D01*
X158189630Y-65360411D01*
X158465477Y-66026364D01*
X158975176Y-66536063D01*
X159641129Y-66811910D01*
X160361951Y-66811910D01*
X161027904Y-66536063D01*
X161537603Y-66026364D01*
X161813450Y-65360411D01*
X161813450Y-64639589D01*
X162190130Y-64639589D01*
X162190130Y-65360411D01*
X162465977Y-66026364D01*
X162975676Y-66536063D01*
X163641629Y-66811910D01*
X164362451Y-66811910D01*
X165028404Y-66536063D01*
X165538103Y-66026364D01*
X165813950Y-65360411D01*
X165813950Y-64639589D01*
X166188090Y-64639589D01*
X166188090Y-65360411D01*
X166463937Y-66026364D01*
X166973636Y-66536063D01*
X167639589Y-66811910D01*
X168360411Y-66811910D01*
X169026364Y-66536063D01*
X169536063Y-66026364D01*
X169811910Y-65360411D01*
X169811910Y-64639589D01*
X170186050Y-64639589D01*
X170186050Y-65360411D01*
X170461897Y-66026364D01*
X170971596Y-66536063D01*
X171637549Y-66811910D01*
X172358371Y-66811910D01*
X173024324Y-66536063D01*
X173534023Y-66026364D01*
X173809870Y-65360411D01*
X173809870Y-64639589D01*
X174186550Y-64639589D01*
X174186550Y-65360411D01*
X174462397Y-66026364D01*
X174972096Y-66536063D01*
X175638049Y-66811910D01*
X176358871Y-66811910D01*
X177024824Y-66536063D01*
X177534523Y-66026364D01*
X177810370Y-65360411D01*
X177810370Y-64639589D01*
X178187050Y-64639589D01*
X178187050Y-65360411D01*
X178462897Y-66026364D01*
X178972596Y-66536063D01*
X179638549Y-66811910D01*
X180359371Y-66811910D01*
X181025324Y-66536063D01*
X181535023Y-66026364D01*
X181810870Y-65360411D01*
X181810870Y-64639589D01*
X181535023Y-63973636D01*
X181025324Y-63463937D01*
X180359371Y-63188090D01*
X179638549Y-63188090D01*
X178972596Y-63463937D01*
X178462897Y-63973636D01*
X178187050Y-64639589D01*
X177810370Y-64639589D01*
X177534523Y-63973636D01*
X177024824Y-63463937D01*
X176358871Y-63188090D01*
X175638049Y-63188090D01*
X174972096Y-63463937D01*
X174462397Y-63973636D01*
X174186550Y-64639589D01*
X173809870Y-64639589D01*
X173534023Y-63973636D01*
X173024324Y-63463937D01*
X172358371Y-63188090D01*
X171637549Y-63188090D01*
X170971596Y-63463937D01*
X170461897Y-63973636D01*
X170186050Y-64639589D01*
X169811910Y-64639589D01*
X169536063Y-63973636D01*
X169026364Y-63463937D01*
X168360411Y-63188090D01*
X167639589Y-63188090D01*
X166973636Y-63463937D01*
X166463937Y-63973636D01*
X166188090Y-64639589D01*
X165813950Y-64639589D01*
X165538103Y-63973636D01*
X165028404Y-63463937D01*
X164362451Y-63188090D01*
X163641629Y-63188090D01*
X162975676Y-63463937D01*
X162465977Y-63973636D01*
X162190130Y-64639589D01*
X161813450Y-64639589D01*
X161537603Y-63973636D01*
X161027904Y-63463937D01*
X160361951Y-63188090D01*
X159641129Y-63188090D01*
X158975176Y-63463937D01*
X158465477Y-63973636D01*
X158189630Y-64639589D01*
X157812950Y-64639589D01*
X157537103Y-63973636D01*
X157027404Y-63463937D01*
X156361451Y-63188090D01*
X155640629Y-63188090D01*
X154974676Y-63463937D01*
X154464977Y-63973636D01*
X154189130Y-64639589D01*
X129600000Y-64639589D01*
X129600000Y-59690130D01*
X152180355Y-59690130D01*
X152180355Y-62313950D01*
X152219161Y-62509040D01*
X152329670Y-62674430D01*
X152495060Y-62784939D01*
X152690150Y-62823745D01*
X155313970Y-62823745D01*
X155509060Y-62784939D01*
X155674450Y-62674430D01*
X155784959Y-62509040D01*
X155823765Y-62313950D01*
X155823765Y-60641629D01*
X156188110Y-60641629D01*
X156188110Y-61362451D01*
X156463957Y-62028404D01*
X156973656Y-62538103D01*
X157639609Y-62813950D01*
X158360431Y-62813950D01*
X159026384Y-62538103D01*
X159536083Y-62028404D01*
X159811930Y-61362451D01*
X159811930Y-60641629D01*
X160188610Y-60641629D01*
X160188610Y-61362451D01*
X160464457Y-62028404D01*
X160974156Y-62538103D01*
X161640109Y-62813950D01*
X162360931Y-62813950D01*
X163026884Y-62538103D01*
X163536583Y-62028404D01*
X163812430Y-61362451D01*
X163812430Y-60641629D01*
X164189110Y-60641629D01*
X164189110Y-61362451D01*
X164464957Y-62028404D01*
X164974656Y-62538103D01*
X165640609Y-62813950D01*
X166361431Y-62813950D01*
X167027384Y-62538103D01*
X167537083Y-62028404D01*
X167812930Y-61362451D01*
X167812930Y-60641629D01*
X168187070Y-60641629D01*
X168187070Y-61362451D01*
X168462917Y-62028404D01*
X168972616Y-62538103D01*
X169638569Y-62813950D01*
X170359391Y-62813950D01*
X171025344Y-62538103D01*
X171535043Y-62028404D01*
X171810890Y-61362451D01*
X171810890Y-60641629D01*
X172187570Y-60641629D01*
X172187570Y-61362451D01*
X172463417Y-62028404D01*
X172973116Y-62538103D01*
X173639069Y-62813950D01*
X174359891Y-62813950D01*
X175025844Y-62538103D01*
X175535543Y-62028404D01*
X175811390Y-61362451D01*
X175811390Y-60641629D01*
X176188070Y-60641629D01*
X176188070Y-61362451D01*
X176463917Y-62028404D01*
X176973616Y-62538103D01*
X177639569Y-62813950D01*
X178360391Y-62813950D01*
X179026344Y-62538103D01*
X179536043Y-62028404D01*
X179811890Y-61362451D01*
X179811890Y-60641629D01*
X180186030Y-60641629D01*
X180186030Y-61362451D01*
X180461877Y-62028404D01*
X180971576Y-62538103D01*
X181637529Y-62813950D01*
X182358351Y-62813950D01*
X183024304Y-62538103D01*
X183534003Y-62028404D01*
X183809850Y-61362451D01*
X183809850Y-60641629D01*
X183534003Y-59975676D01*
X183024304Y-59465977D01*
X182358351Y-59190130D01*
X181637529Y-59190130D01*
X180971576Y-59465977D01*
X180461877Y-59975676D01*
X180186030Y-60641629D01*
X179811890Y-60641629D01*
X179536043Y-59975676D01*
X179026344Y-59465977D01*
X178360391Y-59190130D01*
X177639569Y-59190130D01*
X176973616Y-59465977D01*
X176463917Y-59975676D01*
X176188070Y-60641629D01*
X175811390Y-60641629D01*
X175535543Y-59975676D01*
X175025844Y-59465977D01*
X174359891Y-59190130D01*
X173639069Y-59190130D01*
X172973116Y-59465977D01*
X172463417Y-59975676D01*
X172187570Y-60641629D01*
X171810890Y-60641629D01*
X171535043Y-59975676D01*
X171025344Y-59465977D01*
X170359391Y-59190130D01*
X169638569Y-59190130D01*
X168972616Y-59465977D01*
X168462917Y-59975676D01*
X168187070Y-60641629D01*
X167812930Y-60641629D01*
X167537083Y-59975676D01*
X167027384Y-59465977D01*
X166361431Y-59190130D01*
X165640609Y-59190130D01*
X164974656Y-59465977D01*
X164464957Y-59975676D01*
X164189110Y-60641629D01*
X163812430Y-60641629D01*
X163536583Y-59975676D01*
X163026884Y-59465977D01*
X162360931Y-59190130D01*
X161640109Y-59190130D01*
X160974156Y-59465977D01*
X160464457Y-59975676D01*
X160188610Y-60641629D01*
X159811930Y-60641629D01*
X159536083Y-59975676D01*
X159026384Y-59465977D01*
X158360431Y-59190130D01*
X157639609Y-59190130D01*
X156973656Y-59465977D01*
X156463957Y-59975676D01*
X156188110Y-60641629D01*
X155823765Y-60641629D01*
X155823765Y-59690130D01*
X155784959Y-59495040D01*
X155674450Y-59329650D01*
X155509060Y-59219141D01*
X155313970Y-59180335D01*
X152690150Y-59180335D01*
X152495060Y-59219141D01*
X152329670Y-59329650D01*
X152219161Y-59495040D01*
X152180355Y-59690130D01*
X129600000Y-59690130D01*
X129600000Y-53804661D01*
X142301930Y-53804661D01*
X142301930Y-54600259D01*
X142606392Y-55335295D01*
X143168965Y-55897868D01*
X143904001Y-56202330D01*
X144699599Y-56202330D01*
X145434635Y-55897868D01*
X145997208Y-55335295D01*
X146301670Y-54600259D01*
X146301670Y-53804661D01*
X189698330Y-53804661D01*
X189698330Y-54600259D01*
X190002792Y-55335295D01*
X190565365Y-55897868D01*
X191300401Y-56202330D01*
X192095999Y-56202330D01*
X192831035Y-55897868D01*
X193393608Y-55335295D01*
X193698070Y-54600259D01*
X193698070Y-53804661D01*
X193393608Y-53069625D01*
X192831035Y-52507052D01*
X192095999Y-52202590D01*
X191300401Y-52202590D01*
X190565365Y-52507052D01*
X190002792Y-53069625D01*
X189698330Y-53804661D01*
X146301670Y-53804661D01*
X145997208Y-53069625D01*
X145434635Y-52507052D01*
X144699599Y-52202590D01*
X143904001Y-52202590D01*
X143168965Y-52507052D01*
X142606392Y-53069625D01*
X142301930Y-53804661D01*
X129600000Y-53804661D01*
X129600000Y-51042744D01*
X129662147Y-50608786D01*
X129825724Y-50249018D01*
X130083700Y-49949623D01*
X130415333Y-49734669D01*
X130813850Y-49615487D01*
X131022260Y-49600000D01*
X204957256Y-49600000D01*
X205391214Y-49662147D01*
X205391214Y-49662147D01*
G37*
X205391214Y-49662147D02*
X205750982Y-49825724D01*
X206050377Y-50083700D01*
X206265331Y-50415333D01*
X206384513Y-50813850D01*
X206400000Y-51022260D01*
X206400001Y-136957249D01*
X206337853Y-137391214D01*
X206174276Y-137750981D01*
X205916300Y-138050377D01*
X205584667Y-138265331D01*
X205186150Y-138384513D01*
X204977737Y-138400000D01*
X131042725Y-138400117D01*
X130608772Y-138338014D01*
X130249046Y-138174499D01*
X129949666Y-137916589D01*
X129734709Y-137585023D01*
X129615510Y-137186593D01*
X129600000Y-136977959D01*
X129600000Y-130120979D01*
X138150000Y-130120979D01*
X138150000Y-130479021D01*
X138287017Y-130809809D01*
X138540191Y-131062983D01*
X138870979Y-131200000D01*
X139229021Y-131200000D01*
X139559809Y-131062983D01*
X139812983Y-130809809D01*
X139950000Y-130479021D01*
X139950000Y-130248527D01*
X140498528Y-129700000D01*
X140527208Y-129700000D01*
X140690191Y-129862983D01*
X141020979Y-130000000D01*
X141379021Y-130000000D01*
X141690504Y-129870979D01*
X145700000Y-129870979D01*
X145700000Y-130229021D01*
X145837017Y-130559809D01*
X146090191Y-130812983D01*
X146420979Y-130950000D01*
X146779021Y-130950000D01*
X147003089Y-130857188D01*
X147087017Y-131059809D01*
X147340191Y-131312983D01*
X147670979Y-131450000D01*
X148029021Y-131450000D01*
X148359809Y-131312983D01*
X148612983Y-131059809D01*
X148750000Y-130729021D01*
X148750000Y-130710659D01*
X148832560Y-130628099D01*
X149558498Y-129902161D01*
X150800770Y-129902161D01*
X150800770Y-130697759D01*
X151105232Y-131432795D01*
X151667805Y-131995368D01*
X152402841Y-132299830D01*
X153198439Y-132299830D01*
X153933475Y-131995368D01*
X154496048Y-131432795D01*
X154800510Y-130697759D01*
X154800510Y-129902161D01*
X181199490Y-129902161D01*
X181199490Y-130697759D01*
X181503952Y-131432795D01*
X182066525Y-131995368D01*
X182801561Y-132299830D01*
X183597159Y-132299830D01*
X184332195Y-131995368D01*
X184894768Y-131432795D01*
X185199230Y-130697759D01*
X185199230Y-129902161D01*
X184894768Y-129167125D01*
X184332195Y-128604552D01*
X183597159Y-128300090D01*
X182801561Y-128300090D01*
X182066525Y-128604552D01*
X181503952Y-129167125D01*
X181199490Y-129902161D01*
X154800510Y-129902161D01*
X154496048Y-129167125D01*
X153933475Y-128604552D01*
X153198439Y-128300090D01*
X152402841Y-128300090D01*
X151667805Y-128604552D01*
X151105232Y-129167125D01*
X150800770Y-129902161D01*
X149558498Y-129902161D01*
X152823110Y-126637549D01*
X162190130Y-126637549D01*
X162190130Y-127358371D01*
X162465977Y-128024324D01*
X162975676Y-128534023D01*
X163641629Y-128809870D01*
X164362451Y-128809870D01*
X165028404Y-128534023D01*
X165538103Y-128024324D01*
X165813950Y-127358371D01*
X165813950Y-126637549D01*
X166188090Y-126637549D01*
X166188090Y-127358371D01*
X166463937Y-128024324D01*
X166973636Y-128534023D01*
X167639589Y-128809870D01*
X168360411Y-128809870D01*
X169026364Y-128534023D01*
X169536063Y-128024324D01*
X169811910Y-127358371D01*
X169811910Y-126637549D01*
X170186050Y-126637549D01*
X170186050Y-127358371D01*
X170461897Y-128024324D01*
X170971596Y-128534023D01*
X171637549Y-128809870D01*
X172358371Y-128809870D01*
X173024324Y-128534023D01*
X173534023Y-128024324D01*
X173809870Y-127358371D01*
X173809870Y-126637549D01*
X173534023Y-125971596D01*
X173024324Y-125461897D01*
X172358371Y-125186050D01*
X171637549Y-125186050D01*
X170971596Y-125461897D01*
X170461897Y-125971596D01*
X170186050Y-126637549D01*
X169811910Y-126637549D01*
X169536063Y-125971596D01*
X169026364Y-125461897D01*
X168360411Y-125186050D01*
X167639589Y-125186050D01*
X166973636Y-125461897D01*
X166463937Y-125971596D01*
X166188090Y-126637549D01*
X165813950Y-126637549D01*
X165538103Y-125971596D01*
X165028404Y-125461897D01*
X164362451Y-125186050D01*
X163641629Y-125186050D01*
X162975676Y-125461897D01*
X162465977Y-125971596D01*
X162190130Y-126637549D01*
X152823110Y-126637549D01*
X155710660Y-123750000D01*
X164350483Y-123750000D01*
X164464957Y-124026364D01*
X164974656Y-124536063D01*
X165640609Y-124811910D01*
X166361431Y-124811910D01*
X167027384Y-124536063D01*
X167537083Y-124026364D01*
X167812930Y-123360411D01*
X167812930Y-122639589D01*
X167537083Y-121973636D01*
X167363447Y-121800000D01*
X167738321Y-121800000D01*
X168301544Y-122363224D01*
X168187070Y-122639589D01*
X168187070Y-123360411D01*
X168462917Y-124026364D01*
X168972616Y-124536063D01*
X169638569Y-124811910D01*
X170359391Y-124811910D01*
X171025344Y-124536063D01*
X171535043Y-124026364D01*
X171810890Y-123360411D01*
X171810890Y-122639589D01*
X171535043Y-121973636D01*
X171025344Y-121463937D01*
X170359391Y-121188090D01*
X169638569Y-121188090D01*
X169362204Y-121302564D01*
X168724391Y-120664752D01*
X168986495Y-120564006D01*
X169065554Y-120511182D01*
X169200120Y-120237515D01*
X168000000Y-119037395D01*
X167985858Y-119051538D01*
X167950503Y-119016183D01*
X167964645Y-119002040D01*
X168035355Y-119002040D01*
X169235475Y-120202160D01*
X169509142Y-120067594D01*
X169802035Y-119408960D01*
X169820584Y-118688377D01*
X169802616Y-118641629D01*
X170186050Y-118641629D01*
X170186050Y-119362451D01*
X170461897Y-120028404D01*
X170971596Y-120538103D01*
X171637549Y-120813950D01*
X172358371Y-120813950D01*
X173024324Y-120538103D01*
X173534023Y-120028404D01*
X173809870Y-119362451D01*
X173809870Y-118641629D01*
X173534023Y-117975676D01*
X173024324Y-117465977D01*
X172358371Y-117190130D01*
X171637549Y-117190130D01*
X170971596Y-117465977D01*
X170461897Y-117975676D01*
X170186050Y-118641629D01*
X169802616Y-118641629D01*
X169561966Y-118015545D01*
X169509142Y-117936486D01*
X169235475Y-117801920D01*
X168035355Y-119002040D01*
X167964645Y-119002040D01*
X166764525Y-117801920D01*
X166490858Y-117936486D01*
X166197965Y-118595120D01*
X166179416Y-119315703D01*
X166438034Y-119988535D01*
X166490858Y-120067594D01*
X166764523Y-120202159D01*
X166677392Y-120289290D01*
X166688102Y-120300000D01*
X165823745Y-120300000D01*
X165823745Y-117766565D01*
X166799880Y-117766565D01*
X168000000Y-118966685D01*
X169200120Y-117766565D01*
X169065554Y-117492898D01*
X168406920Y-117200005D01*
X167686337Y-117181456D01*
X167013505Y-117440074D01*
X166934446Y-117492898D01*
X166799880Y-117766565D01*
X165823745Y-117766565D01*
X165823745Y-117690130D01*
X165784939Y-117495040D01*
X165674430Y-117329650D01*
X165509040Y-117219141D01*
X165313950Y-117180335D01*
X162690130Y-117180335D01*
X162495040Y-117219141D01*
X162329650Y-117329650D01*
X162219141Y-117495040D01*
X162180335Y-117690130D01*
X162180335Y-120313950D01*
X162219141Y-120509040D01*
X162329650Y-120674430D01*
X162495040Y-120784939D01*
X162690130Y-120823745D01*
X163965595Y-120823745D01*
X163439341Y-121350000D01*
X155173865Y-121350000D01*
X155100000Y-121335307D01*
X155026135Y-121350000D01*
X155026134Y-121350000D01*
X154807365Y-121393516D01*
X154559280Y-121559280D01*
X154517438Y-121621902D01*
X147239340Y-128900001D01*
X147073863Y-128900001D01*
X146999998Y-128885308D01*
X146926133Y-128900001D01*
X146707364Y-128943517D01*
X146459279Y-129109281D01*
X146432072Y-129150000D01*
X146420979Y-129150000D01*
X146090191Y-129287017D01*
X145837017Y-129540191D01*
X145700000Y-129870979D01*
X141690504Y-129870979D01*
X141709809Y-129862983D01*
X141962983Y-129609809D01*
X142100000Y-129279021D01*
X142100000Y-128920979D01*
X141962983Y-128590191D01*
X141709809Y-128337017D01*
X141379021Y-128200000D01*
X141020979Y-128200000D01*
X140690191Y-128337017D01*
X140527208Y-128500000D01*
X140309086Y-128500000D01*
X140249999Y-128488247D01*
X140190913Y-128500000D01*
X140190909Y-128500000D01*
X140015892Y-128534813D01*
X139817425Y-128667425D01*
X139783953Y-128717519D01*
X139101473Y-129400000D01*
X138870979Y-129400000D01*
X138540191Y-129537017D01*
X138287017Y-129790191D01*
X138150000Y-130120979D01*
X129600000Y-130120979D01*
X129600000Y-118020979D01*
X139700000Y-118020979D01*
X139700000Y-118379021D01*
X139837017Y-118709809D01*
X140090191Y-118962983D01*
X140420979Y-119100000D01*
X140770822Y-119100000D01*
X140837017Y-119259809D01*
X141090191Y-119512983D01*
X141420979Y-119650000D01*
X141779021Y-119650000D01*
X142109809Y-119512983D01*
X142362983Y-119259809D01*
X142500000Y-118929021D01*
X142500000Y-118698527D01*
X149393866Y-111804661D01*
X152301910Y-111804661D01*
X152301910Y-112600259D01*
X152606372Y-113335295D01*
X153168945Y-113897868D01*
X153903981Y-114202330D01*
X154699579Y-114202330D01*
X155434615Y-113897868D01*
X155997188Y-113335295D01*
X156301650Y-112600259D01*
X156301650Y-111804661D01*
X179698350Y-111804661D01*
X179698350Y-112600259D01*
X180002812Y-113335295D01*
X180565385Y-113897868D01*
X181300421Y-114202330D01*
X182096019Y-114202330D01*
X182831055Y-113897868D01*
X183393628Y-113335295D01*
X183698090Y-112600259D01*
X183698090Y-111804661D01*
X183393628Y-111069625D01*
X182831055Y-110507052D01*
X182096019Y-110202590D01*
X181300421Y-110202590D01*
X180565385Y-110507052D01*
X180002812Y-111069625D01*
X179698350Y-111804661D01*
X156301650Y-111804661D01*
X155997188Y-111069625D01*
X155434615Y-110507052D01*
X154699579Y-110202590D01*
X153903981Y-110202590D01*
X153168945Y-110507052D01*
X152606372Y-111069625D01*
X152301910Y-111804661D01*
X149393866Y-111804661D01*
X156623528Y-104575000D01*
X176565914Y-104575000D01*
X176625000Y-104586753D01*
X176684086Y-104575000D01*
X176684091Y-104575000D01*
X176859108Y-104540187D01*
X177057575Y-104407575D01*
X177091049Y-104357478D01*
X186332482Y-95116046D01*
X186382575Y-95082575D01*
X186515187Y-94884108D01*
X186550000Y-94709091D01*
X186550000Y-94709087D01*
X186561753Y-94650001D01*
X186550000Y-94590915D01*
X186550000Y-85320600D01*
X186809809Y-85212983D01*
X187062983Y-84959809D01*
X187160355Y-84724732D01*
X187237017Y-84909809D01*
X187490191Y-85162983D01*
X187820979Y-85300000D01*
X188179021Y-85300000D01*
X188509809Y-85162983D01*
X188762983Y-84909809D01*
X188900000Y-84579021D01*
X188900000Y-84220979D01*
X188762983Y-83890191D01*
X188509809Y-83637017D01*
X188179021Y-83500000D01*
X187948527Y-83500000D01*
X187766048Y-83317521D01*
X187732575Y-83267425D01*
X187534108Y-83134813D01*
X187359091Y-83100000D01*
X187359086Y-83100000D01*
X187300000Y-83088247D01*
X187240914Y-83100000D01*
X185924089Y-83100000D01*
X185865001Y-83088247D01*
X185805913Y-83100000D01*
X185805910Y-83100000D01*
X185672688Y-83126499D01*
X185630892Y-83134813D01*
X185550031Y-83188844D01*
X185432426Y-83267425D01*
X185398952Y-83317522D01*
X185266474Y-83450000D01*
X180872792Y-83450000D01*
X180709809Y-83287017D01*
X180379021Y-83150000D01*
X180020979Y-83150000D01*
X179690191Y-83287017D01*
X179437017Y-83540191D01*
X179300000Y-83870979D01*
X179300000Y-84229021D01*
X179437017Y-84559809D01*
X179690191Y-84812983D01*
X180020979Y-84950000D01*
X180379021Y-84950000D01*
X180709809Y-84812983D01*
X180872792Y-84650000D01*
X184915001Y-84650000D01*
X184915001Y-84859090D01*
X184915002Y-84859095D01*
X184915001Y-94236471D01*
X176201473Y-102950000D01*
X171364225Y-102950000D01*
X175314226Y-99000000D01*
X175427208Y-99000000D01*
X175590191Y-99162983D01*
X175920979Y-99300000D01*
X176279021Y-99300000D01*
X176609809Y-99162983D01*
X176862983Y-98909809D01*
X177000000Y-98579021D01*
X177000000Y-98220979D01*
X176862983Y-97890191D01*
X176609809Y-97637017D01*
X176279021Y-97500000D01*
X175920979Y-97500000D01*
X175590191Y-97637017D01*
X175427208Y-97800000D01*
X175124783Y-97800000D01*
X175065697Y-97788247D01*
X175006611Y-97800000D01*
X175006607Y-97800000D01*
X174831590Y-97834813D01*
X174808860Y-97850001D01*
X174683219Y-97933952D01*
X174633123Y-97967425D01*
X174599651Y-98017519D01*
X173379319Y-99237851D01*
X173379319Y-99191382D01*
X173542302Y-99028399D01*
X173679319Y-98697611D01*
X173679319Y-98339569D01*
X173542302Y-98008781D01*
X173289128Y-97755607D01*
X172958340Y-97618590D01*
X172600298Y-97618590D01*
X172269510Y-97755607D01*
X172016336Y-98008781D01*
X171879319Y-98339569D01*
X171879319Y-98697611D01*
X172016336Y-99028399D01*
X172179320Y-99191383D01*
X172179319Y-99872152D01*
X169901473Y-102150000D01*
X168564227Y-102150000D01*
X171238806Y-99475422D01*
X171288899Y-99441951D01*
X171336192Y-99371173D01*
X171421511Y-99243485D01*
X171429825Y-99201689D01*
X171456324Y-99068467D01*
X171456324Y-99068464D01*
X171461975Y-99040054D01*
X171619307Y-98882722D01*
X171756324Y-98551934D01*
X171756324Y-98193892D01*
X171619307Y-97863104D01*
X171366133Y-97609930D01*
X171035345Y-97472913D01*
X170677303Y-97472913D01*
X170346515Y-97609930D01*
X170093341Y-97863104D01*
X170057907Y-97948648D01*
X170012983Y-97840191D01*
X169759809Y-97587017D01*
X169429021Y-97450000D01*
X169070979Y-97450000D01*
X168740191Y-97587017D01*
X168487017Y-97840191D01*
X168350000Y-98170979D01*
X168350000Y-98529021D01*
X168487017Y-98859809D01*
X168700001Y-99072793D01*
X168700000Y-99751472D01*
X167151473Y-101300000D01*
X164098527Y-101300000D01*
X165998528Y-99400000D01*
X166229021Y-99400000D01*
X166559809Y-99262983D01*
X166812983Y-99009809D01*
X166950000Y-98679021D01*
X166950000Y-98320979D01*
X166812983Y-97990191D01*
X166559809Y-97737017D01*
X166229021Y-97600000D01*
X165870979Y-97600000D01*
X165540191Y-97737017D01*
X165287017Y-97990191D01*
X165150000Y-98320979D01*
X165150000Y-98551472D01*
X162801484Y-100899989D01*
X161248538Y-100899989D01*
X162848529Y-99300000D01*
X163079021Y-99300000D01*
X163409809Y-99162983D01*
X163662983Y-98909809D01*
X163800000Y-98579021D01*
X163800000Y-98220979D01*
X163662983Y-97890191D01*
X163409809Y-97637017D01*
X163079021Y-97500000D01*
X162720979Y-97500000D01*
X162390191Y-97637017D01*
X162137017Y-97890191D01*
X162000000Y-98220979D01*
X162000000Y-98451471D01*
X159951495Y-100499978D01*
X157614249Y-100499978D01*
X160514228Y-97600000D01*
X160729021Y-97600000D01*
X161059809Y-97462983D01*
X161312983Y-97209809D01*
X161450000Y-96879021D01*
X161450000Y-96520979D01*
X161312983Y-96190191D01*
X161059809Y-95937017D01*
X160729021Y-95800000D01*
X160370979Y-95800000D01*
X160040191Y-95937017D01*
X159787017Y-96190191D01*
X159700000Y-96400268D01*
X159612983Y-96190191D01*
X159359809Y-95937017D01*
X159029021Y-95800000D01*
X158670979Y-95800000D01*
X158340191Y-95937017D01*
X158087017Y-96190191D01*
X157950000Y-96520979D01*
X157950000Y-96879021D01*
X158087017Y-97209809D01*
X158250001Y-97372793D01*
X158250001Y-97601471D01*
X156151473Y-99700000D01*
X154509086Y-99700000D01*
X154449999Y-99688247D01*
X154390913Y-99700000D01*
X154390909Y-99700000D01*
X154215892Y-99734813D01*
X154017425Y-99867425D01*
X153983953Y-99917519D01*
X149801472Y-104100001D01*
X149159085Y-104100001D01*
X149099998Y-104088248D01*
X149040912Y-104100001D01*
X149040908Y-104100001D01*
X148865891Y-104134814D01*
X148768334Y-104200000D01*
X148520979Y-104200000D01*
X148190191Y-104337017D01*
X147937017Y-104590191D01*
X147800000Y-104920979D01*
X147800000Y-105279021D01*
X147937017Y-105609809D01*
X147952208Y-105625000D01*
X147837017Y-105740191D01*
X147700000Y-106070979D01*
X147700000Y-106238535D01*
X147688239Y-106210141D01*
X147435065Y-105956967D01*
X147104277Y-105819950D01*
X146746235Y-105819950D01*
X146415447Y-105956967D01*
X146162273Y-106210141D01*
X146073381Y-106424746D01*
X145949840Y-106424746D01*
X145619052Y-106561763D01*
X145365878Y-106814937D01*
X145228861Y-107145725D01*
X145228861Y-107503767D01*
X145365878Y-107834555D01*
X145544608Y-108013285D01*
X145500000Y-108120979D01*
X145500000Y-108479021D01*
X145637017Y-108809809D01*
X145890191Y-109062983D01*
X145979558Y-109100000D01*
X145109085Y-109100000D01*
X145049999Y-109088247D01*
X144990913Y-109100000D01*
X144990909Y-109100000D01*
X144815892Y-109134813D01*
X144617425Y-109267425D01*
X144583953Y-109317519D01*
X144401472Y-109500000D01*
X144170979Y-109500000D01*
X143840191Y-109637017D01*
X143587017Y-109890191D01*
X143450000Y-110220979D01*
X143450000Y-110579021D01*
X143587017Y-110909809D01*
X143840191Y-111162983D01*
X144170979Y-111300000D01*
X144529021Y-111300000D01*
X144739871Y-111212663D01*
X144840191Y-111312983D01*
X145170979Y-111450000D01*
X145529021Y-111450000D01*
X145859809Y-111312983D01*
X146022792Y-111150000D01*
X147501473Y-111150000D01*
X141451472Y-117200001D01*
X141059085Y-117200001D01*
X140999998Y-117188248D01*
X140940912Y-117200001D01*
X140940908Y-117200001D01*
X140765891Y-117234814D01*
X140765889Y-117234815D01*
X140765890Y-117234815D01*
X140668334Y-117300000D01*
X140420979Y-117300000D01*
X140090191Y-117437017D01*
X139837017Y-117690191D01*
X139700000Y-118020979D01*
X129600000Y-118020979D01*
X129600000Y-105166952D01*
X143484565Y-105166952D01*
X143484565Y-105524994D01*
X143621582Y-105855782D01*
X143874756Y-106108956D01*
X144205544Y-106245973D01*
X144563586Y-106245973D01*
X144894374Y-106108956D01*
X145147548Y-105855782D01*
X145213675Y-105696137D01*
X145262198Y-105647615D01*
X145462095Y-105847512D01*
X145792883Y-105984529D01*
X146150925Y-105984529D01*
X146481713Y-105847512D01*
X146734887Y-105594338D01*
X146871904Y-105263550D01*
X146871904Y-105016195D01*
X146937090Y-104918638D01*
X146971903Y-104743621D01*
X146971903Y-104743617D01*
X146983656Y-104684531D01*
X146971903Y-104625444D01*
X146971903Y-88526624D01*
X150348528Y-85150000D01*
X150579021Y-85150000D01*
X150909809Y-85012983D01*
X151072792Y-84850000D01*
X157527208Y-84850000D01*
X157690191Y-85012983D01*
X158020979Y-85150000D01*
X158379021Y-85150000D01*
X158709809Y-85012983D01*
X158962983Y-84759809D01*
X159100000Y-84429021D01*
X159100000Y-84070979D01*
X158962983Y-83740191D01*
X158709809Y-83487017D01*
X158379021Y-83350000D01*
X158020979Y-83350000D01*
X157690191Y-83487017D01*
X157527208Y-83650000D01*
X151072792Y-83650000D01*
X150909809Y-83487017D01*
X150579021Y-83350000D01*
X150220979Y-83350000D01*
X149890191Y-83487017D01*
X149637017Y-83740191D01*
X149575000Y-83889913D01*
X149512983Y-83740191D01*
X149259809Y-83487017D01*
X148929021Y-83350000D01*
X148570979Y-83350000D01*
X148240191Y-83487017D01*
X147987017Y-83740191D01*
X147850000Y-84070979D01*
X147850000Y-84429021D01*
X147987017Y-84759809D01*
X148150000Y-84922792D01*
X148150000Y-85051472D01*
X145589412Y-87612061D01*
X145539318Y-87645533D01*
X145505846Y-87695627D01*
X145505845Y-87695628D01*
X145406706Y-87844000D01*
X145360139Y-88078108D01*
X145371893Y-88137199D01*
X145371892Y-103840865D01*
X144707269Y-104505489D01*
X144563586Y-104445973D01*
X144205544Y-104445973D01*
X143874756Y-104582990D01*
X143621582Y-104836164D01*
X143484565Y-105166952D01*
X129600000Y-105166952D01*
X129600000Y-102422792D01*
X129790191Y-102612983D01*
X130120979Y-102750000D01*
X130479021Y-102750000D01*
X130809809Y-102612983D01*
X131062983Y-102359809D01*
X131200000Y-102029021D01*
X131200000Y-101700000D01*
X131329021Y-101700000D01*
X131659809Y-101562983D01*
X131912983Y-101309809D01*
X132050000Y-100979021D01*
X132050000Y-100620979D01*
X131912983Y-100290191D01*
X131659809Y-100037017D01*
X131329021Y-99900000D01*
X131098527Y-99900000D01*
X130800000Y-99601473D01*
X130800000Y-84120979D01*
X133850000Y-84120979D01*
X133850000Y-84479021D01*
X133987017Y-84809809D01*
X134240191Y-85062983D01*
X134570979Y-85200000D01*
X134929021Y-85200000D01*
X135259809Y-85062983D01*
X135512983Y-84809809D01*
X135650000Y-84479021D01*
X135650000Y-84248528D01*
X136148529Y-83750000D01*
X139729400Y-83750000D01*
X139700000Y-83820979D01*
X139700000Y-84179021D01*
X139837017Y-84509809D01*
X140000000Y-84672792D01*
X140000001Y-103525960D01*
X139802722Y-103723239D01*
X139665705Y-104054027D01*
X139665705Y-104412069D01*
X139802722Y-104742857D01*
X140055896Y-104996031D01*
X140386684Y-105133048D01*
X140744726Y-105133048D01*
X141075514Y-104996031D01*
X141124377Y-104947169D01*
X141140191Y-104962983D01*
X141470979Y-105100000D01*
X141829021Y-105100000D01*
X142159809Y-104962983D01*
X142412983Y-104709809D01*
X142550000Y-104379021D01*
X142550000Y-104131666D01*
X142615185Y-104034110D01*
X142661752Y-103800002D01*
X142658591Y-103784108D01*
X142615185Y-103565892D01*
X142516046Y-103417520D01*
X142516045Y-103417519D01*
X142482574Y-103367426D01*
X142432481Y-103333955D01*
X141650000Y-102551475D01*
X141650000Y-85998527D01*
X142498528Y-85150000D01*
X142729021Y-85150000D01*
X143059809Y-85012983D01*
X143312983Y-84759809D01*
X143450000Y-84429021D01*
X143450000Y-84070979D01*
X143312983Y-83740191D01*
X143059809Y-83487017D01*
X142729021Y-83350000D01*
X142498528Y-83350000D01*
X141916049Y-82767521D01*
X141882575Y-82717425D01*
X141684108Y-82584813D01*
X141509091Y-82550000D01*
X141509086Y-82550000D01*
X141450000Y-82538247D01*
X141390914Y-82550000D01*
X135959088Y-82550000D01*
X135900000Y-82538247D01*
X135840912Y-82550000D01*
X135840909Y-82550000D01*
X135665892Y-82584813D01*
X135517519Y-82683952D01*
X135517516Y-82683955D01*
X135467425Y-82717425D01*
X135433955Y-82767516D01*
X134801472Y-83400000D01*
X134570979Y-83400000D01*
X134240191Y-83537017D01*
X133987017Y-83790191D01*
X133850000Y-84120979D01*
X130800000Y-84120979D01*
X130800000Y-71902161D01*
X140800790Y-71902161D01*
X140800790Y-72697759D01*
X141105252Y-73432795D01*
X141667825Y-73995368D01*
X142402861Y-74299830D01*
X143198459Y-74299830D01*
X143933495Y-73995368D01*
X144496068Y-73432795D01*
X144800530Y-72697759D01*
X144800530Y-71902161D01*
X191199470Y-71902161D01*
X191199470Y-72697759D01*
X191503932Y-73432795D01*
X192066505Y-73995368D01*
X192801541Y-74299830D01*
X193597139Y-74299830D01*
X194332175Y-73995368D01*
X194894748Y-73432795D01*
X195199210Y-72697759D01*
X195199210Y-71902161D01*
X194894748Y-71167125D01*
X194332175Y-70604552D01*
X193597139Y-70300090D01*
X192801541Y-70300090D01*
X192066505Y-70604552D01*
X191503932Y-71167125D01*
X191199470Y-71902161D01*
X144800530Y-71902161D01*
X144496068Y-71167125D01*
X143933495Y-70604552D01*
X143198459Y-70300090D01*
X142402861Y-70300090D01*
X141667825Y-70604552D01*
X141105252Y-71167125D01*
X140800790Y-71902161D01*
X130800000Y-71902161D01*
X130800000Y-69448527D01*
X130898527Y-69350000D01*
X131129021Y-69350000D01*
X131459809Y-69212983D01*
X131712983Y-68959809D01*
X131846467Y-68637549D01*
X152190150Y-68637549D01*
X152190150Y-69358371D01*
X152465997Y-70024324D01*
X152975696Y-70534023D01*
X153641649Y-70809870D01*
X154362471Y-70809870D01*
X155028424Y-70534023D01*
X155538123Y-70024324D01*
X155813970Y-69358371D01*
X155813970Y-68637549D01*
X156188110Y-68637549D01*
X156188110Y-69358371D01*
X156463957Y-70024324D01*
X156973656Y-70534023D01*
X157639609Y-70809870D01*
X158360431Y-70809870D01*
X159026384Y-70534023D01*
X159536083Y-70024324D01*
X159811930Y-69358371D01*
X159811930Y-68637549D01*
X160188610Y-68637549D01*
X160188610Y-69358371D01*
X160464457Y-70024324D01*
X160974156Y-70534023D01*
X161640109Y-70809870D01*
X162360931Y-70809870D01*
X163026884Y-70534023D01*
X163536583Y-70024324D01*
X163812430Y-69358371D01*
X163812430Y-68637549D01*
X164189110Y-68637549D01*
X164189110Y-69358371D01*
X164464957Y-70024324D01*
X164974656Y-70534023D01*
X165640609Y-70809870D01*
X166361431Y-70809870D01*
X167027384Y-70534023D01*
X167537083Y-70024324D01*
X167812930Y-69358371D01*
X167812930Y-68637549D01*
X168187070Y-68637549D01*
X168187070Y-69358371D01*
X168462917Y-70024324D01*
X168972616Y-70534023D01*
X169638569Y-70809870D01*
X170359391Y-70809870D01*
X171025344Y-70534023D01*
X171535043Y-70024324D01*
X171810890Y-69358371D01*
X171810890Y-68637549D01*
X172187570Y-68637549D01*
X172187570Y-69358371D01*
X172463417Y-70024324D01*
X172973116Y-70534023D01*
X173639069Y-70809870D01*
X174359891Y-70809870D01*
X175025844Y-70534023D01*
X175535543Y-70024324D01*
X175811390Y-69358371D01*
X175811390Y-68637549D01*
X176188070Y-68637549D01*
X176188070Y-69358371D01*
X176463917Y-70024324D01*
X176973616Y-70534023D01*
X177639569Y-70809870D01*
X178360391Y-70809870D01*
X179026344Y-70534023D01*
X179536043Y-70024324D01*
X179811890Y-69358371D01*
X179811890Y-68637549D01*
X180186030Y-68637549D01*
X180186030Y-69358371D01*
X180461877Y-70024324D01*
X180971576Y-70534023D01*
X181637529Y-70809870D01*
X182358351Y-70809870D01*
X183024304Y-70534023D01*
X183534003Y-70024324D01*
X183809850Y-69358371D01*
X183809850Y-68637549D01*
X183534003Y-67971596D01*
X183024304Y-67461897D01*
X182358351Y-67186050D01*
X181637529Y-67186050D01*
X180971576Y-67461897D01*
X180461877Y-67971596D01*
X180186030Y-68637549D01*
X179811890Y-68637549D01*
X179536043Y-67971596D01*
X179026344Y-67461897D01*
X178360391Y-67186050D01*
X177639569Y-67186050D01*
X176973616Y-67461897D01*
X176463917Y-67971596D01*
X176188070Y-68637549D01*
X175811390Y-68637549D01*
X175535543Y-67971596D01*
X175025844Y-67461897D01*
X174359891Y-67186050D01*
X173639069Y-67186050D01*
X172973116Y-67461897D01*
X172463417Y-67971596D01*
X172187570Y-68637549D01*
X171810890Y-68637549D01*
X171535043Y-67971596D01*
X171025344Y-67461897D01*
X170359391Y-67186050D01*
X169638569Y-67186050D01*
X168972616Y-67461897D01*
X168462917Y-67971596D01*
X168187070Y-68637549D01*
X167812930Y-68637549D01*
X167537083Y-67971596D01*
X167027384Y-67461897D01*
X166361431Y-67186050D01*
X165640609Y-67186050D01*
X164974656Y-67461897D01*
X164464957Y-67971596D01*
X164189110Y-68637549D01*
X163812430Y-68637549D01*
X163536583Y-67971596D01*
X163026884Y-67461897D01*
X162360931Y-67186050D01*
X161640109Y-67186050D01*
X160974156Y-67461897D01*
X160464457Y-67971596D01*
X160188610Y-68637549D01*
X159811930Y-68637549D01*
X159536083Y-67971596D01*
X159026384Y-67461897D01*
X158360431Y-67186050D01*
X157639609Y-67186050D01*
X156973656Y-67461897D01*
X156463957Y-67971596D01*
X156188110Y-68637549D01*
X155813970Y-68637549D01*
X155538123Y-67971596D01*
X155028424Y-67461897D01*
X154362471Y-67186050D01*
X153641649Y-67186050D01*
X152975696Y-67461897D01*
X152465997Y-67971596D01*
X152190150Y-68637549D01*
X131846467Y-68637549D01*
X131850000Y-68629021D01*
X131850000Y-68270979D01*
X131712983Y-67940191D01*
X131459809Y-67687017D01*
X131129021Y-67550000D01*
X130867046Y-67550000D01*
X131000000Y-67229021D01*
X131000000Y-66870979D01*
X130862983Y-66540191D01*
X130609809Y-66287017D01*
X130279021Y-66150000D01*
X129920979Y-66150000D01*
X129600000Y-66282954D01*
X129600000Y-64639589D01*
X154189130Y-64639589D01*
X154189130Y-65360411D01*
X154464977Y-66026364D01*
X154974676Y-66536063D01*
X155640629Y-66811910D01*
X156361451Y-66811910D01*
X157027404Y-66536063D01*
X157537103Y-66026364D01*
X157812950Y-65360411D01*
X157812950Y-64639589D01*
X158189630Y-64639589D01*
X158189630Y-65360411D01*
X158465477Y-66026364D01*
X158975176Y-66536063D01*
X159641129Y-66811910D01*
X160361951Y-66811910D01*
X161027904Y-66536063D01*
X161537603Y-66026364D01*
X161813450Y-65360411D01*
X161813450Y-64639589D01*
X162190130Y-64639589D01*
X162190130Y-65360411D01*
X162465977Y-66026364D01*
X162975676Y-66536063D01*
X163641629Y-66811910D01*
X164362451Y-66811910D01*
X165028404Y-66536063D01*
X165538103Y-66026364D01*
X165813950Y-65360411D01*
X165813950Y-64639589D01*
X166188090Y-64639589D01*
X166188090Y-65360411D01*
X166463937Y-66026364D01*
X166973636Y-66536063D01*
X167639589Y-66811910D01*
X168360411Y-66811910D01*
X169026364Y-66536063D01*
X169536063Y-66026364D01*
X169811910Y-65360411D01*
X169811910Y-64639589D01*
X170186050Y-64639589D01*
X170186050Y-65360411D01*
X170461897Y-66026364D01*
X170971596Y-66536063D01*
X171637549Y-66811910D01*
X172358371Y-66811910D01*
X173024324Y-66536063D01*
X173534023Y-66026364D01*
X173809870Y-65360411D01*
X173809870Y-64639589D01*
X174186550Y-64639589D01*
X174186550Y-65360411D01*
X174462397Y-66026364D01*
X174972096Y-66536063D01*
X175638049Y-66811910D01*
X176358871Y-66811910D01*
X177024824Y-66536063D01*
X177534523Y-66026364D01*
X177810370Y-65360411D01*
X177810370Y-64639589D01*
X178187050Y-64639589D01*
X178187050Y-65360411D01*
X178462897Y-66026364D01*
X178972596Y-66536063D01*
X179638549Y-66811910D01*
X180359371Y-66811910D01*
X181025324Y-66536063D01*
X181535023Y-66026364D01*
X181810870Y-65360411D01*
X181810870Y-64639589D01*
X181535023Y-63973636D01*
X181025324Y-63463937D01*
X180359371Y-63188090D01*
X179638549Y-63188090D01*
X178972596Y-63463937D01*
X178462897Y-63973636D01*
X178187050Y-64639589D01*
X177810370Y-64639589D01*
X177534523Y-63973636D01*
X177024824Y-63463937D01*
X176358871Y-63188090D01*
X175638049Y-63188090D01*
X174972096Y-63463937D01*
X174462397Y-63973636D01*
X174186550Y-64639589D01*
X173809870Y-64639589D01*
X173534023Y-63973636D01*
X173024324Y-63463937D01*
X172358371Y-63188090D01*
X171637549Y-63188090D01*
X170971596Y-63463937D01*
X170461897Y-63973636D01*
X170186050Y-64639589D01*
X169811910Y-64639589D01*
X169536063Y-63973636D01*
X169026364Y-63463937D01*
X168360411Y-63188090D01*
X167639589Y-63188090D01*
X166973636Y-63463937D01*
X166463937Y-63973636D01*
X166188090Y-64639589D01*
X165813950Y-64639589D01*
X165538103Y-63973636D01*
X165028404Y-63463937D01*
X164362451Y-63188090D01*
X163641629Y-63188090D01*
X162975676Y-63463937D01*
X162465977Y-63973636D01*
X162190130Y-64639589D01*
X161813450Y-64639589D01*
X161537603Y-63973636D01*
X161027904Y-63463937D01*
X160361951Y-63188090D01*
X159641129Y-63188090D01*
X158975176Y-63463937D01*
X158465477Y-63973636D01*
X158189630Y-64639589D01*
X157812950Y-64639589D01*
X157537103Y-63973636D01*
X157027404Y-63463937D01*
X156361451Y-63188090D01*
X155640629Y-63188090D01*
X154974676Y-63463937D01*
X154464977Y-63973636D01*
X154189130Y-64639589D01*
X129600000Y-64639589D01*
X129600000Y-59690130D01*
X152180355Y-59690130D01*
X152180355Y-62313950D01*
X152219161Y-62509040D01*
X152329670Y-62674430D01*
X152495060Y-62784939D01*
X152690150Y-62823745D01*
X155313970Y-62823745D01*
X155509060Y-62784939D01*
X155674450Y-62674430D01*
X155784959Y-62509040D01*
X155823765Y-62313950D01*
X155823765Y-60641629D01*
X156188110Y-60641629D01*
X156188110Y-61362451D01*
X156463957Y-62028404D01*
X156973656Y-62538103D01*
X157639609Y-62813950D01*
X158360431Y-62813950D01*
X159026384Y-62538103D01*
X159536083Y-62028404D01*
X159811930Y-61362451D01*
X159811930Y-60641629D01*
X160188610Y-60641629D01*
X160188610Y-61362451D01*
X160464457Y-62028404D01*
X160974156Y-62538103D01*
X161640109Y-62813950D01*
X162360931Y-62813950D01*
X163026884Y-62538103D01*
X163536583Y-62028404D01*
X163812430Y-61362451D01*
X163812430Y-60641629D01*
X164189110Y-60641629D01*
X164189110Y-61362451D01*
X164464957Y-62028404D01*
X164974656Y-62538103D01*
X165640609Y-62813950D01*
X166361431Y-62813950D01*
X167027384Y-62538103D01*
X167537083Y-62028404D01*
X167812930Y-61362451D01*
X167812930Y-60641629D01*
X168187070Y-60641629D01*
X168187070Y-61362451D01*
X168462917Y-62028404D01*
X168972616Y-62538103D01*
X169638569Y-62813950D01*
X170359391Y-62813950D01*
X171025344Y-62538103D01*
X171535043Y-62028404D01*
X171810890Y-61362451D01*
X171810890Y-60641629D01*
X172187570Y-60641629D01*
X172187570Y-61362451D01*
X172463417Y-62028404D01*
X172973116Y-62538103D01*
X173639069Y-62813950D01*
X174359891Y-62813950D01*
X175025844Y-62538103D01*
X175535543Y-62028404D01*
X175811390Y-61362451D01*
X175811390Y-60641629D01*
X176188070Y-60641629D01*
X176188070Y-61362451D01*
X176463917Y-62028404D01*
X176973616Y-62538103D01*
X177639569Y-62813950D01*
X178360391Y-62813950D01*
X179026344Y-62538103D01*
X179536043Y-62028404D01*
X179811890Y-61362451D01*
X179811890Y-60641629D01*
X180186030Y-60641629D01*
X180186030Y-61362451D01*
X180461877Y-62028404D01*
X180971576Y-62538103D01*
X181637529Y-62813950D01*
X182358351Y-62813950D01*
X183024304Y-62538103D01*
X183534003Y-62028404D01*
X183809850Y-61362451D01*
X183809850Y-60641629D01*
X183534003Y-59975676D01*
X183024304Y-59465977D01*
X182358351Y-59190130D01*
X181637529Y-59190130D01*
X180971576Y-59465977D01*
X180461877Y-59975676D01*
X180186030Y-60641629D01*
X179811890Y-60641629D01*
X179536043Y-59975676D01*
X179026344Y-59465977D01*
X178360391Y-59190130D01*
X177639569Y-59190130D01*
X176973616Y-59465977D01*
X176463917Y-59975676D01*
X176188070Y-60641629D01*
X175811390Y-60641629D01*
X175535543Y-59975676D01*
X175025844Y-59465977D01*
X174359891Y-59190130D01*
X173639069Y-59190130D01*
X172973116Y-59465977D01*
X172463417Y-59975676D01*
X172187570Y-60641629D01*
X171810890Y-60641629D01*
X171535043Y-59975676D01*
X171025344Y-59465977D01*
X170359391Y-59190130D01*
X169638569Y-59190130D01*
X168972616Y-59465977D01*
X168462917Y-59975676D01*
X168187070Y-60641629D01*
X167812930Y-60641629D01*
X167537083Y-59975676D01*
X167027384Y-59465977D01*
X166361431Y-59190130D01*
X165640609Y-59190130D01*
X164974656Y-59465977D01*
X164464957Y-59975676D01*
X164189110Y-60641629D01*
X163812430Y-60641629D01*
X163536583Y-59975676D01*
X163026884Y-59465977D01*
X162360931Y-59190130D01*
X161640109Y-59190130D01*
X160974156Y-59465977D01*
X160464457Y-59975676D01*
X160188610Y-60641629D01*
X159811930Y-60641629D01*
X159536083Y-59975676D01*
X159026384Y-59465977D01*
X158360431Y-59190130D01*
X157639609Y-59190130D01*
X156973656Y-59465977D01*
X156463957Y-59975676D01*
X156188110Y-60641629D01*
X155823765Y-60641629D01*
X155823765Y-59690130D01*
X155784959Y-59495040D01*
X155674450Y-59329650D01*
X155509060Y-59219141D01*
X155313970Y-59180335D01*
X152690150Y-59180335D01*
X152495060Y-59219141D01*
X152329670Y-59329650D01*
X152219161Y-59495040D01*
X152180355Y-59690130D01*
X129600000Y-59690130D01*
X129600000Y-53804661D01*
X142301930Y-53804661D01*
X142301930Y-54600259D01*
X142606392Y-55335295D01*
X143168965Y-55897868D01*
X143904001Y-56202330D01*
X144699599Y-56202330D01*
X145434635Y-55897868D01*
X145997208Y-55335295D01*
X146301670Y-54600259D01*
X146301670Y-53804661D01*
X189698330Y-53804661D01*
X189698330Y-54600259D01*
X190002792Y-55335295D01*
X190565365Y-55897868D01*
X191300401Y-56202330D01*
X192095999Y-56202330D01*
X192831035Y-55897868D01*
X193393608Y-55335295D01*
X193698070Y-54600259D01*
X193698070Y-53804661D01*
X193393608Y-53069625D01*
X192831035Y-52507052D01*
X192095999Y-52202590D01*
X191300401Y-52202590D01*
X190565365Y-52507052D01*
X190002792Y-53069625D01*
X189698330Y-53804661D01*
X146301670Y-53804661D01*
X145997208Y-53069625D01*
X145434635Y-52507052D01*
X144699599Y-52202590D01*
X143904001Y-52202590D01*
X143168965Y-52507052D01*
X142606392Y-53069625D01*
X142301930Y-53804661D01*
X129600000Y-53804661D01*
X129600000Y-51042744D01*
X129662147Y-50608786D01*
X129825724Y-50249018D01*
X130083700Y-49949623D01*
X130415333Y-49734669D01*
X130813850Y-49615487D01*
X131022260Y-49600000D01*
X204957256Y-49600000D01*
X205391214Y-49662147D01*
G04 #@! TD*
M02*
