G04 #@! TF.GenerationSoftware,KiCad,Pcbnew,(5.0.0-rc2-dev-130-g0bdae22af-dirty)*
G04 #@! TF.CreationDate,2018-12-21T20:00:49+02:00*
G04 #@! TF.ProjectId,csb,6373622E6B696361645F706362000000,rev?*
G04 #@! TF.SameCoordinates,Original*
G04 #@! TF.FileFunction,Legend,Top*
G04 #@! TF.FilePolarity,Positive*
%FSLAX46Y46*%
G04 Gerber Fmt 4.6, Leading zero omitted, Abs format (unit mm)*
G04 Created by KiCad (PCBNEW (5.0.0-rc2-dev-130-g0bdae22af-dirty)) date Fri Dec 21 20:00:49 2018*
%MOMM*%
%LPD*%
G01*
G04 APERTURE LIST*
%ADD10C,0.300000*%
%ADD11C,0.198120*%
%ADD12C,0.010000*%
%ADD13C,0.100000*%
%ADD14C,0.200000*%
%ADD15C,0.099060*%
%ADD16C,0.203200*%
%ADD17C,0.101600*%
%ADD18C,0.127000*%
%ADD19C,0.076200*%
%ADD20C,0.150000*%
G04 APERTURE END LIST*
D10*
X191314285Y-105228571D02*
X191314285Y-106442857D01*
X191385714Y-106585714D01*
X191457142Y-106657142D01*
X191600000Y-106728571D01*
X191885714Y-106728571D01*
X192028571Y-106657142D01*
X192100000Y-106585714D01*
X192171428Y-106442857D01*
X192171428Y-105228571D01*
X192814285Y-106657142D02*
X192957142Y-106728571D01*
X193242857Y-106728571D01*
X193385714Y-106657142D01*
X193457142Y-106514285D01*
X193457142Y-106442857D01*
X193385714Y-106300000D01*
X193242857Y-106228571D01*
X193028571Y-106228571D01*
X192885714Y-106157142D01*
X192814285Y-106014285D01*
X192814285Y-105942857D01*
X192885714Y-105800000D01*
X193028571Y-105728571D01*
X193242857Y-105728571D01*
X193385714Y-105800000D01*
X194671428Y-106657142D02*
X194528571Y-106728571D01*
X194242857Y-106728571D01*
X194100000Y-106657142D01*
X194028571Y-106514285D01*
X194028571Y-105942857D01*
X194100000Y-105800000D01*
X194242857Y-105728571D01*
X194528571Y-105728571D01*
X194671428Y-105800000D01*
X194742857Y-105942857D01*
X194742857Y-106085714D01*
X194028571Y-106228571D01*
X195242857Y-105728571D02*
X195528571Y-106728571D01*
X195814285Y-106014285D01*
X196100000Y-106728571D01*
X196385714Y-105728571D01*
X197171428Y-106728571D02*
X197028571Y-106657142D01*
X196957142Y-106585714D01*
X196885714Y-106442857D01*
X196885714Y-106014285D01*
X196957142Y-105871428D01*
X197028571Y-105800000D01*
X197171428Y-105728571D01*
X197385714Y-105728571D01*
X197528571Y-105800000D01*
X197600000Y-105871428D01*
X197671428Y-106014285D01*
X197671428Y-106442857D01*
X197600000Y-106585714D01*
X197528571Y-106657142D01*
X197385714Y-106728571D01*
X197171428Y-106728571D01*
X198528571Y-106728571D02*
X198385714Y-106657142D01*
X198314285Y-106585714D01*
X198242857Y-106442857D01*
X198242857Y-106014285D01*
X198314285Y-105871428D01*
X198385714Y-105800000D01*
X198528571Y-105728571D01*
X198742857Y-105728571D01*
X198885714Y-105800000D01*
X198957142Y-105871428D01*
X199028571Y-106014285D01*
X199028571Y-106442857D01*
X198957142Y-106585714D01*
X198885714Y-106657142D01*
X198742857Y-106728571D01*
X198528571Y-106728571D01*
X200314285Y-106728571D02*
X200314285Y-105228571D01*
X200314285Y-106657142D02*
X200171428Y-106728571D01*
X199885714Y-106728571D01*
X199742857Y-106657142D01*
X199671428Y-106585714D01*
X199600000Y-106442857D01*
X199600000Y-106014285D01*
X199671428Y-105871428D01*
X199742857Y-105800000D01*
X199885714Y-105728571D01*
X200171428Y-105728571D01*
X200314285Y-105800000D01*
X203028571Y-106585714D02*
X202957142Y-106657142D01*
X202742857Y-106728571D01*
X202600000Y-106728571D01*
X202385714Y-106657142D01*
X202242857Y-106514285D01*
X202171428Y-106371428D01*
X202100000Y-106085714D01*
X202100000Y-105871428D01*
X202171428Y-105585714D01*
X202242857Y-105442857D01*
X202385714Y-105300000D01*
X202600000Y-105228571D01*
X202742857Y-105228571D01*
X202957142Y-105300000D01*
X203028571Y-105371428D01*
X203600000Y-106657142D02*
X203814285Y-106728571D01*
X204171428Y-106728571D01*
X204314285Y-106657142D01*
X204385714Y-106585714D01*
X204457142Y-106442857D01*
X204457142Y-106300000D01*
X204385714Y-106157142D01*
X204314285Y-106085714D01*
X204171428Y-106014285D01*
X203885714Y-105942857D01*
X203742857Y-105871428D01*
X203671428Y-105800000D01*
X203600000Y-105657142D01*
X203600000Y-105514285D01*
X203671428Y-105371428D01*
X203742857Y-105300000D01*
X203885714Y-105228571D01*
X204242857Y-105228571D01*
X204457142Y-105300000D01*
X205600000Y-105942857D02*
X205814285Y-106014285D01*
X205885714Y-106085714D01*
X205957142Y-106228571D01*
X205957142Y-106442857D01*
X205885714Y-106585714D01*
X205814285Y-106657142D01*
X205671428Y-106728571D01*
X205100000Y-106728571D01*
X205100000Y-105228571D01*
X205600000Y-105228571D01*
X205742857Y-105300000D01*
X205814285Y-105371428D01*
X205885714Y-105514285D01*
X205885714Y-105657142D01*
X205814285Y-105800000D01*
X205742857Y-105871428D01*
X205600000Y-105942857D01*
X205100000Y-105942857D01*
X192921428Y-107778571D02*
X192921428Y-108992857D01*
X192992857Y-109135714D01*
X193064285Y-109207142D01*
X193207142Y-109278571D01*
X193492857Y-109278571D01*
X193635714Y-109207142D01*
X193707142Y-109135714D01*
X193778571Y-108992857D01*
X193778571Y-107778571D01*
X194421428Y-109207142D02*
X194564285Y-109278571D01*
X194850000Y-109278571D01*
X194992857Y-109207142D01*
X195064285Y-109064285D01*
X195064285Y-108992857D01*
X194992857Y-108850000D01*
X194850000Y-108778571D01*
X194635714Y-108778571D01*
X194492857Y-108707142D01*
X194421428Y-108564285D01*
X194421428Y-108492857D01*
X194492857Y-108350000D01*
X194635714Y-108278571D01*
X194850000Y-108278571D01*
X194992857Y-108350000D01*
X196278571Y-109207142D02*
X196135714Y-109278571D01*
X195850000Y-109278571D01*
X195707142Y-109207142D01*
X195635714Y-109064285D01*
X195635714Y-108492857D01*
X195707142Y-108350000D01*
X195850000Y-108278571D01*
X196135714Y-108278571D01*
X196278571Y-108350000D01*
X196350000Y-108492857D01*
X196350000Y-108635714D01*
X195635714Y-108778571D01*
X196850000Y-108278571D02*
X197207142Y-109278571D01*
X197564285Y-108278571D01*
X198350000Y-109278571D02*
X198207142Y-109207142D01*
X198135714Y-109135714D01*
X198064285Y-108992857D01*
X198064285Y-108564285D01*
X198135714Y-108421428D01*
X198207142Y-108350000D01*
X198350000Y-108278571D01*
X198564285Y-108278571D01*
X198707142Y-108350000D01*
X198778571Y-108421428D01*
X198850000Y-108564285D01*
X198850000Y-108992857D01*
X198778571Y-109135714D01*
X198707142Y-109207142D01*
X198564285Y-109278571D01*
X198350000Y-109278571D01*
X199707142Y-109278571D02*
X199564285Y-109207142D01*
X199492857Y-109064285D01*
X199492857Y-107778571D01*
X200064285Y-108278571D02*
X200635714Y-108278571D01*
X200278571Y-107778571D02*
X200278571Y-109064285D01*
X200350000Y-109207142D01*
X200492857Y-109278571D01*
X200635714Y-109278571D01*
X202564285Y-107778571D02*
X202850000Y-107778571D01*
X202992857Y-107850000D01*
X203135714Y-107992857D01*
X203207142Y-108278571D01*
X203207142Y-108778571D01*
X203135714Y-109064285D01*
X202992857Y-109207142D01*
X202850000Y-109278571D01*
X202564285Y-109278571D01*
X202421428Y-109207142D01*
X202278571Y-109064285D01*
X202207142Y-108778571D01*
X202207142Y-108278571D01*
X202278571Y-107992857D01*
X202421428Y-107850000D01*
X202564285Y-107778571D01*
X203707142Y-108278571D02*
X204064285Y-109278571D01*
X204421428Y-108278571D02*
X204064285Y-109278571D01*
X203921428Y-109635714D01*
X203850000Y-109707142D01*
X203707142Y-109778571D01*
X195957142Y-110328571D02*
X196885714Y-110328571D01*
X196385714Y-110900000D01*
X196600000Y-110900000D01*
X196742857Y-110971428D01*
X196814285Y-111042857D01*
X196885714Y-111185714D01*
X196885714Y-111542857D01*
X196814285Y-111685714D01*
X196742857Y-111757142D01*
X196600000Y-111828571D01*
X196171428Y-111828571D01*
X196028571Y-111757142D01*
X195957142Y-111685714D01*
X197528571Y-111685714D02*
X197600000Y-111757142D01*
X197528571Y-111828571D01*
X197457142Y-111757142D01*
X197528571Y-111685714D01*
X197528571Y-111828571D01*
X198885714Y-110828571D02*
X198885714Y-111828571D01*
X198528571Y-110257142D02*
X198171428Y-111328571D01*
X199100000Y-111328571D01*
X199671428Y-111685714D02*
X199742857Y-111757142D01*
X199671428Y-111828571D01*
X199600000Y-111757142D01*
X199671428Y-111685714D01*
X199671428Y-111828571D01*
X200671428Y-110328571D02*
X200814285Y-110328571D01*
X200957142Y-110400000D01*
X201028571Y-110471428D01*
X201100000Y-110614285D01*
X201171428Y-110900000D01*
X201171428Y-111257142D01*
X201100000Y-111542857D01*
X201028571Y-111685714D01*
X200957142Y-111757142D01*
X200814285Y-111828571D01*
X200671428Y-111828571D01*
X200528571Y-111757142D01*
X200457142Y-111685714D01*
X200385714Y-111542857D01*
X200314285Y-111257142D01*
X200314285Y-110900000D01*
X200385714Y-110614285D01*
X200457142Y-110471428D01*
X200528571Y-110400000D01*
X200671428Y-110328571D01*
D11*
X150149580Y-137222800D02*
X150149580Y-134327200D01*
X150149580Y-134327200D02*
X149050420Y-134327200D01*
X150149580Y-137222800D02*
X149050420Y-137222800D01*
X149050420Y-137222800D02*
X149050420Y-134327200D01*
D12*
G36*
X197449322Y-94203067D02*
X197588807Y-94300100D01*
X197667031Y-94471241D01*
X197690400Y-94712050D01*
X197690400Y-94983999D01*
X198096800Y-95048985D01*
X198096800Y-96464892D01*
X198097630Y-96832316D01*
X198099975Y-97164280D01*
X198103615Y-97447901D01*
X198108330Y-97670298D01*
X198113899Y-97818589D01*
X198120103Y-97879891D01*
X198120972Y-97880799D01*
X198175706Y-97856671D01*
X198281115Y-97796846D01*
X198311472Y-97778400D01*
X198480316Y-97694194D01*
X198707499Y-97606594D01*
X198959140Y-97526018D01*
X199201355Y-97462884D01*
X199400262Y-97427610D01*
X199465394Y-97423600D01*
X199670036Y-97461654D01*
X199780272Y-97527639D01*
X199900200Y-97631679D01*
X199735100Y-97599803D01*
X199610699Y-97593696D01*
X199567758Y-97629799D01*
X199603471Y-97693561D01*
X199715031Y-97770429D01*
X199773435Y-97798602D01*
X199912986Y-97877313D01*
X200013771Y-97964585D01*
X200030871Y-97989260D01*
X200060939Y-98053203D01*
X200040667Y-98062937D01*
X199952138Y-98021483D01*
X199924451Y-98007206D01*
X199780290Y-97956070D01*
X199671098Y-97960138D01*
X199621569Y-98017618D01*
X199620800Y-98029222D01*
X199662249Y-98081900D01*
X199764216Y-98146839D01*
X199786370Y-98157801D01*
X199917399Y-98239466D01*
X200010961Y-98331182D01*
X200014853Y-98337107D01*
X200050099Y-98399497D01*
X200034405Y-98412048D01*
X199950658Y-98377098D01*
X199899573Y-98352870D01*
X199773820Y-98302178D01*
X199699145Y-98303631D01*
X199658391Y-98334698D01*
X199621796Y-98395699D01*
X199656350Y-98423933D01*
X199750865Y-98476576D01*
X199858279Y-98558870D01*
X199944665Y-98642108D01*
X199976400Y-98694694D01*
X199935745Y-98706152D01*
X199834756Y-98679213D01*
X199801317Y-98666061D01*
X199661845Y-98624940D01*
X199600168Y-98644900D01*
X199619061Y-98718503D01*
X199721301Y-98838313D01*
X199732883Y-98849406D01*
X199823206Y-98942837D01*
X199834027Y-98977875D01*
X199798600Y-98970485D01*
X199598594Y-98912018D01*
X199449163Y-98914057D01*
X199315432Y-98982142D01*
X199223054Y-99061907D01*
X199088567Y-99176537D01*
X198903789Y-99316729D01*
X198705120Y-99455066D01*
X198673551Y-99475798D01*
X198531593Y-99568559D01*
X198416455Y-99651143D01*
X198325152Y-99735012D01*
X198254700Y-99831633D01*
X198202113Y-99952468D01*
X198164406Y-100108982D01*
X198138594Y-100312640D01*
X198121692Y-100574905D01*
X198110715Y-100907243D01*
X198102677Y-101321117D01*
X198096800Y-101690800D01*
X198071400Y-103291000D01*
X197735140Y-102808400D01*
X197424021Y-102341922D01*
X197154700Y-101897524D01*
X196937410Y-101492906D01*
X196800418Y-101191387D01*
X196754446Y-101069860D01*
X196719353Y-100951074D01*
X196692779Y-100816850D01*
X196672363Y-100649010D01*
X196655744Y-100429374D01*
X196640562Y-100139765D01*
X196628900Y-99870587D01*
X196610605Y-99477749D01*
X196589644Y-99171366D01*
X196562158Y-98936300D01*
X196524289Y-98757412D01*
X196472178Y-98619564D01*
X196401966Y-98507617D01*
X196309795Y-98406435D01*
X196239213Y-98341840D01*
X195996590Y-98141180D01*
X195792218Y-98006649D01*
X195599233Y-97926386D01*
X195390771Y-97888527D01*
X195195151Y-97880799D01*
X194986748Y-97876917D01*
X194848541Y-97860275D01*
X194749262Y-97823380D01*
X194657645Y-97758742D01*
X194646297Y-97749284D01*
X194524136Y-97607924D01*
X194490000Y-97468614D01*
X194506621Y-97359077D01*
X194577257Y-97305750D01*
X194646766Y-97288106D01*
X194784659Y-97235197D01*
X194836862Y-97160785D01*
X194811987Y-97081177D01*
X194718645Y-97012679D01*
X194565448Y-96971599D01*
X194476867Y-96966400D01*
X194351287Y-96972689D01*
X194303877Y-97001071D01*
X194311511Y-97065815D01*
X194312200Y-97068000D01*
X194318400Y-97151482D01*
X194262213Y-97158284D01*
X194147545Y-97088714D01*
X194100197Y-97051245D01*
X193978979Y-96962224D01*
X193875564Y-96903527D01*
X193867990Y-96900551D01*
X193762480Y-96818801D01*
X193762116Y-96818256D01*
X194109000Y-96818256D01*
X194294336Y-96789394D01*
X194475710Y-96790603D01*
X194655732Y-96864465D01*
X194664805Y-96869764D01*
X194807373Y-96940990D01*
X194876672Y-96942593D01*
X194873723Y-96874259D01*
X194845600Y-96814000D01*
X194806693Y-96725340D01*
X194803384Y-96689595D01*
X194858570Y-96677914D01*
X194987244Y-96660776D01*
X195161704Y-96641864D01*
X195164111Y-96641627D01*
X195353112Y-96627059D01*
X195464463Y-96631503D01*
X195520799Y-96657651D01*
X195538094Y-96686128D01*
X195529629Y-96797223D01*
X195423444Y-96911026D01*
X195223209Y-97023673D01*
X195213900Y-97027832D01*
X195085408Y-97099395D01*
X195008111Y-97170611D01*
X194998000Y-97197377D01*
X195020327Y-97257423D01*
X195093574Y-97259804D01*
X195227137Y-97202154D01*
X195413136Y-97092957D01*
X195577094Y-96978296D01*
X195715290Y-96860399D01*
X195786566Y-96779689D01*
X195843203Y-96682866D01*
X195840326Y-96627738D01*
X195782410Y-96576931D01*
X195659425Y-96533042D01*
X195464114Y-96514356D01*
X195221939Y-96518513D01*
X194958362Y-96543151D01*
X194698845Y-96585909D01*
X194468852Y-96644426D01*
X194296788Y-96714705D01*
X194109000Y-96818256D01*
X193762116Y-96818256D01*
X193665181Y-96673446D01*
X193596482Y-96501748D01*
X193575789Y-96366501D01*
X193563579Y-96262038D01*
X193533873Y-96225357D01*
X193528310Y-96227630D01*
X193464130Y-96219538D01*
X193444001Y-96196959D01*
X193448879Y-96120283D01*
X193494411Y-96064024D01*
X193643320Y-96064024D01*
X193645502Y-96130886D01*
X193679046Y-96181225D01*
X193785143Y-96250333D01*
X193908444Y-96219550D01*
X193915205Y-96215359D01*
X193924968Y-96167377D01*
X193836480Y-96097409D01*
X193827441Y-96092152D01*
X193709893Y-96047555D01*
X193643320Y-96064024D01*
X193494411Y-96064024D01*
X193523649Y-96027898D01*
X193642801Y-95939044D01*
X193780827Y-95872961D01*
X193905573Y-95848800D01*
X194185033Y-95802250D01*
X194462966Y-95671874D01*
X194476933Y-95660553D01*
X194863468Y-95660553D01*
X194868911Y-95693020D01*
X194949017Y-95739962D01*
X195067871Y-95739798D01*
X195175823Y-95695502D01*
X195199353Y-95673225D01*
X195234538Y-95576885D01*
X195183448Y-95509130D01*
X195109301Y-95494815D01*
X195002253Y-95523479D01*
X194909450Y-95587678D01*
X194863468Y-95660553D01*
X194476933Y-95660553D01*
X194710089Y-95471580D01*
X194718600Y-95462649D01*
X194858112Y-95336794D01*
X194998914Y-95244142D01*
X195074200Y-95214326D01*
X195247728Y-95164826D01*
X195419014Y-95085098D01*
X195590313Y-94982152D01*
X195776447Y-94905421D01*
X196052036Y-94853403D01*
X196144933Y-94843502D01*
X196539041Y-94807400D01*
X196594020Y-94578800D01*
X196647730Y-94418646D01*
X196730684Y-94319151D01*
X196826800Y-94261378D01*
X196992950Y-94205235D01*
X197188512Y-94174467D01*
X197242212Y-94172478D01*
X197449322Y-94203067D01*
X197449322Y-94203067D01*
G37*
X197449322Y-94203067D02*
X197588807Y-94300100D01*
X197667031Y-94471241D01*
X197690400Y-94712050D01*
X197690400Y-94983999D01*
X198096800Y-95048985D01*
X198096800Y-96464892D01*
X198097630Y-96832316D01*
X198099975Y-97164280D01*
X198103615Y-97447901D01*
X198108330Y-97670298D01*
X198113899Y-97818589D01*
X198120103Y-97879891D01*
X198120972Y-97880799D01*
X198175706Y-97856671D01*
X198281115Y-97796846D01*
X198311472Y-97778400D01*
X198480316Y-97694194D01*
X198707499Y-97606594D01*
X198959140Y-97526018D01*
X199201355Y-97462884D01*
X199400262Y-97427610D01*
X199465394Y-97423600D01*
X199670036Y-97461654D01*
X199780272Y-97527639D01*
X199900200Y-97631679D01*
X199735100Y-97599803D01*
X199610699Y-97593696D01*
X199567758Y-97629799D01*
X199603471Y-97693561D01*
X199715031Y-97770429D01*
X199773435Y-97798602D01*
X199912986Y-97877313D01*
X200013771Y-97964585D01*
X200030871Y-97989260D01*
X200060939Y-98053203D01*
X200040667Y-98062937D01*
X199952138Y-98021483D01*
X199924451Y-98007206D01*
X199780290Y-97956070D01*
X199671098Y-97960138D01*
X199621569Y-98017618D01*
X199620800Y-98029222D01*
X199662249Y-98081900D01*
X199764216Y-98146839D01*
X199786370Y-98157801D01*
X199917399Y-98239466D01*
X200010961Y-98331182D01*
X200014853Y-98337107D01*
X200050099Y-98399497D01*
X200034405Y-98412048D01*
X199950658Y-98377098D01*
X199899573Y-98352870D01*
X199773820Y-98302178D01*
X199699145Y-98303631D01*
X199658391Y-98334698D01*
X199621796Y-98395699D01*
X199656350Y-98423933D01*
X199750865Y-98476576D01*
X199858279Y-98558870D01*
X199944665Y-98642108D01*
X199976400Y-98694694D01*
X199935745Y-98706152D01*
X199834756Y-98679213D01*
X199801317Y-98666061D01*
X199661845Y-98624940D01*
X199600168Y-98644900D01*
X199619061Y-98718503D01*
X199721301Y-98838313D01*
X199732883Y-98849406D01*
X199823206Y-98942837D01*
X199834027Y-98977875D01*
X199798600Y-98970485D01*
X199598594Y-98912018D01*
X199449163Y-98914057D01*
X199315432Y-98982142D01*
X199223054Y-99061907D01*
X199088567Y-99176537D01*
X198903789Y-99316729D01*
X198705120Y-99455066D01*
X198673551Y-99475798D01*
X198531593Y-99568559D01*
X198416455Y-99651143D01*
X198325152Y-99735012D01*
X198254700Y-99831633D01*
X198202113Y-99952468D01*
X198164406Y-100108982D01*
X198138594Y-100312640D01*
X198121692Y-100574905D01*
X198110715Y-100907243D01*
X198102677Y-101321117D01*
X198096800Y-101690800D01*
X198071400Y-103291000D01*
X197735140Y-102808400D01*
X197424021Y-102341922D01*
X197154700Y-101897524D01*
X196937410Y-101492906D01*
X196800418Y-101191387D01*
X196754446Y-101069860D01*
X196719353Y-100951074D01*
X196692779Y-100816850D01*
X196672363Y-100649010D01*
X196655744Y-100429374D01*
X196640562Y-100139765D01*
X196628900Y-99870587D01*
X196610605Y-99477749D01*
X196589644Y-99171366D01*
X196562158Y-98936300D01*
X196524289Y-98757412D01*
X196472178Y-98619564D01*
X196401966Y-98507617D01*
X196309795Y-98406435D01*
X196239213Y-98341840D01*
X195996590Y-98141180D01*
X195792218Y-98006649D01*
X195599233Y-97926386D01*
X195390771Y-97888527D01*
X195195151Y-97880799D01*
X194986748Y-97876917D01*
X194848541Y-97860275D01*
X194749262Y-97823380D01*
X194657645Y-97758742D01*
X194646297Y-97749284D01*
X194524136Y-97607924D01*
X194490000Y-97468614D01*
X194506621Y-97359077D01*
X194577257Y-97305750D01*
X194646766Y-97288106D01*
X194784659Y-97235197D01*
X194836862Y-97160785D01*
X194811987Y-97081177D01*
X194718645Y-97012679D01*
X194565448Y-96971599D01*
X194476867Y-96966400D01*
X194351287Y-96972689D01*
X194303877Y-97001071D01*
X194311511Y-97065815D01*
X194312200Y-97068000D01*
X194318400Y-97151482D01*
X194262213Y-97158284D01*
X194147545Y-97088714D01*
X194100197Y-97051245D01*
X193978979Y-96962224D01*
X193875564Y-96903527D01*
X193867990Y-96900551D01*
X193762480Y-96818801D01*
X193762116Y-96818256D01*
X194109000Y-96818256D01*
X194294336Y-96789394D01*
X194475710Y-96790603D01*
X194655732Y-96864465D01*
X194664805Y-96869764D01*
X194807373Y-96940990D01*
X194876672Y-96942593D01*
X194873723Y-96874259D01*
X194845600Y-96814000D01*
X194806693Y-96725340D01*
X194803384Y-96689595D01*
X194858570Y-96677914D01*
X194987244Y-96660776D01*
X195161704Y-96641864D01*
X195164111Y-96641627D01*
X195353112Y-96627059D01*
X195464463Y-96631503D01*
X195520799Y-96657651D01*
X195538094Y-96686128D01*
X195529629Y-96797223D01*
X195423444Y-96911026D01*
X195223209Y-97023673D01*
X195213900Y-97027832D01*
X195085408Y-97099395D01*
X195008111Y-97170611D01*
X194998000Y-97197377D01*
X195020327Y-97257423D01*
X195093574Y-97259804D01*
X195227137Y-97202154D01*
X195413136Y-97092957D01*
X195577094Y-96978296D01*
X195715290Y-96860399D01*
X195786566Y-96779689D01*
X195843203Y-96682866D01*
X195840326Y-96627738D01*
X195782410Y-96576931D01*
X195659425Y-96533042D01*
X195464114Y-96514356D01*
X195221939Y-96518513D01*
X194958362Y-96543151D01*
X194698845Y-96585909D01*
X194468852Y-96644426D01*
X194296788Y-96714705D01*
X194109000Y-96818256D01*
X193762116Y-96818256D01*
X193665181Y-96673446D01*
X193596482Y-96501748D01*
X193575789Y-96366501D01*
X193563579Y-96262038D01*
X193533873Y-96225357D01*
X193528310Y-96227630D01*
X193464130Y-96219538D01*
X193444001Y-96196959D01*
X193448879Y-96120283D01*
X193494411Y-96064024D01*
X193643320Y-96064024D01*
X193645502Y-96130886D01*
X193679046Y-96181225D01*
X193785143Y-96250333D01*
X193908444Y-96219550D01*
X193915205Y-96215359D01*
X193924968Y-96167377D01*
X193836480Y-96097409D01*
X193827441Y-96092152D01*
X193709893Y-96047555D01*
X193643320Y-96064024D01*
X193494411Y-96064024D01*
X193523649Y-96027898D01*
X193642801Y-95939044D01*
X193780827Y-95872961D01*
X193905573Y-95848800D01*
X194185033Y-95802250D01*
X194462966Y-95671874D01*
X194476933Y-95660553D01*
X194863468Y-95660553D01*
X194868911Y-95693020D01*
X194949017Y-95739962D01*
X195067871Y-95739798D01*
X195175823Y-95695502D01*
X195199353Y-95673225D01*
X195234538Y-95576885D01*
X195183448Y-95509130D01*
X195109301Y-95494815D01*
X195002253Y-95523479D01*
X194909450Y-95587678D01*
X194863468Y-95660553D01*
X194476933Y-95660553D01*
X194710089Y-95471580D01*
X194718600Y-95462649D01*
X194858112Y-95336794D01*
X194998914Y-95244142D01*
X195074200Y-95214326D01*
X195247728Y-95164826D01*
X195419014Y-95085098D01*
X195590313Y-94982152D01*
X195776447Y-94905421D01*
X196052036Y-94853403D01*
X196144933Y-94843502D01*
X196539041Y-94807400D01*
X196594020Y-94578800D01*
X196647730Y-94418646D01*
X196730684Y-94319151D01*
X196826800Y-94261378D01*
X196992950Y-94205235D01*
X197188512Y-94174467D01*
X197242212Y-94172478D01*
X197449322Y-94203067D01*
G36*
X199345004Y-93107593D02*
X200320670Y-93198682D01*
X201311336Y-93343565D01*
X202295370Y-93539254D01*
X203251138Y-93782762D01*
X203881610Y-93976696D01*
X204127510Y-94063261D01*
X204345063Y-94149208D01*
X204512114Y-94225144D01*
X204606506Y-94281673D01*
X204611288Y-94286088D01*
X204659259Y-94353963D01*
X204684326Y-94448889D01*
X204685565Y-94585153D01*
X204662048Y-94777044D01*
X204612851Y-95038852D01*
X204541288Y-95366200D01*
X204193508Y-96675123D01*
X203753958Y-97945830D01*
X203225132Y-99173758D01*
X202609525Y-100354348D01*
X201909632Y-101483036D01*
X201127949Y-102555264D01*
X200266969Y-103566468D01*
X199774108Y-104081368D01*
X199386709Y-104463752D01*
X199061680Y-104770893D01*
X198796010Y-105005321D01*
X198586688Y-105169563D01*
X198430704Y-105266147D01*
X198325400Y-105297600D01*
X198221740Y-105264163D01*
X198068185Y-105172787D01*
X197887184Y-105036868D01*
X197883537Y-105033868D01*
X197448843Y-104651347D01*
X196982846Y-104197523D01*
X196501883Y-103690833D01*
X196022290Y-103149713D01*
X195560401Y-102592600D01*
X195132554Y-102037931D01*
X194755083Y-101504141D01*
X194752233Y-101499888D01*
X194077708Y-100421941D01*
X193496622Y-99337207D01*
X193001363Y-98228334D01*
X192584322Y-97077968D01*
X192237888Y-95868755D01*
X192180803Y-95636689D01*
X192090281Y-95252058D01*
X192024994Y-94952835D01*
X191983640Y-94726355D01*
X191965779Y-94567599D01*
X192279069Y-94567599D01*
X192283176Y-94618767D01*
X192488537Y-95543043D01*
X192710371Y-96388508D01*
X192956124Y-97177551D01*
X193233240Y-97932559D01*
X193549164Y-98675922D01*
X193827271Y-99261971D01*
X194468507Y-100443887D01*
X195195820Y-101571880D01*
X196008826Y-102645379D01*
X196533523Y-103258529D01*
X196733241Y-103475563D01*
X196957301Y-103708717D01*
X197194595Y-103947533D01*
X197434014Y-104181556D01*
X197664452Y-104400326D01*
X197874801Y-104593386D01*
X198053951Y-104750280D01*
X198190796Y-104860549D01*
X198274227Y-104913737D01*
X198293124Y-104915079D01*
X198300155Y-104859291D01*
X198307722Y-104711987D01*
X198315586Y-104483248D01*
X198323506Y-104183153D01*
X198331244Y-103821783D01*
X198338559Y-103409219D01*
X198345214Y-102955542D01*
X198350800Y-102486737D01*
X198357994Y-101880782D01*
X198365813Y-101370472D01*
X198374466Y-100949850D01*
X198384162Y-100612961D01*
X198395110Y-100353851D01*
X198407518Y-100166564D01*
X198421597Y-100045145D01*
X198437555Y-99983638D01*
X198438718Y-99981473D01*
X198511252Y-99901669D01*
X198644274Y-99792859D01*
X198810469Y-99677162D01*
X198829311Y-99665149D01*
X199020890Y-99537888D01*
X199205518Y-99404868D01*
X199340834Y-99296882D01*
X199524281Y-99135813D01*
X199770507Y-99251138D01*
X199951482Y-99321610D01*
X200063946Y-99326542D01*
X200118814Y-99263749D01*
X200128800Y-99179422D01*
X200159917Y-99058794D01*
X200205000Y-98998400D01*
X200263012Y-98902180D01*
X200281200Y-98799139D01*
X200299585Y-98677721D01*
X200333887Y-98610432D01*
X200359812Y-98513639D01*
X200337597Y-98428922D01*
X200315696Y-98299217D01*
X200339184Y-98249535D01*
X200356643Y-98160652D01*
X200310074Y-98008281D01*
X200258019Y-97855605D01*
X200231327Y-97722407D01*
X200230400Y-97702707D01*
X200187761Y-97585387D01*
X200077346Y-97452280D01*
X199925402Y-97326092D01*
X199758179Y-97229530D01*
X199637787Y-97190070D01*
X199436194Y-97181564D01*
X199173860Y-97212990D01*
X198881033Y-97279072D01*
X198594510Y-97372036D01*
X198350800Y-97464638D01*
X198350800Y-96390802D01*
X200109654Y-96390802D01*
X200109889Y-96483740D01*
X200188670Y-96536118D01*
X200351864Y-96549773D01*
X200561124Y-96532336D01*
X200736017Y-96519211D01*
X200828193Y-96532590D01*
X200840000Y-96548807D01*
X200867979Y-96610122D01*
X200943059Y-96732178D01*
X201051949Y-96894014D01*
X201119400Y-96989548D01*
X201398800Y-97378973D01*
X201400405Y-99496786D01*
X201402010Y-101614600D01*
X201652800Y-101329534D01*
X201652800Y-97328325D01*
X201315913Y-96829862D01*
X201177140Y-96630035D01*
X201052411Y-96460445D01*
X200955885Y-96339715D01*
X200903510Y-96287416D01*
X200807497Y-96265814D01*
X200661888Y-96266407D01*
X200618097Y-96271068D01*
X200408200Y-96298704D01*
X200528127Y-96200752D01*
X200655795Y-96128667D01*
X200769427Y-96102800D01*
X200866119Y-96076621D01*
X200890800Y-96001200D01*
X200852352Y-95918932D01*
X200740188Y-95901942D01*
X200563907Y-95949142D01*
X200470044Y-95972029D01*
X200433600Y-95957142D01*
X200475841Y-95910418D01*
X200581710Y-95844608D01*
X200719921Y-95776879D01*
X200855919Y-95725396D01*
X200928591Y-95684745D01*
X200918360Y-95643924D01*
X200843304Y-95613980D01*
X200721500Y-95605960D01*
X200668313Y-95610747D01*
X200459000Y-95638304D01*
X200578927Y-95540352D01*
X200718854Y-95467365D01*
X200849861Y-95442400D01*
X200958514Y-95425613D01*
X200982464Y-95385654D01*
X200930919Y-95338125D01*
X200813086Y-95298628D01*
X200759829Y-95289836D01*
X200651605Y-95265586D01*
X200633128Y-95237216D01*
X200693071Y-95210906D01*
X200820104Y-95192837D01*
X200945754Y-95188400D01*
X201090207Y-95173243D01*
X201144098Y-95126197D01*
X201144800Y-95117635D01*
X201098533Y-95037957D01*
X200971595Y-94992078D01*
X200873945Y-94984422D01*
X200802159Y-94976324D01*
X200823230Y-94945682D01*
X200840000Y-94934400D01*
X200996790Y-94887482D01*
X201207474Y-94917267D01*
X201477099Y-95024567D01*
X201513616Y-95042671D01*
X201747145Y-95177166D01*
X201991203Y-95345561D01*
X202223915Y-95529859D01*
X202423408Y-95712062D01*
X202567807Y-95874175D01*
X202616928Y-95950400D01*
X202663187Y-96062652D01*
X202728265Y-96250184D01*
X202804711Y-96490130D01*
X202885068Y-96759624D01*
X202915017Y-96864800D01*
X202996630Y-97150669D01*
X203077791Y-97426722D01*
X203150517Y-97666337D01*
X203206820Y-97842888D01*
X203219743Y-97880800D01*
X203317584Y-98160200D01*
X203428793Y-97906200D01*
X203552671Y-97596030D01*
X203688360Y-97209603D01*
X203828934Y-96770518D01*
X203967467Y-96302373D01*
X204097032Y-95828769D01*
X204210703Y-95373305D01*
X204301554Y-94959580D01*
X204317443Y-94878331D01*
X204350450Y-94674323D01*
X204354577Y-94549952D01*
X204330224Y-94487564D01*
X204326380Y-94484169D01*
X204230895Y-94434389D01*
X204053330Y-94366589D01*
X203810638Y-94285441D01*
X203519771Y-94195619D01*
X203197685Y-94101794D01*
X202861330Y-94008639D01*
X202527662Y-93920826D01*
X202213632Y-93843028D01*
X201936195Y-93779918D01*
X201712303Y-93736167D01*
X201558909Y-93716449D01*
X201538500Y-93715802D01*
X201398800Y-93715200D01*
X201398800Y-94678456D01*
X201182900Y-94650760D01*
X200982673Y-94659535D01*
X200773182Y-94722746D01*
X200589441Y-94824938D01*
X200466469Y-94950658D01*
X200454662Y-94972150D01*
X200374426Y-95102765D01*
X200308628Y-95186158D01*
X200248994Y-95295744D01*
X200250515Y-95370746D01*
X200248873Y-95478527D01*
X200222256Y-95528412D01*
X200189907Y-95614637D01*
X200165009Y-95768040D01*
X200153557Y-95941073D01*
X200144126Y-96133795D01*
X200127496Y-96298738D01*
X200109654Y-96390802D01*
X198350800Y-96390802D01*
X198350800Y-93394493D01*
X197576100Y-93427055D01*
X196370863Y-93516195D01*
X195209423Y-93682943D01*
X194064642Y-93932167D01*
X192940600Y-94258570D01*
X192669674Y-94348221D01*
X192482051Y-94416282D01*
X192363739Y-94470421D01*
X192300742Y-94518304D01*
X192279069Y-94567599D01*
X191965779Y-94567599D01*
X191964918Y-94559952D01*
X191967527Y-94440961D01*
X191990167Y-94356717D01*
X192031537Y-94294553D01*
X192041843Y-94283756D01*
X192144465Y-94218291D01*
X192331888Y-94135562D01*
X192589635Y-94039884D01*
X192903224Y-93935574D01*
X193258178Y-93826948D01*
X193640015Y-93718321D01*
X194034258Y-93614010D01*
X194426425Y-93518331D01*
X194802039Y-93435600D01*
X195048800Y-93387441D01*
X195818177Y-93265758D01*
X196664281Y-93168371D01*
X197525208Y-93098749D01*
X198405973Y-93073286D01*
X199345004Y-93107593D01*
X199345004Y-93107593D01*
G37*
X199345004Y-93107593D02*
X200320670Y-93198682D01*
X201311336Y-93343565D01*
X202295370Y-93539254D01*
X203251138Y-93782762D01*
X203881610Y-93976696D01*
X204127510Y-94063261D01*
X204345063Y-94149208D01*
X204512114Y-94225144D01*
X204606506Y-94281673D01*
X204611288Y-94286088D01*
X204659259Y-94353963D01*
X204684326Y-94448889D01*
X204685565Y-94585153D01*
X204662048Y-94777044D01*
X204612851Y-95038852D01*
X204541288Y-95366200D01*
X204193508Y-96675123D01*
X203753958Y-97945830D01*
X203225132Y-99173758D01*
X202609525Y-100354348D01*
X201909632Y-101483036D01*
X201127949Y-102555264D01*
X200266969Y-103566468D01*
X199774108Y-104081368D01*
X199386709Y-104463752D01*
X199061680Y-104770893D01*
X198796010Y-105005321D01*
X198586688Y-105169563D01*
X198430704Y-105266147D01*
X198325400Y-105297600D01*
X198221740Y-105264163D01*
X198068185Y-105172787D01*
X197887184Y-105036868D01*
X197883537Y-105033868D01*
X197448843Y-104651347D01*
X196982846Y-104197523D01*
X196501883Y-103690833D01*
X196022290Y-103149713D01*
X195560401Y-102592600D01*
X195132554Y-102037931D01*
X194755083Y-101504141D01*
X194752233Y-101499888D01*
X194077708Y-100421941D01*
X193496622Y-99337207D01*
X193001363Y-98228334D01*
X192584322Y-97077968D01*
X192237888Y-95868755D01*
X192180803Y-95636689D01*
X192090281Y-95252058D01*
X192024994Y-94952835D01*
X191983640Y-94726355D01*
X191965779Y-94567599D01*
X192279069Y-94567599D01*
X192283176Y-94618767D01*
X192488537Y-95543043D01*
X192710371Y-96388508D01*
X192956124Y-97177551D01*
X193233240Y-97932559D01*
X193549164Y-98675922D01*
X193827271Y-99261971D01*
X194468507Y-100443887D01*
X195195820Y-101571880D01*
X196008826Y-102645379D01*
X196533523Y-103258529D01*
X196733241Y-103475563D01*
X196957301Y-103708717D01*
X197194595Y-103947533D01*
X197434014Y-104181556D01*
X197664452Y-104400326D01*
X197874801Y-104593386D01*
X198053951Y-104750280D01*
X198190796Y-104860549D01*
X198274227Y-104913737D01*
X198293124Y-104915079D01*
X198300155Y-104859291D01*
X198307722Y-104711987D01*
X198315586Y-104483248D01*
X198323506Y-104183153D01*
X198331244Y-103821783D01*
X198338559Y-103409219D01*
X198345214Y-102955542D01*
X198350800Y-102486737D01*
X198357994Y-101880782D01*
X198365813Y-101370472D01*
X198374466Y-100949850D01*
X198384162Y-100612961D01*
X198395110Y-100353851D01*
X198407518Y-100166564D01*
X198421597Y-100045145D01*
X198437555Y-99983638D01*
X198438718Y-99981473D01*
X198511252Y-99901669D01*
X198644274Y-99792859D01*
X198810469Y-99677162D01*
X198829311Y-99665149D01*
X199020890Y-99537888D01*
X199205518Y-99404868D01*
X199340834Y-99296882D01*
X199524281Y-99135813D01*
X199770507Y-99251138D01*
X199951482Y-99321610D01*
X200063946Y-99326542D01*
X200118814Y-99263749D01*
X200128800Y-99179422D01*
X200159917Y-99058794D01*
X200205000Y-98998400D01*
X200263012Y-98902180D01*
X200281200Y-98799139D01*
X200299585Y-98677721D01*
X200333887Y-98610432D01*
X200359812Y-98513639D01*
X200337597Y-98428922D01*
X200315696Y-98299217D01*
X200339184Y-98249535D01*
X200356643Y-98160652D01*
X200310074Y-98008281D01*
X200258019Y-97855605D01*
X200231327Y-97722407D01*
X200230400Y-97702707D01*
X200187761Y-97585387D01*
X200077346Y-97452280D01*
X199925402Y-97326092D01*
X199758179Y-97229530D01*
X199637787Y-97190070D01*
X199436194Y-97181564D01*
X199173860Y-97212990D01*
X198881033Y-97279072D01*
X198594510Y-97372036D01*
X198350800Y-97464638D01*
X198350800Y-96390802D01*
X200109654Y-96390802D01*
X200109889Y-96483740D01*
X200188670Y-96536118D01*
X200351864Y-96549773D01*
X200561124Y-96532336D01*
X200736017Y-96519211D01*
X200828193Y-96532590D01*
X200840000Y-96548807D01*
X200867979Y-96610122D01*
X200943059Y-96732178D01*
X201051949Y-96894014D01*
X201119400Y-96989548D01*
X201398800Y-97378973D01*
X201400405Y-99496786D01*
X201402010Y-101614600D01*
X201652800Y-101329534D01*
X201652800Y-97328325D01*
X201315913Y-96829862D01*
X201177140Y-96630035D01*
X201052411Y-96460445D01*
X200955885Y-96339715D01*
X200903510Y-96287416D01*
X200807497Y-96265814D01*
X200661888Y-96266407D01*
X200618097Y-96271068D01*
X200408200Y-96298704D01*
X200528127Y-96200752D01*
X200655795Y-96128667D01*
X200769427Y-96102800D01*
X200866119Y-96076621D01*
X200890800Y-96001200D01*
X200852352Y-95918932D01*
X200740188Y-95901942D01*
X200563907Y-95949142D01*
X200470044Y-95972029D01*
X200433600Y-95957142D01*
X200475841Y-95910418D01*
X200581710Y-95844608D01*
X200719921Y-95776879D01*
X200855919Y-95725396D01*
X200928591Y-95684745D01*
X200918360Y-95643924D01*
X200843304Y-95613980D01*
X200721500Y-95605960D01*
X200668313Y-95610747D01*
X200459000Y-95638304D01*
X200578927Y-95540352D01*
X200718854Y-95467365D01*
X200849861Y-95442400D01*
X200958514Y-95425613D01*
X200982464Y-95385654D01*
X200930919Y-95338125D01*
X200813086Y-95298628D01*
X200759829Y-95289836D01*
X200651605Y-95265586D01*
X200633128Y-95237216D01*
X200693071Y-95210906D01*
X200820104Y-95192837D01*
X200945754Y-95188400D01*
X201090207Y-95173243D01*
X201144098Y-95126197D01*
X201144800Y-95117635D01*
X201098533Y-95037957D01*
X200971595Y-94992078D01*
X200873945Y-94984422D01*
X200802159Y-94976324D01*
X200823230Y-94945682D01*
X200840000Y-94934400D01*
X200996790Y-94887482D01*
X201207474Y-94917267D01*
X201477099Y-95024567D01*
X201513616Y-95042671D01*
X201747145Y-95177166D01*
X201991203Y-95345561D01*
X202223915Y-95529859D01*
X202423408Y-95712062D01*
X202567807Y-95874175D01*
X202616928Y-95950400D01*
X202663187Y-96062652D01*
X202728265Y-96250184D01*
X202804711Y-96490130D01*
X202885068Y-96759624D01*
X202915017Y-96864800D01*
X202996630Y-97150669D01*
X203077791Y-97426722D01*
X203150517Y-97666337D01*
X203206820Y-97842888D01*
X203219743Y-97880800D01*
X203317584Y-98160200D01*
X203428793Y-97906200D01*
X203552671Y-97596030D01*
X203688360Y-97209603D01*
X203828934Y-96770518D01*
X203967467Y-96302373D01*
X204097032Y-95828769D01*
X204210703Y-95373305D01*
X204301554Y-94959580D01*
X204317443Y-94878331D01*
X204350450Y-94674323D01*
X204354577Y-94549952D01*
X204330224Y-94487564D01*
X204326380Y-94484169D01*
X204230895Y-94434389D01*
X204053330Y-94366589D01*
X203810638Y-94285441D01*
X203519771Y-94195619D01*
X203197685Y-94101794D01*
X202861330Y-94008639D01*
X202527662Y-93920826D01*
X202213632Y-93843028D01*
X201936195Y-93779918D01*
X201712303Y-93736167D01*
X201558909Y-93716449D01*
X201538500Y-93715802D01*
X201398800Y-93715200D01*
X201398800Y-94678456D01*
X201182900Y-94650760D01*
X200982673Y-94659535D01*
X200773182Y-94722746D01*
X200589441Y-94824938D01*
X200466469Y-94950658D01*
X200454662Y-94972150D01*
X200374426Y-95102765D01*
X200308628Y-95186158D01*
X200248994Y-95295744D01*
X200250515Y-95370746D01*
X200248873Y-95478527D01*
X200222256Y-95528412D01*
X200189907Y-95614637D01*
X200165009Y-95768040D01*
X200153557Y-95941073D01*
X200144126Y-96133795D01*
X200127496Y-96298738D01*
X200109654Y-96390802D01*
X198350800Y-96390802D01*
X198350800Y-93394493D01*
X197576100Y-93427055D01*
X196370863Y-93516195D01*
X195209423Y-93682943D01*
X194064642Y-93932167D01*
X192940600Y-94258570D01*
X192669674Y-94348221D01*
X192482051Y-94416282D01*
X192363739Y-94470421D01*
X192300742Y-94518304D01*
X192279069Y-94567599D01*
X191965779Y-94567599D01*
X191964918Y-94559952D01*
X191967527Y-94440961D01*
X191990167Y-94356717D01*
X192031537Y-94294553D01*
X192041843Y-94283756D01*
X192144465Y-94218291D01*
X192331888Y-94135562D01*
X192589635Y-94039884D01*
X192903224Y-93935574D01*
X193258178Y-93826948D01*
X193640015Y-93718321D01*
X194034258Y-93614010D01*
X194426425Y-93518331D01*
X194802039Y-93435600D01*
X195048800Y-93387441D01*
X195818177Y-93265758D01*
X196664281Y-93168371D01*
X197525208Y-93098749D01*
X198405973Y-93073286D01*
X199345004Y-93107593D01*
G36*
X204393339Y-83892237D02*
X204718072Y-83894036D01*
X204993984Y-83896824D01*
X205207953Y-83900428D01*
X205346857Y-83904677D01*
X205397575Y-83909398D01*
X205397599Y-83909507D01*
X205377321Y-83959800D01*
X205322221Y-84082986D01*
X205240905Y-84260106D01*
X205149766Y-84455607D01*
X204988743Y-84798504D01*
X204806057Y-85187048D01*
X204606704Y-85610652D01*
X204395680Y-86058728D01*
X204177981Y-86520689D01*
X203958605Y-86985946D01*
X203742547Y-87443913D01*
X203534804Y-87884001D01*
X203340373Y-88295624D01*
X203164248Y-88668193D01*
X203011428Y-88991122D01*
X202886908Y-89253821D01*
X202795684Y-89445705D01*
X202742941Y-89555800D01*
X202656327Y-89738576D01*
X202542679Y-89984204D01*
X202415831Y-90262513D01*
X202289613Y-90543335D01*
X202271283Y-90584500D01*
X201971985Y-91257600D01*
X192995553Y-91257600D01*
X193029919Y-91149322D01*
X193061378Y-91071188D01*
X193128845Y-90917101D01*
X193225117Y-90703059D01*
X193342988Y-90445061D01*
X193475255Y-90159104D01*
X193493172Y-90120622D01*
X193597132Y-89897243D01*
X193738053Y-89594029D01*
X193910200Y-89223337D01*
X194107841Y-88797526D01*
X194325240Y-88328953D01*
X194556663Y-87829977D01*
X194796377Y-87312956D01*
X195038646Y-86790247D01*
X195151330Y-86547063D01*
X196380600Y-83893927D01*
X198168489Y-83892763D01*
X199956379Y-83891600D01*
X199834005Y-84158300D01*
X199789767Y-84254145D01*
X199707103Y-84432679D01*
X199590396Y-84684453D01*
X199444031Y-85000015D01*
X199272392Y-85369916D01*
X199079866Y-85784704D01*
X198870835Y-86234931D01*
X198649685Y-86711145D01*
X198519978Y-86990400D01*
X197328324Y-89555800D01*
X198629046Y-89569376D01*
X198982968Y-89571592D01*
X199303111Y-89570772D01*
X199575526Y-89567182D01*
X199786264Y-89561086D01*
X199921379Y-89552750D01*
X199966473Y-89543976D01*
X199994752Y-89491667D01*
X200062021Y-89356298D01*
X200164019Y-89146744D01*
X200296487Y-88871880D01*
X200455165Y-88540580D01*
X200635793Y-88161721D01*
X200834111Y-87744175D01*
X201045859Y-87296820D01*
X201094618Y-87193600D01*
X201317620Y-86721642D01*
X201535182Y-86261783D01*
X201741923Y-85825353D01*
X201932462Y-85423684D01*
X202101421Y-85068109D01*
X202243419Y-84769959D01*
X202353076Y-84540566D01*
X202425012Y-84391262D01*
X202427134Y-84386900D01*
X202668212Y-83891600D01*
X204032906Y-83891600D01*
X204393339Y-83892237D01*
X204393339Y-83892237D01*
G37*
X204393339Y-83892237D02*
X204718072Y-83894036D01*
X204993984Y-83896824D01*
X205207953Y-83900428D01*
X205346857Y-83904677D01*
X205397575Y-83909398D01*
X205397599Y-83909507D01*
X205377321Y-83959800D01*
X205322221Y-84082986D01*
X205240905Y-84260106D01*
X205149766Y-84455607D01*
X204988743Y-84798504D01*
X204806057Y-85187048D01*
X204606704Y-85610652D01*
X204395680Y-86058728D01*
X204177981Y-86520689D01*
X203958605Y-86985946D01*
X203742547Y-87443913D01*
X203534804Y-87884001D01*
X203340373Y-88295624D01*
X203164248Y-88668193D01*
X203011428Y-88991122D01*
X202886908Y-89253821D01*
X202795684Y-89445705D01*
X202742941Y-89555800D01*
X202656327Y-89738576D01*
X202542679Y-89984204D01*
X202415831Y-90262513D01*
X202289613Y-90543335D01*
X202271283Y-90584500D01*
X201971985Y-91257600D01*
X192995553Y-91257600D01*
X193029919Y-91149322D01*
X193061378Y-91071188D01*
X193128845Y-90917101D01*
X193225117Y-90703059D01*
X193342988Y-90445061D01*
X193475255Y-90159104D01*
X193493172Y-90120622D01*
X193597132Y-89897243D01*
X193738053Y-89594029D01*
X193910200Y-89223337D01*
X194107841Y-88797526D01*
X194325240Y-88328953D01*
X194556663Y-87829977D01*
X194796377Y-87312956D01*
X195038646Y-86790247D01*
X195151330Y-86547063D01*
X196380600Y-83893927D01*
X198168489Y-83892763D01*
X199956379Y-83891600D01*
X199834005Y-84158300D01*
X199789767Y-84254145D01*
X199707103Y-84432679D01*
X199590396Y-84684453D01*
X199444031Y-85000015D01*
X199272392Y-85369916D01*
X199079866Y-85784704D01*
X198870835Y-86234931D01*
X198649685Y-86711145D01*
X198519978Y-86990400D01*
X197328324Y-89555800D01*
X198629046Y-89569376D01*
X198982968Y-89571592D01*
X199303111Y-89570772D01*
X199575526Y-89567182D01*
X199786264Y-89561086D01*
X199921379Y-89552750D01*
X199966473Y-89543976D01*
X199994752Y-89491667D01*
X200062021Y-89356298D01*
X200164019Y-89146744D01*
X200296487Y-88871880D01*
X200455165Y-88540580D01*
X200635793Y-88161721D01*
X200834111Y-87744175D01*
X201045859Y-87296820D01*
X201094618Y-87193600D01*
X201317620Y-86721642D01*
X201535182Y-86261783D01*
X201741923Y-85825353D01*
X201932462Y-85423684D01*
X202101421Y-85068109D01*
X202243419Y-84769959D01*
X202353076Y-84540566D01*
X202425012Y-84391262D01*
X202427134Y-84386900D01*
X202668212Y-83891600D01*
X204032906Y-83891600D01*
X204393339Y-83892237D01*
D13*
X182482600Y-134561800D02*
X181517400Y-134561800D01*
X182482600Y-135857200D02*
X182482600Y-134942800D01*
X181517400Y-136238200D02*
X182482600Y-136238200D01*
X181517400Y-134942800D02*
X181517400Y-135857200D01*
X182482600Y-136238200D02*
X182482600Y-135857200D01*
X181517400Y-135857200D02*
X181517400Y-136238200D01*
X182482600Y-135857200D02*
X181517400Y-135857200D01*
X181517400Y-134561800D02*
X181517400Y-134942800D01*
X182482600Y-134942800D02*
X182482600Y-134561800D01*
X181517400Y-134942800D02*
X182482600Y-134942800D01*
D14*
X182660400Y-136822400D02*
X182660400Y-133977600D01*
X182660400Y-133977600D02*
X181339600Y-133977600D01*
X181339600Y-133977600D02*
X181339600Y-136822400D01*
X181339600Y-136822400D02*
X182660400Y-136822400D01*
X172660400Y-132177600D02*
X171339600Y-132177600D01*
X172660400Y-135022400D02*
X172660400Y-132177600D01*
X171339600Y-135022400D02*
X172660400Y-135022400D01*
X171339600Y-132177600D02*
X171339600Y-135022400D01*
D13*
X172482600Y-134057200D02*
X171517400Y-134057200D01*
X171517400Y-134057200D02*
X171517400Y-134438200D01*
X172482600Y-134438200D02*
X172482600Y-134057200D01*
X171517400Y-133142800D02*
X172482600Y-133142800D01*
X172482600Y-133142800D02*
X172482600Y-132761800D01*
X171517400Y-132761800D02*
X171517400Y-133142800D01*
X172482600Y-134057200D02*
X172482600Y-133142800D01*
X172482600Y-132761800D02*
X171517400Y-132761800D01*
X171517400Y-133142800D02*
X171517400Y-134057200D01*
X171517400Y-134438200D02*
X172482600Y-134438200D01*
D14*
X147160400Y-134252600D02*
X145839600Y-134252600D01*
X147160400Y-137097400D02*
X147160400Y-134252600D01*
X145839600Y-137097400D02*
X147160400Y-137097400D01*
X145839600Y-134252600D02*
X145839600Y-137097400D01*
D13*
X146982600Y-136132200D02*
X146017400Y-136132200D01*
X146017400Y-136132200D02*
X146017400Y-136513200D01*
X146982600Y-136513200D02*
X146982600Y-136132200D01*
X146017400Y-135217800D02*
X146982600Y-135217800D01*
X146982600Y-135217800D02*
X146982600Y-134836800D01*
X146017400Y-134836800D02*
X146017400Y-135217800D01*
X146982600Y-136132200D02*
X146982600Y-135217800D01*
X146982600Y-134836800D02*
X146017400Y-134836800D01*
X146017400Y-135217800D02*
X146017400Y-136132200D01*
X146017400Y-136513200D02*
X146982600Y-136513200D01*
D14*
X138610400Y-109077600D02*
X137289600Y-109077600D01*
X138610400Y-111922400D02*
X138610400Y-109077600D01*
X137289600Y-111922400D02*
X138610400Y-111922400D01*
X137289600Y-109077600D02*
X137289600Y-111922400D01*
D13*
X138432600Y-110957200D02*
X137467400Y-110957200D01*
X137467400Y-110957200D02*
X137467400Y-111338200D01*
X138432600Y-111338200D02*
X138432600Y-110957200D01*
X137467400Y-110042800D02*
X138432600Y-110042800D01*
X138432600Y-110042800D02*
X138432600Y-109661800D01*
X137467400Y-109661800D02*
X137467400Y-110042800D01*
X138432600Y-110957200D02*
X138432600Y-110042800D01*
X138432600Y-109661800D02*
X137467400Y-109661800D01*
X137467400Y-110042800D02*
X137467400Y-110957200D01*
X137467400Y-111338200D02*
X138432600Y-111338200D01*
X147911800Y-120917400D02*
X147911800Y-121882600D01*
X149207200Y-120917400D02*
X148292800Y-120917400D01*
X149588200Y-121882600D02*
X149588200Y-120917400D01*
X148292800Y-121882600D02*
X149207200Y-121882600D01*
X149588200Y-120917400D02*
X149207200Y-120917400D01*
X149207200Y-121882600D02*
X149588200Y-121882600D01*
X149207200Y-120917400D02*
X149207200Y-121882600D01*
X147911800Y-121882600D02*
X148292800Y-121882600D01*
X148292800Y-120917400D02*
X147911800Y-120917400D01*
X148292800Y-121882600D02*
X148292800Y-120917400D01*
D14*
X150172400Y-120739600D02*
X147327600Y-120739600D01*
X147327600Y-120739600D02*
X147327600Y-122060400D01*
X147327600Y-122060400D02*
X150172400Y-122060400D01*
X150172400Y-122060400D02*
X150172400Y-120739600D01*
X130027600Y-115239600D02*
X130027600Y-116560400D01*
X132872400Y-115239600D02*
X130027600Y-115239600D01*
X132872400Y-116560400D02*
X132872400Y-115239600D01*
X130027600Y-116560400D02*
X132872400Y-116560400D01*
D13*
X131907200Y-115417400D02*
X131907200Y-116382600D01*
X131907200Y-116382600D02*
X132288200Y-116382600D01*
X132288200Y-115417400D02*
X131907200Y-115417400D01*
X130992800Y-116382600D02*
X130992800Y-115417400D01*
X130992800Y-115417400D02*
X130611800Y-115417400D01*
X130611800Y-116382600D02*
X130992800Y-116382600D01*
X131907200Y-115417400D02*
X130992800Y-115417400D01*
X130611800Y-115417400D02*
X130611800Y-116382600D01*
X130992800Y-116382600D02*
X131907200Y-116382600D01*
X132288200Y-116382600D02*
X132288200Y-115417400D01*
D15*
X185958095Y-130299960D02*
G75*
G03X185958095Y-130299960I-2758735J0D01*
G01*
X184456955Y-112202460D02*
G75*
G03X184456955Y-112202460I-2758735J0D01*
G01*
X157060515Y-112202460D02*
G75*
G03X157060515Y-112202460I-2758735J0D01*
G01*
X155559375Y-130299960D02*
G75*
G03X155559375Y-130299960I-2758735J0D01*
G01*
X146841416Y-54202460D02*
G75*
G03X146841416Y-54202460I-2539616J0D01*
G01*
X145340276Y-72299960D02*
G75*
G03X145340276Y-72299960I-2539616J0D01*
G01*
X195738956Y-72299960D02*
G75*
G03X195738956Y-72299960I-2539616J0D01*
G01*
X194237816Y-54202460D02*
G75*
G03X194237816Y-54202460I-2539616J0D01*
G01*
D14*
X130027600Y-117139600D02*
X130027600Y-118460400D01*
X132872400Y-117139600D02*
X130027600Y-117139600D01*
X132872400Y-118460400D02*
X132872400Y-117139600D01*
X130027600Y-118460400D02*
X132872400Y-118460400D01*
D13*
X131907200Y-117317400D02*
X131907200Y-118282600D01*
X131907200Y-118282600D02*
X132288200Y-118282600D01*
X132288200Y-117317400D02*
X131907200Y-117317400D01*
X130992800Y-118282600D02*
X130992800Y-117317400D01*
X130992800Y-117317400D02*
X130611800Y-117317400D01*
X130611800Y-118282600D02*
X130992800Y-118282600D01*
X131907200Y-117317400D02*
X130992800Y-117317400D01*
X130611800Y-117317400D02*
X130611800Y-118282600D01*
X130992800Y-118282600D02*
X131907200Y-118282600D01*
X132288200Y-118282600D02*
X132288200Y-117317400D01*
D16*
X200949580Y-116200560D02*
X200949580Y-117399440D01*
X200949580Y-116800000D02*
X200050420Y-116200560D01*
X200050420Y-117399440D02*
X200949580Y-116800000D01*
X200050420Y-116200560D02*
X200050420Y-117399440D01*
X201198220Y-124298220D02*
X201198220Y-122301780D01*
X201198220Y-122301780D02*
X199600560Y-123300000D01*
X199600560Y-123300000D02*
X201198220Y-124298220D01*
X199600560Y-124298220D02*
X199402440Y-124298220D01*
X199402440Y-124298220D02*
X199402440Y-122301780D01*
X199402440Y-122301780D02*
X199201780Y-122301780D01*
X202498700Y-121400080D02*
X198000360Y-121400080D01*
X198000360Y-121400080D02*
X198000360Y-121801400D01*
X202498700Y-121400080D02*
X202498700Y-121801400D01*
X202498700Y-124798600D02*
X202498700Y-125199920D01*
X202498700Y-125199920D02*
X198000360Y-125199920D01*
X198000360Y-125199920D02*
X198000360Y-124798600D01*
X178249580Y-132299440D02*
X178249580Y-131100560D01*
X178249580Y-131100560D02*
X177350420Y-131700000D01*
X177350420Y-131700000D02*
X178249580Y-132299440D01*
X177350420Y-132299440D02*
X177350420Y-131100560D01*
X201398500Y-120299160D02*
X200001500Y-120299160D01*
X201398500Y-118500840D02*
X200001500Y-118500840D01*
D14*
X150372400Y-119460400D02*
X150372400Y-118139600D01*
X147527600Y-119460400D02*
X150372400Y-119460400D01*
X147527600Y-118139600D02*
X147527600Y-119460400D01*
X150372400Y-118139600D02*
X147527600Y-118139600D01*
D13*
X148492800Y-119282600D02*
X148492800Y-118317400D01*
X148492800Y-118317400D02*
X148111800Y-118317400D01*
X148111800Y-119282600D02*
X148492800Y-119282600D01*
X149407200Y-118317400D02*
X149407200Y-119282600D01*
X149407200Y-119282600D02*
X149788200Y-119282600D01*
X149788200Y-118317400D02*
X149407200Y-118317400D01*
X148492800Y-119282600D02*
X149407200Y-119282600D01*
X149788200Y-119282600D02*
X149788200Y-118317400D01*
X149407200Y-118317400D02*
X148492800Y-118317400D01*
X148111800Y-118317400D02*
X148111800Y-119282600D01*
D14*
X137789600Y-129272400D02*
X139110400Y-129272400D01*
X137789600Y-126427600D02*
X137789600Y-129272400D01*
X139110400Y-126427600D02*
X137789600Y-126427600D01*
X139110400Y-129272400D02*
X139110400Y-126427600D01*
D13*
X137967400Y-127392800D02*
X138932600Y-127392800D01*
X138932600Y-127392800D02*
X138932600Y-127011800D01*
X137967400Y-127011800D02*
X137967400Y-127392800D01*
X138932600Y-128307200D02*
X137967400Y-128307200D01*
X137967400Y-128307200D02*
X137967400Y-128688200D01*
X138932600Y-128688200D02*
X138932600Y-128307200D01*
X137967400Y-127392800D02*
X137967400Y-128307200D01*
X137967400Y-128688200D02*
X138932600Y-128688200D01*
X138932600Y-128307200D02*
X138932600Y-127392800D01*
X138932600Y-127011800D02*
X137967400Y-127011800D01*
D14*
X133789600Y-132522400D02*
X135110400Y-132522400D01*
X133789600Y-129677600D02*
X133789600Y-132522400D01*
X135110400Y-129677600D02*
X133789600Y-129677600D01*
X135110400Y-132522400D02*
X135110400Y-129677600D01*
D13*
X133967400Y-130642800D02*
X134932600Y-130642800D01*
X134932600Y-130642800D02*
X134932600Y-130261800D01*
X133967400Y-130261800D02*
X133967400Y-130642800D01*
X134932600Y-131557200D02*
X133967400Y-131557200D01*
X133967400Y-131557200D02*
X133967400Y-131938200D01*
X134932600Y-131938200D02*
X134932600Y-131557200D01*
X133967400Y-130642800D02*
X133967400Y-131557200D01*
X133967400Y-131938200D02*
X134932600Y-131938200D01*
X134932600Y-131557200D02*
X134932600Y-130642800D01*
X134932600Y-130261800D02*
X133967400Y-130261800D01*
X133967400Y-135438200D02*
X134932600Y-135438200D01*
X133967400Y-134142800D02*
X133967400Y-135057200D01*
X134932600Y-133761800D02*
X133967400Y-133761800D01*
X134932600Y-135057200D02*
X134932600Y-134142800D01*
X133967400Y-133761800D02*
X133967400Y-134142800D01*
X134932600Y-134142800D02*
X134932600Y-133761800D01*
X133967400Y-134142800D02*
X134932600Y-134142800D01*
X134932600Y-135438200D02*
X134932600Y-135057200D01*
X133967400Y-135057200D02*
X133967400Y-135438200D01*
X134932600Y-135057200D02*
X133967400Y-135057200D01*
D14*
X133789600Y-133177600D02*
X133789600Y-136022400D01*
X133789600Y-136022400D02*
X135110400Y-136022400D01*
X135110400Y-136022400D02*
X135110400Y-133177600D01*
X135110400Y-133177600D02*
X133789600Y-133177600D01*
X148872400Y-125735400D02*
X148872400Y-124414600D01*
X146027600Y-125735400D02*
X148872400Y-125735400D01*
X146027600Y-124414600D02*
X146027600Y-125735400D01*
X148872400Y-124414600D02*
X146027600Y-124414600D01*
D13*
X146992800Y-125557600D02*
X146992800Y-124592400D01*
X146992800Y-124592400D02*
X146611800Y-124592400D01*
X146611800Y-125557600D02*
X146992800Y-125557600D01*
X147907200Y-124592400D02*
X147907200Y-125557600D01*
X147907200Y-125557600D02*
X148288200Y-125557600D01*
X148288200Y-124592400D02*
X147907200Y-124592400D01*
X146992800Y-125557600D02*
X147907200Y-125557600D01*
X148288200Y-125557600D02*
X148288200Y-124592400D01*
X147907200Y-124592400D02*
X146992800Y-124592400D01*
X146611800Y-124592400D02*
X146611800Y-125557600D01*
D16*
X140916000Y-135848000D02*
X138884000Y-135848000D01*
X140916000Y-129752000D02*
X138884000Y-129752000D01*
D14*
X141277600Y-64439600D02*
X141277600Y-65760400D01*
X144122400Y-64439600D02*
X141277600Y-64439600D01*
X144122400Y-65760400D02*
X144122400Y-64439600D01*
X141277600Y-65760400D02*
X144122400Y-65760400D01*
D13*
X143157200Y-64617400D02*
X143157200Y-65582600D01*
X143157200Y-65582600D02*
X143538200Y-65582600D01*
X143538200Y-64617400D02*
X143157200Y-64617400D01*
X142242800Y-65582600D02*
X142242800Y-64617400D01*
X142242800Y-64617400D02*
X141861800Y-64617400D01*
X141861800Y-65582600D02*
X142242800Y-65582600D01*
X143157200Y-64617400D02*
X142242800Y-64617400D01*
X141861800Y-64617400D02*
X141861800Y-65582600D01*
X142242800Y-65582600D02*
X143157200Y-65582600D01*
X143538200Y-65582600D02*
X143538200Y-64617400D01*
X143538200Y-63782600D02*
X143538200Y-62817400D01*
X142242800Y-63782600D02*
X143157200Y-63782600D01*
X141861800Y-62817400D02*
X141861800Y-63782600D01*
X143157200Y-62817400D02*
X142242800Y-62817400D01*
X141861800Y-63782600D02*
X142242800Y-63782600D01*
X142242800Y-62817400D02*
X141861800Y-62817400D01*
X142242800Y-63782600D02*
X142242800Y-62817400D01*
X143538200Y-62817400D02*
X143157200Y-62817400D01*
X143157200Y-63782600D02*
X143538200Y-63782600D01*
X143157200Y-62817400D02*
X143157200Y-63782600D01*
D14*
X141277600Y-63960400D02*
X144122400Y-63960400D01*
X144122400Y-63960400D02*
X144122400Y-62639600D01*
X144122400Y-62639600D02*
X141277600Y-62639600D01*
X141277600Y-62639600D02*
X141277600Y-63960400D01*
D13*
X137361800Y-136617400D02*
X137361800Y-137582600D01*
X138657200Y-136617400D02*
X137742800Y-136617400D01*
X139038200Y-137582600D02*
X139038200Y-136617400D01*
X137742800Y-137582600D02*
X138657200Y-137582600D01*
X139038200Y-136617400D02*
X138657200Y-136617400D01*
X138657200Y-137582600D02*
X139038200Y-137582600D01*
X138657200Y-136617400D02*
X138657200Y-137582600D01*
X137361800Y-137582600D02*
X137742800Y-137582600D01*
X137742800Y-136617400D02*
X137361800Y-136617400D01*
X137742800Y-137582600D02*
X137742800Y-136617400D01*
D14*
X139622400Y-136439600D02*
X136777600Y-136439600D01*
X136777600Y-136439600D02*
X136777600Y-137760400D01*
X136777600Y-137760400D02*
X139622400Y-137760400D01*
X139622400Y-137760400D02*
X139622400Y-136439600D01*
X140177600Y-136439600D02*
X140177600Y-137760400D01*
X143022400Y-136439600D02*
X140177600Y-136439600D01*
X143022400Y-137760400D02*
X143022400Y-136439600D01*
X140177600Y-137760400D02*
X143022400Y-137760400D01*
D13*
X142057200Y-136617400D02*
X142057200Y-137582600D01*
X142057200Y-137582600D02*
X142438200Y-137582600D01*
X142438200Y-136617400D02*
X142057200Y-136617400D01*
X141142800Y-137582600D02*
X141142800Y-136617400D01*
X141142800Y-136617400D02*
X140761800Y-136617400D01*
X140761800Y-137582600D02*
X141142800Y-137582600D01*
X142057200Y-136617400D02*
X141142800Y-136617400D01*
X140761800Y-136617400D02*
X140761800Y-137582600D01*
X141142800Y-137582600D02*
X142057200Y-137582600D01*
X142438200Y-137582600D02*
X142438200Y-136617400D01*
X164232600Y-97661800D02*
X163267400Y-97661800D01*
X164232600Y-98957200D02*
X164232600Y-98042800D01*
X163267400Y-99338200D02*
X164232600Y-99338200D01*
X163267400Y-98042800D02*
X163267400Y-98957200D01*
X164232600Y-99338200D02*
X164232600Y-98957200D01*
X163267400Y-98957200D02*
X163267400Y-99338200D01*
X164232600Y-98957200D02*
X163267400Y-98957200D01*
X163267400Y-97661800D02*
X163267400Y-98042800D01*
X164232600Y-98042800D02*
X164232600Y-97661800D01*
X163267400Y-98042800D02*
X164232600Y-98042800D01*
D14*
X164410400Y-99922400D02*
X164410400Y-97077600D01*
X164410400Y-97077600D02*
X163089600Y-97077600D01*
X163089600Y-97077600D02*
X163089600Y-99922400D01*
X163089600Y-99922400D02*
X164410400Y-99922400D01*
X166289600Y-99922400D02*
X167610400Y-99922400D01*
X166289600Y-97077600D02*
X166289600Y-99922400D01*
X167610400Y-97077600D02*
X166289600Y-97077600D01*
X167610400Y-99922400D02*
X167610400Y-97077600D01*
D13*
X166467400Y-98042800D02*
X167432600Y-98042800D01*
X167432600Y-98042800D02*
X167432600Y-97661800D01*
X166467400Y-97661800D02*
X166467400Y-98042800D01*
X167432600Y-98957200D02*
X166467400Y-98957200D01*
X166467400Y-98957200D02*
X166467400Y-99338200D01*
X167432600Y-99338200D02*
X167432600Y-98957200D01*
X166467400Y-98042800D02*
X166467400Y-98957200D01*
X166467400Y-99338200D02*
X167432600Y-99338200D01*
X167432600Y-98957200D02*
X167432600Y-98042800D01*
X167432600Y-97661800D02*
X166467400Y-97661800D01*
D11*
X135251280Y-124098720D02*
X135251280Y-123499280D01*
X135850720Y-124098720D02*
X135251280Y-124098720D01*
X135251280Y-114700720D02*
X135251280Y-114101280D01*
X145248720Y-114700720D02*
X145248720Y-114101280D01*
X145248720Y-124098720D02*
X145248720Y-123499280D01*
X145248720Y-114101280D02*
X144649280Y-114101280D01*
X135850720Y-114101280D02*
X135251280Y-114101280D01*
X145248720Y-124098720D02*
X144649280Y-124098720D01*
X145647500Y-114700720D02*
X145647500Y-113702500D01*
X145647500Y-113702500D02*
X144649280Y-113702500D01*
D17*
X149410478Y-129022103D02*
G75*
G03X149410478Y-129022103I-251447J0D01*
G01*
D16*
X149794031Y-127752103D02*
X149794031Y-131562103D01*
X144714031Y-127752103D02*
X149794031Y-127752103D01*
X144714031Y-131562103D02*
X144714031Y-127752103D01*
X149794031Y-131562103D02*
X144714031Y-131562103D01*
D14*
X163682843Y-93800000D02*
G75*
G03X163682843Y-93800000I-282843J0D01*
G01*
X162800000Y-94300000D02*
X162800000Y-90500000D01*
X162800000Y-94300000D02*
X167600000Y-94300000D01*
X167600000Y-90500000D02*
X167600000Y-94300000D01*
X162800000Y-90500000D02*
X167600000Y-90500000D01*
X168300000Y-90500000D02*
X173100000Y-90500000D01*
X173100000Y-90500000D02*
X173100000Y-94300000D01*
X168300000Y-94300000D02*
X173100000Y-94300000D01*
X168300000Y-94300000D02*
X168300000Y-90500000D01*
X169182843Y-93800000D02*
G75*
G03X169182843Y-93800000I-282843J0D01*
G01*
D18*
X133148600Y-130201580D02*
X133349260Y-130402240D01*
X133349260Y-130402240D02*
X133349260Y-135197760D01*
X133349260Y-135197760D02*
X133148600Y-135398420D01*
X130151400Y-135497480D02*
X129950740Y-135299360D01*
X129950740Y-135299360D02*
X129950740Y-130402240D01*
X129950740Y-130402240D02*
X130151400Y-130201580D01*
D14*
X164550000Y-133850000D02*
X164150000Y-133850000D01*
X164150000Y-137250000D02*
X164550000Y-137250000D01*
X156350000Y-137850000D02*
X156350000Y-137250000D01*
X156350000Y-133250000D02*
X156350000Y-133850000D01*
X164150000Y-133250000D02*
X164150000Y-133850000D01*
X164350000Y-133850000D02*
X164350000Y-133250000D01*
X164550000Y-133250000D02*
X164550000Y-133850000D01*
X164150000Y-137250000D02*
X164150000Y-137850000D01*
X164350000Y-137850000D02*
X164350000Y-137250000D01*
X164550000Y-137850000D02*
X164550000Y-137250000D01*
X156350000Y-137850000D02*
X164550000Y-137850000D01*
X164550000Y-133250000D02*
X156350000Y-133250000D01*
X166800000Y-137300000D02*
X166500000Y-137300000D01*
X166500000Y-133300000D02*
X166800000Y-133300000D01*
X170700000Y-133300000D02*
X170400000Y-133300000D01*
X170700000Y-137300000D02*
X170400000Y-137300000D01*
X170700000Y-137300000D02*
X170700000Y-133300000D01*
X166500000Y-137300000D02*
X166500000Y-133300000D01*
D16*
X178805000Y-132960000D02*
X178805000Y-138040000D01*
X178805000Y-138040000D02*
X174995000Y-138040000D01*
X174995000Y-138040000D02*
X174995000Y-132960000D01*
X174995000Y-132960000D02*
X178805000Y-132960000D01*
D17*
X176516447Y-133595000D02*
G75*
G03X176516447Y-133595000I-251447J0D01*
G01*
D14*
X177800000Y-113300000D02*
X177800000Y-114500000D01*
X176600000Y-114500000D02*
X176600000Y-113300000D01*
X173200000Y-114500000D02*
X173200000Y-113300000D01*
X172000000Y-113300000D02*
X172000000Y-114500000D01*
X158150000Y-113350000D02*
X158150000Y-114550000D01*
X159350000Y-114550000D02*
X159350000Y-113350000D01*
X162750000Y-114550000D02*
X162750000Y-113350000D01*
X163950000Y-113350000D02*
X163950000Y-114550000D01*
X161210400Y-97077600D02*
X159889600Y-97077600D01*
X161210400Y-99922400D02*
X161210400Y-97077600D01*
X159889600Y-99922400D02*
X161210400Y-99922400D01*
X159889600Y-97077600D02*
X159889600Y-99922400D01*
D13*
X161032600Y-98957200D02*
X160067400Y-98957200D01*
X160067400Y-98957200D02*
X160067400Y-99338200D01*
X161032600Y-99338200D02*
X161032600Y-98957200D01*
X160067400Y-98042800D02*
X161032600Y-98042800D01*
X161032600Y-98042800D02*
X161032600Y-97661800D01*
X160067400Y-97661800D02*
X160067400Y-98042800D01*
X161032600Y-98957200D02*
X161032600Y-98042800D01*
X161032600Y-97661800D02*
X160067400Y-97661800D01*
X160067400Y-98042800D02*
X160067400Y-98957200D01*
X160067400Y-99338200D02*
X161032600Y-99338200D01*
X158367400Y-99338200D02*
X159332600Y-99338200D01*
X158367400Y-98042800D02*
X158367400Y-98957200D01*
X159332600Y-97661800D02*
X158367400Y-97661800D01*
X159332600Y-98957200D02*
X159332600Y-98042800D01*
X158367400Y-97661800D02*
X158367400Y-98042800D01*
X159332600Y-98042800D02*
X159332600Y-97661800D01*
X158367400Y-98042800D02*
X159332600Y-98042800D01*
X159332600Y-99338200D02*
X159332600Y-98957200D01*
X158367400Y-98957200D02*
X158367400Y-99338200D01*
X159332600Y-98957200D02*
X158367400Y-98957200D01*
D14*
X158189600Y-97077600D02*
X158189600Y-99922400D01*
X158189600Y-99922400D02*
X159510400Y-99922400D01*
X159510400Y-99922400D02*
X159510400Y-97077600D01*
X159510400Y-97077600D02*
X158189600Y-97077600D01*
X170910400Y-97077600D02*
X169589600Y-97077600D01*
X170910400Y-99922400D02*
X170910400Y-97077600D01*
X169589600Y-99922400D02*
X170910400Y-99922400D01*
X169589600Y-97077600D02*
X169589600Y-99922400D01*
D13*
X170732600Y-98957200D02*
X169767400Y-98957200D01*
X169767400Y-98957200D02*
X169767400Y-99338200D01*
X170732600Y-99338200D02*
X170732600Y-98957200D01*
X169767400Y-98042800D02*
X170732600Y-98042800D01*
X170732600Y-98042800D02*
X170732600Y-97661800D01*
X169767400Y-97661800D02*
X169767400Y-98042800D01*
X170732600Y-98957200D02*
X170732600Y-98042800D01*
X170732600Y-97661800D02*
X169767400Y-97661800D01*
X169767400Y-98042800D02*
X169767400Y-98957200D01*
X169767400Y-99338200D02*
X170732600Y-99338200D01*
X168117400Y-99338200D02*
X169082600Y-99338200D01*
X168117400Y-98042800D02*
X168117400Y-98957200D01*
X169082600Y-97661800D02*
X168117400Y-97661800D01*
X169082600Y-98957200D02*
X169082600Y-98042800D01*
X168117400Y-97661800D02*
X168117400Y-98042800D01*
X169082600Y-98042800D02*
X169082600Y-97661800D01*
X168117400Y-98042800D02*
X169082600Y-98042800D01*
X169082600Y-99338200D02*
X169082600Y-98957200D01*
X168117400Y-98957200D02*
X168117400Y-99338200D01*
X169082600Y-98957200D02*
X168117400Y-98957200D01*
D14*
X167939600Y-97077600D02*
X167939600Y-99922400D01*
X167939600Y-99922400D02*
X169260400Y-99922400D01*
X169260400Y-99922400D02*
X169260400Y-97077600D01*
X169260400Y-97077600D02*
X167939600Y-97077600D01*
X165960000Y-107720000D02*
X164810000Y-107720000D01*
X164810000Y-107720000D02*
X164810000Y-115220000D01*
X164810000Y-115220000D02*
X165960000Y-115220000D01*
X169960000Y-115220000D02*
X171110000Y-115220000D01*
X171110000Y-115220000D02*
X171110000Y-107720000D01*
X171110000Y-107720000D02*
X169960000Y-107720000D01*
X167960000Y-109770000D02*
X165960000Y-112920000D01*
X165960000Y-112920000D02*
X169960000Y-112920000D01*
X169960000Y-112920000D02*
X167960000Y-109770000D01*
X165960000Y-109770000D02*
X169960000Y-109770000D01*
D11*
X195347820Y-136847820D02*
X187052180Y-136847820D01*
X187052180Y-136847820D02*
X187052180Y-129550400D01*
X187052180Y-129550400D02*
X188050400Y-128552180D01*
X188050400Y-128552180D02*
X194349600Y-128552180D01*
X194349600Y-128552180D02*
X195347820Y-129550400D01*
X195347820Y-129550400D02*
X195347820Y-136847820D01*
D14*
X153050000Y-93900000D02*
X153050000Y-87400000D01*
X146050000Y-93900000D02*
X146050000Y-87400000D01*
X153850000Y-93900000D02*
X153850000Y-87400000D01*
X160850000Y-93900000D02*
X160850000Y-87400000D01*
X175850000Y-93900000D02*
X175850000Y-87400000D01*
X182850000Y-93900000D02*
X182850000Y-87400000D01*
X190600000Y-93900000D02*
X190600000Y-87400000D01*
X183600000Y-93900000D02*
X183600000Y-87400000D01*
D13*
X172382600Y-97661800D02*
X171417400Y-97661800D01*
X172382600Y-98957200D02*
X172382600Y-98042800D01*
X171417400Y-99338200D02*
X172382600Y-99338200D01*
X171417400Y-98042800D02*
X171417400Y-98957200D01*
X172382600Y-99338200D02*
X172382600Y-98957200D01*
X171417400Y-98957200D02*
X171417400Y-99338200D01*
X172382600Y-98957200D02*
X171417400Y-98957200D01*
X171417400Y-97661800D02*
X171417400Y-98042800D01*
X172382600Y-98042800D02*
X172382600Y-97661800D01*
X171417400Y-98042800D02*
X172382600Y-98042800D01*
D14*
X172560400Y-99922400D02*
X172560400Y-97077600D01*
X172560400Y-97077600D02*
X171239600Y-97077600D01*
X171239600Y-97077600D02*
X171239600Y-99922400D01*
X171239600Y-99922400D02*
X172560400Y-99922400D01*
X174439600Y-99922400D02*
X175760400Y-99922400D01*
X174439600Y-97077600D02*
X174439600Y-99922400D01*
X175760400Y-97077600D02*
X174439600Y-97077600D01*
X175760400Y-99922400D02*
X175760400Y-97077600D01*
D13*
X174617400Y-98042800D02*
X175582600Y-98042800D01*
X175582600Y-98042800D02*
X175582600Y-97661800D01*
X174617400Y-97661800D02*
X174617400Y-98042800D01*
X175582600Y-98957200D02*
X174617400Y-98957200D01*
X174617400Y-98957200D02*
X174617400Y-99338200D01*
X175582600Y-99338200D02*
X175582600Y-98957200D01*
X174617400Y-98042800D02*
X174617400Y-98957200D01*
X174617400Y-99338200D02*
X175582600Y-99338200D01*
X175582600Y-98957200D02*
X175582600Y-98042800D01*
X175582600Y-97661800D02*
X174617400Y-97661800D01*
D14*
X161550000Y-100100000D02*
X162750000Y-100100000D01*
X161550000Y-96900000D02*
X162750000Y-96900000D01*
X162750000Y-98800000D02*
X161550000Y-98800000D01*
X161550000Y-98800000D02*
X162150000Y-98200000D01*
X162150000Y-98200000D02*
X162750000Y-98800000D01*
X161550000Y-100100000D02*
X161550000Y-96900000D01*
X162750000Y-96900000D02*
X162750000Y-100100000D01*
X165950000Y-96900000D02*
X165950000Y-100100000D01*
X164750000Y-100100000D02*
X164750000Y-96900000D01*
X165350000Y-98200000D02*
X165950000Y-98800000D01*
X164750000Y-98800000D02*
X165350000Y-98200000D01*
X165950000Y-98800000D02*
X164750000Y-98800000D01*
X164750000Y-96900000D02*
X165950000Y-96900000D01*
X164750000Y-100100000D02*
X165950000Y-100100000D01*
X172900000Y-100100000D02*
X174100000Y-100100000D01*
X172900000Y-96900000D02*
X174100000Y-96900000D01*
X174100000Y-98800000D02*
X172900000Y-98800000D01*
X172900000Y-98800000D02*
X173500000Y-98200000D01*
X173500000Y-98200000D02*
X174100000Y-98800000D01*
X172900000Y-100100000D02*
X172900000Y-96900000D01*
X174100000Y-96900000D02*
X174100000Y-100100000D01*
X177300000Y-96900000D02*
X177300000Y-100100000D01*
X176100000Y-100100000D02*
X176100000Y-96900000D01*
X176700000Y-98200000D02*
X177300000Y-98800000D01*
X176100000Y-98800000D02*
X176700000Y-98200000D01*
X177300000Y-98800000D02*
X176100000Y-98800000D01*
X176100000Y-96900000D02*
X177300000Y-96900000D01*
X176100000Y-100100000D02*
X177300000Y-100100000D01*
D19*
X150801523Y-134164895D02*
X151072457Y-134977695D01*
X151343390Y-134164895D01*
X152078780Y-134977695D02*
X151807847Y-134590647D01*
X151614323Y-134977695D02*
X151614323Y-134164895D01*
X151923961Y-134164895D01*
X152001371Y-134203600D01*
X152040076Y-134242304D01*
X152078780Y-134319714D01*
X152078780Y-134435828D01*
X152040076Y-134513238D01*
X152001371Y-134551942D01*
X151923961Y-134590647D01*
X151614323Y-134590647D01*
X152388419Y-134242304D02*
X152427123Y-134203600D01*
X152504533Y-134164895D01*
X152698057Y-134164895D01*
X152775466Y-134203600D01*
X152814171Y-134242304D01*
X152852876Y-134319714D01*
X152852876Y-134397123D01*
X152814171Y-134513238D01*
X152349714Y-134977695D01*
X152852876Y-134977695D01*
X153356038Y-134164895D02*
X153433447Y-134164895D01*
X153510857Y-134203600D01*
X153549561Y-134242304D01*
X153588266Y-134319714D01*
X153626971Y-134474533D01*
X153626971Y-134668057D01*
X153588266Y-134822876D01*
X153549561Y-134900285D01*
X153510857Y-134938990D01*
X153433447Y-134977695D01*
X153356038Y-134977695D01*
X153278628Y-134938990D01*
X153239923Y-134900285D01*
X153201219Y-134822876D01*
X153162514Y-134668057D01*
X153162514Y-134474533D01*
X153201219Y-134319714D01*
X153239923Y-134242304D01*
X153278628Y-134203600D01*
X153356038Y-134164895D01*
X153936609Y-134242304D02*
X153975314Y-134203600D01*
X154052723Y-134164895D01*
X154246247Y-134164895D01*
X154323657Y-134203600D01*
X154362361Y-134242304D01*
X154401066Y-134319714D01*
X154401066Y-134397123D01*
X154362361Y-134513238D01*
X153897904Y-134977695D01*
X154401066Y-134977695D01*
X183570438Y-134950285D02*
X183531733Y-134988990D01*
X183415619Y-135027695D01*
X183338209Y-135027695D01*
X183222095Y-134988990D01*
X183144685Y-134911580D01*
X183105980Y-134834171D01*
X183067276Y-134679352D01*
X183067276Y-134563238D01*
X183105980Y-134408419D01*
X183144685Y-134331009D01*
X183222095Y-134253600D01*
X183338209Y-134214895D01*
X183415619Y-134214895D01*
X183531733Y-134253600D01*
X183570438Y-134292304D01*
X183880076Y-134292304D02*
X183918780Y-134253600D01*
X183996190Y-134214895D01*
X184189714Y-134214895D01*
X184267123Y-134253600D01*
X184305828Y-134292304D01*
X184344533Y-134369714D01*
X184344533Y-134447123D01*
X184305828Y-134563238D01*
X183841371Y-135027695D01*
X184344533Y-135027695D01*
X184847695Y-134214895D02*
X184925104Y-134214895D01*
X185002514Y-134253600D01*
X185041219Y-134292304D01*
X185079923Y-134369714D01*
X185118628Y-134524533D01*
X185118628Y-134718057D01*
X185079923Y-134872876D01*
X185041219Y-134950285D01*
X185002514Y-134988990D01*
X184925104Y-135027695D01*
X184847695Y-135027695D01*
X184770285Y-134988990D01*
X184731580Y-134950285D01*
X184692876Y-134872876D01*
X184654171Y-134718057D01*
X184654171Y-134524533D01*
X184692876Y-134369714D01*
X184731580Y-134292304D01*
X184770285Y-134253600D01*
X184847695Y-134214895D01*
X185892723Y-135027695D02*
X185428266Y-135027695D01*
X185660495Y-135027695D02*
X185660495Y-134214895D01*
X185583085Y-134331009D01*
X185505676Y-134408419D01*
X185428266Y-134447123D01*
X183632095Y-136137695D02*
X183167638Y-136137695D01*
X183399866Y-136137695D02*
X183399866Y-135324895D01*
X183322457Y-135441009D01*
X183245047Y-135518419D01*
X183167638Y-135557123D01*
X184135257Y-135324895D02*
X184212666Y-135324895D01*
X184290076Y-135363600D01*
X184328780Y-135402304D01*
X184367485Y-135479714D01*
X184406190Y-135634533D01*
X184406190Y-135828057D01*
X184367485Y-135982876D01*
X184328780Y-136060285D01*
X184290076Y-136098990D01*
X184212666Y-136137695D01*
X184135257Y-136137695D01*
X184057847Y-136098990D01*
X184019142Y-136060285D01*
X183980438Y-135982876D01*
X183941733Y-135828057D01*
X183941733Y-135634533D01*
X183980438Y-135479714D01*
X184019142Y-135402304D01*
X184057847Y-135363600D01*
X184135257Y-135324895D01*
X184909352Y-135324895D02*
X184986761Y-135324895D01*
X185064171Y-135363600D01*
X185102876Y-135402304D01*
X185141580Y-135479714D01*
X185180285Y-135634533D01*
X185180285Y-135828057D01*
X185141580Y-135982876D01*
X185102876Y-136060285D01*
X185064171Y-136098990D01*
X184986761Y-136137695D01*
X184909352Y-136137695D01*
X184831942Y-136098990D01*
X184793238Y-136060285D01*
X184754533Y-135982876D01*
X184715828Y-135828057D01*
X184715828Y-135634533D01*
X184754533Y-135479714D01*
X184793238Y-135402304D01*
X184831942Y-135363600D01*
X184909352Y-135324895D01*
X185528628Y-135595828D02*
X185528628Y-136137695D01*
X185528628Y-135673238D02*
X185567333Y-135634533D01*
X185644742Y-135595828D01*
X185760857Y-135595828D01*
X185838266Y-135634533D01*
X185876971Y-135711942D01*
X185876971Y-136137695D01*
X186534952Y-135711942D02*
X186264019Y-135711942D01*
X186264019Y-136137695D02*
X186264019Y-135324895D01*
X186651066Y-135324895D01*
X171280438Y-131700285D02*
X171241733Y-131738990D01*
X171125619Y-131777695D01*
X171048209Y-131777695D01*
X170932095Y-131738990D01*
X170854685Y-131661580D01*
X170815980Y-131584171D01*
X170777276Y-131429352D01*
X170777276Y-131313238D01*
X170815980Y-131158419D01*
X170854685Y-131081009D01*
X170932095Y-131003600D01*
X171048209Y-130964895D01*
X171125619Y-130964895D01*
X171241733Y-131003600D01*
X171280438Y-131042304D01*
X171590076Y-131042304D02*
X171628780Y-131003600D01*
X171706190Y-130964895D01*
X171899714Y-130964895D01*
X171977123Y-131003600D01*
X172015828Y-131042304D01*
X172054533Y-131119714D01*
X172054533Y-131197123D01*
X172015828Y-131313238D01*
X171551371Y-131777695D01*
X172054533Y-131777695D01*
X172557695Y-130964895D02*
X172635104Y-130964895D01*
X172712514Y-131003600D01*
X172751219Y-131042304D01*
X172789923Y-131119714D01*
X172828628Y-131274533D01*
X172828628Y-131468057D01*
X172789923Y-131622876D01*
X172751219Y-131700285D01*
X172712514Y-131738990D01*
X172635104Y-131777695D01*
X172557695Y-131777695D01*
X172480285Y-131738990D01*
X172441580Y-131700285D01*
X172402876Y-131622876D01*
X172364171Y-131468057D01*
X172364171Y-131274533D01*
X172402876Y-131119714D01*
X172441580Y-131042304D01*
X172480285Y-131003600D01*
X172557695Y-130964895D01*
X173099561Y-130964895D02*
X173602723Y-130964895D01*
X173331790Y-131274533D01*
X173447904Y-131274533D01*
X173525314Y-131313238D01*
X173564019Y-131351942D01*
X173602723Y-131429352D01*
X173602723Y-131622876D01*
X173564019Y-131700285D01*
X173525314Y-131738990D01*
X173447904Y-131777695D01*
X173215676Y-131777695D01*
X173138266Y-131738990D01*
X173099561Y-131700285D01*
X145370438Y-138370285D02*
X145331733Y-138408990D01*
X145215619Y-138447695D01*
X145138209Y-138447695D01*
X145022095Y-138408990D01*
X144944685Y-138331580D01*
X144905980Y-138254171D01*
X144867276Y-138099352D01*
X144867276Y-137983238D01*
X144905980Y-137828419D01*
X144944685Y-137751009D01*
X145022095Y-137673600D01*
X145138209Y-137634895D01*
X145215619Y-137634895D01*
X145331733Y-137673600D01*
X145370438Y-137712304D01*
X145680076Y-137712304D02*
X145718780Y-137673600D01*
X145796190Y-137634895D01*
X145989714Y-137634895D01*
X146067123Y-137673600D01*
X146105828Y-137712304D01*
X146144533Y-137789714D01*
X146144533Y-137867123D01*
X146105828Y-137983238D01*
X145641371Y-138447695D01*
X146144533Y-138447695D01*
X146647695Y-137634895D02*
X146725104Y-137634895D01*
X146802514Y-137673600D01*
X146841219Y-137712304D01*
X146879923Y-137789714D01*
X146918628Y-137944533D01*
X146918628Y-138138057D01*
X146879923Y-138292876D01*
X146841219Y-138370285D01*
X146802514Y-138408990D01*
X146725104Y-138447695D01*
X146647695Y-138447695D01*
X146570285Y-138408990D01*
X146531580Y-138370285D01*
X146492876Y-138292876D01*
X146454171Y-138138057D01*
X146454171Y-137944533D01*
X146492876Y-137789714D01*
X146531580Y-137712304D01*
X146570285Y-137673600D01*
X146647695Y-137634895D01*
X147654019Y-137634895D02*
X147266971Y-137634895D01*
X147228266Y-138021942D01*
X147266971Y-137983238D01*
X147344380Y-137944533D01*
X147537904Y-137944533D01*
X147615314Y-137983238D01*
X147654019Y-138021942D01*
X147692723Y-138099352D01*
X147692723Y-138292876D01*
X147654019Y-138370285D01*
X147615314Y-138408990D01*
X147537904Y-138447695D01*
X147344380Y-138447695D01*
X147266971Y-138408990D01*
X147228266Y-138370285D01*
X148582095Y-138407695D02*
X148117638Y-138407695D01*
X148349866Y-138407695D02*
X148349866Y-137594895D01*
X148272457Y-137711009D01*
X148195047Y-137788419D01*
X148117638Y-137827123D01*
X149085257Y-137594895D02*
X149162666Y-137594895D01*
X149240076Y-137633600D01*
X149278780Y-137672304D01*
X149317485Y-137749714D01*
X149356190Y-137904533D01*
X149356190Y-138098057D01*
X149317485Y-138252876D01*
X149278780Y-138330285D01*
X149240076Y-138368990D01*
X149162666Y-138407695D01*
X149085257Y-138407695D01*
X149007847Y-138368990D01*
X148969142Y-138330285D01*
X148930438Y-138252876D01*
X148891733Y-138098057D01*
X148891733Y-137904533D01*
X148930438Y-137749714D01*
X148969142Y-137672304D01*
X149007847Y-137633600D01*
X149085257Y-137594895D01*
X149859352Y-137594895D02*
X149936761Y-137594895D01*
X150014171Y-137633600D01*
X150052876Y-137672304D01*
X150091580Y-137749714D01*
X150130285Y-137904533D01*
X150130285Y-138098057D01*
X150091580Y-138252876D01*
X150052876Y-138330285D01*
X150014171Y-138368990D01*
X149936761Y-138407695D01*
X149859352Y-138407695D01*
X149781942Y-138368990D01*
X149743238Y-138330285D01*
X149704533Y-138252876D01*
X149665828Y-138098057D01*
X149665828Y-137904533D01*
X149704533Y-137749714D01*
X149743238Y-137672304D01*
X149781942Y-137633600D01*
X149859352Y-137594895D01*
X150478628Y-137865828D02*
X150478628Y-138407695D01*
X150478628Y-137943238D02*
X150517333Y-137904533D01*
X150594742Y-137865828D01*
X150710857Y-137865828D01*
X150788266Y-137904533D01*
X150826971Y-137981942D01*
X150826971Y-138407695D01*
X151484952Y-137981942D02*
X151214019Y-137981942D01*
X151214019Y-138407695D02*
X151214019Y-137594895D01*
X151601066Y-137594895D01*
X139390438Y-111540285D02*
X139351733Y-111578990D01*
X139235619Y-111617695D01*
X139158209Y-111617695D01*
X139042095Y-111578990D01*
X138964685Y-111501580D01*
X138925980Y-111424171D01*
X138887276Y-111269352D01*
X138887276Y-111153238D01*
X138925980Y-110998419D01*
X138964685Y-110921009D01*
X139042095Y-110843600D01*
X139158209Y-110804895D01*
X139235619Y-110804895D01*
X139351733Y-110843600D01*
X139390438Y-110882304D01*
X139661371Y-110804895D02*
X140164533Y-110804895D01*
X139893600Y-111114533D01*
X140009714Y-111114533D01*
X140087123Y-111153238D01*
X140125828Y-111191942D01*
X140164533Y-111269352D01*
X140164533Y-111462876D01*
X140125828Y-111540285D01*
X140087123Y-111578990D01*
X140009714Y-111617695D01*
X139777485Y-111617695D01*
X139700076Y-111578990D01*
X139661371Y-111540285D01*
X140667695Y-110804895D02*
X140745104Y-110804895D01*
X140822514Y-110843600D01*
X140861219Y-110882304D01*
X140899923Y-110959714D01*
X140938628Y-111114533D01*
X140938628Y-111308057D01*
X140899923Y-111462876D01*
X140861219Y-111540285D01*
X140822514Y-111578990D01*
X140745104Y-111617695D01*
X140667695Y-111617695D01*
X140590285Y-111578990D01*
X140551580Y-111540285D01*
X140512876Y-111462876D01*
X140474171Y-111308057D01*
X140474171Y-111114533D01*
X140512876Y-110959714D01*
X140551580Y-110882304D01*
X140590285Y-110843600D01*
X140667695Y-110804895D01*
X141712723Y-111617695D02*
X141248266Y-111617695D01*
X141480495Y-111617695D02*
X141480495Y-110804895D01*
X141403085Y-110921009D01*
X141325676Y-110998419D01*
X141248266Y-111037123D01*
X139242095Y-110517695D02*
X138777638Y-110517695D01*
X139009866Y-110517695D02*
X139009866Y-109704895D01*
X138932457Y-109821009D01*
X138855047Y-109898419D01*
X138777638Y-109937123D01*
X139745257Y-109704895D02*
X139822666Y-109704895D01*
X139900076Y-109743600D01*
X139938780Y-109782304D01*
X139977485Y-109859714D01*
X140016190Y-110014533D01*
X140016190Y-110208057D01*
X139977485Y-110362876D01*
X139938780Y-110440285D01*
X139900076Y-110478990D01*
X139822666Y-110517695D01*
X139745257Y-110517695D01*
X139667847Y-110478990D01*
X139629142Y-110440285D01*
X139590438Y-110362876D01*
X139551733Y-110208057D01*
X139551733Y-110014533D01*
X139590438Y-109859714D01*
X139629142Y-109782304D01*
X139667847Y-109743600D01*
X139745257Y-109704895D01*
X140519352Y-109704895D02*
X140596761Y-109704895D01*
X140674171Y-109743600D01*
X140712876Y-109782304D01*
X140751580Y-109859714D01*
X140790285Y-110014533D01*
X140790285Y-110208057D01*
X140751580Y-110362876D01*
X140712876Y-110440285D01*
X140674171Y-110478990D01*
X140596761Y-110517695D01*
X140519352Y-110517695D01*
X140441942Y-110478990D01*
X140403238Y-110440285D01*
X140364533Y-110362876D01*
X140325828Y-110208057D01*
X140325828Y-110014533D01*
X140364533Y-109859714D01*
X140403238Y-109782304D01*
X140441942Y-109743600D01*
X140519352Y-109704895D01*
X141138628Y-109975828D02*
X141138628Y-110517695D01*
X141138628Y-110053238D02*
X141177333Y-110014533D01*
X141254742Y-109975828D01*
X141370857Y-109975828D01*
X141448266Y-110014533D01*
X141486971Y-110091942D01*
X141486971Y-110517695D01*
X142144952Y-110091942D02*
X141874019Y-110091942D01*
X141874019Y-110517695D02*
X141874019Y-109704895D01*
X142261066Y-109704895D01*
X147840438Y-123090285D02*
X147801733Y-123128990D01*
X147685619Y-123167695D01*
X147608209Y-123167695D01*
X147492095Y-123128990D01*
X147414685Y-123051580D01*
X147375980Y-122974171D01*
X147337276Y-122819352D01*
X147337276Y-122703238D01*
X147375980Y-122548419D01*
X147414685Y-122471009D01*
X147492095Y-122393600D01*
X147608209Y-122354895D01*
X147685619Y-122354895D01*
X147801733Y-122393600D01*
X147840438Y-122432304D01*
X148111371Y-122354895D02*
X148614533Y-122354895D01*
X148343600Y-122664533D01*
X148459714Y-122664533D01*
X148537123Y-122703238D01*
X148575828Y-122741942D01*
X148614533Y-122819352D01*
X148614533Y-123012876D01*
X148575828Y-123090285D01*
X148537123Y-123128990D01*
X148459714Y-123167695D01*
X148227485Y-123167695D01*
X148150076Y-123128990D01*
X148111371Y-123090285D01*
X149117695Y-122354895D02*
X149195104Y-122354895D01*
X149272514Y-122393600D01*
X149311219Y-122432304D01*
X149349923Y-122509714D01*
X149388628Y-122664533D01*
X149388628Y-122858057D01*
X149349923Y-123012876D01*
X149311219Y-123090285D01*
X149272514Y-123128990D01*
X149195104Y-123167695D01*
X149117695Y-123167695D01*
X149040285Y-123128990D01*
X149001580Y-123090285D01*
X148962876Y-123012876D01*
X148924171Y-122858057D01*
X148924171Y-122664533D01*
X148962876Y-122509714D01*
X149001580Y-122432304D01*
X149040285Y-122393600D01*
X149117695Y-122354895D01*
X149659561Y-122354895D02*
X150162723Y-122354895D01*
X149891790Y-122664533D01*
X150007904Y-122664533D01*
X150085314Y-122703238D01*
X150124019Y-122741942D01*
X150162723Y-122819352D01*
X150162723Y-123012876D01*
X150124019Y-123090285D01*
X150085314Y-123128990D01*
X150007904Y-123167695D01*
X149775676Y-123167695D01*
X149698266Y-123128990D01*
X149659561Y-123090285D01*
X147892095Y-116717695D02*
X147427638Y-116717695D01*
X147659866Y-116717695D02*
X147659866Y-115904895D01*
X147582457Y-116021009D01*
X147505047Y-116098419D01*
X147427638Y-116137123D01*
X148395257Y-115904895D02*
X148472666Y-115904895D01*
X148550076Y-115943600D01*
X148588780Y-115982304D01*
X148627485Y-116059714D01*
X148666190Y-116214533D01*
X148666190Y-116408057D01*
X148627485Y-116562876D01*
X148588780Y-116640285D01*
X148550076Y-116678990D01*
X148472666Y-116717695D01*
X148395257Y-116717695D01*
X148317847Y-116678990D01*
X148279142Y-116640285D01*
X148240438Y-116562876D01*
X148201733Y-116408057D01*
X148201733Y-116214533D01*
X148240438Y-116059714D01*
X148279142Y-115982304D01*
X148317847Y-115943600D01*
X148395257Y-115904895D01*
X149169352Y-115904895D02*
X149246761Y-115904895D01*
X149324171Y-115943600D01*
X149362876Y-115982304D01*
X149401580Y-116059714D01*
X149440285Y-116214533D01*
X149440285Y-116408057D01*
X149401580Y-116562876D01*
X149362876Y-116640285D01*
X149324171Y-116678990D01*
X149246761Y-116717695D01*
X149169352Y-116717695D01*
X149091942Y-116678990D01*
X149053238Y-116640285D01*
X149014533Y-116562876D01*
X148975828Y-116408057D01*
X148975828Y-116214533D01*
X149014533Y-116059714D01*
X149053238Y-115982304D01*
X149091942Y-115943600D01*
X149169352Y-115904895D01*
X149788628Y-116175828D02*
X149788628Y-116717695D01*
X149788628Y-116253238D02*
X149827333Y-116214533D01*
X149904742Y-116175828D01*
X150020857Y-116175828D01*
X150098266Y-116214533D01*
X150136971Y-116291942D01*
X150136971Y-116717695D01*
X150794952Y-116291942D02*
X150524019Y-116291942D01*
X150524019Y-116717695D02*
X150524019Y-115904895D01*
X150911066Y-115904895D01*
X130590438Y-114840285D02*
X130551733Y-114878990D01*
X130435619Y-114917695D01*
X130358209Y-114917695D01*
X130242095Y-114878990D01*
X130164685Y-114801580D01*
X130125980Y-114724171D01*
X130087276Y-114569352D01*
X130087276Y-114453238D01*
X130125980Y-114298419D01*
X130164685Y-114221009D01*
X130242095Y-114143600D01*
X130358209Y-114104895D01*
X130435619Y-114104895D01*
X130551733Y-114143600D01*
X130590438Y-114182304D01*
X130861371Y-114104895D02*
X131364533Y-114104895D01*
X131093600Y-114414533D01*
X131209714Y-114414533D01*
X131287123Y-114453238D01*
X131325828Y-114491942D01*
X131364533Y-114569352D01*
X131364533Y-114762876D01*
X131325828Y-114840285D01*
X131287123Y-114878990D01*
X131209714Y-114917695D01*
X130977485Y-114917695D01*
X130900076Y-114878990D01*
X130861371Y-114840285D01*
X131867695Y-114104895D02*
X131945104Y-114104895D01*
X132022514Y-114143600D01*
X132061219Y-114182304D01*
X132099923Y-114259714D01*
X132138628Y-114414533D01*
X132138628Y-114608057D01*
X132099923Y-114762876D01*
X132061219Y-114840285D01*
X132022514Y-114878990D01*
X131945104Y-114917695D01*
X131867695Y-114917695D01*
X131790285Y-114878990D01*
X131751580Y-114840285D01*
X131712876Y-114762876D01*
X131674171Y-114608057D01*
X131674171Y-114414533D01*
X131712876Y-114259714D01*
X131751580Y-114182304D01*
X131790285Y-114143600D01*
X131867695Y-114104895D01*
X132874019Y-114104895D02*
X132486971Y-114104895D01*
X132448266Y-114491942D01*
X132486971Y-114453238D01*
X132564380Y-114414533D01*
X132757904Y-114414533D01*
X132835314Y-114453238D01*
X132874019Y-114491942D01*
X132912723Y-114569352D01*
X132912723Y-114762876D01*
X132874019Y-114840285D01*
X132835314Y-114878990D01*
X132757904Y-114917695D01*
X132564380Y-114917695D01*
X132486971Y-114878990D01*
X132448266Y-114840285D01*
X129892095Y-113967695D02*
X129427638Y-113967695D01*
X129659866Y-113967695D02*
X129659866Y-113154895D01*
X129582457Y-113271009D01*
X129505047Y-113348419D01*
X129427638Y-113387123D01*
X130395257Y-113154895D02*
X130472666Y-113154895D01*
X130550076Y-113193600D01*
X130588780Y-113232304D01*
X130627485Y-113309714D01*
X130666190Y-113464533D01*
X130666190Y-113658057D01*
X130627485Y-113812876D01*
X130588780Y-113890285D01*
X130550076Y-113928990D01*
X130472666Y-113967695D01*
X130395257Y-113967695D01*
X130317847Y-113928990D01*
X130279142Y-113890285D01*
X130240438Y-113812876D01*
X130201733Y-113658057D01*
X130201733Y-113464533D01*
X130240438Y-113309714D01*
X130279142Y-113232304D01*
X130317847Y-113193600D01*
X130395257Y-113154895D01*
X131169352Y-113154895D02*
X131246761Y-113154895D01*
X131324171Y-113193600D01*
X131362876Y-113232304D01*
X131401580Y-113309714D01*
X131440285Y-113464533D01*
X131440285Y-113658057D01*
X131401580Y-113812876D01*
X131362876Y-113890285D01*
X131324171Y-113928990D01*
X131246761Y-113967695D01*
X131169352Y-113967695D01*
X131091942Y-113928990D01*
X131053238Y-113890285D01*
X131014533Y-113812876D01*
X130975828Y-113658057D01*
X130975828Y-113464533D01*
X131014533Y-113309714D01*
X131053238Y-113232304D01*
X131091942Y-113193600D01*
X131169352Y-113154895D01*
X131788628Y-113425828D02*
X131788628Y-113967695D01*
X131788628Y-113503238D02*
X131827333Y-113464533D01*
X131904742Y-113425828D01*
X132020857Y-113425828D01*
X132098266Y-113464533D01*
X132136971Y-113541942D01*
X132136971Y-113967695D01*
X132794952Y-113541942D02*
X132524019Y-113541942D01*
X132524019Y-113967695D02*
X132524019Y-113154895D01*
X132911066Y-113154895D01*
D17*
X172587142Y-123194523D02*
X172587142Y-124101666D01*
X172526666Y-124283095D01*
X172405714Y-124404047D01*
X172224285Y-124464523D01*
X172103333Y-124464523D01*
X173857142Y-124464523D02*
X173131428Y-124464523D01*
X173494285Y-124464523D02*
X173494285Y-123194523D01*
X173373333Y-123375952D01*
X173252380Y-123496904D01*
X173131428Y-123557380D01*
X174643333Y-123194523D02*
X174764285Y-123194523D01*
X174885238Y-123255000D01*
X174945714Y-123315476D01*
X175006190Y-123436428D01*
X175066666Y-123678333D01*
X175066666Y-123980714D01*
X175006190Y-124222619D01*
X174945714Y-124343571D01*
X174885238Y-124404047D01*
X174764285Y-124464523D01*
X174643333Y-124464523D01*
X174522380Y-124404047D01*
X174461904Y-124343571D01*
X174401428Y-124222619D01*
X174340952Y-123980714D01*
X174340952Y-123678333D01*
X174401428Y-123436428D01*
X174461904Y-123315476D01*
X174522380Y-123255000D01*
X174643333Y-123194523D01*
X175550476Y-123315476D02*
X175610952Y-123255000D01*
X175731904Y-123194523D01*
X176034285Y-123194523D01*
X176155238Y-123255000D01*
X176215714Y-123315476D01*
X176276190Y-123436428D01*
X176276190Y-123557380D01*
X176215714Y-123738809D01*
X175490000Y-124464523D01*
X176276190Y-124464523D01*
X146478095Y-106291666D02*
X147082857Y-106291666D01*
X146357142Y-106654523D02*
X146780476Y-105384523D01*
X147203809Y-106654523D01*
X147627142Y-106654523D02*
X147627142Y-105384523D01*
X148050476Y-106291666D01*
X148473809Y-105384523D01*
X148473809Y-106654523D01*
X149078571Y-106654523D02*
X149078571Y-105384523D01*
X149562380Y-105384523D01*
X149683333Y-105445000D01*
X149743809Y-105505476D01*
X149804285Y-105626428D01*
X149804285Y-105807857D01*
X149743809Y-105928809D01*
X149683333Y-105989285D01*
X149562380Y-106049761D01*
X149078571Y-106049761D01*
X150288095Y-106594047D02*
X150469523Y-106654523D01*
X150771904Y-106654523D01*
X150892857Y-106594047D01*
X150953333Y-106533571D01*
X151013809Y-106412619D01*
X151013809Y-106291666D01*
X150953333Y-106170714D01*
X150892857Y-106110238D01*
X150771904Y-106049761D01*
X150530000Y-105989285D01*
X150409047Y-105928809D01*
X150348571Y-105868333D01*
X150288095Y-105747380D01*
X150288095Y-105626428D01*
X150348571Y-105505476D01*
X150409047Y-105445000D01*
X150530000Y-105384523D01*
X150832380Y-105384523D01*
X151013809Y-105445000D01*
X151558095Y-105989285D02*
X151981428Y-105989285D01*
X152162857Y-106654523D02*
X151558095Y-106654523D01*
X151558095Y-105384523D01*
X152162857Y-105384523D01*
X152646666Y-106291666D02*
X153251428Y-106291666D01*
X152525714Y-106654523D02*
X152949047Y-105384523D01*
X153372380Y-106654523D01*
X154400476Y-106654523D02*
X153795714Y-106654523D01*
X153795714Y-105384523D01*
X154521428Y-106775476D02*
X155489047Y-106775476D01*
X155972857Y-105928809D02*
X155851904Y-105868333D01*
X155791428Y-105807857D01*
X155730952Y-105686904D01*
X155730952Y-105626428D01*
X155791428Y-105505476D01*
X155851904Y-105445000D01*
X155972857Y-105384523D01*
X156214761Y-105384523D01*
X156335714Y-105445000D01*
X156396190Y-105505476D01*
X156456666Y-105626428D01*
X156456666Y-105686904D01*
X156396190Y-105807857D01*
X156335714Y-105868333D01*
X156214761Y-105928809D01*
X155972857Y-105928809D01*
X155851904Y-105989285D01*
X155791428Y-106049761D01*
X155730952Y-106170714D01*
X155730952Y-106412619D01*
X155791428Y-106533571D01*
X155851904Y-106594047D01*
X155972857Y-106654523D01*
X156214761Y-106654523D01*
X156335714Y-106594047D01*
X156396190Y-106533571D01*
X156456666Y-106412619D01*
X156456666Y-106170714D01*
X156396190Y-106049761D01*
X156335714Y-105989285D01*
X156214761Y-105928809D01*
X156698571Y-106775476D02*
X157666190Y-106775476D01*
X157968571Y-106654523D02*
X157968571Y-105384523D01*
X158452380Y-105384523D01*
X158573333Y-105445000D01*
X158633809Y-105505476D01*
X158694285Y-105626428D01*
X158694285Y-105807857D01*
X158633809Y-105928809D01*
X158573333Y-105989285D01*
X158452380Y-106049761D01*
X157968571Y-106049761D01*
X159480476Y-105384523D02*
X159722380Y-105384523D01*
X159843333Y-105445000D01*
X159964285Y-105565952D01*
X160024761Y-105807857D01*
X160024761Y-106231190D01*
X159964285Y-106473095D01*
X159843333Y-106594047D01*
X159722380Y-106654523D01*
X159480476Y-106654523D01*
X159359523Y-106594047D01*
X159238571Y-106473095D01*
X159178095Y-106231190D01*
X159178095Y-105807857D01*
X159238571Y-105565952D01*
X159359523Y-105445000D01*
X159480476Y-105384523D01*
X160508571Y-106594047D02*
X160690000Y-106654523D01*
X160992380Y-106654523D01*
X161113333Y-106594047D01*
X161173809Y-106533571D01*
X161234285Y-106412619D01*
X161234285Y-106291666D01*
X161173809Y-106170714D01*
X161113333Y-106110238D01*
X160992380Y-106049761D01*
X160750476Y-105989285D01*
X160629523Y-105928809D01*
X160569047Y-105868333D01*
X160508571Y-105747380D01*
X160508571Y-105626428D01*
X160569047Y-105505476D01*
X160629523Y-105445000D01*
X160750476Y-105384523D01*
X161052857Y-105384523D01*
X161234285Y-105445000D01*
X161476190Y-106775476D02*
X162443809Y-106775476D01*
X162564761Y-105384523D02*
X162988095Y-106654523D01*
X163411428Y-105384523D01*
X163834761Y-105989285D02*
X164258095Y-105989285D01*
X164439523Y-106654523D02*
X163834761Y-106654523D01*
X163834761Y-105384523D01*
X164439523Y-105384523D01*
X165709523Y-106654523D02*
X165286190Y-106049761D01*
X164983809Y-106654523D02*
X164983809Y-105384523D01*
X165467619Y-105384523D01*
X165588571Y-105445000D01*
X165649047Y-105505476D01*
X165709523Y-105626428D01*
X165709523Y-105807857D01*
X165649047Y-105928809D01*
X165588571Y-105989285D01*
X165467619Y-106049761D01*
X164983809Y-106049761D01*
X166072380Y-105384523D02*
X166798095Y-105384523D01*
X166435238Y-106654523D02*
X166435238Y-105384523D01*
X166919047Y-106775476D02*
X167886666Y-106775476D01*
X168612380Y-105989285D02*
X168793809Y-106049761D01*
X168854285Y-106110238D01*
X168914761Y-106231190D01*
X168914761Y-106412619D01*
X168854285Y-106533571D01*
X168793809Y-106594047D01*
X168672857Y-106654523D01*
X168189047Y-106654523D01*
X168189047Y-105384523D01*
X168612380Y-105384523D01*
X168733333Y-105445000D01*
X168793809Y-105505476D01*
X168854285Y-105626428D01*
X168854285Y-105747380D01*
X168793809Y-105868333D01*
X168733333Y-105928809D01*
X168612380Y-105989285D01*
X168189047Y-105989285D01*
X170063809Y-106654523D02*
X169459047Y-106654523D01*
X169459047Y-105384523D01*
X170426666Y-106291666D02*
X171031428Y-106291666D01*
X170305714Y-106654523D02*
X170729047Y-105384523D01*
X171152380Y-106654523D01*
X172301428Y-106533571D02*
X172240952Y-106594047D01*
X172059523Y-106654523D01*
X171938571Y-106654523D01*
X171757142Y-106594047D01*
X171636190Y-106473095D01*
X171575714Y-106352142D01*
X171515238Y-106110238D01*
X171515238Y-105928809D01*
X171575714Y-105686904D01*
X171636190Y-105565952D01*
X171757142Y-105445000D01*
X171938571Y-105384523D01*
X172059523Y-105384523D01*
X172240952Y-105445000D01*
X172301428Y-105505476D01*
X172845714Y-106654523D02*
X172845714Y-105384523D01*
X173571428Y-106654523D02*
X173027142Y-105928809D01*
X173571428Y-105384523D02*
X172845714Y-106110238D01*
X173813333Y-106775476D02*
X174780952Y-106775476D01*
X175022857Y-106594047D02*
X175204285Y-106654523D01*
X175506666Y-106654523D01*
X175627619Y-106594047D01*
X175688095Y-106533571D01*
X175748571Y-106412619D01*
X175748571Y-106291666D01*
X175688095Y-106170714D01*
X175627619Y-106110238D01*
X175506666Y-106049761D01*
X175264761Y-105989285D01*
X175143809Y-105928809D01*
X175083333Y-105868333D01*
X175022857Y-105747380D01*
X175022857Y-105626428D01*
X175083333Y-105505476D01*
X175143809Y-105445000D01*
X175264761Y-105384523D01*
X175567142Y-105384523D01*
X175748571Y-105445000D01*
X176292857Y-105989285D02*
X176716190Y-105989285D01*
X176897619Y-106654523D02*
X176292857Y-106654523D01*
X176292857Y-105384523D01*
X176897619Y-105384523D01*
X177381428Y-106291666D02*
X177986190Y-106291666D01*
X177260476Y-106654523D02*
X177683809Y-105384523D01*
X178107142Y-106654523D01*
X179135238Y-106654523D02*
X178530476Y-106654523D01*
X178530476Y-105384523D01*
X179558571Y-105989285D02*
X179981904Y-105989285D01*
X180163333Y-106654523D02*
X179558571Y-106654523D01*
X179558571Y-105384523D01*
X180163333Y-105384523D01*
X180707619Y-106654523D02*
X180707619Y-105384523D01*
X181010000Y-105384523D01*
X181191428Y-105445000D01*
X181312380Y-105565952D01*
X181372857Y-105686904D01*
X181433333Y-105928809D01*
X181433333Y-106110238D01*
X181372857Y-106352142D01*
X181312380Y-106473095D01*
X181191428Y-106594047D01*
X181010000Y-106654523D01*
X180707619Y-106654523D01*
X181675238Y-106775476D02*
X182642857Y-106775476D01*
X183610476Y-106654523D02*
X182884761Y-106654523D01*
X183247619Y-106654523D02*
X183247619Y-105384523D01*
X183126666Y-105565952D01*
X183005714Y-105686904D01*
X182884761Y-105747380D01*
X184154761Y-106170714D02*
X185122380Y-106170714D01*
X185606190Y-105384523D02*
X186452857Y-105384523D01*
X185908571Y-106654523D01*
X186815714Y-105384523D02*
X187662380Y-105384523D01*
X187118095Y-106654523D01*
X188690476Y-105384523D02*
X188448571Y-105384523D01*
X188327619Y-105445000D01*
X188267142Y-105505476D01*
X188146190Y-105686904D01*
X188085714Y-105928809D01*
X188085714Y-106412619D01*
X188146190Y-106533571D01*
X188206666Y-106594047D01*
X188327619Y-106654523D01*
X188569523Y-106654523D01*
X188690476Y-106594047D01*
X188750952Y-106533571D01*
X188811428Y-106412619D01*
X188811428Y-106110238D01*
X188750952Y-105989285D01*
X188690476Y-105928809D01*
X188569523Y-105868333D01*
X188327619Y-105868333D01*
X188206666Y-105928809D01*
X188146190Y-105989285D01*
X188085714Y-106110238D01*
X189295238Y-105505476D02*
X189355714Y-105445000D01*
X189476666Y-105384523D01*
X189779047Y-105384523D01*
X189900000Y-105445000D01*
X189960476Y-105505476D01*
X190020952Y-105626428D01*
X190020952Y-105747380D01*
X189960476Y-105928809D01*
X189234761Y-106654523D01*
X190020952Y-106654523D01*
X190444285Y-105384523D02*
X191290952Y-105384523D01*
X190746666Y-106654523D01*
X192319047Y-105384523D02*
X192077142Y-105384523D01*
X191956190Y-105445000D01*
X191895714Y-105505476D01*
X191774761Y-105686904D01*
X191714285Y-105928809D01*
X191714285Y-106412619D01*
X191774761Y-106533571D01*
X191835238Y-106594047D01*
X191956190Y-106654523D01*
X192198095Y-106654523D01*
X192319047Y-106594047D01*
X192379523Y-106533571D01*
X192440000Y-106412619D01*
X192440000Y-106110238D01*
X192379523Y-105989285D01*
X192319047Y-105928809D01*
X192198095Y-105868333D01*
X191956190Y-105868333D01*
X191835238Y-105928809D01*
X191774761Y-105989285D01*
X191714285Y-106110238D01*
X192984285Y-106170714D02*
X193951904Y-106170714D01*
X195221904Y-106654523D02*
X194496190Y-106654523D01*
X194859047Y-106654523D02*
X194859047Y-105384523D01*
X194738095Y-105565952D01*
X194617142Y-105686904D01*
X194496190Y-105747380D01*
D18*
X165694628Y-56281971D02*
X165694628Y-57479400D01*
X165614800Y-57718885D01*
X165455142Y-57878542D01*
X165215657Y-57958371D01*
X165056000Y-57958371D01*
X167371028Y-57958371D02*
X166413085Y-57958371D01*
X166892057Y-57958371D02*
X166892057Y-56281971D01*
X166732400Y-56521457D01*
X166572742Y-56681114D01*
X166413085Y-56760942D01*
X168408800Y-56281971D02*
X168568457Y-56281971D01*
X168728114Y-56361800D01*
X168807942Y-56441628D01*
X168887771Y-56601285D01*
X168967600Y-56920600D01*
X168967600Y-57319742D01*
X168887771Y-57639057D01*
X168807942Y-57798714D01*
X168728114Y-57878542D01*
X168568457Y-57958371D01*
X168408800Y-57958371D01*
X168249142Y-57878542D01*
X168169314Y-57798714D01*
X168089485Y-57639057D01*
X168009657Y-57319742D01*
X168009657Y-56920600D01*
X168089485Y-56601285D01*
X168169314Y-56441628D01*
X168249142Y-56361800D01*
X168408800Y-56281971D01*
X170564171Y-57958371D02*
X169606228Y-57958371D01*
X170085200Y-57958371D02*
X170085200Y-56281971D01*
X169925542Y-56521457D01*
X169765885Y-56681114D01*
X169606228Y-56760942D01*
X134289171Y-76779400D02*
X135087457Y-76779400D01*
X134129514Y-77258371D02*
X134688314Y-75581971D01*
X135247114Y-77258371D01*
X135805914Y-77258371D02*
X135805914Y-75581971D01*
X136364714Y-76779400D01*
X136923514Y-75581971D01*
X136923514Y-77258371D01*
X137721800Y-77258371D02*
X137721800Y-75581971D01*
X138360428Y-75581971D01*
X138520085Y-75661800D01*
X138599914Y-75741628D01*
X138679742Y-75901285D01*
X138679742Y-76140771D01*
X138599914Y-76300428D01*
X138520085Y-76380257D01*
X138360428Y-76460085D01*
X137721800Y-76460085D01*
X139318371Y-77178542D02*
X139557857Y-77258371D01*
X139957000Y-77258371D01*
X140116657Y-77178542D01*
X140196485Y-77098714D01*
X140276314Y-76939057D01*
X140276314Y-76779400D01*
X140196485Y-76619742D01*
X140116657Y-76539914D01*
X139957000Y-76460085D01*
X139637685Y-76380257D01*
X139478028Y-76300428D01*
X139398200Y-76220600D01*
X139318371Y-76060942D01*
X139318371Y-75901285D01*
X139398200Y-75741628D01*
X139478028Y-75661800D01*
X139637685Y-75581971D01*
X140036828Y-75581971D01*
X140276314Y-75661800D01*
X140994771Y-76380257D02*
X141553571Y-76380257D01*
X141793057Y-77258371D02*
X140994771Y-77258371D01*
X140994771Y-75581971D01*
X141793057Y-75581971D01*
X142431685Y-76779400D02*
X143229971Y-76779400D01*
X142272028Y-77258371D02*
X142830828Y-75581971D01*
X143389628Y-77258371D01*
X144746714Y-77258371D02*
X143948428Y-77258371D01*
X143948428Y-75581971D01*
X144906371Y-77418028D02*
X146183628Y-77418028D01*
X146502942Y-75741628D02*
X146582771Y-75661800D01*
X146742428Y-75581971D01*
X147141571Y-75581971D01*
X147301228Y-75661800D01*
X147381057Y-75741628D01*
X147460885Y-75901285D01*
X147460885Y-76060942D01*
X147381057Y-76300428D01*
X146423114Y-77258371D01*
X147460885Y-77258371D01*
X148019685Y-75581971D02*
X149057457Y-75581971D01*
X148498657Y-76220600D01*
X148738142Y-76220600D01*
X148897800Y-76300428D01*
X148977628Y-76380257D01*
X149057457Y-76539914D01*
X149057457Y-76939057D01*
X148977628Y-77098714D01*
X148897800Y-77178542D01*
X148738142Y-77258371D01*
X148259171Y-77258371D01*
X148099514Y-77178542D01*
X148019685Y-77098714D01*
X149376771Y-77418028D02*
X150654028Y-77418028D01*
X151053171Y-77258371D02*
X151053171Y-75581971D01*
X151691800Y-75581971D01*
X151851457Y-75661800D01*
X151931285Y-75741628D01*
X152011114Y-75901285D01*
X152011114Y-76140771D01*
X151931285Y-76300428D01*
X151851457Y-76380257D01*
X151691800Y-76460085D01*
X151053171Y-76460085D01*
X153048885Y-75581971D02*
X153368200Y-75581971D01*
X153527857Y-75661800D01*
X153687514Y-75821457D01*
X153767342Y-76140771D01*
X153767342Y-76699571D01*
X153687514Y-77018885D01*
X153527857Y-77178542D01*
X153368200Y-77258371D01*
X153048885Y-77258371D01*
X152889228Y-77178542D01*
X152729571Y-77018885D01*
X152649742Y-76699571D01*
X152649742Y-76140771D01*
X152729571Y-75821457D01*
X152889228Y-75661800D01*
X153048885Y-75581971D01*
X154405971Y-77178542D02*
X154645457Y-77258371D01*
X155044600Y-77258371D01*
X155204257Y-77178542D01*
X155284085Y-77098714D01*
X155363914Y-76939057D01*
X155363914Y-76779400D01*
X155284085Y-76619742D01*
X155204257Y-76539914D01*
X155044600Y-76460085D01*
X154725285Y-76380257D01*
X154565628Y-76300428D01*
X154485800Y-76220600D01*
X154405971Y-76060942D01*
X154405971Y-75901285D01*
X154485800Y-75741628D01*
X154565628Y-75661800D01*
X154725285Y-75581971D01*
X155124428Y-75581971D01*
X155363914Y-75661800D01*
X155683228Y-77418028D02*
X156960485Y-77418028D01*
X157120142Y-75581971D02*
X157678942Y-77258371D01*
X158237742Y-75581971D01*
X158796542Y-76380257D02*
X159355342Y-76380257D01*
X159594828Y-77258371D02*
X158796542Y-77258371D01*
X158796542Y-75581971D01*
X159594828Y-75581971D01*
X161271228Y-77258371D02*
X160712428Y-76460085D01*
X160313285Y-77258371D02*
X160313285Y-75581971D01*
X160951914Y-75581971D01*
X161111571Y-75661800D01*
X161191400Y-75741628D01*
X161271228Y-75901285D01*
X161271228Y-76140771D01*
X161191400Y-76300428D01*
X161111571Y-76380257D01*
X160951914Y-76460085D01*
X160313285Y-76460085D01*
X161750200Y-75581971D02*
X162708142Y-75581971D01*
X162229171Y-77258371D02*
X162229171Y-75581971D01*
X162867800Y-77418028D02*
X164145057Y-77418028D01*
X165103000Y-76380257D02*
X165342485Y-76460085D01*
X165422314Y-76539914D01*
X165502142Y-76699571D01*
X165502142Y-76939057D01*
X165422314Y-77098714D01*
X165342485Y-77178542D01*
X165182828Y-77258371D01*
X164544200Y-77258371D01*
X164544200Y-75581971D01*
X165103000Y-75581971D01*
X165262657Y-75661800D01*
X165342485Y-75741628D01*
X165422314Y-75901285D01*
X165422314Y-76060942D01*
X165342485Y-76220600D01*
X165262657Y-76300428D01*
X165103000Y-76380257D01*
X164544200Y-76380257D01*
X167018885Y-77258371D02*
X166220600Y-77258371D01*
X166220600Y-75581971D01*
X167577685Y-75581971D02*
X167577685Y-76939057D01*
X167657514Y-77098714D01*
X167737342Y-77178542D01*
X167897000Y-77258371D01*
X168216314Y-77258371D01*
X168375971Y-77178542D01*
X168455800Y-77098714D01*
X168535628Y-76939057D01*
X168535628Y-75581971D01*
X169333914Y-76380257D02*
X169892714Y-76380257D01*
X170132200Y-77258371D02*
X169333914Y-77258371D01*
X169333914Y-75581971D01*
X170132200Y-75581971D01*
X170451514Y-77418028D02*
X171728771Y-77418028D01*
X172048085Y-77178542D02*
X172287571Y-77258371D01*
X172686714Y-77258371D01*
X172846371Y-77178542D01*
X172926200Y-77098714D01*
X173006028Y-76939057D01*
X173006028Y-76779400D01*
X172926200Y-76619742D01*
X172846371Y-76539914D01*
X172686714Y-76460085D01*
X172367400Y-76380257D01*
X172207742Y-76300428D01*
X172127914Y-76220600D01*
X172048085Y-76060942D01*
X172048085Y-75901285D01*
X172127914Y-75741628D01*
X172207742Y-75661800D01*
X172367400Y-75581971D01*
X172766542Y-75581971D01*
X173006028Y-75661800D01*
X173724485Y-76380257D02*
X174283285Y-76380257D01*
X174522771Y-77258371D02*
X173724485Y-77258371D01*
X173724485Y-75581971D01*
X174522771Y-75581971D01*
X175161400Y-76779400D02*
X175959685Y-76779400D01*
X175001742Y-77258371D02*
X175560542Y-75581971D01*
X176119342Y-77258371D01*
X177476428Y-77258371D02*
X176678142Y-77258371D01*
X176678142Y-75581971D01*
X178035228Y-76380257D02*
X178594028Y-76380257D01*
X178833514Y-77258371D02*
X178035228Y-77258371D01*
X178035228Y-75581971D01*
X178833514Y-75581971D01*
X179551971Y-77258371D02*
X179551971Y-75581971D01*
X179951114Y-75581971D01*
X180190600Y-75661800D01*
X180350257Y-75821457D01*
X180430085Y-75981114D01*
X180509914Y-76300428D01*
X180509914Y-76539914D01*
X180430085Y-76859228D01*
X180350257Y-77018885D01*
X180190600Y-77178542D01*
X179951114Y-77258371D01*
X179551971Y-77258371D01*
X180829228Y-77418028D02*
X182106485Y-77418028D01*
X183383742Y-77258371D02*
X182425800Y-77258371D01*
X182904771Y-77258371D02*
X182904771Y-75581971D01*
X182745114Y-75821457D01*
X182585457Y-75981114D01*
X182425800Y-76060942D01*
X184102200Y-76619742D02*
X185379457Y-76619742D01*
X186018085Y-75581971D02*
X187135685Y-75581971D01*
X186417228Y-77258371D01*
X187614657Y-75581971D02*
X188732257Y-75581971D01*
X188013800Y-77258371D01*
X190089342Y-75581971D02*
X189770028Y-75581971D01*
X189610371Y-75661800D01*
X189530542Y-75741628D01*
X189370885Y-75981114D01*
X189291057Y-76300428D01*
X189291057Y-76939057D01*
X189370885Y-77098714D01*
X189450714Y-77178542D01*
X189610371Y-77258371D01*
X189929685Y-77258371D01*
X190089342Y-77178542D01*
X190169171Y-77098714D01*
X190249000Y-76939057D01*
X190249000Y-76539914D01*
X190169171Y-76380257D01*
X190089342Y-76300428D01*
X189929685Y-76220600D01*
X189610371Y-76220600D01*
X189450714Y-76300428D01*
X189370885Y-76380257D01*
X189291057Y-76539914D01*
X190887628Y-75741628D02*
X190967457Y-75661800D01*
X191127114Y-75581971D01*
X191526257Y-75581971D01*
X191685914Y-75661800D01*
X191765742Y-75741628D01*
X191845571Y-75901285D01*
X191845571Y-76060942D01*
X191765742Y-76300428D01*
X190807800Y-77258371D01*
X191845571Y-77258371D01*
X192484200Y-75741628D02*
X192564028Y-75661800D01*
X192723685Y-75581971D01*
X193122828Y-75581971D01*
X193282485Y-75661800D01*
X193362314Y-75741628D01*
X193442142Y-75901285D01*
X193442142Y-76060942D01*
X193362314Y-76300428D01*
X192404371Y-77258371D01*
X193442142Y-77258371D01*
X194400085Y-76300428D02*
X194240428Y-76220600D01*
X194160600Y-76140771D01*
X194080771Y-75981114D01*
X194080771Y-75901285D01*
X194160600Y-75741628D01*
X194240428Y-75661800D01*
X194400085Y-75581971D01*
X194719400Y-75581971D01*
X194879057Y-75661800D01*
X194958885Y-75741628D01*
X195038714Y-75901285D01*
X195038714Y-75981114D01*
X194958885Y-76140771D01*
X194879057Y-76220600D01*
X194719400Y-76300428D01*
X194400085Y-76300428D01*
X194240428Y-76380257D01*
X194160600Y-76460085D01*
X194080771Y-76619742D01*
X194080771Y-76939057D01*
X194160600Y-77098714D01*
X194240428Y-77178542D01*
X194400085Y-77258371D01*
X194719400Y-77258371D01*
X194879057Y-77178542D01*
X194958885Y-77098714D01*
X195038714Y-76939057D01*
X195038714Y-76619742D01*
X194958885Y-76460085D01*
X194879057Y-76380257D01*
X194719400Y-76300428D01*
X195757171Y-76619742D02*
X197034428Y-76619742D01*
X198631000Y-75581971D02*
X197832714Y-75581971D01*
X197752885Y-76380257D01*
X197832714Y-76300428D01*
X197992371Y-76220600D01*
X198391514Y-76220600D01*
X198551171Y-76300428D01*
X198631000Y-76380257D01*
X198710828Y-76539914D01*
X198710828Y-76939057D01*
X198631000Y-77098714D01*
X198551171Y-77178542D01*
X198391514Y-77258371D01*
X197992371Y-77258371D01*
X197832714Y-77178542D01*
X197752885Y-77098714D01*
D19*
X130290438Y-120390285D02*
X130251733Y-120428990D01*
X130135619Y-120467695D01*
X130058209Y-120467695D01*
X129942095Y-120428990D01*
X129864685Y-120351580D01*
X129825980Y-120274171D01*
X129787276Y-120119352D01*
X129787276Y-120003238D01*
X129825980Y-119848419D01*
X129864685Y-119771009D01*
X129942095Y-119693600D01*
X130058209Y-119654895D01*
X130135619Y-119654895D01*
X130251733Y-119693600D01*
X130290438Y-119732304D01*
X130561371Y-119654895D02*
X131064533Y-119654895D01*
X130793600Y-119964533D01*
X130909714Y-119964533D01*
X130987123Y-120003238D01*
X131025828Y-120041942D01*
X131064533Y-120119352D01*
X131064533Y-120312876D01*
X131025828Y-120390285D01*
X130987123Y-120428990D01*
X130909714Y-120467695D01*
X130677485Y-120467695D01*
X130600076Y-120428990D01*
X130561371Y-120390285D01*
X131567695Y-119654895D02*
X131645104Y-119654895D01*
X131722514Y-119693600D01*
X131761219Y-119732304D01*
X131799923Y-119809714D01*
X131838628Y-119964533D01*
X131838628Y-120158057D01*
X131799923Y-120312876D01*
X131761219Y-120390285D01*
X131722514Y-120428990D01*
X131645104Y-120467695D01*
X131567695Y-120467695D01*
X131490285Y-120428990D01*
X131451580Y-120390285D01*
X131412876Y-120312876D01*
X131374171Y-120158057D01*
X131374171Y-119964533D01*
X131412876Y-119809714D01*
X131451580Y-119732304D01*
X131490285Y-119693600D01*
X131567695Y-119654895D01*
X132535314Y-119654895D02*
X132380495Y-119654895D01*
X132303085Y-119693600D01*
X132264380Y-119732304D01*
X132186971Y-119848419D01*
X132148266Y-120003238D01*
X132148266Y-120312876D01*
X132186971Y-120390285D01*
X132225676Y-120428990D01*
X132303085Y-120467695D01*
X132457904Y-120467695D01*
X132535314Y-120428990D01*
X132574019Y-120390285D01*
X132612723Y-120312876D01*
X132612723Y-120119352D01*
X132574019Y-120041942D01*
X132535314Y-120003238D01*
X132457904Y-119964533D01*
X132303085Y-119964533D01*
X132225676Y-120003238D01*
X132186971Y-120041942D01*
X132148266Y-120119352D01*
X129942095Y-119517695D02*
X129477638Y-119517695D01*
X129709866Y-119517695D02*
X129709866Y-118704895D01*
X129632457Y-118821009D01*
X129555047Y-118898419D01*
X129477638Y-118937123D01*
X130445257Y-118704895D02*
X130522666Y-118704895D01*
X130600076Y-118743600D01*
X130638780Y-118782304D01*
X130677485Y-118859714D01*
X130716190Y-119014533D01*
X130716190Y-119208057D01*
X130677485Y-119362876D01*
X130638780Y-119440285D01*
X130600076Y-119478990D01*
X130522666Y-119517695D01*
X130445257Y-119517695D01*
X130367847Y-119478990D01*
X130329142Y-119440285D01*
X130290438Y-119362876D01*
X130251733Y-119208057D01*
X130251733Y-119014533D01*
X130290438Y-118859714D01*
X130329142Y-118782304D01*
X130367847Y-118743600D01*
X130445257Y-118704895D01*
X131219352Y-118704895D02*
X131296761Y-118704895D01*
X131374171Y-118743600D01*
X131412876Y-118782304D01*
X131451580Y-118859714D01*
X131490285Y-119014533D01*
X131490285Y-119208057D01*
X131451580Y-119362876D01*
X131412876Y-119440285D01*
X131374171Y-119478990D01*
X131296761Y-119517695D01*
X131219352Y-119517695D01*
X131141942Y-119478990D01*
X131103238Y-119440285D01*
X131064533Y-119362876D01*
X131025828Y-119208057D01*
X131025828Y-119014533D01*
X131064533Y-118859714D01*
X131103238Y-118782304D01*
X131141942Y-118743600D01*
X131219352Y-118704895D01*
X131838628Y-118975828D02*
X131838628Y-119517695D01*
X131838628Y-119053238D02*
X131877333Y-119014533D01*
X131954742Y-118975828D01*
X132070857Y-118975828D01*
X132148266Y-119014533D01*
X132186971Y-119091942D01*
X132186971Y-119517695D01*
X132844952Y-119091942D02*
X132574019Y-119091942D01*
X132574019Y-119517695D02*
X132574019Y-118704895D01*
X132961066Y-118704895D01*
X199175980Y-115587695D02*
X199175980Y-114774895D01*
X199369504Y-114774895D01*
X199485619Y-114813600D01*
X199563028Y-114891009D01*
X199601733Y-114968419D01*
X199640438Y-115123238D01*
X199640438Y-115239352D01*
X199601733Y-115394171D01*
X199563028Y-115471580D01*
X199485619Y-115548990D01*
X199369504Y-115587695D01*
X199175980Y-115587695D01*
X199950076Y-114852304D02*
X199988780Y-114813600D01*
X200066190Y-114774895D01*
X200259714Y-114774895D01*
X200337123Y-114813600D01*
X200375828Y-114852304D01*
X200414533Y-114929714D01*
X200414533Y-115007123D01*
X200375828Y-115123238D01*
X199911371Y-115587695D01*
X200414533Y-115587695D01*
X200917695Y-114774895D02*
X200995104Y-114774895D01*
X201072514Y-114813600D01*
X201111219Y-114852304D01*
X201149923Y-114929714D01*
X201188628Y-115084533D01*
X201188628Y-115278057D01*
X201149923Y-115432876D01*
X201111219Y-115510285D01*
X201072514Y-115548990D01*
X200995104Y-115587695D01*
X200917695Y-115587695D01*
X200840285Y-115548990D01*
X200801580Y-115510285D01*
X200762876Y-115432876D01*
X200724171Y-115278057D01*
X200724171Y-115084533D01*
X200762876Y-114929714D01*
X200801580Y-114852304D01*
X200840285Y-114813600D01*
X200917695Y-114774895D01*
X201962723Y-115587695D02*
X201498266Y-115587695D01*
X201730495Y-115587695D02*
X201730495Y-114774895D01*
X201653085Y-114891009D01*
X201575676Y-114968419D01*
X201498266Y-115007123D01*
X199035980Y-126607695D02*
X199035980Y-125794895D01*
X199229504Y-125794895D01*
X199345619Y-125833600D01*
X199423028Y-125911009D01*
X199461733Y-125988419D01*
X199500438Y-126143238D01*
X199500438Y-126259352D01*
X199461733Y-126414171D01*
X199423028Y-126491580D01*
X199345619Y-126568990D01*
X199229504Y-126607695D01*
X199035980Y-126607695D01*
X199810076Y-125872304D02*
X199848780Y-125833600D01*
X199926190Y-125794895D01*
X200119714Y-125794895D01*
X200197123Y-125833600D01*
X200235828Y-125872304D01*
X200274533Y-125949714D01*
X200274533Y-126027123D01*
X200235828Y-126143238D01*
X199771371Y-126607695D01*
X200274533Y-126607695D01*
X200777695Y-125794895D02*
X200855104Y-125794895D01*
X200932514Y-125833600D01*
X200971219Y-125872304D01*
X201009923Y-125949714D01*
X201048628Y-126104533D01*
X201048628Y-126298057D01*
X201009923Y-126452876D01*
X200971219Y-126530285D01*
X200932514Y-126568990D01*
X200855104Y-126607695D01*
X200777695Y-126607695D01*
X200700285Y-126568990D01*
X200661580Y-126530285D01*
X200622876Y-126452876D01*
X200584171Y-126298057D01*
X200584171Y-126104533D01*
X200622876Y-125949714D01*
X200661580Y-125872304D01*
X200700285Y-125833600D01*
X200777695Y-125794895D01*
X201358266Y-125872304D02*
X201396971Y-125833600D01*
X201474380Y-125794895D01*
X201667904Y-125794895D01*
X201745314Y-125833600D01*
X201784019Y-125872304D01*
X201822723Y-125949714D01*
X201822723Y-126027123D01*
X201784019Y-126143238D01*
X201319561Y-126607695D01*
X201822723Y-126607695D01*
X176485980Y-130687695D02*
X176485980Y-129874895D01*
X176679504Y-129874895D01*
X176795619Y-129913600D01*
X176873028Y-129991009D01*
X176911733Y-130068419D01*
X176950438Y-130223238D01*
X176950438Y-130339352D01*
X176911733Y-130494171D01*
X176873028Y-130571580D01*
X176795619Y-130648990D01*
X176679504Y-130687695D01*
X176485980Y-130687695D01*
X177260076Y-129952304D02*
X177298780Y-129913600D01*
X177376190Y-129874895D01*
X177569714Y-129874895D01*
X177647123Y-129913600D01*
X177685828Y-129952304D01*
X177724533Y-130029714D01*
X177724533Y-130107123D01*
X177685828Y-130223238D01*
X177221371Y-130687695D01*
X177724533Y-130687695D01*
X178227695Y-129874895D02*
X178305104Y-129874895D01*
X178382514Y-129913600D01*
X178421219Y-129952304D01*
X178459923Y-130029714D01*
X178498628Y-130184533D01*
X178498628Y-130378057D01*
X178459923Y-130532876D01*
X178421219Y-130610285D01*
X178382514Y-130648990D01*
X178305104Y-130687695D01*
X178227695Y-130687695D01*
X178150285Y-130648990D01*
X178111580Y-130610285D01*
X178072876Y-130532876D01*
X178034171Y-130378057D01*
X178034171Y-130184533D01*
X178072876Y-130029714D01*
X178111580Y-129952304D01*
X178150285Y-129913600D01*
X178227695Y-129874895D01*
X178769561Y-129874895D02*
X179272723Y-129874895D01*
X179001790Y-130184533D01*
X179117904Y-130184533D01*
X179195314Y-130223238D01*
X179234019Y-130261942D01*
X179272723Y-130339352D01*
X179272723Y-130532876D01*
X179234019Y-130610285D01*
X179195314Y-130648990D01*
X179117904Y-130687695D01*
X178885676Y-130687695D01*
X178808266Y-130648990D01*
X178769561Y-130610285D01*
X196964971Y-119471942D02*
X196694038Y-119471942D01*
X196694038Y-119897695D02*
X196694038Y-119084895D01*
X197081085Y-119084895D01*
X197352019Y-119162304D02*
X197390723Y-119123600D01*
X197468133Y-119084895D01*
X197661657Y-119084895D01*
X197739066Y-119123600D01*
X197777771Y-119162304D01*
X197816476Y-119239714D01*
X197816476Y-119317123D01*
X197777771Y-119433238D01*
X197313314Y-119897695D01*
X197816476Y-119897695D01*
X198319638Y-119084895D02*
X198397047Y-119084895D01*
X198474457Y-119123600D01*
X198513161Y-119162304D01*
X198551866Y-119239714D01*
X198590571Y-119394533D01*
X198590571Y-119588057D01*
X198551866Y-119742876D01*
X198513161Y-119820285D01*
X198474457Y-119858990D01*
X198397047Y-119897695D01*
X198319638Y-119897695D01*
X198242228Y-119858990D01*
X198203523Y-119820285D01*
X198164819Y-119742876D01*
X198126114Y-119588057D01*
X198126114Y-119394533D01*
X198164819Y-119239714D01*
X198203523Y-119162304D01*
X198242228Y-119123600D01*
X198319638Y-119084895D01*
X199364666Y-119897695D02*
X198900209Y-119897695D01*
X199132438Y-119897695D02*
X199132438Y-119084895D01*
X199055028Y-119201009D01*
X198977619Y-119278419D01*
X198900209Y-119317123D01*
X148390438Y-117690285D02*
X148351733Y-117728990D01*
X148235619Y-117767695D01*
X148158209Y-117767695D01*
X148042095Y-117728990D01*
X147964685Y-117651580D01*
X147925980Y-117574171D01*
X147887276Y-117419352D01*
X147887276Y-117303238D01*
X147925980Y-117148419D01*
X147964685Y-117071009D01*
X148042095Y-116993600D01*
X148158209Y-116954895D01*
X148235619Y-116954895D01*
X148351733Y-116993600D01*
X148390438Y-117032304D01*
X148661371Y-116954895D02*
X149164533Y-116954895D01*
X148893600Y-117264533D01*
X149009714Y-117264533D01*
X149087123Y-117303238D01*
X149125828Y-117341942D01*
X149164533Y-117419352D01*
X149164533Y-117612876D01*
X149125828Y-117690285D01*
X149087123Y-117728990D01*
X149009714Y-117767695D01*
X148777485Y-117767695D01*
X148700076Y-117728990D01*
X148661371Y-117690285D01*
X149667695Y-116954895D02*
X149745104Y-116954895D01*
X149822514Y-116993600D01*
X149861219Y-117032304D01*
X149899923Y-117109714D01*
X149938628Y-117264533D01*
X149938628Y-117458057D01*
X149899923Y-117612876D01*
X149861219Y-117690285D01*
X149822514Y-117728990D01*
X149745104Y-117767695D01*
X149667695Y-117767695D01*
X149590285Y-117728990D01*
X149551580Y-117690285D01*
X149512876Y-117612876D01*
X149474171Y-117458057D01*
X149474171Y-117264533D01*
X149512876Y-117109714D01*
X149551580Y-117032304D01*
X149590285Y-116993600D01*
X149667695Y-116954895D01*
X150248266Y-117032304D02*
X150286971Y-116993600D01*
X150364380Y-116954895D01*
X150557904Y-116954895D01*
X150635314Y-116993600D01*
X150674019Y-117032304D01*
X150712723Y-117109714D01*
X150712723Y-117187123D01*
X150674019Y-117303238D01*
X150209561Y-117767695D01*
X150712723Y-117767695D01*
X147844495Y-120417695D02*
X147380038Y-120417695D01*
X147612266Y-120417695D02*
X147612266Y-119604895D01*
X147534857Y-119721009D01*
X147457447Y-119798419D01*
X147380038Y-119837123D01*
X148347657Y-119604895D02*
X148425066Y-119604895D01*
X148502476Y-119643600D01*
X148541180Y-119682304D01*
X148579885Y-119759714D01*
X148618590Y-119914533D01*
X148618590Y-120108057D01*
X148579885Y-120262876D01*
X148541180Y-120340285D01*
X148502476Y-120378990D01*
X148425066Y-120417695D01*
X148347657Y-120417695D01*
X148270247Y-120378990D01*
X148231542Y-120340285D01*
X148192838Y-120262876D01*
X148154133Y-120108057D01*
X148154133Y-119914533D01*
X148192838Y-119759714D01*
X148231542Y-119682304D01*
X148270247Y-119643600D01*
X148347657Y-119604895D01*
X149121752Y-119604895D02*
X149199161Y-119604895D01*
X149276571Y-119643600D01*
X149315276Y-119682304D01*
X149353980Y-119759714D01*
X149392685Y-119914533D01*
X149392685Y-120108057D01*
X149353980Y-120262876D01*
X149315276Y-120340285D01*
X149276571Y-120378990D01*
X149199161Y-120417695D01*
X149121752Y-120417695D01*
X149044342Y-120378990D01*
X149005638Y-120340285D01*
X148966933Y-120262876D01*
X148928228Y-120108057D01*
X148928228Y-119914533D01*
X148966933Y-119759714D01*
X149005638Y-119682304D01*
X149044342Y-119643600D01*
X149121752Y-119604895D01*
X149741028Y-119875828D02*
X149741028Y-120417695D01*
X149741028Y-119953238D02*
X149779733Y-119914533D01*
X149857142Y-119875828D01*
X149973257Y-119875828D01*
X150050666Y-119914533D01*
X150089371Y-119991942D01*
X150089371Y-120417695D01*
X150747352Y-119991942D02*
X150476419Y-119991942D01*
X150476419Y-120417695D02*
X150476419Y-119604895D01*
X150863466Y-119604895D01*
X139850438Y-127130285D02*
X139811733Y-127168990D01*
X139695619Y-127207695D01*
X139618209Y-127207695D01*
X139502095Y-127168990D01*
X139424685Y-127091580D01*
X139385980Y-127014171D01*
X139347276Y-126859352D01*
X139347276Y-126743238D01*
X139385980Y-126588419D01*
X139424685Y-126511009D01*
X139502095Y-126433600D01*
X139618209Y-126394895D01*
X139695619Y-126394895D01*
X139811733Y-126433600D01*
X139850438Y-126472304D01*
X140121371Y-126394895D02*
X140624533Y-126394895D01*
X140353600Y-126704533D01*
X140469714Y-126704533D01*
X140547123Y-126743238D01*
X140585828Y-126781942D01*
X140624533Y-126859352D01*
X140624533Y-127052876D01*
X140585828Y-127130285D01*
X140547123Y-127168990D01*
X140469714Y-127207695D01*
X140237485Y-127207695D01*
X140160076Y-127168990D01*
X140121371Y-127130285D01*
X141127695Y-126394895D02*
X141205104Y-126394895D01*
X141282514Y-126433600D01*
X141321219Y-126472304D01*
X141359923Y-126549714D01*
X141398628Y-126704533D01*
X141398628Y-126898057D01*
X141359923Y-127052876D01*
X141321219Y-127130285D01*
X141282514Y-127168990D01*
X141205104Y-127207695D01*
X141127695Y-127207695D01*
X141050285Y-127168990D01*
X141011580Y-127130285D01*
X140972876Y-127052876D01*
X140934171Y-126898057D01*
X140934171Y-126704533D01*
X140972876Y-126549714D01*
X141011580Y-126472304D01*
X141050285Y-126433600D01*
X141127695Y-126394895D01*
X142095314Y-126665828D02*
X142095314Y-127207695D01*
X141901790Y-126356190D02*
X141708266Y-126936761D01*
X142211428Y-126936761D01*
X139832095Y-128267695D02*
X139367638Y-128267695D01*
X139599866Y-128267695D02*
X139599866Y-127454895D01*
X139522457Y-127571009D01*
X139445047Y-127648419D01*
X139367638Y-127687123D01*
X140335257Y-127454895D02*
X140412666Y-127454895D01*
X140490076Y-127493600D01*
X140528780Y-127532304D01*
X140567485Y-127609714D01*
X140606190Y-127764533D01*
X140606190Y-127958057D01*
X140567485Y-128112876D01*
X140528780Y-128190285D01*
X140490076Y-128228990D01*
X140412666Y-128267695D01*
X140335257Y-128267695D01*
X140257847Y-128228990D01*
X140219142Y-128190285D01*
X140180438Y-128112876D01*
X140141733Y-127958057D01*
X140141733Y-127764533D01*
X140180438Y-127609714D01*
X140219142Y-127532304D01*
X140257847Y-127493600D01*
X140335257Y-127454895D01*
X141109352Y-127454895D02*
X141186761Y-127454895D01*
X141264171Y-127493600D01*
X141302876Y-127532304D01*
X141341580Y-127609714D01*
X141380285Y-127764533D01*
X141380285Y-127958057D01*
X141341580Y-128112876D01*
X141302876Y-128190285D01*
X141264171Y-128228990D01*
X141186761Y-128267695D01*
X141109352Y-128267695D01*
X141031942Y-128228990D01*
X140993238Y-128190285D01*
X140954533Y-128112876D01*
X140915828Y-127958057D01*
X140915828Y-127764533D01*
X140954533Y-127609714D01*
X140993238Y-127532304D01*
X141031942Y-127493600D01*
X141109352Y-127454895D01*
X141728628Y-127725828D02*
X141728628Y-128267695D01*
X141728628Y-127803238D02*
X141767333Y-127764533D01*
X141844742Y-127725828D01*
X141960857Y-127725828D01*
X142038266Y-127764533D01*
X142076971Y-127841942D01*
X142076971Y-128267695D01*
X142734952Y-127841942D02*
X142464019Y-127841942D01*
X142464019Y-128267695D02*
X142464019Y-127454895D01*
X142851066Y-127454895D01*
X133410438Y-129350285D02*
X133371733Y-129388990D01*
X133255619Y-129427695D01*
X133178209Y-129427695D01*
X133062095Y-129388990D01*
X132984685Y-129311580D01*
X132945980Y-129234171D01*
X132907276Y-129079352D01*
X132907276Y-128963238D01*
X132945980Y-128808419D01*
X132984685Y-128731009D01*
X133062095Y-128653600D01*
X133178209Y-128614895D01*
X133255619Y-128614895D01*
X133371733Y-128653600D01*
X133410438Y-128692304D01*
X133681371Y-128614895D02*
X134184533Y-128614895D01*
X133913600Y-128924533D01*
X134029714Y-128924533D01*
X134107123Y-128963238D01*
X134145828Y-129001942D01*
X134184533Y-129079352D01*
X134184533Y-129272876D01*
X134145828Y-129350285D01*
X134107123Y-129388990D01*
X134029714Y-129427695D01*
X133797485Y-129427695D01*
X133720076Y-129388990D01*
X133681371Y-129350285D01*
X134687695Y-128614895D02*
X134765104Y-128614895D01*
X134842514Y-128653600D01*
X134881219Y-128692304D01*
X134919923Y-128769714D01*
X134958628Y-128924533D01*
X134958628Y-129118057D01*
X134919923Y-129272876D01*
X134881219Y-129350285D01*
X134842514Y-129388990D01*
X134765104Y-129427695D01*
X134687695Y-129427695D01*
X134610285Y-129388990D01*
X134571580Y-129350285D01*
X134532876Y-129272876D01*
X134494171Y-129118057D01*
X134494171Y-128924533D01*
X134532876Y-128769714D01*
X134571580Y-128692304D01*
X134610285Y-128653600D01*
X134687695Y-128614895D01*
X135229561Y-128614895D02*
X135771428Y-128614895D01*
X135423085Y-129427695D01*
X136217695Y-131990857D02*
X136217695Y-132455314D01*
X136217695Y-132223085D02*
X135404895Y-132223085D01*
X135521009Y-132300495D01*
X135598419Y-132377904D01*
X135637123Y-132455314D01*
X135753238Y-131526400D02*
X135714533Y-131603809D01*
X135675828Y-131642514D01*
X135598419Y-131681219D01*
X135559714Y-131681219D01*
X135482304Y-131642514D01*
X135443600Y-131603809D01*
X135404895Y-131526400D01*
X135404895Y-131371580D01*
X135443600Y-131294171D01*
X135482304Y-131255466D01*
X135559714Y-131216761D01*
X135598419Y-131216761D01*
X135675828Y-131255466D01*
X135714533Y-131294171D01*
X135753238Y-131371580D01*
X135753238Y-131526400D01*
X135791942Y-131603809D01*
X135830647Y-131642514D01*
X135908057Y-131681219D01*
X136062876Y-131681219D01*
X136140285Y-131642514D01*
X136178990Y-131603809D01*
X136217695Y-131526400D01*
X136217695Y-131371580D01*
X136178990Y-131294171D01*
X136140285Y-131255466D01*
X136062876Y-131216761D01*
X135908057Y-131216761D01*
X135830647Y-131255466D01*
X135791942Y-131294171D01*
X135753238Y-131371580D01*
X135675828Y-130868419D02*
X136488628Y-130868419D01*
X135714533Y-130868419D02*
X135675828Y-130791009D01*
X135675828Y-130636190D01*
X135714533Y-130558780D01*
X135753238Y-130520076D01*
X135830647Y-130481371D01*
X136062876Y-130481371D01*
X136140285Y-130520076D01*
X136178990Y-130558780D01*
X136217695Y-130636190D01*
X136217695Y-130791009D01*
X136178990Y-130868419D01*
X135791942Y-129862095D02*
X135791942Y-130133028D01*
X136217695Y-130133028D02*
X135404895Y-130133028D01*
X135404895Y-129745980D01*
X133280438Y-137170285D02*
X133241733Y-137208990D01*
X133125619Y-137247695D01*
X133048209Y-137247695D01*
X132932095Y-137208990D01*
X132854685Y-137131580D01*
X132815980Y-137054171D01*
X132777276Y-136899352D01*
X132777276Y-136783238D01*
X132815980Y-136628419D01*
X132854685Y-136551009D01*
X132932095Y-136473600D01*
X133048209Y-136434895D01*
X133125619Y-136434895D01*
X133241733Y-136473600D01*
X133280438Y-136512304D01*
X133551371Y-136434895D02*
X134054533Y-136434895D01*
X133783600Y-136744533D01*
X133899714Y-136744533D01*
X133977123Y-136783238D01*
X134015828Y-136821942D01*
X134054533Y-136899352D01*
X134054533Y-137092876D01*
X134015828Y-137170285D01*
X133977123Y-137208990D01*
X133899714Y-137247695D01*
X133667485Y-137247695D01*
X133590076Y-137208990D01*
X133551371Y-137170285D01*
X134557695Y-136434895D02*
X134635104Y-136434895D01*
X134712514Y-136473600D01*
X134751219Y-136512304D01*
X134789923Y-136589714D01*
X134828628Y-136744533D01*
X134828628Y-136938057D01*
X134789923Y-137092876D01*
X134751219Y-137170285D01*
X134712514Y-137208990D01*
X134635104Y-137247695D01*
X134557695Y-137247695D01*
X134480285Y-137208990D01*
X134441580Y-137170285D01*
X134402876Y-137092876D01*
X134364171Y-136938057D01*
X134364171Y-136744533D01*
X134402876Y-136589714D01*
X134441580Y-136512304D01*
X134480285Y-136473600D01*
X134557695Y-136434895D01*
X135293085Y-136783238D02*
X135215676Y-136744533D01*
X135176971Y-136705828D01*
X135138266Y-136628419D01*
X135138266Y-136589714D01*
X135176971Y-136512304D01*
X135215676Y-136473600D01*
X135293085Y-136434895D01*
X135447904Y-136434895D01*
X135525314Y-136473600D01*
X135564019Y-136512304D01*
X135602723Y-136589714D01*
X135602723Y-136628419D01*
X135564019Y-136705828D01*
X135525314Y-136744533D01*
X135447904Y-136783238D01*
X135293085Y-136783238D01*
X135215676Y-136821942D01*
X135176971Y-136860647D01*
X135138266Y-136938057D01*
X135138266Y-137092876D01*
X135176971Y-137170285D01*
X135215676Y-137208990D01*
X135293085Y-137247695D01*
X135447904Y-137247695D01*
X135525314Y-137208990D01*
X135564019Y-137170285D01*
X135602723Y-137092876D01*
X135602723Y-136938057D01*
X135564019Y-136860647D01*
X135525314Y-136821942D01*
X135447904Y-136783238D01*
X136227695Y-135520857D02*
X136227695Y-135985314D01*
X136227695Y-135753085D02*
X135414895Y-135753085D01*
X135531009Y-135830495D01*
X135608419Y-135907904D01*
X135647123Y-135985314D01*
X135763238Y-135056400D02*
X135724533Y-135133809D01*
X135685828Y-135172514D01*
X135608419Y-135211219D01*
X135569714Y-135211219D01*
X135492304Y-135172514D01*
X135453600Y-135133809D01*
X135414895Y-135056400D01*
X135414895Y-134901580D01*
X135453600Y-134824171D01*
X135492304Y-134785466D01*
X135569714Y-134746761D01*
X135608419Y-134746761D01*
X135685828Y-134785466D01*
X135724533Y-134824171D01*
X135763238Y-134901580D01*
X135763238Y-135056400D01*
X135801942Y-135133809D01*
X135840647Y-135172514D01*
X135918057Y-135211219D01*
X136072876Y-135211219D01*
X136150285Y-135172514D01*
X136188990Y-135133809D01*
X136227695Y-135056400D01*
X136227695Y-134901580D01*
X136188990Y-134824171D01*
X136150285Y-134785466D01*
X136072876Y-134746761D01*
X135918057Y-134746761D01*
X135840647Y-134785466D01*
X135801942Y-134824171D01*
X135763238Y-134901580D01*
X135685828Y-134398419D02*
X136498628Y-134398419D01*
X135724533Y-134398419D02*
X135685828Y-134321009D01*
X135685828Y-134166190D01*
X135724533Y-134088780D01*
X135763238Y-134050076D01*
X135840647Y-134011371D01*
X136072876Y-134011371D01*
X136150285Y-134050076D01*
X136188990Y-134088780D01*
X136227695Y-134166190D01*
X136227695Y-134321009D01*
X136188990Y-134398419D01*
X135801942Y-133392095D02*
X135801942Y-133663028D01*
X136227695Y-133663028D02*
X135414895Y-133663028D01*
X135414895Y-133275980D01*
X149750438Y-124350285D02*
X149711733Y-124388990D01*
X149595619Y-124427695D01*
X149518209Y-124427695D01*
X149402095Y-124388990D01*
X149324685Y-124311580D01*
X149285980Y-124234171D01*
X149247276Y-124079352D01*
X149247276Y-123963238D01*
X149285980Y-123808419D01*
X149324685Y-123731009D01*
X149402095Y-123653600D01*
X149518209Y-123614895D01*
X149595619Y-123614895D01*
X149711733Y-123653600D01*
X149750438Y-123692304D01*
X150021371Y-123614895D02*
X150524533Y-123614895D01*
X150253600Y-123924533D01*
X150369714Y-123924533D01*
X150447123Y-123963238D01*
X150485828Y-124001942D01*
X150524533Y-124079352D01*
X150524533Y-124272876D01*
X150485828Y-124350285D01*
X150447123Y-124388990D01*
X150369714Y-124427695D01*
X150137485Y-124427695D01*
X150060076Y-124388990D01*
X150021371Y-124350285D01*
X151027695Y-123614895D02*
X151105104Y-123614895D01*
X151182514Y-123653600D01*
X151221219Y-123692304D01*
X151259923Y-123769714D01*
X151298628Y-123924533D01*
X151298628Y-124118057D01*
X151259923Y-124272876D01*
X151221219Y-124350285D01*
X151182514Y-124388990D01*
X151105104Y-124427695D01*
X151027695Y-124427695D01*
X150950285Y-124388990D01*
X150911580Y-124350285D01*
X150872876Y-124272876D01*
X150834171Y-124118057D01*
X150834171Y-123924533D01*
X150872876Y-123769714D01*
X150911580Y-123692304D01*
X150950285Y-123653600D01*
X151027695Y-123614895D01*
X151685676Y-124427695D02*
X151840495Y-124427695D01*
X151917904Y-124388990D01*
X151956609Y-124350285D01*
X152034019Y-124234171D01*
X152072723Y-124079352D01*
X152072723Y-123769714D01*
X152034019Y-123692304D01*
X151995314Y-123653600D01*
X151917904Y-123614895D01*
X151763085Y-123614895D01*
X151685676Y-123653600D01*
X151646971Y-123692304D01*
X151608266Y-123769714D01*
X151608266Y-123963238D01*
X151646971Y-124040647D01*
X151685676Y-124079352D01*
X151763085Y-124118057D01*
X151917904Y-124118057D01*
X151995314Y-124079352D01*
X152034019Y-124040647D01*
X152072723Y-123963238D01*
X149702095Y-125547695D02*
X149237638Y-125547695D01*
X149469866Y-125547695D02*
X149469866Y-124734895D01*
X149392457Y-124851009D01*
X149315047Y-124928419D01*
X149237638Y-124967123D01*
X150205257Y-124734895D02*
X150282666Y-124734895D01*
X150360076Y-124773600D01*
X150398780Y-124812304D01*
X150437485Y-124889714D01*
X150476190Y-125044533D01*
X150476190Y-125238057D01*
X150437485Y-125392876D01*
X150398780Y-125470285D01*
X150360076Y-125508990D01*
X150282666Y-125547695D01*
X150205257Y-125547695D01*
X150127847Y-125508990D01*
X150089142Y-125470285D01*
X150050438Y-125392876D01*
X150011733Y-125238057D01*
X150011733Y-125044533D01*
X150050438Y-124889714D01*
X150089142Y-124812304D01*
X150127847Y-124773600D01*
X150205257Y-124734895D01*
X150979352Y-124734895D02*
X151056761Y-124734895D01*
X151134171Y-124773600D01*
X151172876Y-124812304D01*
X151211580Y-124889714D01*
X151250285Y-125044533D01*
X151250285Y-125238057D01*
X151211580Y-125392876D01*
X151172876Y-125470285D01*
X151134171Y-125508990D01*
X151056761Y-125547695D01*
X150979352Y-125547695D01*
X150901942Y-125508990D01*
X150863238Y-125470285D01*
X150824533Y-125392876D01*
X150785828Y-125238057D01*
X150785828Y-125044533D01*
X150824533Y-124889714D01*
X150863238Y-124812304D01*
X150901942Y-124773600D01*
X150979352Y-124734895D01*
X151598628Y-125005828D02*
X151598628Y-125547695D01*
X151598628Y-125083238D02*
X151637333Y-125044533D01*
X151714742Y-125005828D01*
X151830857Y-125005828D01*
X151908266Y-125044533D01*
X151946971Y-125121942D01*
X151946971Y-125547695D01*
X152604952Y-125121942D02*
X152334019Y-125121942D01*
X152334019Y-125547695D02*
X152334019Y-124734895D01*
X152721066Y-124734895D01*
X138804971Y-132854895D02*
X138804971Y-133435466D01*
X138766266Y-133551580D01*
X138688857Y-133628990D01*
X138572742Y-133667695D01*
X138495333Y-133667695D01*
X139114609Y-132854895D02*
X139617771Y-132854895D01*
X139346838Y-133164533D01*
X139462952Y-133164533D01*
X139540361Y-133203238D01*
X139579066Y-133241942D01*
X139617771Y-133319352D01*
X139617771Y-133512876D01*
X139579066Y-133590285D01*
X139540361Y-133628990D01*
X139462952Y-133667695D01*
X139230723Y-133667695D01*
X139153314Y-133628990D01*
X139114609Y-133590285D01*
X140120933Y-132854895D02*
X140198342Y-132854895D01*
X140275752Y-132893600D01*
X140314457Y-132932304D01*
X140353161Y-133009714D01*
X140391866Y-133164533D01*
X140391866Y-133358057D01*
X140353161Y-133512876D01*
X140314457Y-133590285D01*
X140275752Y-133628990D01*
X140198342Y-133667695D01*
X140120933Y-133667695D01*
X140043523Y-133628990D01*
X140004819Y-133590285D01*
X139966114Y-133512876D01*
X139927409Y-133358057D01*
X139927409Y-133164533D01*
X139966114Y-133009714D01*
X140004819Y-132932304D01*
X140043523Y-132893600D01*
X140120933Y-132854895D01*
X141165961Y-133667695D02*
X140701504Y-133667695D01*
X140933733Y-133667695D02*
X140933733Y-132854895D01*
X140856323Y-132971009D01*
X140778914Y-133048419D01*
X140701504Y-133087123D01*
X138640438Y-65267695D02*
X138369504Y-64880647D01*
X138175980Y-65267695D02*
X138175980Y-64454895D01*
X138485619Y-64454895D01*
X138563028Y-64493600D01*
X138601733Y-64532304D01*
X138640438Y-64609714D01*
X138640438Y-64725828D01*
X138601733Y-64803238D01*
X138563028Y-64841942D01*
X138485619Y-64880647D01*
X138175980Y-64880647D01*
X138911371Y-64454895D02*
X139414533Y-64454895D01*
X139143600Y-64764533D01*
X139259714Y-64764533D01*
X139337123Y-64803238D01*
X139375828Y-64841942D01*
X139414533Y-64919352D01*
X139414533Y-65112876D01*
X139375828Y-65190285D01*
X139337123Y-65228990D01*
X139259714Y-65267695D01*
X139027485Y-65267695D01*
X138950076Y-65228990D01*
X138911371Y-65190285D01*
X139917695Y-64454895D02*
X139995104Y-64454895D01*
X140072514Y-64493600D01*
X140111219Y-64532304D01*
X140149923Y-64609714D01*
X140188628Y-64764533D01*
X140188628Y-64958057D01*
X140149923Y-65112876D01*
X140111219Y-65190285D01*
X140072514Y-65228990D01*
X139995104Y-65267695D01*
X139917695Y-65267695D01*
X139840285Y-65228990D01*
X139801580Y-65190285D01*
X139762876Y-65112876D01*
X139724171Y-64958057D01*
X139724171Y-64764533D01*
X139762876Y-64609714D01*
X139801580Y-64532304D01*
X139840285Y-64493600D01*
X139917695Y-64454895D01*
X140962723Y-65267695D02*
X140498266Y-65267695D01*
X140730495Y-65267695D02*
X140730495Y-64454895D01*
X140653085Y-64571009D01*
X140575676Y-64648419D01*
X140498266Y-64687123D01*
X139338780Y-66267695D02*
X138874323Y-66267695D01*
X139106552Y-66267695D02*
X139106552Y-65454895D01*
X139029142Y-65571009D01*
X138951733Y-65648419D01*
X138874323Y-65687123D01*
X139841942Y-65454895D02*
X139919352Y-65454895D01*
X139996761Y-65493600D01*
X140035466Y-65532304D01*
X140074171Y-65609714D01*
X140112876Y-65764533D01*
X140112876Y-65958057D01*
X140074171Y-66112876D01*
X140035466Y-66190285D01*
X139996761Y-66228990D01*
X139919352Y-66267695D01*
X139841942Y-66267695D01*
X139764533Y-66228990D01*
X139725828Y-66190285D01*
X139687123Y-66112876D01*
X139648419Y-65958057D01*
X139648419Y-65764533D01*
X139687123Y-65609714D01*
X139725828Y-65532304D01*
X139764533Y-65493600D01*
X139841942Y-65454895D01*
X140461219Y-66267695D02*
X140461219Y-65454895D01*
X140925676Y-66267695D02*
X140577333Y-65803238D01*
X140925676Y-65454895D02*
X140461219Y-65919352D01*
X138640438Y-63017695D02*
X138369504Y-62630647D01*
X138175980Y-63017695D02*
X138175980Y-62204895D01*
X138485619Y-62204895D01*
X138563028Y-62243600D01*
X138601733Y-62282304D01*
X138640438Y-62359714D01*
X138640438Y-62475828D01*
X138601733Y-62553238D01*
X138563028Y-62591942D01*
X138485619Y-62630647D01*
X138175980Y-62630647D01*
X138911371Y-62204895D02*
X139414533Y-62204895D01*
X139143600Y-62514533D01*
X139259714Y-62514533D01*
X139337123Y-62553238D01*
X139375828Y-62591942D01*
X139414533Y-62669352D01*
X139414533Y-62862876D01*
X139375828Y-62940285D01*
X139337123Y-62978990D01*
X139259714Y-63017695D01*
X139027485Y-63017695D01*
X138950076Y-62978990D01*
X138911371Y-62940285D01*
X139917695Y-62204895D02*
X139995104Y-62204895D01*
X140072514Y-62243600D01*
X140111219Y-62282304D01*
X140149923Y-62359714D01*
X140188628Y-62514533D01*
X140188628Y-62708057D01*
X140149923Y-62862876D01*
X140111219Y-62940285D01*
X140072514Y-62978990D01*
X139995104Y-63017695D01*
X139917695Y-63017695D01*
X139840285Y-62978990D01*
X139801580Y-62940285D01*
X139762876Y-62862876D01*
X139724171Y-62708057D01*
X139724171Y-62514533D01*
X139762876Y-62359714D01*
X139801580Y-62282304D01*
X139840285Y-62243600D01*
X139917695Y-62204895D01*
X140498266Y-62282304D02*
X140536971Y-62243600D01*
X140614380Y-62204895D01*
X140807904Y-62204895D01*
X140885314Y-62243600D01*
X140924019Y-62282304D01*
X140962723Y-62359714D01*
X140962723Y-62437123D01*
X140924019Y-62553238D01*
X140459561Y-63017695D01*
X140962723Y-63017695D01*
X139338780Y-64117695D02*
X138874323Y-64117695D01*
X139106552Y-64117695D02*
X139106552Y-63304895D01*
X139029142Y-63421009D01*
X138951733Y-63498419D01*
X138874323Y-63537123D01*
X139841942Y-63304895D02*
X139919352Y-63304895D01*
X139996761Y-63343600D01*
X140035466Y-63382304D01*
X140074171Y-63459714D01*
X140112876Y-63614533D01*
X140112876Y-63808057D01*
X140074171Y-63962876D01*
X140035466Y-64040285D01*
X139996761Y-64078990D01*
X139919352Y-64117695D01*
X139841942Y-64117695D01*
X139764533Y-64078990D01*
X139725828Y-64040285D01*
X139687123Y-63962876D01*
X139648419Y-63808057D01*
X139648419Y-63614533D01*
X139687123Y-63459714D01*
X139725828Y-63382304D01*
X139764533Y-63343600D01*
X139841942Y-63304895D01*
X140461219Y-64117695D02*
X140461219Y-63304895D01*
X140925676Y-64117695D02*
X140577333Y-63653238D01*
X140925676Y-63304895D02*
X140461219Y-63769352D01*
X134270438Y-138507695D02*
X133999504Y-138120647D01*
X133805980Y-138507695D02*
X133805980Y-137694895D01*
X134115619Y-137694895D01*
X134193028Y-137733600D01*
X134231733Y-137772304D01*
X134270438Y-137849714D01*
X134270438Y-137965828D01*
X134231733Y-138043238D01*
X134193028Y-138081942D01*
X134115619Y-138120647D01*
X133805980Y-138120647D01*
X134541371Y-137694895D02*
X135044533Y-137694895D01*
X134773600Y-138004533D01*
X134889714Y-138004533D01*
X134967123Y-138043238D01*
X135005828Y-138081942D01*
X135044533Y-138159352D01*
X135044533Y-138352876D01*
X135005828Y-138430285D01*
X134967123Y-138468990D01*
X134889714Y-138507695D01*
X134657485Y-138507695D01*
X134580076Y-138468990D01*
X134541371Y-138430285D01*
X135547695Y-137694895D02*
X135625104Y-137694895D01*
X135702514Y-137733600D01*
X135741219Y-137772304D01*
X135779923Y-137849714D01*
X135818628Y-138004533D01*
X135818628Y-138198057D01*
X135779923Y-138352876D01*
X135741219Y-138430285D01*
X135702514Y-138468990D01*
X135625104Y-138507695D01*
X135547695Y-138507695D01*
X135470285Y-138468990D01*
X135431580Y-138430285D01*
X135392876Y-138352876D01*
X135354171Y-138198057D01*
X135354171Y-138004533D01*
X135392876Y-137849714D01*
X135431580Y-137772304D01*
X135470285Y-137733600D01*
X135547695Y-137694895D01*
X136089561Y-137694895D02*
X136592723Y-137694895D01*
X136321790Y-138004533D01*
X136437904Y-138004533D01*
X136515314Y-138043238D01*
X136554019Y-138081942D01*
X136592723Y-138159352D01*
X136592723Y-138352876D01*
X136554019Y-138430285D01*
X136515314Y-138468990D01*
X136437904Y-138507695D01*
X136205676Y-138507695D01*
X136128266Y-138468990D01*
X136089561Y-138430285D01*
X137988780Y-138717695D02*
X137524323Y-138717695D01*
X137756552Y-138717695D02*
X137756552Y-137904895D01*
X137679142Y-138021009D01*
X137601733Y-138098419D01*
X137524323Y-138137123D01*
X138491942Y-137904895D02*
X138569352Y-137904895D01*
X138646761Y-137943600D01*
X138685466Y-137982304D01*
X138724171Y-138059714D01*
X138762876Y-138214533D01*
X138762876Y-138408057D01*
X138724171Y-138562876D01*
X138685466Y-138640285D01*
X138646761Y-138678990D01*
X138569352Y-138717695D01*
X138491942Y-138717695D01*
X138414533Y-138678990D01*
X138375828Y-138640285D01*
X138337123Y-138562876D01*
X138298419Y-138408057D01*
X138298419Y-138214533D01*
X138337123Y-138059714D01*
X138375828Y-137982304D01*
X138414533Y-137943600D01*
X138491942Y-137904895D01*
X139111219Y-138717695D02*
X139111219Y-137904895D01*
X139575676Y-138717695D02*
X139227333Y-138253238D01*
X139575676Y-137904895D02*
X139111219Y-138369352D01*
X144477695Y-136759561D02*
X144090647Y-137030495D01*
X144477695Y-137224019D02*
X143664895Y-137224019D01*
X143664895Y-136914380D01*
X143703600Y-136836971D01*
X143742304Y-136798266D01*
X143819714Y-136759561D01*
X143935828Y-136759561D01*
X144013238Y-136798266D01*
X144051942Y-136836971D01*
X144090647Y-136914380D01*
X144090647Y-137224019D01*
X143664895Y-136488628D02*
X143664895Y-135985466D01*
X143974533Y-136256400D01*
X143974533Y-136140285D01*
X144013238Y-136062876D01*
X144051942Y-136024171D01*
X144129352Y-135985466D01*
X144322876Y-135985466D01*
X144400285Y-136024171D01*
X144438990Y-136062876D01*
X144477695Y-136140285D01*
X144477695Y-136372514D01*
X144438990Y-136449923D01*
X144400285Y-136488628D01*
X143664895Y-135482304D02*
X143664895Y-135404895D01*
X143703600Y-135327485D01*
X143742304Y-135288780D01*
X143819714Y-135250076D01*
X143974533Y-135211371D01*
X144168057Y-135211371D01*
X144322876Y-135250076D01*
X144400285Y-135288780D01*
X144438990Y-135327485D01*
X144477695Y-135404895D01*
X144477695Y-135482304D01*
X144438990Y-135559714D01*
X144400285Y-135598419D01*
X144322876Y-135637123D01*
X144168057Y-135675828D01*
X143974533Y-135675828D01*
X143819714Y-135637123D01*
X143742304Y-135598419D01*
X143703600Y-135559714D01*
X143664895Y-135482304D01*
X143935828Y-134514685D02*
X144477695Y-134514685D01*
X143626190Y-134708209D02*
X144206761Y-134901733D01*
X144206761Y-134398571D01*
X141488780Y-138717695D02*
X141024323Y-138717695D01*
X141256552Y-138717695D02*
X141256552Y-137904895D01*
X141179142Y-138021009D01*
X141101733Y-138098419D01*
X141024323Y-138137123D01*
X141991942Y-137904895D02*
X142069352Y-137904895D01*
X142146761Y-137943600D01*
X142185466Y-137982304D01*
X142224171Y-138059714D01*
X142262876Y-138214533D01*
X142262876Y-138408057D01*
X142224171Y-138562876D01*
X142185466Y-138640285D01*
X142146761Y-138678990D01*
X142069352Y-138717695D01*
X141991942Y-138717695D01*
X141914533Y-138678990D01*
X141875828Y-138640285D01*
X141837123Y-138562876D01*
X141798419Y-138408057D01*
X141798419Y-138214533D01*
X141837123Y-138059714D01*
X141875828Y-137982304D01*
X141914533Y-137943600D01*
X141991942Y-137904895D01*
X142611219Y-138717695D02*
X142611219Y-137904895D01*
X143075676Y-138717695D02*
X142727333Y-138253238D01*
X143075676Y-137904895D02*
X142611219Y-138369352D01*
X164217695Y-104779561D02*
X163830647Y-105050495D01*
X164217695Y-105244019D02*
X163404895Y-105244019D01*
X163404895Y-104934380D01*
X163443600Y-104856971D01*
X163482304Y-104818266D01*
X163559714Y-104779561D01*
X163675828Y-104779561D01*
X163753238Y-104818266D01*
X163791942Y-104856971D01*
X163830647Y-104934380D01*
X163830647Y-105244019D01*
X163675828Y-104082876D02*
X164217695Y-104082876D01*
X163366190Y-104276400D02*
X163946761Y-104469923D01*
X163946761Y-103966761D01*
X163404895Y-103502304D02*
X163404895Y-103424895D01*
X163443600Y-103347485D01*
X163482304Y-103308780D01*
X163559714Y-103270076D01*
X163714533Y-103231371D01*
X163908057Y-103231371D01*
X164062876Y-103270076D01*
X164140285Y-103308780D01*
X164178990Y-103347485D01*
X164217695Y-103424895D01*
X164217695Y-103502304D01*
X164178990Y-103579714D01*
X164140285Y-103618419D01*
X164062876Y-103657123D01*
X163908057Y-103695828D01*
X163714533Y-103695828D01*
X163559714Y-103657123D01*
X163482304Y-103618419D01*
X163443600Y-103579714D01*
X163404895Y-103502304D01*
X164217695Y-102457276D02*
X164217695Y-102921733D01*
X164217695Y-102689504D02*
X163404895Y-102689504D01*
X163521009Y-102766914D01*
X163598419Y-102844323D01*
X163637123Y-102921733D01*
X164167695Y-101424171D02*
X164167695Y-101888628D01*
X164167695Y-101656400D02*
X163354895Y-101656400D01*
X163471009Y-101733809D01*
X163548419Y-101811219D01*
X163587123Y-101888628D01*
X164167695Y-101075828D02*
X163354895Y-101075828D01*
X164167695Y-100611371D02*
X163703238Y-100959714D01*
X163354895Y-100611371D02*
X163819352Y-101075828D01*
X167437695Y-104769561D02*
X167050647Y-105040495D01*
X167437695Y-105234019D02*
X166624895Y-105234019D01*
X166624895Y-104924380D01*
X166663600Y-104846971D01*
X166702304Y-104808266D01*
X166779714Y-104769561D01*
X166895828Y-104769561D01*
X166973238Y-104808266D01*
X167011942Y-104846971D01*
X167050647Y-104924380D01*
X167050647Y-105234019D01*
X166895828Y-104072876D02*
X167437695Y-104072876D01*
X166586190Y-104266400D02*
X167166761Y-104459923D01*
X167166761Y-103956761D01*
X166624895Y-103492304D02*
X166624895Y-103414895D01*
X166663600Y-103337485D01*
X166702304Y-103298780D01*
X166779714Y-103260076D01*
X166934533Y-103221371D01*
X167128057Y-103221371D01*
X167282876Y-103260076D01*
X167360285Y-103298780D01*
X167398990Y-103337485D01*
X167437695Y-103414895D01*
X167437695Y-103492304D01*
X167398990Y-103569714D01*
X167360285Y-103608419D01*
X167282876Y-103647123D01*
X167128057Y-103685828D01*
X166934533Y-103685828D01*
X166779714Y-103647123D01*
X166702304Y-103608419D01*
X166663600Y-103569714D01*
X166624895Y-103492304D01*
X166702304Y-102911733D02*
X166663600Y-102873028D01*
X166624895Y-102795619D01*
X166624895Y-102602095D01*
X166663600Y-102524685D01*
X166702304Y-102485980D01*
X166779714Y-102447276D01*
X166857123Y-102447276D01*
X166973238Y-102485980D01*
X167437695Y-102950438D01*
X167437695Y-102447276D01*
X167367695Y-101424171D02*
X167367695Y-101888628D01*
X167367695Y-101656400D02*
X166554895Y-101656400D01*
X166671009Y-101733809D01*
X166748419Y-101811219D01*
X166787123Y-101888628D01*
X167367695Y-101075828D02*
X166554895Y-101075828D01*
X167367695Y-100611371D02*
X166903238Y-100959714D01*
X166554895Y-100611371D02*
X167019352Y-101075828D01*
X139256628Y-122004895D02*
X139256628Y-122662876D01*
X139295333Y-122740285D01*
X139334038Y-122778990D01*
X139411447Y-122817695D01*
X139566266Y-122817695D01*
X139643676Y-122778990D01*
X139682380Y-122740285D01*
X139721085Y-122662876D01*
X139721085Y-122004895D01*
X140030723Y-122004895D02*
X140533885Y-122004895D01*
X140262952Y-122314533D01*
X140379066Y-122314533D01*
X140456476Y-122353238D01*
X140495180Y-122391942D01*
X140533885Y-122469352D01*
X140533885Y-122662876D01*
X140495180Y-122740285D01*
X140456476Y-122778990D01*
X140379066Y-122817695D01*
X140146838Y-122817695D01*
X140069428Y-122778990D01*
X140030723Y-122740285D01*
X141037047Y-122004895D02*
X141114457Y-122004895D01*
X141191866Y-122043600D01*
X141230571Y-122082304D01*
X141269276Y-122159714D01*
X141307980Y-122314533D01*
X141307980Y-122508057D01*
X141269276Y-122662876D01*
X141230571Y-122740285D01*
X141191866Y-122778990D01*
X141114457Y-122817695D01*
X141037047Y-122817695D01*
X140959638Y-122778990D01*
X140920933Y-122740285D01*
X140882228Y-122662876D01*
X140843523Y-122508057D01*
X140843523Y-122314533D01*
X140882228Y-122159714D01*
X140920933Y-122082304D01*
X140959638Y-122043600D01*
X141037047Y-122004895D01*
X142082076Y-122817695D02*
X141617619Y-122817695D01*
X141849847Y-122817695D02*
X141849847Y-122004895D01*
X141772438Y-122121009D01*
X141695028Y-122198419D01*
X141617619Y-122237123D01*
X136344057Y-121667695D02*
X135957009Y-121667695D01*
X135957009Y-120854895D01*
X136614990Y-121667695D02*
X136614990Y-120854895D01*
X136924628Y-120854895D01*
X137002038Y-120893600D01*
X137040742Y-120932304D01*
X137079447Y-121009714D01*
X137079447Y-121125828D01*
X137040742Y-121203238D01*
X137002038Y-121241942D01*
X136924628Y-121280647D01*
X136614990Y-121280647D01*
X137892247Y-121590285D02*
X137853542Y-121628990D01*
X137737428Y-121667695D01*
X137660019Y-121667695D01*
X137543904Y-121628990D01*
X137466495Y-121551580D01*
X137427790Y-121474171D01*
X137389085Y-121319352D01*
X137389085Y-121203238D01*
X137427790Y-121048419D01*
X137466495Y-120971009D01*
X137543904Y-120893600D01*
X137660019Y-120854895D01*
X137737428Y-120854895D01*
X137853542Y-120893600D01*
X137892247Y-120932304D01*
X138666342Y-121667695D02*
X138201885Y-121667695D01*
X138434114Y-121667695D02*
X138434114Y-120854895D01*
X138356704Y-120971009D01*
X138279295Y-121048419D01*
X138201885Y-121087123D01*
X139401733Y-120854895D02*
X139014685Y-120854895D01*
X138975980Y-121241942D01*
X139014685Y-121203238D01*
X139092095Y-121164533D01*
X139285619Y-121164533D01*
X139363028Y-121203238D01*
X139401733Y-121241942D01*
X139440438Y-121319352D01*
X139440438Y-121512876D01*
X139401733Y-121590285D01*
X139363028Y-121628990D01*
X139285619Y-121667695D01*
X139092095Y-121667695D01*
X139014685Y-121628990D01*
X138975980Y-121590285D01*
X140137123Y-121125828D02*
X140137123Y-121667695D01*
X139943600Y-120816190D02*
X139750076Y-121396761D01*
X140253238Y-121396761D01*
X140601580Y-121667695D02*
X140756400Y-121667695D01*
X140833809Y-121628990D01*
X140872514Y-121590285D01*
X140949923Y-121474171D01*
X140988628Y-121319352D01*
X140988628Y-121009714D01*
X140949923Y-120932304D01*
X140911219Y-120893600D01*
X140833809Y-120854895D01*
X140678990Y-120854895D01*
X140601580Y-120893600D01*
X140562876Y-120932304D01*
X140524171Y-121009714D01*
X140524171Y-121203238D01*
X140562876Y-121280647D01*
X140601580Y-121319352D01*
X140678990Y-121358057D01*
X140833809Y-121358057D01*
X140911219Y-121319352D01*
X140949923Y-121280647D01*
X140988628Y-121203238D01*
X141569200Y-120854895D02*
X141569200Y-121435466D01*
X141530495Y-121551580D01*
X141453085Y-121628990D01*
X141336971Y-121667695D01*
X141259561Y-121667695D01*
X142227180Y-121241942D02*
X142343295Y-121280647D01*
X142382000Y-121319352D01*
X142420704Y-121396761D01*
X142420704Y-121512876D01*
X142382000Y-121590285D01*
X142343295Y-121628990D01*
X142265885Y-121667695D01*
X141956247Y-121667695D01*
X141956247Y-120854895D01*
X142227180Y-120854895D01*
X142304590Y-120893600D01*
X142343295Y-120932304D01*
X142382000Y-121009714D01*
X142382000Y-121087123D01*
X142343295Y-121164533D01*
X142304590Y-121203238D01*
X142227180Y-121241942D01*
X141956247Y-121241942D01*
X142769047Y-121667695D02*
X142769047Y-120854895D01*
X142962571Y-120854895D01*
X143078685Y-120893600D01*
X143156095Y-120971009D01*
X143194800Y-121048419D01*
X143233504Y-121203238D01*
X143233504Y-121319352D01*
X143194800Y-121474171D01*
X143156095Y-121551580D01*
X143078685Y-121628990D01*
X142962571Y-121667695D01*
X142769047Y-121667695D01*
X143930190Y-120854895D02*
X143775371Y-120854895D01*
X143697961Y-120893600D01*
X143659257Y-120932304D01*
X143581847Y-121048419D01*
X143543142Y-121203238D01*
X143543142Y-121512876D01*
X143581847Y-121590285D01*
X143620552Y-121628990D01*
X143697961Y-121667695D01*
X143852780Y-121667695D01*
X143930190Y-121628990D01*
X143968895Y-121590285D01*
X144007600Y-121512876D01*
X144007600Y-121319352D01*
X143968895Y-121241942D01*
X143930190Y-121203238D01*
X143852780Y-121164533D01*
X143697961Y-121164533D01*
X143620552Y-121203238D01*
X143581847Y-121241942D01*
X143543142Y-121319352D01*
X144704285Y-121125828D02*
X144704285Y-121667695D01*
X144510761Y-120816190D02*
X144317238Y-121396761D01*
X144820400Y-121396761D01*
X145436628Y-128544895D02*
X145436628Y-129202876D01*
X145475333Y-129280285D01*
X145514038Y-129318990D01*
X145591447Y-129357695D01*
X145746266Y-129357695D01*
X145823676Y-129318990D01*
X145862380Y-129280285D01*
X145901085Y-129202876D01*
X145901085Y-128544895D01*
X146210723Y-128544895D02*
X146713885Y-128544895D01*
X146442952Y-128854533D01*
X146559066Y-128854533D01*
X146636476Y-128893238D01*
X146675180Y-128931942D01*
X146713885Y-129009352D01*
X146713885Y-129202876D01*
X146675180Y-129280285D01*
X146636476Y-129318990D01*
X146559066Y-129357695D01*
X146326838Y-129357695D01*
X146249428Y-129318990D01*
X146210723Y-129280285D01*
X147217047Y-128544895D02*
X147294457Y-128544895D01*
X147371866Y-128583600D01*
X147410571Y-128622304D01*
X147449276Y-128699714D01*
X147487980Y-128854533D01*
X147487980Y-129048057D01*
X147449276Y-129202876D01*
X147410571Y-129280285D01*
X147371866Y-129318990D01*
X147294457Y-129357695D01*
X147217047Y-129357695D01*
X147139638Y-129318990D01*
X147100933Y-129280285D01*
X147062228Y-129202876D01*
X147023523Y-129048057D01*
X147023523Y-128854533D01*
X147062228Y-128699714D01*
X147100933Y-128622304D01*
X147139638Y-128583600D01*
X147217047Y-128544895D01*
X147797619Y-128622304D02*
X147836323Y-128583600D01*
X147913733Y-128544895D01*
X148107257Y-128544895D01*
X148184666Y-128583600D01*
X148223371Y-128622304D01*
X148262076Y-128699714D01*
X148262076Y-128777123D01*
X148223371Y-128893238D01*
X147758914Y-129357695D01*
X148262076Y-129357695D01*
D20*
X163485714Y-86752380D02*
X163485714Y-87561904D01*
X163533333Y-87657142D01*
X163580952Y-87704761D01*
X163676190Y-87752380D01*
X163866666Y-87752380D01*
X163961904Y-87704761D01*
X164009523Y-87657142D01*
X164057142Y-87561904D01*
X164057142Y-86752380D01*
X164961904Y-87085714D02*
X164961904Y-87752380D01*
X164723809Y-86704761D02*
X164485714Y-87419047D01*
X165104761Y-87419047D01*
X165676190Y-86752380D02*
X165771428Y-86752380D01*
X165866666Y-86800000D01*
X165914285Y-86847619D01*
X165961904Y-86942857D01*
X166009523Y-87133333D01*
X166009523Y-87371428D01*
X165961904Y-87561904D01*
X165914285Y-87657142D01*
X165866666Y-87704761D01*
X165771428Y-87752380D01*
X165676190Y-87752380D01*
X165580952Y-87704761D01*
X165533333Y-87657142D01*
X165485714Y-87561904D01*
X165438095Y-87371428D01*
X165438095Y-87133333D01*
X165485714Y-86942857D01*
X165533333Y-86847619D01*
X165580952Y-86800000D01*
X165676190Y-86752380D01*
X166961904Y-87752380D02*
X166390476Y-87752380D01*
X166676190Y-87752380D02*
X166676190Y-86752380D01*
X166580952Y-86895238D01*
X166485714Y-86990476D01*
X166390476Y-87038095D01*
X168975714Y-86842380D02*
X168975714Y-87651904D01*
X169023333Y-87747142D01*
X169070952Y-87794761D01*
X169166190Y-87842380D01*
X169356666Y-87842380D01*
X169451904Y-87794761D01*
X169499523Y-87747142D01*
X169547142Y-87651904D01*
X169547142Y-86842380D01*
X170070952Y-87842380D02*
X170261428Y-87842380D01*
X170356666Y-87794761D01*
X170404285Y-87747142D01*
X170499523Y-87604285D01*
X170547142Y-87413809D01*
X170547142Y-87032857D01*
X170499523Y-86937619D01*
X170451904Y-86890000D01*
X170356666Y-86842380D01*
X170166190Y-86842380D01*
X170070952Y-86890000D01*
X170023333Y-86937619D01*
X169975714Y-87032857D01*
X169975714Y-87270952D01*
X170023333Y-87366190D01*
X170070952Y-87413809D01*
X170166190Y-87461428D01*
X170356666Y-87461428D01*
X170451904Y-87413809D01*
X170499523Y-87366190D01*
X170547142Y-87270952D01*
X171166190Y-86842380D02*
X171261428Y-86842380D01*
X171356666Y-86890000D01*
X171404285Y-86937619D01*
X171451904Y-87032857D01*
X171499523Y-87223333D01*
X171499523Y-87461428D01*
X171451904Y-87651904D01*
X171404285Y-87747142D01*
X171356666Y-87794761D01*
X171261428Y-87842380D01*
X171166190Y-87842380D01*
X171070952Y-87794761D01*
X171023333Y-87747142D01*
X170975714Y-87651904D01*
X170928095Y-87461428D01*
X170928095Y-87223333D01*
X170975714Y-87032857D01*
X171023333Y-86937619D01*
X171070952Y-86890000D01*
X171166190Y-86842380D01*
X172451904Y-87842380D02*
X171880476Y-87842380D01*
X172166190Y-87842380D02*
X172166190Y-86842380D01*
X172070952Y-86985238D01*
X171975714Y-87080476D01*
X171880476Y-87128095D01*
D19*
X130934895Y-134062076D02*
X131747695Y-133520209D01*
X130934895Y-133520209D02*
X131747695Y-134062076D01*
X130934895Y-133287980D02*
X130934895Y-132784819D01*
X131244533Y-133055752D01*
X131244533Y-132939638D01*
X131283238Y-132862228D01*
X131321942Y-132823523D01*
X131399352Y-132784819D01*
X131592876Y-132784819D01*
X131670285Y-132823523D01*
X131708990Y-132862228D01*
X131747695Y-132939638D01*
X131747695Y-133171866D01*
X131708990Y-133249276D01*
X131670285Y-133287980D01*
X130934895Y-132281657D02*
X130934895Y-132204247D01*
X130973600Y-132126838D01*
X131012304Y-132088133D01*
X131089714Y-132049428D01*
X131244533Y-132010723D01*
X131438057Y-132010723D01*
X131592876Y-132049428D01*
X131670285Y-132088133D01*
X131708990Y-132126838D01*
X131747695Y-132204247D01*
X131747695Y-132281657D01*
X131708990Y-132359066D01*
X131670285Y-132397771D01*
X131592876Y-132436476D01*
X131438057Y-132475180D01*
X131244533Y-132475180D01*
X131089714Y-132436476D01*
X131012304Y-132397771D01*
X130973600Y-132359066D01*
X130934895Y-132281657D01*
X131747695Y-131236628D02*
X131747695Y-131701085D01*
X131747695Y-131468857D02*
X130934895Y-131468857D01*
X131051009Y-131546266D01*
X131128419Y-131623676D01*
X131167123Y-131701085D01*
D20*
X158140952Y-132637142D02*
X158093333Y-132684761D01*
X157950476Y-132732380D01*
X157855238Y-132732380D01*
X157712380Y-132684761D01*
X157617142Y-132589523D01*
X157569523Y-132494285D01*
X157521904Y-132303809D01*
X157521904Y-132160952D01*
X157569523Y-131970476D01*
X157617142Y-131875238D01*
X157712380Y-131780000D01*
X157855238Y-131732380D01*
X157950476Y-131732380D01*
X158093333Y-131780000D01*
X158140952Y-131827619D01*
X158521904Y-131827619D02*
X158569523Y-131780000D01*
X158664761Y-131732380D01*
X158902857Y-131732380D01*
X158998095Y-131780000D01*
X159045714Y-131827619D01*
X159093333Y-131922857D01*
X159093333Y-132018095D01*
X159045714Y-132160952D01*
X158474285Y-132732380D01*
X159093333Y-132732380D01*
X159712380Y-131732380D02*
X159807619Y-131732380D01*
X159902857Y-131780000D01*
X159950476Y-131827619D01*
X159998095Y-131922857D01*
X160045714Y-132113333D01*
X160045714Y-132351428D01*
X159998095Y-132541904D01*
X159950476Y-132637142D01*
X159902857Y-132684761D01*
X159807619Y-132732380D01*
X159712380Y-132732380D01*
X159617142Y-132684761D01*
X159569523Y-132637142D01*
X159521904Y-132541904D01*
X159474285Y-132351428D01*
X159474285Y-132113333D01*
X159521904Y-131922857D01*
X159569523Y-131827619D01*
X159617142Y-131780000D01*
X159712380Y-131732380D01*
X160902857Y-132065714D02*
X160902857Y-132732380D01*
X160664761Y-131684761D02*
X160426666Y-132399047D01*
X161045714Y-132399047D01*
X167380952Y-132002380D02*
X166904761Y-132002380D01*
X166904761Y-131002380D01*
X167666666Y-131097619D02*
X167714285Y-131050000D01*
X167809523Y-131002380D01*
X168047619Y-131002380D01*
X168142857Y-131050000D01*
X168190476Y-131097619D01*
X168238095Y-131192857D01*
X168238095Y-131288095D01*
X168190476Y-131430952D01*
X167619047Y-132002380D01*
X168238095Y-132002380D01*
X168857142Y-131002380D02*
X168952380Y-131002380D01*
X169047619Y-131050000D01*
X169095238Y-131097619D01*
X169142857Y-131192857D01*
X169190476Y-131383333D01*
X169190476Y-131621428D01*
X169142857Y-131811904D01*
X169095238Y-131907142D01*
X169047619Y-131954761D01*
X168952380Y-132002380D01*
X168857142Y-132002380D01*
X168761904Y-131954761D01*
X168714285Y-131907142D01*
X168666666Y-131811904D01*
X168619047Y-131621428D01*
X168619047Y-131383333D01*
X168666666Y-131192857D01*
X168714285Y-131097619D01*
X168761904Y-131050000D01*
X168857142Y-131002380D01*
X170142857Y-132002380D02*
X169571428Y-132002380D01*
X169857142Y-132002380D02*
X169857142Y-131002380D01*
X169761904Y-131145238D01*
X169666666Y-131240476D01*
X169571428Y-131288095D01*
D19*
X175111523Y-134954895D02*
X175382457Y-135767695D01*
X175653390Y-134954895D01*
X176388780Y-135767695D02*
X176117847Y-135380647D01*
X175924323Y-135767695D02*
X175924323Y-134954895D01*
X176233961Y-134954895D01*
X176311371Y-134993600D01*
X176350076Y-135032304D01*
X176388780Y-135109714D01*
X176388780Y-135225828D01*
X176350076Y-135303238D01*
X176311371Y-135341942D01*
X176233961Y-135380647D01*
X175924323Y-135380647D01*
X176698419Y-135032304D02*
X176737123Y-134993600D01*
X176814533Y-134954895D01*
X177008057Y-134954895D01*
X177085466Y-134993600D01*
X177124171Y-135032304D01*
X177162876Y-135109714D01*
X177162876Y-135187123D01*
X177124171Y-135303238D01*
X176659714Y-135767695D01*
X177162876Y-135767695D01*
X177666038Y-134954895D02*
X177743447Y-134954895D01*
X177820857Y-134993600D01*
X177859561Y-135032304D01*
X177898266Y-135109714D01*
X177936971Y-135264533D01*
X177936971Y-135458057D01*
X177898266Y-135612876D01*
X177859561Y-135690285D01*
X177820857Y-135728990D01*
X177743447Y-135767695D01*
X177666038Y-135767695D01*
X177588628Y-135728990D01*
X177549923Y-135690285D01*
X177511219Y-135612876D01*
X177472514Y-135458057D01*
X177472514Y-135264533D01*
X177511219Y-135109714D01*
X177549923Y-135032304D01*
X177588628Y-134993600D01*
X177666038Y-134954895D01*
X178711066Y-135767695D02*
X178246609Y-135767695D01*
X178478838Y-135767695D02*
X178478838Y-134954895D01*
X178401428Y-135071009D01*
X178324019Y-135148419D01*
X178246609Y-135187123D01*
D20*
X174089523Y-118202380D02*
X174089523Y-117202380D01*
X174327619Y-117202380D01*
X174470476Y-117250000D01*
X174565714Y-117345238D01*
X174613333Y-117440476D01*
X174660952Y-117630952D01*
X174660952Y-117773809D01*
X174613333Y-117964285D01*
X174565714Y-118059523D01*
X174470476Y-118154761D01*
X174327619Y-118202380D01*
X174089523Y-118202380D01*
X175041904Y-117297619D02*
X175089523Y-117250000D01*
X175184761Y-117202380D01*
X175422857Y-117202380D01*
X175518095Y-117250000D01*
X175565714Y-117297619D01*
X175613333Y-117392857D01*
X175613333Y-117488095D01*
X175565714Y-117630952D01*
X174994285Y-118202380D01*
X175613333Y-118202380D01*
X176232380Y-117202380D02*
X176327619Y-117202380D01*
X176422857Y-117250000D01*
X176470476Y-117297619D01*
X176518095Y-117392857D01*
X176565714Y-117583333D01*
X176565714Y-117821428D01*
X176518095Y-118011904D01*
X176470476Y-118107142D01*
X176422857Y-118154761D01*
X176327619Y-118202380D01*
X176232380Y-118202380D01*
X176137142Y-118154761D01*
X176089523Y-118107142D01*
X176041904Y-118011904D01*
X175994285Y-117821428D01*
X175994285Y-117583333D01*
X176041904Y-117392857D01*
X176089523Y-117297619D01*
X176137142Y-117250000D01*
X176232380Y-117202380D01*
X177422857Y-117535714D02*
X177422857Y-118202380D01*
X177184761Y-117154761D02*
X176946666Y-117869047D01*
X177565714Y-117869047D01*
X158469523Y-118312380D02*
X158469523Y-117312380D01*
X158707619Y-117312380D01*
X158850476Y-117360000D01*
X158945714Y-117455238D01*
X158993333Y-117550476D01*
X159040952Y-117740952D01*
X159040952Y-117883809D01*
X158993333Y-118074285D01*
X158945714Y-118169523D01*
X158850476Y-118264761D01*
X158707619Y-118312380D01*
X158469523Y-118312380D01*
X159421904Y-117407619D02*
X159469523Y-117360000D01*
X159564761Y-117312380D01*
X159802857Y-117312380D01*
X159898095Y-117360000D01*
X159945714Y-117407619D01*
X159993333Y-117502857D01*
X159993333Y-117598095D01*
X159945714Y-117740952D01*
X159374285Y-118312380D01*
X159993333Y-118312380D01*
X160612380Y-117312380D02*
X160707619Y-117312380D01*
X160802857Y-117360000D01*
X160850476Y-117407619D01*
X160898095Y-117502857D01*
X160945714Y-117693333D01*
X160945714Y-117931428D01*
X160898095Y-118121904D01*
X160850476Y-118217142D01*
X160802857Y-118264761D01*
X160707619Y-118312380D01*
X160612380Y-118312380D01*
X160517142Y-118264761D01*
X160469523Y-118217142D01*
X160421904Y-118121904D01*
X160374285Y-117931428D01*
X160374285Y-117693333D01*
X160421904Y-117502857D01*
X160469523Y-117407619D01*
X160517142Y-117360000D01*
X160612380Y-117312380D01*
X161850476Y-117312380D02*
X161374285Y-117312380D01*
X161326666Y-117788571D01*
X161374285Y-117740952D01*
X161469523Y-117693333D01*
X161707619Y-117693333D01*
X161802857Y-117740952D01*
X161850476Y-117788571D01*
X161898095Y-117883809D01*
X161898095Y-118121904D01*
X161850476Y-118217142D01*
X161802857Y-118264761D01*
X161707619Y-118312380D01*
X161469523Y-118312380D01*
X161374285Y-118264761D01*
X161326666Y-118217142D01*
D19*
X161027695Y-104809561D02*
X160640647Y-105080495D01*
X161027695Y-105274019D02*
X160214895Y-105274019D01*
X160214895Y-104964380D01*
X160253600Y-104886971D01*
X160292304Y-104848266D01*
X160369714Y-104809561D01*
X160485828Y-104809561D01*
X160563238Y-104848266D01*
X160601942Y-104886971D01*
X160640647Y-104964380D01*
X160640647Y-105274019D01*
X160485828Y-104112876D02*
X161027695Y-104112876D01*
X160176190Y-104306400D02*
X160756761Y-104499923D01*
X160756761Y-103996761D01*
X160214895Y-103532304D02*
X160214895Y-103454895D01*
X160253600Y-103377485D01*
X160292304Y-103338780D01*
X160369714Y-103300076D01*
X160524533Y-103261371D01*
X160718057Y-103261371D01*
X160872876Y-103300076D01*
X160950285Y-103338780D01*
X160988990Y-103377485D01*
X161027695Y-103454895D01*
X161027695Y-103532304D01*
X160988990Y-103609714D01*
X160950285Y-103648419D01*
X160872876Y-103687123D01*
X160718057Y-103725828D01*
X160524533Y-103725828D01*
X160369714Y-103687123D01*
X160292304Y-103648419D01*
X160253600Y-103609714D01*
X160214895Y-103532304D01*
X160214895Y-102990438D02*
X160214895Y-102487276D01*
X160524533Y-102758209D01*
X160524533Y-102642095D01*
X160563238Y-102564685D01*
X160601942Y-102525980D01*
X160679352Y-102487276D01*
X160872876Y-102487276D01*
X160950285Y-102525980D01*
X160988990Y-102564685D01*
X161027695Y-102642095D01*
X161027695Y-102874323D01*
X160988990Y-102951733D01*
X160950285Y-102990438D01*
X160917695Y-101024171D02*
X160917695Y-101488628D01*
X160917695Y-101256400D02*
X160104895Y-101256400D01*
X160221009Y-101333809D01*
X160298419Y-101411219D01*
X160337123Y-101488628D01*
X160917695Y-100675828D02*
X160104895Y-100675828D01*
X160917695Y-100211371D02*
X160453238Y-100559714D01*
X160104895Y-100211371D02*
X160569352Y-100675828D01*
X159257695Y-104799561D02*
X158870647Y-105070495D01*
X159257695Y-105264019D02*
X158444895Y-105264019D01*
X158444895Y-104954380D01*
X158483600Y-104876971D01*
X158522304Y-104838266D01*
X158599714Y-104799561D01*
X158715828Y-104799561D01*
X158793238Y-104838266D01*
X158831942Y-104876971D01*
X158870647Y-104954380D01*
X158870647Y-105264019D01*
X158715828Y-104102876D02*
X159257695Y-104102876D01*
X158406190Y-104296400D02*
X158986761Y-104489923D01*
X158986761Y-103986761D01*
X158444895Y-103522304D02*
X158444895Y-103444895D01*
X158483600Y-103367485D01*
X158522304Y-103328780D01*
X158599714Y-103290076D01*
X158754533Y-103251371D01*
X158948057Y-103251371D01*
X159102876Y-103290076D01*
X159180285Y-103328780D01*
X159218990Y-103367485D01*
X159257695Y-103444895D01*
X159257695Y-103522304D01*
X159218990Y-103599714D01*
X159180285Y-103638419D01*
X159102876Y-103677123D01*
X158948057Y-103715828D01*
X158754533Y-103715828D01*
X158599714Y-103677123D01*
X158522304Y-103638419D01*
X158483600Y-103599714D01*
X158444895Y-103522304D01*
X158715828Y-102554685D02*
X159257695Y-102554685D01*
X158406190Y-102748209D02*
X158986761Y-102941733D01*
X158986761Y-102438571D01*
X159217695Y-101024171D02*
X159217695Y-101488628D01*
X159217695Y-101256400D02*
X158404895Y-101256400D01*
X158521009Y-101333809D01*
X158598419Y-101411219D01*
X158637123Y-101488628D01*
X159217695Y-100675828D02*
X158404895Y-100675828D01*
X159217695Y-100211371D02*
X158753238Y-100559714D01*
X158404895Y-100211371D02*
X158869352Y-100675828D01*
X170767695Y-104769561D02*
X170380647Y-105040495D01*
X170767695Y-105234019D02*
X169954895Y-105234019D01*
X169954895Y-104924380D01*
X169993600Y-104846971D01*
X170032304Y-104808266D01*
X170109714Y-104769561D01*
X170225828Y-104769561D01*
X170303238Y-104808266D01*
X170341942Y-104846971D01*
X170380647Y-104924380D01*
X170380647Y-105234019D01*
X170767695Y-104382514D02*
X170767695Y-104227695D01*
X170728990Y-104150285D01*
X170690285Y-104111580D01*
X170574171Y-104034171D01*
X170419352Y-103995466D01*
X170109714Y-103995466D01*
X170032304Y-104034171D01*
X169993600Y-104072876D01*
X169954895Y-104150285D01*
X169954895Y-104305104D01*
X169993600Y-104382514D01*
X170032304Y-104421219D01*
X170109714Y-104459923D01*
X170303238Y-104459923D01*
X170380647Y-104421219D01*
X170419352Y-104382514D01*
X170458057Y-104305104D01*
X170458057Y-104150285D01*
X170419352Y-104072876D01*
X170380647Y-104034171D01*
X170303238Y-103995466D01*
X169954895Y-103492304D02*
X169954895Y-103414895D01*
X169993600Y-103337485D01*
X170032304Y-103298780D01*
X170109714Y-103260076D01*
X170264533Y-103221371D01*
X170458057Y-103221371D01*
X170612876Y-103260076D01*
X170690285Y-103298780D01*
X170728990Y-103337485D01*
X170767695Y-103414895D01*
X170767695Y-103492304D01*
X170728990Y-103569714D01*
X170690285Y-103608419D01*
X170612876Y-103647123D01*
X170458057Y-103685828D01*
X170264533Y-103685828D01*
X170109714Y-103647123D01*
X170032304Y-103608419D01*
X169993600Y-103569714D01*
X169954895Y-103492304D01*
X169954895Y-102950438D02*
X169954895Y-102447276D01*
X170264533Y-102718209D01*
X170264533Y-102602095D01*
X170303238Y-102524685D01*
X170341942Y-102485980D01*
X170419352Y-102447276D01*
X170612876Y-102447276D01*
X170690285Y-102485980D01*
X170728990Y-102524685D01*
X170767695Y-102602095D01*
X170767695Y-102834323D01*
X170728990Y-102911733D01*
X170690285Y-102950438D01*
X170667695Y-101124171D02*
X170667695Y-101588628D01*
X170667695Y-101356400D02*
X169854895Y-101356400D01*
X169971009Y-101433809D01*
X170048419Y-101511219D01*
X170087123Y-101588628D01*
X170667695Y-100775828D02*
X169854895Y-100775828D01*
X170667695Y-100311371D02*
X170203238Y-100659714D01*
X169854895Y-100311371D02*
X170319352Y-100775828D01*
X169087695Y-104799561D02*
X168700647Y-105070495D01*
X169087695Y-105264019D02*
X168274895Y-105264019D01*
X168274895Y-104954380D01*
X168313600Y-104876971D01*
X168352304Y-104838266D01*
X168429714Y-104799561D01*
X168545828Y-104799561D01*
X168623238Y-104838266D01*
X168661942Y-104876971D01*
X168700647Y-104954380D01*
X168700647Y-105264019D01*
X169087695Y-104412514D02*
X169087695Y-104257695D01*
X169048990Y-104180285D01*
X169010285Y-104141580D01*
X168894171Y-104064171D01*
X168739352Y-104025466D01*
X168429714Y-104025466D01*
X168352304Y-104064171D01*
X168313600Y-104102876D01*
X168274895Y-104180285D01*
X168274895Y-104335104D01*
X168313600Y-104412514D01*
X168352304Y-104451219D01*
X168429714Y-104489923D01*
X168623238Y-104489923D01*
X168700647Y-104451219D01*
X168739352Y-104412514D01*
X168778057Y-104335104D01*
X168778057Y-104180285D01*
X168739352Y-104102876D01*
X168700647Y-104064171D01*
X168623238Y-104025466D01*
X168274895Y-103522304D02*
X168274895Y-103444895D01*
X168313600Y-103367485D01*
X168352304Y-103328780D01*
X168429714Y-103290076D01*
X168584533Y-103251371D01*
X168778057Y-103251371D01*
X168932876Y-103290076D01*
X169010285Y-103328780D01*
X169048990Y-103367485D01*
X169087695Y-103444895D01*
X169087695Y-103522304D01*
X169048990Y-103599714D01*
X169010285Y-103638419D01*
X168932876Y-103677123D01*
X168778057Y-103715828D01*
X168584533Y-103715828D01*
X168429714Y-103677123D01*
X168352304Y-103638419D01*
X168313600Y-103599714D01*
X168274895Y-103522304D01*
X168545828Y-102554685D02*
X169087695Y-102554685D01*
X168236190Y-102748209D02*
X168816761Y-102941733D01*
X168816761Y-102438571D01*
X169017695Y-101074171D02*
X169017695Y-101538628D01*
X169017695Y-101306400D02*
X168204895Y-101306400D01*
X168321009Y-101383809D01*
X168398419Y-101461219D01*
X168437123Y-101538628D01*
X169017695Y-100725828D02*
X168204895Y-100725828D01*
X169017695Y-100261371D02*
X168553238Y-100609714D01*
X168204895Y-100261371D02*
X168669352Y-100725828D01*
D20*
X166469523Y-117302380D02*
X166469523Y-116302380D01*
X166707619Y-116302380D01*
X166850476Y-116350000D01*
X166945714Y-116445238D01*
X166993333Y-116540476D01*
X167040952Y-116730952D01*
X167040952Y-116873809D01*
X166993333Y-117064285D01*
X166945714Y-117159523D01*
X166850476Y-117254761D01*
X166707619Y-117302380D01*
X166469523Y-117302380D01*
X167421904Y-116397619D02*
X167469523Y-116350000D01*
X167564761Y-116302380D01*
X167802857Y-116302380D01*
X167898095Y-116350000D01*
X167945714Y-116397619D01*
X167993333Y-116492857D01*
X167993333Y-116588095D01*
X167945714Y-116730952D01*
X167374285Y-117302380D01*
X167993333Y-117302380D01*
X168612380Y-116302380D02*
X168707619Y-116302380D01*
X168802857Y-116350000D01*
X168850476Y-116397619D01*
X168898095Y-116492857D01*
X168945714Y-116683333D01*
X168945714Y-116921428D01*
X168898095Y-117111904D01*
X168850476Y-117207142D01*
X168802857Y-117254761D01*
X168707619Y-117302380D01*
X168612380Y-117302380D01*
X168517142Y-117254761D01*
X168469523Y-117207142D01*
X168421904Y-117111904D01*
X168374285Y-116921428D01*
X168374285Y-116683333D01*
X168421904Y-116492857D01*
X168469523Y-116397619D01*
X168517142Y-116350000D01*
X168612380Y-116302380D01*
X169802857Y-116302380D02*
X169612380Y-116302380D01*
X169517142Y-116350000D01*
X169469523Y-116397619D01*
X169374285Y-116540476D01*
X169326666Y-116730952D01*
X169326666Y-117111904D01*
X169374285Y-117207142D01*
X169421904Y-117254761D01*
X169517142Y-117302380D01*
X169707619Y-117302380D01*
X169802857Y-117254761D01*
X169850476Y-117207142D01*
X169898095Y-117111904D01*
X169898095Y-116873809D01*
X169850476Y-116778571D01*
X169802857Y-116730952D01*
X169707619Y-116683333D01*
X169517142Y-116683333D01*
X169421904Y-116730952D01*
X169374285Y-116778571D01*
X169326666Y-116873809D01*
D19*
X196380438Y-136720285D02*
X196341733Y-136758990D01*
X196225619Y-136797695D01*
X196148209Y-136797695D01*
X196032095Y-136758990D01*
X195954685Y-136681580D01*
X195915980Y-136604171D01*
X195877276Y-136449352D01*
X195877276Y-136333238D01*
X195915980Y-136178419D01*
X195954685Y-136101009D01*
X196032095Y-136023600D01*
X196148209Y-135984895D01*
X196225619Y-135984895D01*
X196341733Y-136023600D01*
X196380438Y-136062304D01*
X196690076Y-136062304D02*
X196728780Y-136023600D01*
X196806190Y-135984895D01*
X196999714Y-135984895D01*
X197077123Y-136023600D01*
X197115828Y-136062304D01*
X197154533Y-136139714D01*
X197154533Y-136217123D01*
X197115828Y-136333238D01*
X196651371Y-136797695D01*
X197154533Y-136797695D01*
X197657695Y-135984895D02*
X197735104Y-135984895D01*
X197812514Y-136023600D01*
X197851219Y-136062304D01*
X197889923Y-136139714D01*
X197928628Y-136294533D01*
X197928628Y-136488057D01*
X197889923Y-136642876D01*
X197851219Y-136720285D01*
X197812514Y-136758990D01*
X197735104Y-136797695D01*
X197657695Y-136797695D01*
X197580285Y-136758990D01*
X197541580Y-136720285D01*
X197502876Y-136642876D01*
X197464171Y-136488057D01*
X197464171Y-136294533D01*
X197502876Y-136139714D01*
X197541580Y-136062304D01*
X197580285Y-136023600D01*
X197657695Y-135984895D01*
X198238266Y-136062304D02*
X198276971Y-136023600D01*
X198354380Y-135984895D01*
X198547904Y-135984895D01*
X198625314Y-136023600D01*
X198664019Y-136062304D01*
X198702723Y-136139714D01*
X198702723Y-136217123D01*
X198664019Y-136333238D01*
X198199561Y-136797695D01*
X198702723Y-136797695D01*
X193815866Y-138070285D02*
X193777161Y-138108990D01*
X193661047Y-138147695D01*
X193583638Y-138147695D01*
X193467523Y-138108990D01*
X193390114Y-138031580D01*
X193351409Y-137954171D01*
X193312704Y-137799352D01*
X193312704Y-137683238D01*
X193351409Y-137528419D01*
X193390114Y-137451009D01*
X193467523Y-137373600D01*
X193583638Y-137334895D01*
X193661047Y-137334895D01*
X193777161Y-137373600D01*
X193815866Y-137412304D01*
X194125504Y-137915466D02*
X194512552Y-137915466D01*
X194048095Y-138147695D02*
X194319028Y-137334895D01*
X194589961Y-138147695D01*
X194860895Y-138147695D02*
X194860895Y-137334895D01*
X195170533Y-137334895D01*
X195247942Y-137373600D01*
X195286647Y-137412304D01*
X195325352Y-137489714D01*
X195325352Y-137605828D01*
X195286647Y-137683238D01*
X195247942Y-137721942D01*
X195170533Y-137760647D01*
X194860895Y-137760647D01*
X195480171Y-138225104D02*
X196099447Y-138225104D01*
X196292971Y-137721942D02*
X196563904Y-137721942D01*
X196680019Y-138147695D02*
X196292971Y-138147695D01*
X196292971Y-137334895D01*
X196680019Y-137334895D01*
X197028361Y-137721942D02*
X197299295Y-137721942D01*
X197415409Y-138147695D02*
X197028361Y-138147695D01*
X197028361Y-137334895D01*
X197415409Y-137334895D01*
X197763752Y-137721942D02*
X198034685Y-137721942D01*
X198150800Y-138147695D02*
X197763752Y-138147695D01*
X197763752Y-137334895D01*
X198150800Y-137334895D01*
X198499142Y-137838057D02*
X199118419Y-137838057D01*
X199776400Y-137721942D02*
X199505466Y-137721942D01*
X199505466Y-138147695D02*
X199505466Y-137334895D01*
X199892514Y-137334895D01*
X200202152Y-138147695D02*
X200202152Y-137334895D01*
X200666609Y-138147695D02*
X200318266Y-137683238D01*
X200666609Y-137334895D02*
X200202152Y-137799352D01*
X201440704Y-138147695D02*
X200976247Y-138147695D01*
X201208476Y-138147695D02*
X201208476Y-137334895D01*
X201131066Y-137451009D01*
X201053657Y-137528419D01*
X200976247Y-137567123D01*
X201789047Y-138147695D02*
X201789047Y-137334895D01*
X201789047Y-137721942D02*
X202253504Y-137721942D01*
X202253504Y-138147695D02*
X202253504Y-137334895D01*
X202988895Y-137605828D02*
X202988895Y-138147695D01*
X202795371Y-137296190D02*
X202601847Y-137876761D01*
X203105009Y-137876761D01*
X203337238Y-137334895D02*
X203879104Y-137334895D01*
X203530761Y-138147695D01*
X204343561Y-137334895D02*
X204420971Y-137334895D01*
X204498380Y-137373600D01*
X204537085Y-137412304D01*
X204575790Y-137489714D01*
X204614495Y-137644533D01*
X204614495Y-137838057D01*
X204575790Y-137992876D01*
X204537085Y-138070285D01*
X204498380Y-138108990D01*
X204420971Y-138147695D01*
X204343561Y-138147695D01*
X204266152Y-138108990D01*
X204227447Y-138070285D01*
X204188742Y-137992876D01*
X204150038Y-137838057D01*
X204150038Y-137644533D01*
X204188742Y-137489714D01*
X204227447Y-137412304D01*
X204266152Y-137373600D01*
X204343561Y-137334895D01*
X204962838Y-138147695D02*
X204962838Y-137334895D01*
X205272476Y-137334895D01*
X205349885Y-137373600D01*
X205388590Y-137412304D01*
X205427295Y-137489714D01*
X205427295Y-137605828D01*
X205388590Y-137683238D01*
X205349885Y-137721942D01*
X205272476Y-137760647D01*
X204962838Y-137760647D01*
D20*
X148315714Y-82462380D02*
X148315714Y-83271904D01*
X148363333Y-83367142D01*
X148410952Y-83414761D01*
X148506190Y-83462380D01*
X148696666Y-83462380D01*
X148791904Y-83414761D01*
X148839523Y-83367142D01*
X148887142Y-83271904D01*
X148887142Y-82462380D01*
X149839523Y-82462380D02*
X149363333Y-82462380D01*
X149315714Y-82938571D01*
X149363333Y-82890952D01*
X149458571Y-82843333D01*
X149696666Y-82843333D01*
X149791904Y-82890952D01*
X149839523Y-82938571D01*
X149887142Y-83033809D01*
X149887142Y-83271904D01*
X149839523Y-83367142D01*
X149791904Y-83414761D01*
X149696666Y-83462380D01*
X149458571Y-83462380D01*
X149363333Y-83414761D01*
X149315714Y-83367142D01*
X150506190Y-82462380D02*
X150601428Y-82462380D01*
X150696666Y-82510000D01*
X150744285Y-82557619D01*
X150791904Y-82652857D01*
X150839523Y-82843333D01*
X150839523Y-83081428D01*
X150791904Y-83271904D01*
X150744285Y-83367142D01*
X150696666Y-83414761D01*
X150601428Y-83462380D01*
X150506190Y-83462380D01*
X150410952Y-83414761D01*
X150363333Y-83367142D01*
X150315714Y-83271904D01*
X150268095Y-83081428D01*
X150268095Y-82843333D01*
X150315714Y-82652857D01*
X150363333Y-82557619D01*
X150410952Y-82510000D01*
X150506190Y-82462380D01*
X151791904Y-83462380D02*
X151220476Y-83462380D01*
X151506190Y-83462380D02*
X151506190Y-82462380D01*
X151410952Y-82605238D01*
X151315714Y-82700476D01*
X151220476Y-82748095D01*
X156035714Y-82542380D02*
X156035714Y-83351904D01*
X156083333Y-83447142D01*
X156130952Y-83494761D01*
X156226190Y-83542380D01*
X156416666Y-83542380D01*
X156511904Y-83494761D01*
X156559523Y-83447142D01*
X156607142Y-83351904D01*
X156607142Y-82542380D01*
X157511904Y-82542380D02*
X157321428Y-82542380D01*
X157226190Y-82590000D01*
X157178571Y-82637619D01*
X157083333Y-82780476D01*
X157035714Y-82970952D01*
X157035714Y-83351904D01*
X157083333Y-83447142D01*
X157130952Y-83494761D01*
X157226190Y-83542380D01*
X157416666Y-83542380D01*
X157511904Y-83494761D01*
X157559523Y-83447142D01*
X157607142Y-83351904D01*
X157607142Y-83113809D01*
X157559523Y-83018571D01*
X157511904Y-82970952D01*
X157416666Y-82923333D01*
X157226190Y-82923333D01*
X157130952Y-82970952D01*
X157083333Y-83018571D01*
X157035714Y-83113809D01*
X158226190Y-82542380D02*
X158321428Y-82542380D01*
X158416666Y-82590000D01*
X158464285Y-82637619D01*
X158511904Y-82732857D01*
X158559523Y-82923333D01*
X158559523Y-83161428D01*
X158511904Y-83351904D01*
X158464285Y-83447142D01*
X158416666Y-83494761D01*
X158321428Y-83542380D01*
X158226190Y-83542380D01*
X158130952Y-83494761D01*
X158083333Y-83447142D01*
X158035714Y-83351904D01*
X157988095Y-83161428D01*
X157988095Y-82923333D01*
X158035714Y-82732857D01*
X158083333Y-82637619D01*
X158130952Y-82590000D01*
X158226190Y-82542380D01*
X159511904Y-83542380D02*
X158940476Y-83542380D01*
X159226190Y-83542380D02*
X159226190Y-82542380D01*
X159130952Y-82685238D01*
X159035714Y-82780476D01*
X158940476Y-82828095D01*
X177705714Y-82842380D02*
X177705714Y-83651904D01*
X177753333Y-83747142D01*
X177800952Y-83794761D01*
X177896190Y-83842380D01*
X178086666Y-83842380D01*
X178181904Y-83794761D01*
X178229523Y-83747142D01*
X178277142Y-83651904D01*
X178277142Y-82842380D01*
X178658095Y-82842380D02*
X179324761Y-82842380D01*
X178896190Y-83842380D01*
X179896190Y-82842380D02*
X179991428Y-82842380D01*
X180086666Y-82890000D01*
X180134285Y-82937619D01*
X180181904Y-83032857D01*
X180229523Y-83223333D01*
X180229523Y-83461428D01*
X180181904Y-83651904D01*
X180134285Y-83747142D01*
X180086666Y-83794761D01*
X179991428Y-83842380D01*
X179896190Y-83842380D01*
X179800952Y-83794761D01*
X179753333Y-83747142D01*
X179705714Y-83651904D01*
X179658095Y-83461428D01*
X179658095Y-83223333D01*
X179705714Y-83032857D01*
X179753333Y-82937619D01*
X179800952Y-82890000D01*
X179896190Y-82842380D01*
X181181904Y-83842380D02*
X180610476Y-83842380D01*
X180896190Y-83842380D02*
X180896190Y-82842380D01*
X180800952Y-82985238D01*
X180705714Y-83080476D01*
X180610476Y-83128095D01*
X185425714Y-82842380D02*
X185425714Y-83651904D01*
X185473333Y-83747142D01*
X185520952Y-83794761D01*
X185616190Y-83842380D01*
X185806666Y-83842380D01*
X185901904Y-83794761D01*
X185949523Y-83747142D01*
X185997142Y-83651904D01*
X185997142Y-82842380D01*
X186378095Y-82842380D02*
X187044761Y-82842380D01*
X186616190Y-83842380D01*
X187616190Y-82842380D02*
X187711428Y-82842380D01*
X187806666Y-82890000D01*
X187854285Y-82937619D01*
X187901904Y-83032857D01*
X187949523Y-83223333D01*
X187949523Y-83461428D01*
X187901904Y-83651904D01*
X187854285Y-83747142D01*
X187806666Y-83794761D01*
X187711428Y-83842380D01*
X187616190Y-83842380D01*
X187520952Y-83794761D01*
X187473333Y-83747142D01*
X187425714Y-83651904D01*
X187378095Y-83461428D01*
X187378095Y-83223333D01*
X187425714Y-83032857D01*
X187473333Y-82937619D01*
X187520952Y-82890000D01*
X187616190Y-82842380D01*
X188330476Y-82937619D02*
X188378095Y-82890000D01*
X188473333Y-82842380D01*
X188711428Y-82842380D01*
X188806666Y-82890000D01*
X188854285Y-82937619D01*
X188901904Y-83032857D01*
X188901904Y-83128095D01*
X188854285Y-83270952D01*
X188282857Y-83842380D01*
X188901904Y-83842380D01*
D19*
X172187695Y-104779561D02*
X171800647Y-105050495D01*
X172187695Y-105244019D02*
X171374895Y-105244019D01*
X171374895Y-104934380D01*
X171413600Y-104856971D01*
X171452304Y-104818266D01*
X171529714Y-104779561D01*
X171645828Y-104779561D01*
X171723238Y-104818266D01*
X171761942Y-104856971D01*
X171800647Y-104934380D01*
X171800647Y-105244019D01*
X171723238Y-104315104D02*
X171684533Y-104392514D01*
X171645828Y-104431219D01*
X171568419Y-104469923D01*
X171529714Y-104469923D01*
X171452304Y-104431219D01*
X171413600Y-104392514D01*
X171374895Y-104315104D01*
X171374895Y-104160285D01*
X171413600Y-104082876D01*
X171452304Y-104044171D01*
X171529714Y-104005466D01*
X171568419Y-104005466D01*
X171645828Y-104044171D01*
X171684533Y-104082876D01*
X171723238Y-104160285D01*
X171723238Y-104315104D01*
X171761942Y-104392514D01*
X171800647Y-104431219D01*
X171878057Y-104469923D01*
X172032876Y-104469923D01*
X172110285Y-104431219D01*
X172148990Y-104392514D01*
X172187695Y-104315104D01*
X172187695Y-104160285D01*
X172148990Y-104082876D01*
X172110285Y-104044171D01*
X172032876Y-104005466D01*
X171878057Y-104005466D01*
X171800647Y-104044171D01*
X171761942Y-104082876D01*
X171723238Y-104160285D01*
X171374895Y-103502304D02*
X171374895Y-103424895D01*
X171413600Y-103347485D01*
X171452304Y-103308780D01*
X171529714Y-103270076D01*
X171684533Y-103231371D01*
X171878057Y-103231371D01*
X172032876Y-103270076D01*
X172110285Y-103308780D01*
X172148990Y-103347485D01*
X172187695Y-103424895D01*
X172187695Y-103502304D01*
X172148990Y-103579714D01*
X172110285Y-103618419D01*
X172032876Y-103657123D01*
X171878057Y-103695828D01*
X171684533Y-103695828D01*
X171529714Y-103657123D01*
X171452304Y-103618419D01*
X171413600Y-103579714D01*
X171374895Y-103502304D01*
X172187695Y-102457276D02*
X172187695Y-102921733D01*
X172187695Y-102689504D02*
X171374895Y-102689504D01*
X171491009Y-102766914D01*
X171568419Y-102844323D01*
X171607123Y-102921733D01*
X172267695Y-101174171D02*
X172267695Y-101638628D01*
X172267695Y-101406400D02*
X171454895Y-101406400D01*
X171571009Y-101483809D01*
X171648419Y-101561219D01*
X171687123Y-101638628D01*
X172267695Y-100825828D02*
X171454895Y-100825828D01*
X172267695Y-100361371D02*
X171803238Y-100709714D01*
X171454895Y-100361371D02*
X171919352Y-100825828D01*
X175497695Y-104779561D02*
X175110647Y-105050495D01*
X175497695Y-105244019D02*
X174684895Y-105244019D01*
X174684895Y-104934380D01*
X174723600Y-104856971D01*
X174762304Y-104818266D01*
X174839714Y-104779561D01*
X174955828Y-104779561D01*
X175033238Y-104818266D01*
X175071942Y-104856971D01*
X175110647Y-104934380D01*
X175110647Y-105244019D01*
X175033238Y-104315104D02*
X174994533Y-104392514D01*
X174955828Y-104431219D01*
X174878419Y-104469923D01*
X174839714Y-104469923D01*
X174762304Y-104431219D01*
X174723600Y-104392514D01*
X174684895Y-104315104D01*
X174684895Y-104160285D01*
X174723600Y-104082876D01*
X174762304Y-104044171D01*
X174839714Y-104005466D01*
X174878419Y-104005466D01*
X174955828Y-104044171D01*
X174994533Y-104082876D01*
X175033238Y-104160285D01*
X175033238Y-104315104D01*
X175071942Y-104392514D01*
X175110647Y-104431219D01*
X175188057Y-104469923D01*
X175342876Y-104469923D01*
X175420285Y-104431219D01*
X175458990Y-104392514D01*
X175497695Y-104315104D01*
X175497695Y-104160285D01*
X175458990Y-104082876D01*
X175420285Y-104044171D01*
X175342876Y-104005466D01*
X175188057Y-104005466D01*
X175110647Y-104044171D01*
X175071942Y-104082876D01*
X175033238Y-104160285D01*
X174684895Y-103502304D02*
X174684895Y-103424895D01*
X174723600Y-103347485D01*
X174762304Y-103308780D01*
X174839714Y-103270076D01*
X174994533Y-103231371D01*
X175188057Y-103231371D01*
X175342876Y-103270076D01*
X175420285Y-103308780D01*
X175458990Y-103347485D01*
X175497695Y-103424895D01*
X175497695Y-103502304D01*
X175458990Y-103579714D01*
X175420285Y-103618419D01*
X175342876Y-103657123D01*
X175188057Y-103695828D01*
X174994533Y-103695828D01*
X174839714Y-103657123D01*
X174762304Y-103618419D01*
X174723600Y-103579714D01*
X174684895Y-103502304D01*
X174762304Y-102921733D02*
X174723600Y-102883028D01*
X174684895Y-102805619D01*
X174684895Y-102612095D01*
X174723600Y-102534685D01*
X174762304Y-102495980D01*
X174839714Y-102457276D01*
X174917123Y-102457276D01*
X175033238Y-102495980D01*
X175497695Y-102960438D01*
X175497695Y-102457276D01*
X175417695Y-101124171D02*
X175417695Y-101588628D01*
X175417695Y-101356400D02*
X174604895Y-101356400D01*
X174721009Y-101433809D01*
X174798419Y-101511219D01*
X174837123Y-101588628D01*
X175417695Y-100775828D02*
X174604895Y-100775828D01*
X175417695Y-100311371D02*
X174953238Y-100659714D01*
X174604895Y-100311371D02*
X175069352Y-100775828D01*
D20*
X162672380Y-102078095D02*
X161672380Y-102078095D01*
X161672380Y-101840000D01*
X161720000Y-101697142D01*
X161815238Y-101601904D01*
X161910476Y-101554285D01*
X162100952Y-101506666D01*
X162243809Y-101506666D01*
X162434285Y-101554285D01*
X162529523Y-101601904D01*
X162624761Y-101697142D01*
X162672380Y-101840000D01*
X162672380Y-102078095D01*
X162672380Y-100554285D02*
X162672380Y-101125714D01*
X162672380Y-100840000D02*
X161672380Y-100840000D01*
X161815238Y-100935238D01*
X161910476Y-101030476D01*
X161958095Y-101125714D01*
X165892380Y-102298095D02*
X164892380Y-102298095D01*
X164892380Y-102060000D01*
X164940000Y-101917142D01*
X165035238Y-101821904D01*
X165130476Y-101774285D01*
X165320952Y-101726666D01*
X165463809Y-101726666D01*
X165654285Y-101774285D01*
X165749523Y-101821904D01*
X165844761Y-101917142D01*
X165892380Y-102060000D01*
X165892380Y-102298095D01*
X164987619Y-101345714D02*
X164940000Y-101298095D01*
X164892380Y-101202857D01*
X164892380Y-100964761D01*
X164940000Y-100869523D01*
X164987619Y-100821904D01*
X165082857Y-100774285D01*
X165178095Y-100774285D01*
X165320952Y-100821904D01*
X165892380Y-101393333D01*
X165892380Y-100774285D01*
X174012380Y-102348095D02*
X173012380Y-102348095D01*
X173012380Y-102110000D01*
X173060000Y-101967142D01*
X173155238Y-101871904D01*
X173250476Y-101824285D01*
X173440952Y-101776666D01*
X173583809Y-101776666D01*
X173774285Y-101824285D01*
X173869523Y-101871904D01*
X173964761Y-101967142D01*
X174012380Y-102110000D01*
X174012380Y-102348095D01*
X173012380Y-100919523D02*
X173012380Y-101110000D01*
X173060000Y-101205238D01*
X173107619Y-101252857D01*
X173250476Y-101348095D01*
X173440952Y-101395714D01*
X173821904Y-101395714D01*
X173917142Y-101348095D01*
X173964761Y-101300476D01*
X174012380Y-101205238D01*
X174012380Y-101014761D01*
X173964761Y-100919523D01*
X173917142Y-100871904D01*
X173821904Y-100824285D01*
X173583809Y-100824285D01*
X173488571Y-100871904D01*
X173440952Y-100919523D01*
X173393333Y-101014761D01*
X173393333Y-101205238D01*
X173440952Y-101300476D01*
X173488571Y-101348095D01*
X173583809Y-101395714D01*
X177272380Y-102168095D02*
X176272380Y-102168095D01*
X176272380Y-101930000D01*
X176320000Y-101787142D01*
X176415238Y-101691904D01*
X176510476Y-101644285D01*
X176700952Y-101596666D01*
X176843809Y-101596666D01*
X177034285Y-101644285D01*
X177129523Y-101691904D01*
X177224761Y-101787142D01*
X177272380Y-101930000D01*
X177272380Y-102168095D01*
X176272380Y-101263333D02*
X176272380Y-100596666D01*
X177272380Y-101025238D01*
M02*
