G04 #@! TF.GenerationSoftware,KiCad,Pcbnew,(2017-01-11 revision e99b79c)-master*
G04 #@! TF.CreationDate,2017-07-03T16:29:39+03:00*
G04 #@! TF.ProjectId,csb,6373622E6B696361645F706362000000,rev?*
G04 #@! TF.FileFunction,Legend,Top*
G04 #@! TF.FilePolarity,Positive*
%FSLAX46Y46*%
G04 Gerber Fmt 4.6, Leading zero omitted, Abs format (unit mm)*
G04 Created by KiCad (PCBNEW (2017-01-11 revision e99b79c)-master) date Mon Jul  3 16:29:39 2017*
%MOMM*%
%LPD*%
G01*
G04 APERTURE LIST*
%ADD10C,0.100000*%
%ADD11C,0.300000*%
%ADD12C,0.010000*%
%ADD13C,0.200000*%
%ADD14C,0.203200*%
%ADD15C,0.099060*%
%ADD16C,0.150000*%
%ADD17C,0.198120*%
%ADD18C,0.101600*%
%ADD19C,0.127000*%
%ADD20C,0.076200*%
G04 APERTURE END LIST*
D10*
D11*
X200914285Y-76803571D02*
X200914285Y-78017857D01*
X200985714Y-78160714D01*
X201057142Y-78232142D01*
X201200000Y-78303571D01*
X201485714Y-78303571D01*
X201628571Y-78232142D01*
X201700000Y-78160714D01*
X201771428Y-78017857D01*
X201771428Y-76803571D01*
X202414285Y-78232142D02*
X202557142Y-78303571D01*
X202842857Y-78303571D01*
X202985714Y-78232142D01*
X203057142Y-78089285D01*
X203057142Y-78017857D01*
X202985714Y-77875000D01*
X202842857Y-77803571D01*
X202628571Y-77803571D01*
X202485714Y-77732142D01*
X202414285Y-77589285D01*
X202414285Y-77517857D01*
X202485714Y-77375000D01*
X202628571Y-77303571D01*
X202842857Y-77303571D01*
X202985714Y-77375000D01*
X204271428Y-78232142D02*
X204128571Y-78303571D01*
X203842857Y-78303571D01*
X203700000Y-78232142D01*
X203628571Y-78089285D01*
X203628571Y-77517857D01*
X203700000Y-77375000D01*
X203842857Y-77303571D01*
X204128571Y-77303571D01*
X204271428Y-77375000D01*
X204342857Y-77517857D01*
X204342857Y-77660714D01*
X203628571Y-77803571D01*
X204842857Y-77303571D02*
X205128571Y-78303571D01*
X205414285Y-77589285D01*
X205700000Y-78303571D01*
X205985714Y-77303571D01*
X206771428Y-78303571D02*
X206628571Y-78232142D01*
X206557142Y-78160714D01*
X206485714Y-78017857D01*
X206485714Y-77589285D01*
X206557142Y-77446428D01*
X206628571Y-77375000D01*
X206771428Y-77303571D01*
X206985714Y-77303571D01*
X207128571Y-77375000D01*
X207200000Y-77446428D01*
X207271428Y-77589285D01*
X207271428Y-78017857D01*
X207200000Y-78160714D01*
X207128571Y-78232142D01*
X206985714Y-78303571D01*
X206771428Y-78303571D01*
X208128571Y-78303571D02*
X207985714Y-78232142D01*
X207914285Y-78160714D01*
X207842857Y-78017857D01*
X207842857Y-77589285D01*
X207914285Y-77446428D01*
X207985714Y-77375000D01*
X208128571Y-77303571D01*
X208342857Y-77303571D01*
X208485714Y-77375000D01*
X208557142Y-77446428D01*
X208628571Y-77589285D01*
X208628571Y-78017857D01*
X208557142Y-78160714D01*
X208485714Y-78232142D01*
X208342857Y-78303571D01*
X208128571Y-78303571D01*
X209914285Y-78303571D02*
X209914285Y-76803571D01*
X209914285Y-78232142D02*
X209771428Y-78303571D01*
X209485714Y-78303571D01*
X209342857Y-78232142D01*
X209271428Y-78160714D01*
X209200000Y-78017857D01*
X209200000Y-77589285D01*
X209271428Y-77446428D01*
X209342857Y-77375000D01*
X209485714Y-77303571D01*
X209771428Y-77303571D01*
X209914285Y-77375000D01*
X212628571Y-78160714D02*
X212557142Y-78232142D01*
X212342857Y-78303571D01*
X212200000Y-78303571D01*
X211985714Y-78232142D01*
X211842857Y-78089285D01*
X211771428Y-77946428D01*
X211700000Y-77660714D01*
X211700000Y-77446428D01*
X211771428Y-77160714D01*
X211842857Y-77017857D01*
X211985714Y-76875000D01*
X212200000Y-76803571D01*
X212342857Y-76803571D01*
X212557142Y-76875000D01*
X212628571Y-76946428D01*
X213200000Y-78232142D02*
X213414285Y-78303571D01*
X213771428Y-78303571D01*
X213914285Y-78232142D01*
X213985714Y-78160714D01*
X214057142Y-78017857D01*
X214057142Y-77875000D01*
X213985714Y-77732142D01*
X213914285Y-77660714D01*
X213771428Y-77589285D01*
X213485714Y-77517857D01*
X213342857Y-77446428D01*
X213271428Y-77375000D01*
X213200000Y-77232142D01*
X213200000Y-77089285D01*
X213271428Y-76946428D01*
X213342857Y-76875000D01*
X213485714Y-76803571D01*
X213842857Y-76803571D01*
X214057142Y-76875000D01*
X215200000Y-77517857D02*
X215414285Y-77589285D01*
X215485714Y-77660714D01*
X215557142Y-77803571D01*
X215557142Y-78017857D01*
X215485714Y-78160714D01*
X215414285Y-78232142D01*
X215271428Y-78303571D01*
X214700000Y-78303571D01*
X214700000Y-76803571D01*
X215200000Y-76803571D01*
X215342857Y-76875000D01*
X215414285Y-76946428D01*
X215485714Y-77089285D01*
X215485714Y-77232142D01*
X215414285Y-77375000D01*
X215342857Y-77446428D01*
X215200000Y-77517857D01*
X214700000Y-77517857D01*
X202521428Y-79353571D02*
X202521428Y-80567857D01*
X202592857Y-80710714D01*
X202664285Y-80782142D01*
X202807142Y-80853571D01*
X203092857Y-80853571D01*
X203235714Y-80782142D01*
X203307142Y-80710714D01*
X203378571Y-80567857D01*
X203378571Y-79353571D01*
X204021428Y-80782142D02*
X204164285Y-80853571D01*
X204450000Y-80853571D01*
X204592857Y-80782142D01*
X204664285Y-80639285D01*
X204664285Y-80567857D01*
X204592857Y-80425000D01*
X204450000Y-80353571D01*
X204235714Y-80353571D01*
X204092857Y-80282142D01*
X204021428Y-80139285D01*
X204021428Y-80067857D01*
X204092857Y-79925000D01*
X204235714Y-79853571D01*
X204450000Y-79853571D01*
X204592857Y-79925000D01*
X205878571Y-80782142D02*
X205735714Y-80853571D01*
X205450000Y-80853571D01*
X205307142Y-80782142D01*
X205235714Y-80639285D01*
X205235714Y-80067857D01*
X205307142Y-79925000D01*
X205450000Y-79853571D01*
X205735714Y-79853571D01*
X205878571Y-79925000D01*
X205950000Y-80067857D01*
X205950000Y-80210714D01*
X205235714Y-80353571D01*
X206450000Y-79853571D02*
X206807142Y-80853571D01*
X207164285Y-79853571D01*
X207950000Y-80853571D02*
X207807142Y-80782142D01*
X207735714Y-80710714D01*
X207664285Y-80567857D01*
X207664285Y-80139285D01*
X207735714Y-79996428D01*
X207807142Y-79925000D01*
X207950000Y-79853571D01*
X208164285Y-79853571D01*
X208307142Y-79925000D01*
X208378571Y-79996428D01*
X208450000Y-80139285D01*
X208450000Y-80567857D01*
X208378571Y-80710714D01*
X208307142Y-80782142D01*
X208164285Y-80853571D01*
X207950000Y-80853571D01*
X209307142Y-80853571D02*
X209164285Y-80782142D01*
X209092857Y-80639285D01*
X209092857Y-79353571D01*
X209664285Y-79853571D02*
X210235714Y-79853571D01*
X209878571Y-79353571D02*
X209878571Y-80639285D01*
X209950000Y-80782142D01*
X210092857Y-80853571D01*
X210235714Y-80853571D01*
X212164285Y-79353571D02*
X212450000Y-79353571D01*
X212592857Y-79425000D01*
X212735714Y-79567857D01*
X212807142Y-79853571D01*
X212807142Y-80353571D01*
X212735714Y-80639285D01*
X212592857Y-80782142D01*
X212450000Y-80853571D01*
X212164285Y-80853571D01*
X212021428Y-80782142D01*
X211878571Y-80639285D01*
X211807142Y-80353571D01*
X211807142Y-79853571D01*
X211878571Y-79567857D01*
X212021428Y-79425000D01*
X212164285Y-79353571D01*
X213307142Y-79853571D02*
X213664285Y-80853571D01*
X214021428Y-79853571D02*
X213664285Y-80853571D01*
X213521428Y-81210714D01*
X213450000Y-81282142D01*
X213307142Y-81353571D01*
D12*
G36*
X214193339Y-54092237D02*
X214518072Y-54094036D01*
X214793984Y-54096824D01*
X215007953Y-54100428D01*
X215146857Y-54104677D01*
X215197575Y-54109398D01*
X215197599Y-54109507D01*
X215177321Y-54159800D01*
X215122221Y-54282986D01*
X215040905Y-54460106D01*
X214949766Y-54655607D01*
X214788743Y-54998504D01*
X214606057Y-55387048D01*
X214406704Y-55810652D01*
X214195680Y-56258728D01*
X213977981Y-56720689D01*
X213758605Y-57185946D01*
X213542547Y-57643913D01*
X213334804Y-58084001D01*
X213140373Y-58495624D01*
X212964248Y-58868193D01*
X212811428Y-59191122D01*
X212686908Y-59453821D01*
X212595684Y-59645705D01*
X212542941Y-59755800D01*
X212456327Y-59938576D01*
X212342679Y-60184204D01*
X212215831Y-60462513D01*
X212089613Y-60743335D01*
X212071283Y-60784500D01*
X211771985Y-61457600D01*
X202795553Y-61457600D01*
X202829919Y-61349322D01*
X202861378Y-61271188D01*
X202928845Y-61117101D01*
X203025117Y-60903059D01*
X203142988Y-60645061D01*
X203275255Y-60359104D01*
X203293172Y-60320622D01*
X203397132Y-60097243D01*
X203538053Y-59794029D01*
X203710200Y-59423337D01*
X203907841Y-58997526D01*
X204125240Y-58528953D01*
X204356663Y-58029977D01*
X204596377Y-57512956D01*
X204838646Y-56990247D01*
X204951330Y-56747063D01*
X206180600Y-54093927D01*
X207968489Y-54092763D01*
X209756379Y-54091600D01*
X209634005Y-54358300D01*
X209589767Y-54454145D01*
X209507103Y-54632679D01*
X209390396Y-54884453D01*
X209244031Y-55200015D01*
X209072392Y-55569916D01*
X208879866Y-55984704D01*
X208670835Y-56434931D01*
X208449685Y-56911145D01*
X208319978Y-57190400D01*
X207128324Y-59755800D01*
X208429046Y-59769376D01*
X208782968Y-59771592D01*
X209103111Y-59770772D01*
X209375526Y-59767182D01*
X209586264Y-59761086D01*
X209721379Y-59752750D01*
X209766473Y-59743976D01*
X209794752Y-59691667D01*
X209862021Y-59556298D01*
X209964019Y-59346744D01*
X210096487Y-59071880D01*
X210255165Y-58740580D01*
X210435793Y-58361721D01*
X210634111Y-57944175D01*
X210845859Y-57496820D01*
X210894618Y-57393600D01*
X211117620Y-56921642D01*
X211335182Y-56461783D01*
X211541923Y-56025353D01*
X211732462Y-55623684D01*
X211901421Y-55268109D01*
X212043419Y-54969959D01*
X212153076Y-54740566D01*
X212225012Y-54591262D01*
X212227134Y-54586900D01*
X212468212Y-54091600D01*
X213832906Y-54091600D01*
X214193339Y-54092237D01*
X214193339Y-54092237D01*
G37*
X214193339Y-54092237D02*
X214518072Y-54094036D01*
X214793984Y-54096824D01*
X215007953Y-54100428D01*
X215146857Y-54104677D01*
X215197575Y-54109398D01*
X215197599Y-54109507D01*
X215177321Y-54159800D01*
X215122221Y-54282986D01*
X215040905Y-54460106D01*
X214949766Y-54655607D01*
X214788743Y-54998504D01*
X214606057Y-55387048D01*
X214406704Y-55810652D01*
X214195680Y-56258728D01*
X213977981Y-56720689D01*
X213758605Y-57185946D01*
X213542547Y-57643913D01*
X213334804Y-58084001D01*
X213140373Y-58495624D01*
X212964248Y-58868193D01*
X212811428Y-59191122D01*
X212686908Y-59453821D01*
X212595684Y-59645705D01*
X212542941Y-59755800D01*
X212456327Y-59938576D01*
X212342679Y-60184204D01*
X212215831Y-60462513D01*
X212089613Y-60743335D01*
X212071283Y-60784500D01*
X211771985Y-61457600D01*
X202795553Y-61457600D01*
X202829919Y-61349322D01*
X202861378Y-61271188D01*
X202928845Y-61117101D01*
X203025117Y-60903059D01*
X203142988Y-60645061D01*
X203275255Y-60359104D01*
X203293172Y-60320622D01*
X203397132Y-60097243D01*
X203538053Y-59794029D01*
X203710200Y-59423337D01*
X203907841Y-58997526D01*
X204125240Y-58528953D01*
X204356663Y-58029977D01*
X204596377Y-57512956D01*
X204838646Y-56990247D01*
X204951330Y-56747063D01*
X206180600Y-54093927D01*
X207968489Y-54092763D01*
X209756379Y-54091600D01*
X209634005Y-54358300D01*
X209589767Y-54454145D01*
X209507103Y-54632679D01*
X209390396Y-54884453D01*
X209244031Y-55200015D01*
X209072392Y-55569916D01*
X208879866Y-55984704D01*
X208670835Y-56434931D01*
X208449685Y-56911145D01*
X208319978Y-57190400D01*
X207128324Y-59755800D01*
X208429046Y-59769376D01*
X208782968Y-59771592D01*
X209103111Y-59770772D01*
X209375526Y-59767182D01*
X209586264Y-59761086D01*
X209721379Y-59752750D01*
X209766473Y-59743976D01*
X209794752Y-59691667D01*
X209862021Y-59556298D01*
X209964019Y-59346744D01*
X210096487Y-59071880D01*
X210255165Y-58740580D01*
X210435793Y-58361721D01*
X210634111Y-57944175D01*
X210845859Y-57496820D01*
X210894618Y-57393600D01*
X211117620Y-56921642D01*
X211335182Y-56461783D01*
X211541923Y-56025353D01*
X211732462Y-55623684D01*
X211901421Y-55268109D01*
X212043419Y-54969959D01*
X212153076Y-54740566D01*
X212225012Y-54591262D01*
X212227134Y-54586900D01*
X212468212Y-54091600D01*
X213832906Y-54091600D01*
X214193339Y-54092237D01*
G36*
X207149322Y-64303067D02*
X207288807Y-64400100D01*
X207367031Y-64571241D01*
X207390400Y-64812050D01*
X207390400Y-65083999D01*
X207796800Y-65148985D01*
X207796800Y-66564892D01*
X207797630Y-66932316D01*
X207799975Y-67264280D01*
X207803615Y-67547901D01*
X207808330Y-67770298D01*
X207813899Y-67918589D01*
X207820103Y-67979891D01*
X207820972Y-67980799D01*
X207875706Y-67956671D01*
X207981115Y-67896846D01*
X208011472Y-67878400D01*
X208180316Y-67794194D01*
X208407499Y-67706594D01*
X208659140Y-67626018D01*
X208901355Y-67562884D01*
X209100262Y-67527610D01*
X209165394Y-67523600D01*
X209370036Y-67561654D01*
X209480272Y-67627639D01*
X209600200Y-67731679D01*
X209435100Y-67699803D01*
X209310699Y-67693696D01*
X209267758Y-67729799D01*
X209303471Y-67793561D01*
X209415031Y-67870429D01*
X209473435Y-67898602D01*
X209612986Y-67977313D01*
X209713771Y-68064585D01*
X209730871Y-68089260D01*
X209760939Y-68153203D01*
X209740667Y-68162937D01*
X209652138Y-68121483D01*
X209624451Y-68107206D01*
X209480290Y-68056070D01*
X209371098Y-68060138D01*
X209321569Y-68117618D01*
X209320800Y-68129222D01*
X209362249Y-68181900D01*
X209464216Y-68246839D01*
X209486370Y-68257801D01*
X209617399Y-68339466D01*
X209710961Y-68431182D01*
X209714853Y-68437107D01*
X209750099Y-68499497D01*
X209734405Y-68512048D01*
X209650658Y-68477098D01*
X209599573Y-68452870D01*
X209473820Y-68402178D01*
X209399145Y-68403631D01*
X209358391Y-68434698D01*
X209321796Y-68495699D01*
X209356350Y-68523933D01*
X209450865Y-68576576D01*
X209558279Y-68658870D01*
X209644665Y-68742108D01*
X209676400Y-68794694D01*
X209635745Y-68806152D01*
X209534756Y-68779213D01*
X209501317Y-68766061D01*
X209361845Y-68724940D01*
X209300168Y-68744900D01*
X209319061Y-68818503D01*
X209421301Y-68938313D01*
X209432883Y-68949406D01*
X209523206Y-69042837D01*
X209534027Y-69077875D01*
X209498600Y-69070485D01*
X209298594Y-69012018D01*
X209149163Y-69014057D01*
X209015432Y-69082142D01*
X208923054Y-69161907D01*
X208788567Y-69276537D01*
X208603789Y-69416729D01*
X208405120Y-69555066D01*
X208373551Y-69575798D01*
X208231593Y-69668559D01*
X208116455Y-69751143D01*
X208025152Y-69835012D01*
X207954700Y-69931633D01*
X207902113Y-70052468D01*
X207864406Y-70208982D01*
X207838594Y-70412640D01*
X207821692Y-70674905D01*
X207810715Y-71007243D01*
X207802677Y-71421117D01*
X207796800Y-71790800D01*
X207771400Y-73391000D01*
X207435140Y-72908400D01*
X207124021Y-72441922D01*
X206854700Y-71997524D01*
X206637410Y-71592906D01*
X206500418Y-71291387D01*
X206454446Y-71169860D01*
X206419353Y-71051074D01*
X206392779Y-70916850D01*
X206372363Y-70749010D01*
X206355744Y-70529374D01*
X206340562Y-70239765D01*
X206328900Y-69970587D01*
X206310605Y-69577749D01*
X206289644Y-69271366D01*
X206262158Y-69036300D01*
X206224289Y-68857412D01*
X206172178Y-68719564D01*
X206101966Y-68607617D01*
X206009795Y-68506435D01*
X205939213Y-68441840D01*
X205696590Y-68241180D01*
X205492218Y-68106649D01*
X205299233Y-68026386D01*
X205090771Y-67988527D01*
X204895151Y-67980799D01*
X204686748Y-67976917D01*
X204548541Y-67960275D01*
X204449262Y-67923380D01*
X204357645Y-67858742D01*
X204346297Y-67849284D01*
X204224136Y-67707924D01*
X204190000Y-67568614D01*
X204206621Y-67459077D01*
X204277257Y-67405750D01*
X204346766Y-67388106D01*
X204484659Y-67335197D01*
X204536862Y-67260785D01*
X204511987Y-67181177D01*
X204418645Y-67112679D01*
X204265448Y-67071599D01*
X204176867Y-67066400D01*
X204051287Y-67072689D01*
X204003877Y-67101071D01*
X204011511Y-67165815D01*
X204012200Y-67168000D01*
X204018400Y-67251482D01*
X203962213Y-67258284D01*
X203847545Y-67188714D01*
X203800197Y-67151245D01*
X203678979Y-67062224D01*
X203575564Y-67003527D01*
X203567990Y-67000551D01*
X203462480Y-66918801D01*
X203462116Y-66918256D01*
X203809000Y-66918256D01*
X203994336Y-66889394D01*
X204175710Y-66890603D01*
X204355732Y-66964465D01*
X204364805Y-66969764D01*
X204507373Y-67040990D01*
X204576672Y-67042593D01*
X204573723Y-66974259D01*
X204545600Y-66914000D01*
X204506693Y-66825340D01*
X204503384Y-66789595D01*
X204558570Y-66777914D01*
X204687244Y-66760776D01*
X204861704Y-66741864D01*
X204864111Y-66741627D01*
X205053112Y-66727059D01*
X205164463Y-66731503D01*
X205220799Y-66757651D01*
X205238094Y-66786128D01*
X205229629Y-66897223D01*
X205123444Y-67011026D01*
X204923209Y-67123673D01*
X204913900Y-67127832D01*
X204785408Y-67199395D01*
X204708111Y-67270611D01*
X204698000Y-67297377D01*
X204720327Y-67357423D01*
X204793574Y-67359804D01*
X204927137Y-67302154D01*
X205113136Y-67192957D01*
X205277094Y-67078296D01*
X205415290Y-66960399D01*
X205486566Y-66879689D01*
X205543203Y-66782866D01*
X205540326Y-66727738D01*
X205482410Y-66676931D01*
X205359425Y-66633042D01*
X205164114Y-66614356D01*
X204921939Y-66618513D01*
X204658362Y-66643151D01*
X204398845Y-66685909D01*
X204168852Y-66744426D01*
X203996788Y-66814705D01*
X203809000Y-66918256D01*
X203462116Y-66918256D01*
X203365181Y-66773446D01*
X203296482Y-66601748D01*
X203275789Y-66466501D01*
X203263579Y-66362038D01*
X203233873Y-66325357D01*
X203228310Y-66327630D01*
X203164130Y-66319538D01*
X203144001Y-66296959D01*
X203148879Y-66220283D01*
X203194411Y-66164024D01*
X203343320Y-66164024D01*
X203345502Y-66230886D01*
X203379046Y-66281225D01*
X203485143Y-66350333D01*
X203608444Y-66319550D01*
X203615205Y-66315359D01*
X203624968Y-66267377D01*
X203536480Y-66197409D01*
X203527441Y-66192152D01*
X203409893Y-66147555D01*
X203343320Y-66164024D01*
X203194411Y-66164024D01*
X203223649Y-66127898D01*
X203342801Y-66039044D01*
X203480827Y-65972961D01*
X203605573Y-65948800D01*
X203885033Y-65902250D01*
X204162966Y-65771874D01*
X204176933Y-65760553D01*
X204563468Y-65760553D01*
X204568911Y-65793020D01*
X204649017Y-65839962D01*
X204767871Y-65839798D01*
X204875823Y-65795502D01*
X204899353Y-65773225D01*
X204934538Y-65676885D01*
X204883448Y-65609130D01*
X204809301Y-65594815D01*
X204702253Y-65623479D01*
X204609450Y-65687678D01*
X204563468Y-65760553D01*
X204176933Y-65760553D01*
X204410089Y-65571580D01*
X204418600Y-65562649D01*
X204558112Y-65436794D01*
X204698914Y-65344142D01*
X204774200Y-65314326D01*
X204947728Y-65264826D01*
X205119014Y-65185098D01*
X205290313Y-65082152D01*
X205476447Y-65005421D01*
X205752036Y-64953403D01*
X205844933Y-64943502D01*
X206239041Y-64907400D01*
X206294020Y-64678800D01*
X206347730Y-64518646D01*
X206430684Y-64419151D01*
X206526800Y-64361378D01*
X206692950Y-64305235D01*
X206888512Y-64274467D01*
X206942212Y-64272478D01*
X207149322Y-64303067D01*
X207149322Y-64303067D01*
G37*
X207149322Y-64303067D02*
X207288807Y-64400100D01*
X207367031Y-64571241D01*
X207390400Y-64812050D01*
X207390400Y-65083999D01*
X207796800Y-65148985D01*
X207796800Y-66564892D01*
X207797630Y-66932316D01*
X207799975Y-67264280D01*
X207803615Y-67547901D01*
X207808330Y-67770298D01*
X207813899Y-67918589D01*
X207820103Y-67979891D01*
X207820972Y-67980799D01*
X207875706Y-67956671D01*
X207981115Y-67896846D01*
X208011472Y-67878400D01*
X208180316Y-67794194D01*
X208407499Y-67706594D01*
X208659140Y-67626018D01*
X208901355Y-67562884D01*
X209100262Y-67527610D01*
X209165394Y-67523600D01*
X209370036Y-67561654D01*
X209480272Y-67627639D01*
X209600200Y-67731679D01*
X209435100Y-67699803D01*
X209310699Y-67693696D01*
X209267758Y-67729799D01*
X209303471Y-67793561D01*
X209415031Y-67870429D01*
X209473435Y-67898602D01*
X209612986Y-67977313D01*
X209713771Y-68064585D01*
X209730871Y-68089260D01*
X209760939Y-68153203D01*
X209740667Y-68162937D01*
X209652138Y-68121483D01*
X209624451Y-68107206D01*
X209480290Y-68056070D01*
X209371098Y-68060138D01*
X209321569Y-68117618D01*
X209320800Y-68129222D01*
X209362249Y-68181900D01*
X209464216Y-68246839D01*
X209486370Y-68257801D01*
X209617399Y-68339466D01*
X209710961Y-68431182D01*
X209714853Y-68437107D01*
X209750099Y-68499497D01*
X209734405Y-68512048D01*
X209650658Y-68477098D01*
X209599573Y-68452870D01*
X209473820Y-68402178D01*
X209399145Y-68403631D01*
X209358391Y-68434698D01*
X209321796Y-68495699D01*
X209356350Y-68523933D01*
X209450865Y-68576576D01*
X209558279Y-68658870D01*
X209644665Y-68742108D01*
X209676400Y-68794694D01*
X209635745Y-68806152D01*
X209534756Y-68779213D01*
X209501317Y-68766061D01*
X209361845Y-68724940D01*
X209300168Y-68744900D01*
X209319061Y-68818503D01*
X209421301Y-68938313D01*
X209432883Y-68949406D01*
X209523206Y-69042837D01*
X209534027Y-69077875D01*
X209498600Y-69070485D01*
X209298594Y-69012018D01*
X209149163Y-69014057D01*
X209015432Y-69082142D01*
X208923054Y-69161907D01*
X208788567Y-69276537D01*
X208603789Y-69416729D01*
X208405120Y-69555066D01*
X208373551Y-69575798D01*
X208231593Y-69668559D01*
X208116455Y-69751143D01*
X208025152Y-69835012D01*
X207954700Y-69931633D01*
X207902113Y-70052468D01*
X207864406Y-70208982D01*
X207838594Y-70412640D01*
X207821692Y-70674905D01*
X207810715Y-71007243D01*
X207802677Y-71421117D01*
X207796800Y-71790800D01*
X207771400Y-73391000D01*
X207435140Y-72908400D01*
X207124021Y-72441922D01*
X206854700Y-71997524D01*
X206637410Y-71592906D01*
X206500418Y-71291387D01*
X206454446Y-71169860D01*
X206419353Y-71051074D01*
X206392779Y-70916850D01*
X206372363Y-70749010D01*
X206355744Y-70529374D01*
X206340562Y-70239765D01*
X206328900Y-69970587D01*
X206310605Y-69577749D01*
X206289644Y-69271366D01*
X206262158Y-69036300D01*
X206224289Y-68857412D01*
X206172178Y-68719564D01*
X206101966Y-68607617D01*
X206009795Y-68506435D01*
X205939213Y-68441840D01*
X205696590Y-68241180D01*
X205492218Y-68106649D01*
X205299233Y-68026386D01*
X205090771Y-67988527D01*
X204895151Y-67980799D01*
X204686748Y-67976917D01*
X204548541Y-67960275D01*
X204449262Y-67923380D01*
X204357645Y-67858742D01*
X204346297Y-67849284D01*
X204224136Y-67707924D01*
X204190000Y-67568614D01*
X204206621Y-67459077D01*
X204277257Y-67405750D01*
X204346766Y-67388106D01*
X204484659Y-67335197D01*
X204536862Y-67260785D01*
X204511987Y-67181177D01*
X204418645Y-67112679D01*
X204265448Y-67071599D01*
X204176867Y-67066400D01*
X204051287Y-67072689D01*
X204003877Y-67101071D01*
X204011511Y-67165815D01*
X204012200Y-67168000D01*
X204018400Y-67251482D01*
X203962213Y-67258284D01*
X203847545Y-67188714D01*
X203800197Y-67151245D01*
X203678979Y-67062224D01*
X203575564Y-67003527D01*
X203567990Y-67000551D01*
X203462480Y-66918801D01*
X203462116Y-66918256D01*
X203809000Y-66918256D01*
X203994336Y-66889394D01*
X204175710Y-66890603D01*
X204355732Y-66964465D01*
X204364805Y-66969764D01*
X204507373Y-67040990D01*
X204576672Y-67042593D01*
X204573723Y-66974259D01*
X204545600Y-66914000D01*
X204506693Y-66825340D01*
X204503384Y-66789595D01*
X204558570Y-66777914D01*
X204687244Y-66760776D01*
X204861704Y-66741864D01*
X204864111Y-66741627D01*
X205053112Y-66727059D01*
X205164463Y-66731503D01*
X205220799Y-66757651D01*
X205238094Y-66786128D01*
X205229629Y-66897223D01*
X205123444Y-67011026D01*
X204923209Y-67123673D01*
X204913900Y-67127832D01*
X204785408Y-67199395D01*
X204708111Y-67270611D01*
X204698000Y-67297377D01*
X204720327Y-67357423D01*
X204793574Y-67359804D01*
X204927137Y-67302154D01*
X205113136Y-67192957D01*
X205277094Y-67078296D01*
X205415290Y-66960399D01*
X205486566Y-66879689D01*
X205543203Y-66782866D01*
X205540326Y-66727738D01*
X205482410Y-66676931D01*
X205359425Y-66633042D01*
X205164114Y-66614356D01*
X204921939Y-66618513D01*
X204658362Y-66643151D01*
X204398845Y-66685909D01*
X204168852Y-66744426D01*
X203996788Y-66814705D01*
X203809000Y-66918256D01*
X203462116Y-66918256D01*
X203365181Y-66773446D01*
X203296482Y-66601748D01*
X203275789Y-66466501D01*
X203263579Y-66362038D01*
X203233873Y-66325357D01*
X203228310Y-66327630D01*
X203164130Y-66319538D01*
X203144001Y-66296959D01*
X203148879Y-66220283D01*
X203194411Y-66164024D01*
X203343320Y-66164024D01*
X203345502Y-66230886D01*
X203379046Y-66281225D01*
X203485143Y-66350333D01*
X203608444Y-66319550D01*
X203615205Y-66315359D01*
X203624968Y-66267377D01*
X203536480Y-66197409D01*
X203527441Y-66192152D01*
X203409893Y-66147555D01*
X203343320Y-66164024D01*
X203194411Y-66164024D01*
X203223649Y-66127898D01*
X203342801Y-66039044D01*
X203480827Y-65972961D01*
X203605573Y-65948800D01*
X203885033Y-65902250D01*
X204162966Y-65771874D01*
X204176933Y-65760553D01*
X204563468Y-65760553D01*
X204568911Y-65793020D01*
X204649017Y-65839962D01*
X204767871Y-65839798D01*
X204875823Y-65795502D01*
X204899353Y-65773225D01*
X204934538Y-65676885D01*
X204883448Y-65609130D01*
X204809301Y-65594815D01*
X204702253Y-65623479D01*
X204609450Y-65687678D01*
X204563468Y-65760553D01*
X204176933Y-65760553D01*
X204410089Y-65571580D01*
X204418600Y-65562649D01*
X204558112Y-65436794D01*
X204698914Y-65344142D01*
X204774200Y-65314326D01*
X204947728Y-65264826D01*
X205119014Y-65185098D01*
X205290313Y-65082152D01*
X205476447Y-65005421D01*
X205752036Y-64953403D01*
X205844933Y-64943502D01*
X206239041Y-64907400D01*
X206294020Y-64678800D01*
X206347730Y-64518646D01*
X206430684Y-64419151D01*
X206526800Y-64361378D01*
X206692950Y-64305235D01*
X206888512Y-64274467D01*
X206942212Y-64272478D01*
X207149322Y-64303067D01*
G36*
X209045004Y-63207593D02*
X210020670Y-63298682D01*
X211011336Y-63443565D01*
X211995370Y-63639254D01*
X212951138Y-63882762D01*
X213581610Y-64076696D01*
X213827510Y-64163261D01*
X214045063Y-64249208D01*
X214212114Y-64325144D01*
X214306506Y-64381673D01*
X214311288Y-64386088D01*
X214359259Y-64453963D01*
X214384326Y-64548889D01*
X214385565Y-64685153D01*
X214362048Y-64877044D01*
X214312851Y-65138852D01*
X214241288Y-65466200D01*
X213893508Y-66775123D01*
X213453958Y-68045830D01*
X212925132Y-69273758D01*
X212309525Y-70454348D01*
X211609632Y-71583036D01*
X210827949Y-72655264D01*
X209966969Y-73666468D01*
X209474108Y-74181368D01*
X209086709Y-74563752D01*
X208761680Y-74870893D01*
X208496010Y-75105321D01*
X208286688Y-75269563D01*
X208130704Y-75366147D01*
X208025400Y-75397600D01*
X207921740Y-75364163D01*
X207768185Y-75272787D01*
X207587184Y-75136868D01*
X207583537Y-75133868D01*
X207148843Y-74751347D01*
X206682846Y-74297523D01*
X206201883Y-73790833D01*
X205722290Y-73249713D01*
X205260401Y-72692600D01*
X204832554Y-72137931D01*
X204455083Y-71604141D01*
X204452233Y-71599888D01*
X203777708Y-70521941D01*
X203196622Y-69437207D01*
X202701363Y-68328334D01*
X202284322Y-67177968D01*
X201937888Y-65968755D01*
X201880803Y-65736689D01*
X201790281Y-65352058D01*
X201724994Y-65052835D01*
X201683640Y-64826355D01*
X201665779Y-64667599D01*
X201979069Y-64667599D01*
X201983176Y-64718767D01*
X202188537Y-65643043D01*
X202410371Y-66488508D01*
X202656124Y-67277551D01*
X202933240Y-68032559D01*
X203249164Y-68775922D01*
X203527271Y-69361971D01*
X204168507Y-70543887D01*
X204895820Y-71671880D01*
X205708826Y-72745379D01*
X206233523Y-73358529D01*
X206433241Y-73575563D01*
X206657301Y-73808717D01*
X206894595Y-74047533D01*
X207134014Y-74281556D01*
X207364452Y-74500326D01*
X207574801Y-74693386D01*
X207753951Y-74850280D01*
X207890796Y-74960549D01*
X207974227Y-75013737D01*
X207993124Y-75015079D01*
X208000155Y-74959291D01*
X208007722Y-74811987D01*
X208015586Y-74583248D01*
X208023506Y-74283153D01*
X208031244Y-73921783D01*
X208038559Y-73509219D01*
X208045214Y-73055542D01*
X208050800Y-72586737D01*
X208057994Y-71980782D01*
X208065813Y-71470472D01*
X208074466Y-71049850D01*
X208084162Y-70712961D01*
X208095110Y-70453851D01*
X208107518Y-70266564D01*
X208121597Y-70145145D01*
X208137555Y-70083638D01*
X208138718Y-70081473D01*
X208211252Y-70001669D01*
X208344274Y-69892859D01*
X208510469Y-69777162D01*
X208529311Y-69765149D01*
X208720890Y-69637888D01*
X208905518Y-69504868D01*
X209040834Y-69396882D01*
X209224281Y-69235813D01*
X209470507Y-69351138D01*
X209651482Y-69421610D01*
X209763946Y-69426542D01*
X209818814Y-69363749D01*
X209828800Y-69279422D01*
X209859917Y-69158794D01*
X209905000Y-69098400D01*
X209963012Y-69002180D01*
X209981200Y-68899139D01*
X209999585Y-68777721D01*
X210033887Y-68710432D01*
X210059812Y-68613639D01*
X210037597Y-68528922D01*
X210015696Y-68399217D01*
X210039184Y-68349535D01*
X210056643Y-68260652D01*
X210010074Y-68108281D01*
X209958019Y-67955605D01*
X209931327Y-67822407D01*
X209930400Y-67802707D01*
X209887761Y-67685387D01*
X209777346Y-67552280D01*
X209625402Y-67426092D01*
X209458179Y-67329530D01*
X209337787Y-67290070D01*
X209136194Y-67281564D01*
X208873860Y-67312990D01*
X208581033Y-67379072D01*
X208294510Y-67472036D01*
X208050800Y-67564638D01*
X208050800Y-66490802D01*
X209809654Y-66490802D01*
X209809889Y-66583740D01*
X209888670Y-66636118D01*
X210051864Y-66649773D01*
X210261124Y-66632336D01*
X210436017Y-66619211D01*
X210528193Y-66632590D01*
X210540000Y-66648807D01*
X210567979Y-66710122D01*
X210643059Y-66832178D01*
X210751949Y-66994014D01*
X210819400Y-67089548D01*
X211098800Y-67478973D01*
X211100405Y-69596786D01*
X211102010Y-71714600D01*
X211352800Y-71429534D01*
X211352800Y-67428325D01*
X211015913Y-66929862D01*
X210877140Y-66730035D01*
X210752411Y-66560445D01*
X210655885Y-66439715D01*
X210603510Y-66387416D01*
X210507497Y-66365814D01*
X210361888Y-66366407D01*
X210318097Y-66371068D01*
X210108200Y-66398704D01*
X210228127Y-66300752D01*
X210355795Y-66228667D01*
X210469427Y-66202800D01*
X210566119Y-66176621D01*
X210590800Y-66101200D01*
X210552352Y-66018932D01*
X210440188Y-66001942D01*
X210263907Y-66049142D01*
X210170044Y-66072029D01*
X210133600Y-66057142D01*
X210175841Y-66010418D01*
X210281710Y-65944608D01*
X210419921Y-65876879D01*
X210555919Y-65825396D01*
X210628591Y-65784745D01*
X210618360Y-65743924D01*
X210543304Y-65713980D01*
X210421500Y-65705960D01*
X210368313Y-65710747D01*
X210159000Y-65738304D01*
X210278927Y-65640352D01*
X210418854Y-65567365D01*
X210549861Y-65542400D01*
X210658514Y-65525613D01*
X210682464Y-65485654D01*
X210630919Y-65438125D01*
X210513086Y-65398628D01*
X210459829Y-65389836D01*
X210351605Y-65365586D01*
X210333128Y-65337216D01*
X210393071Y-65310906D01*
X210520104Y-65292837D01*
X210645754Y-65288400D01*
X210790207Y-65273243D01*
X210844098Y-65226197D01*
X210844800Y-65217635D01*
X210798533Y-65137957D01*
X210671595Y-65092078D01*
X210573945Y-65084422D01*
X210502159Y-65076324D01*
X210523230Y-65045682D01*
X210540000Y-65034400D01*
X210696790Y-64987482D01*
X210907474Y-65017267D01*
X211177099Y-65124567D01*
X211213616Y-65142671D01*
X211447145Y-65277166D01*
X211691203Y-65445561D01*
X211923915Y-65629859D01*
X212123408Y-65812062D01*
X212267807Y-65974175D01*
X212316928Y-66050400D01*
X212363187Y-66162652D01*
X212428265Y-66350184D01*
X212504711Y-66590130D01*
X212585068Y-66859624D01*
X212615017Y-66964800D01*
X212696630Y-67250669D01*
X212777791Y-67526722D01*
X212850517Y-67766337D01*
X212906820Y-67942888D01*
X212919743Y-67980800D01*
X213017584Y-68260200D01*
X213128793Y-68006200D01*
X213252671Y-67696030D01*
X213388360Y-67309603D01*
X213528934Y-66870518D01*
X213667467Y-66402373D01*
X213797032Y-65928769D01*
X213910703Y-65473305D01*
X214001554Y-65059580D01*
X214017443Y-64978331D01*
X214050450Y-64774323D01*
X214054577Y-64649952D01*
X214030224Y-64587564D01*
X214026380Y-64584169D01*
X213930895Y-64534389D01*
X213753330Y-64466589D01*
X213510638Y-64385441D01*
X213219771Y-64295619D01*
X212897685Y-64201794D01*
X212561330Y-64108639D01*
X212227662Y-64020826D01*
X211913632Y-63943028D01*
X211636195Y-63879918D01*
X211412303Y-63836167D01*
X211258909Y-63816449D01*
X211238500Y-63815802D01*
X211098800Y-63815200D01*
X211098800Y-64778456D01*
X210882900Y-64750760D01*
X210682673Y-64759535D01*
X210473182Y-64822746D01*
X210289441Y-64924938D01*
X210166469Y-65050658D01*
X210154662Y-65072150D01*
X210074426Y-65202765D01*
X210008628Y-65286158D01*
X209948994Y-65395744D01*
X209950515Y-65470746D01*
X209948873Y-65578527D01*
X209922256Y-65628412D01*
X209889907Y-65714637D01*
X209865009Y-65868040D01*
X209853557Y-66041073D01*
X209844126Y-66233795D01*
X209827496Y-66398738D01*
X209809654Y-66490802D01*
X208050800Y-66490802D01*
X208050800Y-63494493D01*
X207276100Y-63527055D01*
X206070863Y-63616195D01*
X204909423Y-63782943D01*
X203764642Y-64032167D01*
X202640600Y-64358570D01*
X202369674Y-64448221D01*
X202182051Y-64516282D01*
X202063739Y-64570421D01*
X202000742Y-64618304D01*
X201979069Y-64667599D01*
X201665779Y-64667599D01*
X201664918Y-64659952D01*
X201667527Y-64540961D01*
X201690167Y-64456717D01*
X201731537Y-64394553D01*
X201741843Y-64383756D01*
X201844465Y-64318291D01*
X202031888Y-64235562D01*
X202289635Y-64139884D01*
X202603224Y-64035574D01*
X202958178Y-63926948D01*
X203340015Y-63818321D01*
X203734258Y-63714010D01*
X204126425Y-63618331D01*
X204502039Y-63535600D01*
X204748800Y-63487441D01*
X205518177Y-63365758D01*
X206364281Y-63268371D01*
X207225208Y-63198749D01*
X208105973Y-63173286D01*
X209045004Y-63207593D01*
X209045004Y-63207593D01*
G37*
X209045004Y-63207593D02*
X210020670Y-63298682D01*
X211011336Y-63443565D01*
X211995370Y-63639254D01*
X212951138Y-63882762D01*
X213581610Y-64076696D01*
X213827510Y-64163261D01*
X214045063Y-64249208D01*
X214212114Y-64325144D01*
X214306506Y-64381673D01*
X214311288Y-64386088D01*
X214359259Y-64453963D01*
X214384326Y-64548889D01*
X214385565Y-64685153D01*
X214362048Y-64877044D01*
X214312851Y-65138852D01*
X214241288Y-65466200D01*
X213893508Y-66775123D01*
X213453958Y-68045830D01*
X212925132Y-69273758D01*
X212309525Y-70454348D01*
X211609632Y-71583036D01*
X210827949Y-72655264D01*
X209966969Y-73666468D01*
X209474108Y-74181368D01*
X209086709Y-74563752D01*
X208761680Y-74870893D01*
X208496010Y-75105321D01*
X208286688Y-75269563D01*
X208130704Y-75366147D01*
X208025400Y-75397600D01*
X207921740Y-75364163D01*
X207768185Y-75272787D01*
X207587184Y-75136868D01*
X207583537Y-75133868D01*
X207148843Y-74751347D01*
X206682846Y-74297523D01*
X206201883Y-73790833D01*
X205722290Y-73249713D01*
X205260401Y-72692600D01*
X204832554Y-72137931D01*
X204455083Y-71604141D01*
X204452233Y-71599888D01*
X203777708Y-70521941D01*
X203196622Y-69437207D01*
X202701363Y-68328334D01*
X202284322Y-67177968D01*
X201937888Y-65968755D01*
X201880803Y-65736689D01*
X201790281Y-65352058D01*
X201724994Y-65052835D01*
X201683640Y-64826355D01*
X201665779Y-64667599D01*
X201979069Y-64667599D01*
X201983176Y-64718767D01*
X202188537Y-65643043D01*
X202410371Y-66488508D01*
X202656124Y-67277551D01*
X202933240Y-68032559D01*
X203249164Y-68775922D01*
X203527271Y-69361971D01*
X204168507Y-70543887D01*
X204895820Y-71671880D01*
X205708826Y-72745379D01*
X206233523Y-73358529D01*
X206433241Y-73575563D01*
X206657301Y-73808717D01*
X206894595Y-74047533D01*
X207134014Y-74281556D01*
X207364452Y-74500326D01*
X207574801Y-74693386D01*
X207753951Y-74850280D01*
X207890796Y-74960549D01*
X207974227Y-75013737D01*
X207993124Y-75015079D01*
X208000155Y-74959291D01*
X208007722Y-74811987D01*
X208015586Y-74583248D01*
X208023506Y-74283153D01*
X208031244Y-73921783D01*
X208038559Y-73509219D01*
X208045214Y-73055542D01*
X208050800Y-72586737D01*
X208057994Y-71980782D01*
X208065813Y-71470472D01*
X208074466Y-71049850D01*
X208084162Y-70712961D01*
X208095110Y-70453851D01*
X208107518Y-70266564D01*
X208121597Y-70145145D01*
X208137555Y-70083638D01*
X208138718Y-70081473D01*
X208211252Y-70001669D01*
X208344274Y-69892859D01*
X208510469Y-69777162D01*
X208529311Y-69765149D01*
X208720890Y-69637888D01*
X208905518Y-69504868D01*
X209040834Y-69396882D01*
X209224281Y-69235813D01*
X209470507Y-69351138D01*
X209651482Y-69421610D01*
X209763946Y-69426542D01*
X209818814Y-69363749D01*
X209828800Y-69279422D01*
X209859917Y-69158794D01*
X209905000Y-69098400D01*
X209963012Y-69002180D01*
X209981200Y-68899139D01*
X209999585Y-68777721D01*
X210033887Y-68710432D01*
X210059812Y-68613639D01*
X210037597Y-68528922D01*
X210015696Y-68399217D01*
X210039184Y-68349535D01*
X210056643Y-68260652D01*
X210010074Y-68108281D01*
X209958019Y-67955605D01*
X209931327Y-67822407D01*
X209930400Y-67802707D01*
X209887761Y-67685387D01*
X209777346Y-67552280D01*
X209625402Y-67426092D01*
X209458179Y-67329530D01*
X209337787Y-67290070D01*
X209136194Y-67281564D01*
X208873860Y-67312990D01*
X208581033Y-67379072D01*
X208294510Y-67472036D01*
X208050800Y-67564638D01*
X208050800Y-66490802D01*
X209809654Y-66490802D01*
X209809889Y-66583740D01*
X209888670Y-66636118D01*
X210051864Y-66649773D01*
X210261124Y-66632336D01*
X210436017Y-66619211D01*
X210528193Y-66632590D01*
X210540000Y-66648807D01*
X210567979Y-66710122D01*
X210643059Y-66832178D01*
X210751949Y-66994014D01*
X210819400Y-67089548D01*
X211098800Y-67478973D01*
X211100405Y-69596786D01*
X211102010Y-71714600D01*
X211352800Y-71429534D01*
X211352800Y-67428325D01*
X211015913Y-66929862D01*
X210877140Y-66730035D01*
X210752411Y-66560445D01*
X210655885Y-66439715D01*
X210603510Y-66387416D01*
X210507497Y-66365814D01*
X210361888Y-66366407D01*
X210318097Y-66371068D01*
X210108200Y-66398704D01*
X210228127Y-66300752D01*
X210355795Y-66228667D01*
X210469427Y-66202800D01*
X210566119Y-66176621D01*
X210590800Y-66101200D01*
X210552352Y-66018932D01*
X210440188Y-66001942D01*
X210263907Y-66049142D01*
X210170044Y-66072029D01*
X210133600Y-66057142D01*
X210175841Y-66010418D01*
X210281710Y-65944608D01*
X210419921Y-65876879D01*
X210555919Y-65825396D01*
X210628591Y-65784745D01*
X210618360Y-65743924D01*
X210543304Y-65713980D01*
X210421500Y-65705960D01*
X210368313Y-65710747D01*
X210159000Y-65738304D01*
X210278927Y-65640352D01*
X210418854Y-65567365D01*
X210549861Y-65542400D01*
X210658514Y-65525613D01*
X210682464Y-65485654D01*
X210630919Y-65438125D01*
X210513086Y-65398628D01*
X210459829Y-65389836D01*
X210351605Y-65365586D01*
X210333128Y-65337216D01*
X210393071Y-65310906D01*
X210520104Y-65292837D01*
X210645754Y-65288400D01*
X210790207Y-65273243D01*
X210844098Y-65226197D01*
X210844800Y-65217635D01*
X210798533Y-65137957D01*
X210671595Y-65092078D01*
X210573945Y-65084422D01*
X210502159Y-65076324D01*
X210523230Y-65045682D01*
X210540000Y-65034400D01*
X210696790Y-64987482D01*
X210907474Y-65017267D01*
X211177099Y-65124567D01*
X211213616Y-65142671D01*
X211447145Y-65277166D01*
X211691203Y-65445561D01*
X211923915Y-65629859D01*
X212123408Y-65812062D01*
X212267807Y-65974175D01*
X212316928Y-66050400D01*
X212363187Y-66162652D01*
X212428265Y-66350184D01*
X212504711Y-66590130D01*
X212585068Y-66859624D01*
X212615017Y-66964800D01*
X212696630Y-67250669D01*
X212777791Y-67526722D01*
X212850517Y-67766337D01*
X212906820Y-67942888D01*
X212919743Y-67980800D01*
X213017584Y-68260200D01*
X213128793Y-68006200D01*
X213252671Y-67696030D01*
X213388360Y-67309603D01*
X213528934Y-66870518D01*
X213667467Y-66402373D01*
X213797032Y-65928769D01*
X213910703Y-65473305D01*
X214001554Y-65059580D01*
X214017443Y-64978331D01*
X214050450Y-64774323D01*
X214054577Y-64649952D01*
X214030224Y-64587564D01*
X214026380Y-64584169D01*
X213930895Y-64534389D01*
X213753330Y-64466589D01*
X213510638Y-64385441D01*
X213219771Y-64295619D01*
X212897685Y-64201794D01*
X212561330Y-64108639D01*
X212227662Y-64020826D01*
X211913632Y-63943028D01*
X211636195Y-63879918D01*
X211412303Y-63836167D01*
X211258909Y-63816449D01*
X211238500Y-63815802D01*
X211098800Y-63815200D01*
X211098800Y-64778456D01*
X210882900Y-64750760D01*
X210682673Y-64759535D01*
X210473182Y-64822746D01*
X210289441Y-64924938D01*
X210166469Y-65050658D01*
X210154662Y-65072150D01*
X210074426Y-65202765D01*
X210008628Y-65286158D01*
X209948994Y-65395744D01*
X209950515Y-65470746D01*
X209948873Y-65578527D01*
X209922256Y-65628412D01*
X209889907Y-65714637D01*
X209865009Y-65868040D01*
X209853557Y-66041073D01*
X209844126Y-66233795D01*
X209827496Y-66398738D01*
X209809654Y-66490802D01*
X208050800Y-66490802D01*
X208050800Y-63494493D01*
X207276100Y-63527055D01*
X206070863Y-63616195D01*
X204909423Y-63782943D01*
X203764642Y-64032167D01*
X202640600Y-64358570D01*
X202369674Y-64448221D01*
X202182051Y-64516282D01*
X202063739Y-64570421D01*
X202000742Y-64618304D01*
X201979069Y-64667599D01*
X201665779Y-64667599D01*
X201664918Y-64659952D01*
X201667527Y-64540961D01*
X201690167Y-64456717D01*
X201731537Y-64394553D01*
X201741843Y-64383756D01*
X201844465Y-64318291D01*
X202031888Y-64235562D01*
X202289635Y-64139884D01*
X202603224Y-64035574D01*
X202958178Y-63926948D01*
X203340015Y-63818321D01*
X203734258Y-63714010D01*
X204126425Y-63618331D01*
X204502039Y-63535600D01*
X204748800Y-63487441D01*
X205518177Y-63365758D01*
X206364281Y-63268371D01*
X207225208Y-63198749D01*
X208105973Y-63173286D01*
X209045004Y-63207593D01*
D13*
X129377600Y-115939600D02*
X129377600Y-117260400D01*
X132222400Y-115939600D02*
X129377600Y-115939600D01*
X132222400Y-117260400D02*
X132222400Y-115939600D01*
X129377600Y-117260400D02*
X132222400Y-117260400D01*
D10*
X131257200Y-116117400D02*
X131257200Y-117082600D01*
X131257200Y-117082600D02*
X131638200Y-117082600D01*
X131638200Y-116117400D02*
X131257200Y-116117400D01*
X130342800Y-117082600D02*
X130342800Y-116117400D01*
X130342800Y-116117400D02*
X129961800Y-116117400D01*
X129961800Y-117082600D02*
X130342800Y-117082600D01*
X131257200Y-116117400D02*
X130342800Y-116117400D01*
X129961800Y-116117400D02*
X129961800Y-117082600D01*
X130342800Y-117082600D02*
X131257200Y-117082600D01*
X131638200Y-117082600D02*
X131638200Y-116117400D01*
X136861800Y-69917400D02*
X136861800Y-70882600D01*
X138157200Y-69917400D02*
X137242800Y-69917400D01*
X138538200Y-70882600D02*
X138538200Y-69917400D01*
X137242800Y-70882600D02*
X138157200Y-70882600D01*
X138538200Y-69917400D02*
X138157200Y-69917400D01*
X138157200Y-70882600D02*
X138538200Y-70882600D01*
X138157200Y-69917400D02*
X138157200Y-70882600D01*
X136861800Y-70882600D02*
X137242800Y-70882600D01*
X137242800Y-69917400D02*
X136861800Y-69917400D01*
X137242800Y-70882600D02*
X137242800Y-69917400D01*
D13*
X139122400Y-69739600D02*
X136277600Y-69739600D01*
X136277600Y-69739600D02*
X136277600Y-71060400D01*
X136277600Y-71060400D02*
X139122400Y-71060400D01*
X139122400Y-71060400D02*
X139122400Y-69739600D01*
D10*
X131461800Y-76517400D02*
X131461800Y-77482600D01*
X132757200Y-76517400D02*
X131842800Y-76517400D01*
X133138200Y-77482600D02*
X133138200Y-76517400D01*
X131842800Y-77482600D02*
X132757200Y-77482600D01*
X133138200Y-76517400D02*
X132757200Y-76517400D01*
X132757200Y-77482600D02*
X133138200Y-77482600D01*
X132757200Y-76517400D02*
X132757200Y-77482600D01*
X131461800Y-77482600D02*
X131842800Y-77482600D01*
X131842800Y-76517400D02*
X131461800Y-76517400D01*
X131842800Y-77482600D02*
X131842800Y-76517400D01*
D13*
X133722400Y-76339600D02*
X130877600Y-76339600D01*
X130877600Y-76339600D02*
X130877600Y-77660400D01*
X130877600Y-77660400D02*
X133722400Y-77660400D01*
X133722400Y-77660400D02*
X133722400Y-76339600D01*
X121460400Y-67515800D02*
X120139600Y-67515800D01*
X121460400Y-70360600D02*
X121460400Y-67515800D01*
X120139600Y-70360600D02*
X121460400Y-70360600D01*
X120139600Y-67515800D02*
X120139600Y-70360600D01*
D10*
X121282600Y-69395400D02*
X120317400Y-69395400D01*
X120317400Y-69395400D02*
X120317400Y-69776400D01*
X121282600Y-69776400D02*
X121282600Y-69395400D01*
X120317400Y-68481000D02*
X121282600Y-68481000D01*
X121282600Y-68481000D02*
X121282600Y-68100000D01*
X120317400Y-68100000D02*
X120317400Y-68481000D01*
X121282600Y-69395400D02*
X121282600Y-68481000D01*
X121282600Y-68100000D02*
X120317400Y-68100000D01*
X120317400Y-68481000D02*
X120317400Y-69395400D01*
X120317400Y-69776400D02*
X121282600Y-69776400D01*
X120317400Y-66438200D02*
X121282600Y-66438200D01*
X120317400Y-65142800D02*
X120317400Y-66057200D01*
X121282600Y-64761800D02*
X120317400Y-64761800D01*
X121282600Y-66057200D02*
X121282600Y-65142800D01*
X120317400Y-64761800D02*
X120317400Y-65142800D01*
X121282600Y-65142800D02*
X121282600Y-64761800D01*
X120317400Y-65142800D02*
X121282600Y-65142800D01*
X121282600Y-66438200D02*
X121282600Y-66057200D01*
X120317400Y-66057200D02*
X120317400Y-66438200D01*
X121282600Y-66057200D02*
X120317400Y-66057200D01*
D13*
X120139600Y-64177600D02*
X120139600Y-67022400D01*
X120139600Y-67022400D02*
X121460400Y-67022400D01*
X121460400Y-67022400D02*
X121460400Y-64177600D01*
X121460400Y-64177600D02*
X120139600Y-64177600D01*
X128277600Y-60539600D02*
X128277600Y-61860400D01*
X131122400Y-60539600D02*
X128277600Y-60539600D01*
X131122400Y-61860400D02*
X131122400Y-60539600D01*
X128277600Y-61860400D02*
X131122400Y-61860400D01*
D10*
X130157200Y-60717400D02*
X130157200Y-61682600D01*
X130157200Y-61682600D02*
X130538200Y-61682600D01*
X130538200Y-60717400D02*
X130157200Y-60717400D01*
X129242800Y-61682600D02*
X129242800Y-60717400D01*
X129242800Y-60717400D02*
X128861800Y-60717400D01*
X128861800Y-61682600D02*
X129242800Y-61682600D01*
X130157200Y-60717400D02*
X129242800Y-60717400D01*
X128861800Y-60717400D02*
X128861800Y-61682600D01*
X129242800Y-61682600D02*
X130157200Y-61682600D01*
X130538200Y-61682600D02*
X130538200Y-60717400D01*
X136861800Y-71817400D02*
X136861800Y-72782600D01*
X138157200Y-71817400D02*
X137242800Y-71817400D01*
X138538200Y-72782600D02*
X138538200Y-71817400D01*
X137242800Y-72782600D02*
X138157200Y-72782600D01*
X138538200Y-71817400D02*
X138157200Y-71817400D01*
X138157200Y-72782600D02*
X138538200Y-72782600D01*
X138157200Y-71817400D02*
X138157200Y-72782600D01*
X136861800Y-72782600D02*
X137242800Y-72782600D01*
X137242800Y-71817400D02*
X136861800Y-71817400D01*
X137242800Y-72782600D02*
X137242800Y-71817400D01*
D13*
X139122400Y-71639600D02*
X136277600Y-71639600D01*
X136277600Y-71639600D02*
X136277600Y-72960400D01*
X136277600Y-72960400D02*
X139122400Y-72960400D01*
X139122400Y-72960400D02*
X139122400Y-71639600D01*
X135377600Y-58239600D02*
X135377600Y-59560400D01*
X138222400Y-58239600D02*
X135377600Y-58239600D01*
X138222400Y-59560400D02*
X138222400Y-58239600D01*
X135377600Y-59560400D02*
X138222400Y-59560400D01*
D10*
X137257200Y-58417400D02*
X137257200Y-59382600D01*
X137257200Y-59382600D02*
X137638200Y-59382600D01*
X137638200Y-58417400D02*
X137257200Y-58417400D01*
X136342800Y-59382600D02*
X136342800Y-58417400D01*
X136342800Y-58417400D02*
X135961800Y-58417400D01*
X135961800Y-59382600D02*
X136342800Y-59382600D01*
X137257200Y-58417400D02*
X136342800Y-58417400D01*
X135961800Y-58417400D02*
X135961800Y-59382600D01*
X136342800Y-59382600D02*
X137257200Y-59382600D01*
X137638200Y-59382600D02*
X137638200Y-58417400D01*
X132461800Y-58417400D02*
X132461800Y-59382600D01*
X133757200Y-58417400D02*
X132842800Y-58417400D01*
X134138200Y-59382600D02*
X134138200Y-58417400D01*
X132842800Y-59382600D02*
X133757200Y-59382600D01*
X134138200Y-58417400D02*
X133757200Y-58417400D01*
X133757200Y-59382600D02*
X134138200Y-59382600D01*
X133757200Y-58417400D02*
X133757200Y-59382600D01*
X132461800Y-59382600D02*
X132842800Y-59382600D01*
X132842800Y-58417400D02*
X132461800Y-58417400D01*
X132842800Y-59382600D02*
X132842800Y-58417400D01*
D13*
X134722400Y-58239600D02*
X131877600Y-58239600D01*
X131877600Y-58239600D02*
X131877600Y-59560400D01*
X131877600Y-59560400D02*
X134722400Y-59560400D01*
X134722400Y-59560400D02*
X134722400Y-58239600D01*
X127777600Y-134639600D02*
X127777600Y-135960400D01*
X130622400Y-134639600D02*
X127777600Y-134639600D01*
X130622400Y-135960400D02*
X130622400Y-134639600D01*
X127777600Y-135960400D02*
X130622400Y-135960400D01*
D10*
X129657200Y-134817400D02*
X129657200Y-135782600D01*
X129657200Y-135782600D02*
X130038200Y-135782600D01*
X130038200Y-134817400D02*
X129657200Y-134817400D01*
X128742800Y-135782600D02*
X128742800Y-134817400D01*
X128742800Y-134817400D02*
X128361800Y-134817400D01*
X128361800Y-135782600D02*
X128742800Y-135782600D01*
X129657200Y-134817400D02*
X128742800Y-134817400D01*
X128361800Y-134817400D02*
X128361800Y-135782600D01*
X128742800Y-135782600D02*
X129657200Y-135782600D01*
X130038200Y-135782600D02*
X130038200Y-134817400D01*
D13*
X149100000Y-127700000D02*
X149100000Y-132300000D01*
X149300000Y-132300000D02*
X149300000Y-127700000D01*
X138500000Y-132300000D02*
X138500000Y-127700000D01*
X149300000Y-127700000D02*
X138500000Y-127700000D01*
X148900000Y-132300000D02*
X148900000Y-127700000D01*
X138500000Y-132300000D02*
X149300000Y-132300000D01*
D10*
X131561800Y-124117400D02*
X131561800Y-125082600D01*
X132857200Y-124117400D02*
X131942800Y-124117400D01*
X133238200Y-125082600D02*
X133238200Y-124117400D01*
X131942800Y-125082600D02*
X132857200Y-125082600D01*
X133238200Y-124117400D02*
X132857200Y-124117400D01*
X132857200Y-125082600D02*
X133238200Y-125082600D01*
X132857200Y-124117400D02*
X132857200Y-125082600D01*
X131561800Y-125082600D02*
X131942800Y-125082600D01*
X131942800Y-124117400D02*
X131561800Y-124117400D01*
X131942800Y-125082600D02*
X131942800Y-124117400D01*
D13*
X133822400Y-123939600D02*
X130977600Y-123939600D01*
X130977600Y-123939600D02*
X130977600Y-125260400D01*
X130977600Y-125260400D02*
X133822400Y-125260400D01*
X133822400Y-125260400D02*
X133822400Y-123939600D01*
X121800000Y-115400000D02*
X121800000Y-126200000D01*
X121800000Y-125800000D02*
X126400000Y-125800000D01*
X126400000Y-126200000D02*
X126400000Y-115400000D01*
X121800000Y-115400000D02*
X126400000Y-115400000D01*
X121800000Y-126200000D02*
X126400000Y-126200000D01*
X126400000Y-126000000D02*
X121800000Y-126000000D01*
X127577600Y-123939600D02*
X127577600Y-125260400D01*
X130422400Y-123939600D02*
X127577600Y-123939600D01*
X130422400Y-125260400D02*
X130422400Y-123939600D01*
X127577600Y-125260400D02*
X130422400Y-125260400D01*
D10*
X129457200Y-124117400D02*
X129457200Y-125082600D01*
X129457200Y-125082600D02*
X129838200Y-125082600D01*
X129838200Y-124117400D02*
X129457200Y-124117400D01*
X128542800Y-125082600D02*
X128542800Y-124117400D01*
X128542800Y-124117400D02*
X128161800Y-124117400D01*
X128161800Y-125082600D02*
X128542800Y-125082600D01*
X129457200Y-124117400D02*
X128542800Y-124117400D01*
X128161800Y-124117400D02*
X128161800Y-125082600D01*
X128542800Y-125082600D02*
X129457200Y-125082600D01*
X129838200Y-125082600D02*
X129838200Y-124117400D01*
X139538200Y-79082600D02*
X139538200Y-78117400D01*
X138242800Y-79082600D02*
X139157200Y-79082600D01*
X137861800Y-78117400D02*
X137861800Y-79082600D01*
X139157200Y-78117400D02*
X138242800Y-78117400D01*
X137861800Y-79082600D02*
X138242800Y-79082600D01*
X138242800Y-78117400D02*
X137861800Y-78117400D01*
X138242800Y-79082600D02*
X138242800Y-78117400D01*
X139538200Y-78117400D02*
X139157200Y-78117400D01*
X139157200Y-79082600D02*
X139538200Y-79082600D01*
X139157200Y-78117400D02*
X139157200Y-79082600D01*
D13*
X137277600Y-79260400D02*
X140122400Y-79260400D01*
X140122400Y-79260400D02*
X140122400Y-77939600D01*
X140122400Y-77939600D02*
X137277600Y-77939600D01*
X137277600Y-77939600D02*
X137277600Y-79260400D01*
D10*
X139638200Y-94182600D02*
X139638200Y-93217400D01*
X138342800Y-94182600D02*
X139257200Y-94182600D01*
X137961800Y-93217400D02*
X137961800Y-94182600D01*
X139257200Y-93217400D02*
X138342800Y-93217400D01*
X137961800Y-94182600D02*
X138342800Y-94182600D01*
X138342800Y-93217400D02*
X137961800Y-93217400D01*
X138342800Y-94182600D02*
X138342800Y-93217400D01*
X139638200Y-93217400D02*
X139257200Y-93217400D01*
X139257200Y-94182600D02*
X139638200Y-94182600D01*
X139257200Y-93217400D02*
X139257200Y-94182600D01*
D13*
X137377600Y-94360400D02*
X140222400Y-94360400D01*
X140222400Y-94360400D02*
X140222400Y-93039600D01*
X140222400Y-93039600D02*
X137377600Y-93039600D01*
X137377600Y-93039600D02*
X137377600Y-94360400D01*
X204822400Y-84060400D02*
X204822400Y-82739600D01*
X201977600Y-84060400D02*
X204822400Y-84060400D01*
X201977600Y-82739600D02*
X201977600Y-84060400D01*
X204822400Y-82739600D02*
X201977600Y-82739600D01*
D10*
X202942800Y-83882600D02*
X202942800Y-82917400D01*
X202942800Y-82917400D02*
X202561800Y-82917400D01*
X202561800Y-83882600D02*
X202942800Y-83882600D01*
X203857200Y-82917400D02*
X203857200Y-83882600D01*
X203857200Y-83882600D02*
X204238200Y-83882600D01*
X204238200Y-82917400D02*
X203857200Y-82917400D01*
X202942800Y-83882600D02*
X203857200Y-83882600D01*
X204238200Y-83882600D02*
X204238200Y-82917400D01*
X203857200Y-82917400D02*
X202942800Y-82917400D01*
X202561800Y-82917400D02*
X202561800Y-83882600D01*
D13*
X204822400Y-98960400D02*
X204822400Y-97639600D01*
X201977600Y-98960400D02*
X204822400Y-98960400D01*
X201977600Y-97639600D02*
X201977600Y-98960400D01*
X204822400Y-97639600D02*
X201977600Y-97639600D01*
D10*
X202942800Y-98782600D02*
X202942800Y-97817400D01*
X202942800Y-97817400D02*
X202561800Y-97817400D01*
X202561800Y-98782600D02*
X202942800Y-98782600D01*
X203857200Y-97817400D02*
X203857200Y-98782600D01*
X203857200Y-98782600D02*
X204238200Y-98782600D01*
X204238200Y-97817400D02*
X203857200Y-97817400D01*
X202942800Y-98782600D02*
X203857200Y-98782600D01*
X204238200Y-98782600D02*
X204238200Y-97817400D01*
X203857200Y-97817400D02*
X202942800Y-97817400D01*
X202561800Y-97817400D02*
X202561800Y-98782600D01*
D14*
X152899440Y-135849580D02*
X151700560Y-135849580D01*
X152300000Y-135849580D02*
X152899440Y-134950420D01*
X151700560Y-134950420D02*
X152300000Y-135849580D01*
X152899440Y-134950420D02*
X151700560Y-134950420D01*
X143301780Y-134901780D02*
X143301780Y-136898220D01*
X143301780Y-136898220D02*
X144899440Y-135900000D01*
X144899440Y-135900000D02*
X143301780Y-134901780D01*
X144899440Y-134901780D02*
X145097560Y-134901780D01*
X145097560Y-134901780D02*
X145097560Y-136898220D01*
X145097560Y-136898220D02*
X145298220Y-136898220D01*
X142001300Y-137799920D02*
X146499640Y-137799920D01*
X146499640Y-137799920D02*
X146499640Y-137398600D01*
X142001300Y-137799920D02*
X142001300Y-137398600D01*
X142001300Y-134401400D02*
X142001300Y-134000080D01*
X142001300Y-134000080D02*
X146499640Y-134000080D01*
X146499640Y-134000080D02*
X146499640Y-134401400D01*
X134299440Y-129950420D02*
X133100560Y-129950420D01*
X133100560Y-129950420D02*
X133700000Y-130849580D01*
X133700000Y-130849580D02*
X134299440Y-129950420D01*
X134299440Y-130849580D02*
X133100560Y-130849580D01*
X148600840Y-136498500D02*
X148600840Y-135101500D01*
X150399160Y-136498500D02*
X150399160Y-135101500D01*
D15*
X185958095Y-130299960D02*
G75*
G03X185958095Y-130299960I-2758735J0D01*
G01*
X184456955Y-112202460D02*
G75*
G03X184456955Y-112202460I-2758735J0D01*
G01*
X157060515Y-112202460D02*
G75*
G03X157060515Y-112202460I-2758735J0D01*
G01*
X155559375Y-130299960D02*
G75*
G03X155559375Y-130299960I-2758735J0D01*
G01*
D14*
X125784000Y-53152000D02*
X127816000Y-53152000D01*
X125784000Y-59248000D02*
X127816000Y-59248000D01*
D13*
X125600000Y-128500000D02*
X125600000Y-132500000D01*
X121400000Y-128500000D02*
X121400000Y-132500000D01*
X121400000Y-128500000D02*
X121700000Y-128500000D01*
X121400000Y-132500000D02*
X121700000Y-132500000D01*
X125600000Y-132500000D02*
X125300000Y-132500000D01*
X125300000Y-128500000D02*
X125600000Y-128500000D01*
D10*
X172038200Y-57582600D02*
X172038200Y-56617400D01*
X170742800Y-57582600D02*
X171657200Y-57582600D01*
X170361800Y-56617400D02*
X170361800Y-57582600D01*
X171657200Y-56617400D02*
X170742800Y-56617400D01*
X170361800Y-57582600D02*
X170742800Y-57582600D01*
X170742800Y-56617400D02*
X170361800Y-56617400D01*
X170742800Y-57582600D02*
X170742800Y-56617400D01*
X172038200Y-56617400D02*
X171657200Y-56617400D01*
X171657200Y-57582600D02*
X172038200Y-57582600D01*
X171657200Y-56617400D02*
X171657200Y-57582600D01*
D13*
X169777600Y-57760400D02*
X172622400Y-57760400D01*
X172622400Y-57760400D02*
X172622400Y-56439600D01*
X172622400Y-56439600D02*
X169777600Y-56439600D01*
X169777600Y-56439600D02*
X169777600Y-57760400D01*
X169777600Y-54239600D02*
X169777600Y-55560400D01*
X172622400Y-54239600D02*
X169777600Y-54239600D01*
X172622400Y-55560400D02*
X172622400Y-54239600D01*
X169777600Y-55560400D02*
X172622400Y-55560400D01*
D10*
X171657200Y-54417400D02*
X171657200Y-55382600D01*
X171657200Y-55382600D02*
X172038200Y-55382600D01*
X172038200Y-54417400D02*
X171657200Y-54417400D01*
X170742800Y-55382600D02*
X170742800Y-54417400D01*
X170742800Y-54417400D02*
X170361800Y-54417400D01*
X170361800Y-55382600D02*
X170742800Y-55382600D01*
X171657200Y-54417400D02*
X170742800Y-54417400D01*
X170361800Y-54417400D02*
X170361800Y-55382600D01*
X170742800Y-55382600D02*
X171657200Y-55382600D01*
X172038200Y-55382600D02*
X172038200Y-54417400D01*
X129338200Y-52382600D02*
X129338200Y-51417400D01*
X128042800Y-52382600D02*
X128957200Y-52382600D01*
X127661800Y-51417400D02*
X127661800Y-52382600D01*
X128957200Y-51417400D02*
X128042800Y-51417400D01*
X127661800Y-52382600D02*
X128042800Y-52382600D01*
X128042800Y-51417400D02*
X127661800Y-51417400D01*
X128042800Y-52382600D02*
X128042800Y-51417400D01*
X129338200Y-51417400D02*
X128957200Y-51417400D01*
X128957200Y-52382600D02*
X129338200Y-52382600D01*
X128957200Y-51417400D02*
X128957200Y-52382600D01*
D13*
X127077600Y-52560400D02*
X129922400Y-52560400D01*
X129922400Y-52560400D02*
X129922400Y-51239600D01*
X129922400Y-51239600D02*
X127077600Y-51239600D01*
X127077600Y-51239600D02*
X127077600Y-52560400D01*
X126522400Y-52560400D02*
X126522400Y-51239600D01*
X123677600Y-52560400D02*
X126522400Y-52560400D01*
X123677600Y-51239600D02*
X123677600Y-52560400D01*
X126522400Y-51239600D02*
X123677600Y-51239600D01*
D10*
X124642800Y-52382600D02*
X124642800Y-51417400D01*
X124642800Y-51417400D02*
X124261800Y-51417400D01*
X124261800Y-52382600D02*
X124642800Y-52382600D01*
X125557200Y-51417400D02*
X125557200Y-52382600D01*
X125557200Y-52382600D02*
X125938200Y-52382600D01*
X125938200Y-51417400D02*
X125557200Y-51417400D01*
X124642800Y-52382600D02*
X125557200Y-52382600D01*
X125938200Y-52382600D02*
X125938200Y-51417400D01*
X125557200Y-51417400D02*
X124642800Y-51417400D01*
X124261800Y-51417400D02*
X124261800Y-52382600D01*
D16*
X128300000Y-84800000D02*
X127900000Y-84800000D01*
X128300000Y-87800000D02*
X127900000Y-87800000D01*
D13*
X151400000Y-104300000D02*
X147200000Y-104300000D01*
X151400000Y-112700000D02*
X151400000Y-104300000D01*
X147200000Y-112700000D02*
X151400000Y-112700000D01*
X147200000Y-104300000D02*
X147200000Y-112700000D01*
X145800000Y-104300000D02*
X141600000Y-104300000D01*
X145800000Y-112700000D02*
X145800000Y-104300000D01*
X141600000Y-112700000D02*
X145800000Y-112700000D01*
X141600000Y-104300000D02*
X141600000Y-112700000D01*
X163150000Y-104300000D02*
X163150000Y-112700000D01*
X163150000Y-112700000D02*
X167350000Y-112700000D01*
X167350000Y-112700000D02*
X167350000Y-104300000D01*
X167350000Y-104300000D02*
X163150000Y-104300000D01*
X161850000Y-104300000D02*
X157650000Y-104300000D01*
X161850000Y-112700000D02*
X161850000Y-104300000D01*
X157650000Y-112700000D02*
X161850000Y-112700000D01*
X157650000Y-104300000D02*
X157650000Y-112700000D01*
D16*
X213700000Y-89300000D02*
X214100000Y-89300000D01*
X213700000Y-92300000D02*
X214100000Y-92300000D01*
D13*
X174150000Y-104300000D02*
X174150000Y-112700000D01*
X174150000Y-112700000D02*
X178350000Y-112700000D01*
X178350000Y-112700000D02*
X178350000Y-104300000D01*
X178350000Y-104300000D02*
X174150000Y-104300000D01*
X168650000Y-104300000D02*
X168650000Y-112700000D01*
X168650000Y-112700000D02*
X172850000Y-112700000D01*
X172850000Y-112700000D02*
X172850000Y-104300000D01*
X172850000Y-104300000D02*
X168650000Y-104300000D01*
X191850000Y-104300000D02*
X187650000Y-104300000D01*
X191850000Y-112700000D02*
X191850000Y-104300000D01*
X187650000Y-112700000D02*
X191850000Y-112700000D01*
X187650000Y-104300000D02*
X187650000Y-112700000D01*
D17*
X133998720Y-64001280D02*
X133998720Y-64600720D01*
X133399280Y-64001280D02*
X133998720Y-64001280D01*
X133998720Y-73399280D02*
X133998720Y-73998720D01*
X124001280Y-73399280D02*
X124001280Y-73998720D01*
X124001280Y-64001280D02*
X124001280Y-64600720D01*
X124001280Y-73998720D02*
X124600720Y-73998720D01*
X133399280Y-73998720D02*
X133998720Y-73998720D01*
X124001280Y-64001280D02*
X124600720Y-64001280D01*
X123602500Y-73399280D02*
X123602500Y-74397500D01*
X123602500Y-74397500D02*
X124600720Y-74397500D01*
D18*
X135948550Y-114090969D02*
G75*
G03X135948550Y-114090969I-251447J0D01*
G01*
D14*
X134427103Y-113455969D02*
X138237103Y-113455969D01*
X134427103Y-118535969D02*
X134427103Y-113455969D01*
X138237103Y-118535969D02*
X134427103Y-118535969D01*
X138237103Y-113455969D02*
X138237103Y-118535969D01*
D13*
X135691132Y-79757308D02*
G75*
G03X137215132Y-79757308I762000J0D01*
G01*
X133764342Y-80519308D02*
G75*
G03X133764342Y-80519308I-359210J0D01*
G01*
X132643132Y-92457308D02*
X140263132Y-92457308D01*
X132643132Y-79757308D02*
X132643132Y-92457308D01*
X140263132Y-79757308D02*
X132643132Y-79757308D01*
X140263132Y-92457308D02*
X140263132Y-79757308D01*
D16*
X163575000Y-95075000D02*
X163575000Y-88925000D01*
X158425000Y-95075000D02*
X158425000Y-88925000D01*
X146925000Y-95075000D02*
X146925000Y-88925000D01*
X152075000Y-95075000D02*
X152075000Y-88925000D01*
D13*
X133900000Y-100300000D02*
X135500000Y-100300000D01*
X133900000Y-103300000D02*
X135500000Y-103300000D01*
X135500000Y-102200000D02*
X135500000Y-101400000D01*
X133900000Y-96700000D02*
X135500000Y-96700000D01*
X133900000Y-99700000D02*
X135500000Y-99700000D01*
X135500000Y-98600000D02*
X135500000Y-97800000D01*
X133900000Y-107500000D02*
X135500000Y-107500000D01*
X133900000Y-110500000D02*
X135500000Y-110500000D01*
X135500000Y-109400000D02*
X135500000Y-108600000D01*
X135500000Y-105800000D02*
X135500000Y-105000000D01*
X133900000Y-106900000D02*
X135500000Y-106900000D01*
X133900000Y-103900000D02*
X135500000Y-103900000D01*
X201956868Y-84542692D02*
X201956868Y-97242692D01*
X201956868Y-97242692D02*
X209576868Y-97242692D01*
X209576868Y-97242692D02*
X209576868Y-84542692D01*
X209576868Y-84542692D02*
X201956868Y-84542692D01*
X209174078Y-96480692D02*
G75*
G03X209174078Y-96480692I-359210J0D01*
G01*
X206528868Y-97242692D02*
G75*
G03X205004868Y-97242692I-762000J0D01*
G01*
D16*
X169925000Y-95075000D02*
X169925000Y-88925000D01*
X175075000Y-95075000D02*
X175075000Y-88925000D01*
X183675000Y-95075000D02*
X183675000Y-88925000D01*
X178525000Y-95075000D02*
X178525000Y-88925000D01*
X189675000Y-95075000D02*
X189675000Y-88925000D01*
X184525000Y-95075000D02*
X184525000Y-88925000D01*
D13*
X200900000Y-108000000D02*
X200900000Y-108800000D01*
X202500000Y-106900000D02*
X200900000Y-106900000D01*
X202500000Y-109900000D02*
X200900000Y-109900000D01*
X200900000Y-103900000D02*
X200900000Y-104700000D01*
X202500000Y-102800000D02*
X200900000Y-102800000D01*
X202500000Y-105800000D02*
X200900000Y-105800000D01*
X200900000Y-112100000D02*
X200900000Y-112900000D01*
X202500000Y-111000000D02*
X200900000Y-111000000D01*
X202500000Y-114000000D02*
X200900000Y-114000000D01*
D14*
X131840000Y-132405000D02*
X126760000Y-132405000D01*
X126760000Y-132405000D02*
X126760000Y-128595000D01*
X126760000Y-128595000D02*
X131840000Y-128595000D01*
X131840000Y-128595000D02*
X131840000Y-132405000D01*
D18*
X131456447Y-129865000D02*
G75*
G03X131456447Y-129865000I-251447J0D01*
G01*
D17*
X130547800Y-121050420D02*
X127652200Y-121050420D01*
X127652200Y-121050420D02*
X127652200Y-122149580D01*
X130547800Y-121050420D02*
X130547800Y-122149580D01*
X130547800Y-122149580D02*
X127652200Y-122149580D01*
D19*
X137498420Y-57598600D02*
X137297760Y-57799260D01*
X137297760Y-57799260D02*
X132502240Y-57799260D01*
X132502240Y-57799260D02*
X132301580Y-57598600D01*
X132202520Y-54601400D02*
X132400640Y-54400740D01*
X132400640Y-54400740D02*
X137297760Y-54400740D01*
X137297760Y-54400740D02*
X137498420Y-54601400D01*
D15*
X146841416Y-54202460D02*
G75*
G03X146841416Y-54202460I-2539616J0D01*
G01*
X145340276Y-72299960D02*
G75*
G03X145340276Y-72299960I-2539616J0D01*
G01*
X195738956Y-72299960D02*
G75*
G03X195738956Y-72299960I-2539616J0D01*
G01*
X194237816Y-54202460D02*
G75*
G03X194237816Y-54202460I-2539616J0D01*
G01*
D20*
X128590438Y-114490285D02*
X128551733Y-114528990D01*
X128435619Y-114567695D01*
X128358209Y-114567695D01*
X128242095Y-114528990D01*
X128164685Y-114451580D01*
X128125980Y-114374171D01*
X128087276Y-114219352D01*
X128087276Y-114103238D01*
X128125980Y-113948419D01*
X128164685Y-113871009D01*
X128242095Y-113793600D01*
X128358209Y-113754895D01*
X128435619Y-113754895D01*
X128551733Y-113793600D01*
X128590438Y-113832304D01*
X128900076Y-113832304D02*
X128938780Y-113793600D01*
X129016190Y-113754895D01*
X129209714Y-113754895D01*
X129287123Y-113793600D01*
X129325828Y-113832304D01*
X129364533Y-113909714D01*
X129364533Y-113987123D01*
X129325828Y-114103238D01*
X128861371Y-114567695D01*
X129364533Y-114567695D01*
X129867695Y-113754895D02*
X129945104Y-113754895D01*
X130022514Y-113793600D01*
X130061219Y-113832304D01*
X130099923Y-113909714D01*
X130138628Y-114064533D01*
X130138628Y-114258057D01*
X130099923Y-114412876D01*
X130061219Y-114490285D01*
X130022514Y-114528990D01*
X129945104Y-114567695D01*
X129867695Y-114567695D01*
X129790285Y-114528990D01*
X129751580Y-114490285D01*
X129712876Y-114412876D01*
X129674171Y-114258057D01*
X129674171Y-114064533D01*
X129712876Y-113909714D01*
X129751580Y-113832304D01*
X129790285Y-113793600D01*
X129867695Y-113754895D01*
X130525676Y-114567695D02*
X130680495Y-114567695D01*
X130757904Y-114528990D01*
X130796609Y-114490285D01*
X130874019Y-114374171D01*
X130912723Y-114219352D01*
X130912723Y-113909714D01*
X130874019Y-113832304D01*
X130835314Y-113793600D01*
X130757904Y-113754895D01*
X130603085Y-113754895D01*
X130525676Y-113793600D01*
X130486971Y-113832304D01*
X130448266Y-113909714D01*
X130448266Y-114103238D01*
X130486971Y-114180647D01*
X130525676Y-114219352D01*
X130603085Y-114258057D01*
X130757904Y-114258057D01*
X130835314Y-114219352D01*
X130874019Y-114180647D01*
X130912723Y-114103238D01*
X128342095Y-115621495D02*
X127877638Y-115621495D01*
X128109866Y-115621495D02*
X128109866Y-114808695D01*
X128032457Y-114924809D01*
X127955047Y-115002219D01*
X127877638Y-115040923D01*
X128845257Y-114808695D02*
X128922666Y-114808695D01*
X129000076Y-114847400D01*
X129038780Y-114886104D01*
X129077485Y-114963514D01*
X129116190Y-115118333D01*
X129116190Y-115311857D01*
X129077485Y-115466676D01*
X129038780Y-115544085D01*
X129000076Y-115582790D01*
X128922666Y-115621495D01*
X128845257Y-115621495D01*
X128767847Y-115582790D01*
X128729142Y-115544085D01*
X128690438Y-115466676D01*
X128651733Y-115311857D01*
X128651733Y-115118333D01*
X128690438Y-114963514D01*
X128729142Y-114886104D01*
X128767847Y-114847400D01*
X128845257Y-114808695D01*
X129619352Y-114808695D02*
X129696761Y-114808695D01*
X129774171Y-114847400D01*
X129812876Y-114886104D01*
X129851580Y-114963514D01*
X129890285Y-115118333D01*
X129890285Y-115311857D01*
X129851580Y-115466676D01*
X129812876Y-115544085D01*
X129774171Y-115582790D01*
X129696761Y-115621495D01*
X129619352Y-115621495D01*
X129541942Y-115582790D01*
X129503238Y-115544085D01*
X129464533Y-115466676D01*
X129425828Y-115311857D01*
X129425828Y-115118333D01*
X129464533Y-114963514D01*
X129503238Y-114886104D01*
X129541942Y-114847400D01*
X129619352Y-114808695D01*
X130238628Y-115079628D02*
X130238628Y-115621495D01*
X130238628Y-115157038D02*
X130277333Y-115118333D01*
X130354742Y-115079628D01*
X130470857Y-115079628D01*
X130548266Y-115118333D01*
X130586971Y-115195742D01*
X130586971Y-115621495D01*
X131244952Y-115195742D02*
X130974019Y-115195742D01*
X130974019Y-115621495D02*
X130974019Y-114808695D01*
X131361066Y-114808695D01*
X138290438Y-68390285D02*
X138251733Y-68428990D01*
X138135619Y-68467695D01*
X138058209Y-68467695D01*
X137942095Y-68428990D01*
X137864685Y-68351580D01*
X137825980Y-68274171D01*
X137787276Y-68119352D01*
X137787276Y-68003238D01*
X137825980Y-67848419D01*
X137864685Y-67771009D01*
X137942095Y-67693600D01*
X138058209Y-67654895D01*
X138135619Y-67654895D01*
X138251733Y-67693600D01*
X138290438Y-67732304D01*
X138600076Y-67732304D02*
X138638780Y-67693600D01*
X138716190Y-67654895D01*
X138909714Y-67654895D01*
X138987123Y-67693600D01*
X139025828Y-67732304D01*
X139064533Y-67809714D01*
X139064533Y-67887123D01*
X139025828Y-68003238D01*
X138561371Y-68467695D01*
X139064533Y-68467695D01*
X139567695Y-67654895D02*
X139645104Y-67654895D01*
X139722514Y-67693600D01*
X139761219Y-67732304D01*
X139799923Y-67809714D01*
X139838628Y-67964533D01*
X139838628Y-68158057D01*
X139799923Y-68312876D01*
X139761219Y-68390285D01*
X139722514Y-68428990D01*
X139645104Y-68467695D01*
X139567695Y-68467695D01*
X139490285Y-68428990D01*
X139451580Y-68390285D01*
X139412876Y-68312876D01*
X139374171Y-68158057D01*
X139374171Y-67964533D01*
X139412876Y-67809714D01*
X139451580Y-67732304D01*
X139490285Y-67693600D01*
X139567695Y-67654895D01*
X140612723Y-68467695D02*
X140148266Y-68467695D01*
X140380495Y-68467695D02*
X140380495Y-67654895D01*
X140303085Y-67771009D01*
X140225676Y-67848419D01*
X140148266Y-67887123D01*
X138242095Y-69467695D02*
X137777638Y-69467695D01*
X138009866Y-69467695D02*
X138009866Y-68654895D01*
X137932457Y-68771009D01*
X137855047Y-68848419D01*
X137777638Y-68887123D01*
X138745257Y-68654895D02*
X138822666Y-68654895D01*
X138900076Y-68693600D01*
X138938780Y-68732304D01*
X138977485Y-68809714D01*
X139016190Y-68964533D01*
X139016190Y-69158057D01*
X138977485Y-69312876D01*
X138938780Y-69390285D01*
X138900076Y-69428990D01*
X138822666Y-69467695D01*
X138745257Y-69467695D01*
X138667847Y-69428990D01*
X138629142Y-69390285D01*
X138590438Y-69312876D01*
X138551733Y-69158057D01*
X138551733Y-68964533D01*
X138590438Y-68809714D01*
X138629142Y-68732304D01*
X138667847Y-68693600D01*
X138745257Y-68654895D01*
X139519352Y-68654895D02*
X139596761Y-68654895D01*
X139674171Y-68693600D01*
X139712876Y-68732304D01*
X139751580Y-68809714D01*
X139790285Y-68964533D01*
X139790285Y-69158057D01*
X139751580Y-69312876D01*
X139712876Y-69390285D01*
X139674171Y-69428990D01*
X139596761Y-69467695D01*
X139519352Y-69467695D01*
X139441942Y-69428990D01*
X139403238Y-69390285D01*
X139364533Y-69312876D01*
X139325828Y-69158057D01*
X139325828Y-68964533D01*
X139364533Y-68809714D01*
X139403238Y-68732304D01*
X139441942Y-68693600D01*
X139519352Y-68654895D01*
X140138628Y-68925828D02*
X140138628Y-69467695D01*
X140138628Y-69003238D02*
X140177333Y-68964533D01*
X140254742Y-68925828D01*
X140370857Y-68925828D01*
X140448266Y-68964533D01*
X140486971Y-69041942D01*
X140486971Y-69467695D01*
X141144952Y-69041942D02*
X140874019Y-69041942D01*
X140874019Y-69467695D02*
X140874019Y-68654895D01*
X141261066Y-68654895D01*
X134590438Y-76690285D02*
X134551733Y-76728990D01*
X134435619Y-76767695D01*
X134358209Y-76767695D01*
X134242095Y-76728990D01*
X134164685Y-76651580D01*
X134125980Y-76574171D01*
X134087276Y-76419352D01*
X134087276Y-76303238D01*
X134125980Y-76148419D01*
X134164685Y-76071009D01*
X134242095Y-75993600D01*
X134358209Y-75954895D01*
X134435619Y-75954895D01*
X134551733Y-75993600D01*
X134590438Y-76032304D01*
X134900076Y-76032304D02*
X134938780Y-75993600D01*
X135016190Y-75954895D01*
X135209714Y-75954895D01*
X135287123Y-75993600D01*
X135325828Y-76032304D01*
X135364533Y-76109714D01*
X135364533Y-76187123D01*
X135325828Y-76303238D01*
X134861371Y-76767695D01*
X135364533Y-76767695D01*
X135867695Y-75954895D02*
X135945104Y-75954895D01*
X136022514Y-75993600D01*
X136061219Y-76032304D01*
X136099923Y-76109714D01*
X136138628Y-76264533D01*
X136138628Y-76458057D01*
X136099923Y-76612876D01*
X136061219Y-76690285D01*
X136022514Y-76728990D01*
X135945104Y-76767695D01*
X135867695Y-76767695D01*
X135790285Y-76728990D01*
X135751580Y-76690285D01*
X135712876Y-76612876D01*
X135674171Y-76458057D01*
X135674171Y-76264533D01*
X135712876Y-76109714D01*
X135751580Y-76032304D01*
X135790285Y-75993600D01*
X135867695Y-75954895D01*
X136448266Y-76032304D02*
X136486971Y-75993600D01*
X136564380Y-75954895D01*
X136757904Y-75954895D01*
X136835314Y-75993600D01*
X136874019Y-76032304D01*
X136912723Y-76109714D01*
X136912723Y-76187123D01*
X136874019Y-76303238D01*
X136409561Y-76767695D01*
X136912723Y-76767695D01*
X134542095Y-77967695D02*
X134077638Y-77967695D01*
X134309866Y-77967695D02*
X134309866Y-77154895D01*
X134232457Y-77271009D01*
X134155047Y-77348419D01*
X134077638Y-77387123D01*
X135045257Y-77154895D02*
X135122666Y-77154895D01*
X135200076Y-77193600D01*
X135238780Y-77232304D01*
X135277485Y-77309714D01*
X135316190Y-77464533D01*
X135316190Y-77658057D01*
X135277485Y-77812876D01*
X135238780Y-77890285D01*
X135200076Y-77928990D01*
X135122666Y-77967695D01*
X135045257Y-77967695D01*
X134967847Y-77928990D01*
X134929142Y-77890285D01*
X134890438Y-77812876D01*
X134851733Y-77658057D01*
X134851733Y-77464533D01*
X134890438Y-77309714D01*
X134929142Y-77232304D01*
X134967847Y-77193600D01*
X135045257Y-77154895D01*
X135819352Y-77154895D02*
X135896761Y-77154895D01*
X135974171Y-77193600D01*
X136012876Y-77232304D01*
X136051580Y-77309714D01*
X136090285Y-77464533D01*
X136090285Y-77658057D01*
X136051580Y-77812876D01*
X136012876Y-77890285D01*
X135974171Y-77928990D01*
X135896761Y-77967695D01*
X135819352Y-77967695D01*
X135741942Y-77928990D01*
X135703238Y-77890285D01*
X135664533Y-77812876D01*
X135625828Y-77658057D01*
X135625828Y-77464533D01*
X135664533Y-77309714D01*
X135703238Y-77232304D01*
X135741942Y-77193600D01*
X135819352Y-77154895D01*
X136438628Y-77425828D02*
X136438628Y-77967695D01*
X136438628Y-77503238D02*
X136477333Y-77464533D01*
X136554742Y-77425828D01*
X136670857Y-77425828D01*
X136748266Y-77464533D01*
X136786971Y-77541942D01*
X136786971Y-77967695D01*
X137444952Y-77541942D02*
X137174019Y-77541942D01*
X137174019Y-77967695D02*
X137174019Y-77154895D01*
X137561066Y-77154895D01*
X119490438Y-71390285D02*
X119451733Y-71428990D01*
X119335619Y-71467695D01*
X119258209Y-71467695D01*
X119142095Y-71428990D01*
X119064685Y-71351580D01*
X119025980Y-71274171D01*
X118987276Y-71119352D01*
X118987276Y-71003238D01*
X119025980Y-70848419D01*
X119064685Y-70771009D01*
X119142095Y-70693600D01*
X119258209Y-70654895D01*
X119335619Y-70654895D01*
X119451733Y-70693600D01*
X119490438Y-70732304D01*
X119800076Y-70732304D02*
X119838780Y-70693600D01*
X119916190Y-70654895D01*
X120109714Y-70654895D01*
X120187123Y-70693600D01*
X120225828Y-70732304D01*
X120264533Y-70809714D01*
X120264533Y-70887123D01*
X120225828Y-71003238D01*
X119761371Y-71467695D01*
X120264533Y-71467695D01*
X120767695Y-70654895D02*
X120845104Y-70654895D01*
X120922514Y-70693600D01*
X120961219Y-70732304D01*
X120999923Y-70809714D01*
X121038628Y-70964533D01*
X121038628Y-71158057D01*
X120999923Y-71312876D01*
X120961219Y-71390285D01*
X120922514Y-71428990D01*
X120845104Y-71467695D01*
X120767695Y-71467695D01*
X120690285Y-71428990D01*
X120651580Y-71390285D01*
X120612876Y-71312876D01*
X120574171Y-71158057D01*
X120574171Y-70964533D01*
X120612876Y-70809714D01*
X120651580Y-70732304D01*
X120690285Y-70693600D01*
X120767695Y-70654895D01*
X121309561Y-70654895D02*
X121812723Y-70654895D01*
X121541790Y-70964533D01*
X121657904Y-70964533D01*
X121735314Y-71003238D01*
X121774019Y-71041942D01*
X121812723Y-71119352D01*
X121812723Y-71312876D01*
X121774019Y-71390285D01*
X121735314Y-71428990D01*
X121657904Y-71467695D01*
X121425676Y-71467695D01*
X121348266Y-71428990D01*
X121309561Y-71390285D01*
X119342095Y-72567695D02*
X118877638Y-72567695D01*
X119109866Y-72567695D02*
X119109866Y-71754895D01*
X119032457Y-71871009D01*
X118955047Y-71948419D01*
X118877638Y-71987123D01*
X119845257Y-71754895D02*
X119922666Y-71754895D01*
X120000076Y-71793600D01*
X120038780Y-71832304D01*
X120077485Y-71909714D01*
X120116190Y-72064533D01*
X120116190Y-72258057D01*
X120077485Y-72412876D01*
X120038780Y-72490285D01*
X120000076Y-72528990D01*
X119922666Y-72567695D01*
X119845257Y-72567695D01*
X119767847Y-72528990D01*
X119729142Y-72490285D01*
X119690438Y-72412876D01*
X119651733Y-72258057D01*
X119651733Y-72064533D01*
X119690438Y-71909714D01*
X119729142Y-71832304D01*
X119767847Y-71793600D01*
X119845257Y-71754895D01*
X120619352Y-71754895D02*
X120696761Y-71754895D01*
X120774171Y-71793600D01*
X120812876Y-71832304D01*
X120851580Y-71909714D01*
X120890285Y-72064533D01*
X120890285Y-72258057D01*
X120851580Y-72412876D01*
X120812876Y-72490285D01*
X120774171Y-72528990D01*
X120696761Y-72567695D01*
X120619352Y-72567695D01*
X120541942Y-72528990D01*
X120503238Y-72490285D01*
X120464533Y-72412876D01*
X120425828Y-72258057D01*
X120425828Y-72064533D01*
X120464533Y-71909714D01*
X120503238Y-71832304D01*
X120541942Y-71793600D01*
X120619352Y-71754895D01*
X121238628Y-72025828D02*
X121238628Y-72567695D01*
X121238628Y-72103238D02*
X121277333Y-72064533D01*
X121354742Y-72025828D01*
X121470857Y-72025828D01*
X121548266Y-72064533D01*
X121586971Y-72141942D01*
X121586971Y-72567695D01*
X122244952Y-72141942D02*
X121974019Y-72141942D01*
X121974019Y-72567695D02*
X121974019Y-71754895D01*
X122361066Y-71754895D01*
X119790438Y-62890285D02*
X119751733Y-62928990D01*
X119635619Y-62967695D01*
X119558209Y-62967695D01*
X119442095Y-62928990D01*
X119364685Y-62851580D01*
X119325980Y-62774171D01*
X119287276Y-62619352D01*
X119287276Y-62503238D01*
X119325980Y-62348419D01*
X119364685Y-62271009D01*
X119442095Y-62193600D01*
X119558209Y-62154895D01*
X119635619Y-62154895D01*
X119751733Y-62193600D01*
X119790438Y-62232304D01*
X120100076Y-62232304D02*
X120138780Y-62193600D01*
X120216190Y-62154895D01*
X120409714Y-62154895D01*
X120487123Y-62193600D01*
X120525828Y-62232304D01*
X120564533Y-62309714D01*
X120564533Y-62387123D01*
X120525828Y-62503238D01*
X120061371Y-62967695D01*
X120564533Y-62967695D01*
X121067695Y-62154895D02*
X121145104Y-62154895D01*
X121222514Y-62193600D01*
X121261219Y-62232304D01*
X121299923Y-62309714D01*
X121338628Y-62464533D01*
X121338628Y-62658057D01*
X121299923Y-62812876D01*
X121261219Y-62890285D01*
X121222514Y-62928990D01*
X121145104Y-62967695D01*
X121067695Y-62967695D01*
X120990285Y-62928990D01*
X120951580Y-62890285D01*
X120912876Y-62812876D01*
X120874171Y-62658057D01*
X120874171Y-62464533D01*
X120912876Y-62309714D01*
X120951580Y-62232304D01*
X120990285Y-62193600D01*
X121067695Y-62154895D01*
X122035314Y-62425828D02*
X122035314Y-62967695D01*
X121841790Y-62116190D02*
X121648266Y-62696761D01*
X122151428Y-62696761D01*
X119742095Y-63967695D02*
X119277638Y-63967695D01*
X119509866Y-63967695D02*
X119509866Y-63154895D01*
X119432457Y-63271009D01*
X119355047Y-63348419D01*
X119277638Y-63387123D01*
X120245257Y-63154895D02*
X120322666Y-63154895D01*
X120400076Y-63193600D01*
X120438780Y-63232304D01*
X120477485Y-63309714D01*
X120516190Y-63464533D01*
X120516190Y-63658057D01*
X120477485Y-63812876D01*
X120438780Y-63890285D01*
X120400076Y-63928990D01*
X120322666Y-63967695D01*
X120245257Y-63967695D01*
X120167847Y-63928990D01*
X120129142Y-63890285D01*
X120090438Y-63812876D01*
X120051733Y-63658057D01*
X120051733Y-63464533D01*
X120090438Y-63309714D01*
X120129142Y-63232304D01*
X120167847Y-63193600D01*
X120245257Y-63154895D01*
X121019352Y-63154895D02*
X121096761Y-63154895D01*
X121174171Y-63193600D01*
X121212876Y-63232304D01*
X121251580Y-63309714D01*
X121290285Y-63464533D01*
X121290285Y-63658057D01*
X121251580Y-63812876D01*
X121212876Y-63890285D01*
X121174171Y-63928990D01*
X121096761Y-63967695D01*
X121019352Y-63967695D01*
X120941942Y-63928990D01*
X120903238Y-63890285D01*
X120864533Y-63812876D01*
X120825828Y-63658057D01*
X120825828Y-63464533D01*
X120864533Y-63309714D01*
X120903238Y-63232304D01*
X120941942Y-63193600D01*
X121019352Y-63154895D01*
X121638628Y-63425828D02*
X121638628Y-63967695D01*
X121638628Y-63503238D02*
X121677333Y-63464533D01*
X121754742Y-63425828D01*
X121870857Y-63425828D01*
X121948266Y-63464533D01*
X121986971Y-63541942D01*
X121986971Y-63967695D01*
X122644952Y-63541942D02*
X122374019Y-63541942D01*
X122374019Y-63967695D02*
X122374019Y-63154895D01*
X122761066Y-63154895D01*
X125590438Y-60990285D02*
X125551733Y-61028990D01*
X125435619Y-61067695D01*
X125358209Y-61067695D01*
X125242095Y-61028990D01*
X125164685Y-60951580D01*
X125125980Y-60874171D01*
X125087276Y-60719352D01*
X125087276Y-60603238D01*
X125125980Y-60448419D01*
X125164685Y-60371009D01*
X125242095Y-60293600D01*
X125358209Y-60254895D01*
X125435619Y-60254895D01*
X125551733Y-60293600D01*
X125590438Y-60332304D01*
X125900076Y-60332304D02*
X125938780Y-60293600D01*
X126016190Y-60254895D01*
X126209714Y-60254895D01*
X126287123Y-60293600D01*
X126325828Y-60332304D01*
X126364533Y-60409714D01*
X126364533Y-60487123D01*
X126325828Y-60603238D01*
X125861371Y-61067695D01*
X126364533Y-61067695D01*
X126867695Y-60254895D02*
X126945104Y-60254895D01*
X127022514Y-60293600D01*
X127061219Y-60332304D01*
X127099923Y-60409714D01*
X127138628Y-60564533D01*
X127138628Y-60758057D01*
X127099923Y-60912876D01*
X127061219Y-60990285D01*
X127022514Y-61028990D01*
X126945104Y-61067695D01*
X126867695Y-61067695D01*
X126790285Y-61028990D01*
X126751580Y-60990285D01*
X126712876Y-60912876D01*
X126674171Y-60758057D01*
X126674171Y-60564533D01*
X126712876Y-60409714D01*
X126751580Y-60332304D01*
X126790285Y-60293600D01*
X126867695Y-60254895D01*
X127874019Y-60254895D02*
X127486971Y-60254895D01*
X127448266Y-60641942D01*
X127486971Y-60603238D01*
X127564380Y-60564533D01*
X127757904Y-60564533D01*
X127835314Y-60603238D01*
X127874019Y-60641942D01*
X127912723Y-60719352D01*
X127912723Y-60912876D01*
X127874019Y-60990285D01*
X127835314Y-61028990D01*
X127757904Y-61067695D01*
X127564380Y-61067695D01*
X127486971Y-61028990D01*
X127448266Y-60990285D01*
X125042095Y-62067695D02*
X124577638Y-62067695D01*
X124809866Y-62067695D02*
X124809866Y-61254895D01*
X124732457Y-61371009D01*
X124655047Y-61448419D01*
X124577638Y-61487123D01*
X125545257Y-61254895D02*
X125622666Y-61254895D01*
X125700076Y-61293600D01*
X125738780Y-61332304D01*
X125777485Y-61409714D01*
X125816190Y-61564533D01*
X125816190Y-61758057D01*
X125777485Y-61912876D01*
X125738780Y-61990285D01*
X125700076Y-62028990D01*
X125622666Y-62067695D01*
X125545257Y-62067695D01*
X125467847Y-62028990D01*
X125429142Y-61990285D01*
X125390438Y-61912876D01*
X125351733Y-61758057D01*
X125351733Y-61564533D01*
X125390438Y-61409714D01*
X125429142Y-61332304D01*
X125467847Y-61293600D01*
X125545257Y-61254895D01*
X126319352Y-61254895D02*
X126396761Y-61254895D01*
X126474171Y-61293600D01*
X126512876Y-61332304D01*
X126551580Y-61409714D01*
X126590285Y-61564533D01*
X126590285Y-61758057D01*
X126551580Y-61912876D01*
X126512876Y-61990285D01*
X126474171Y-62028990D01*
X126396761Y-62067695D01*
X126319352Y-62067695D01*
X126241942Y-62028990D01*
X126203238Y-61990285D01*
X126164533Y-61912876D01*
X126125828Y-61758057D01*
X126125828Y-61564533D01*
X126164533Y-61409714D01*
X126203238Y-61332304D01*
X126241942Y-61293600D01*
X126319352Y-61254895D01*
X126938628Y-61525828D02*
X126938628Y-62067695D01*
X126938628Y-61603238D02*
X126977333Y-61564533D01*
X127054742Y-61525828D01*
X127170857Y-61525828D01*
X127248266Y-61564533D01*
X127286971Y-61641942D01*
X127286971Y-62067695D01*
X127944952Y-61641942D02*
X127674019Y-61641942D01*
X127674019Y-62067695D02*
X127674019Y-61254895D01*
X128061066Y-61254895D01*
X137390438Y-73990285D02*
X137351733Y-74028990D01*
X137235619Y-74067695D01*
X137158209Y-74067695D01*
X137042095Y-74028990D01*
X136964685Y-73951580D01*
X136925980Y-73874171D01*
X136887276Y-73719352D01*
X136887276Y-73603238D01*
X136925980Y-73448419D01*
X136964685Y-73371009D01*
X137042095Y-73293600D01*
X137158209Y-73254895D01*
X137235619Y-73254895D01*
X137351733Y-73293600D01*
X137390438Y-73332304D01*
X137700076Y-73332304D02*
X137738780Y-73293600D01*
X137816190Y-73254895D01*
X138009714Y-73254895D01*
X138087123Y-73293600D01*
X138125828Y-73332304D01*
X138164533Y-73409714D01*
X138164533Y-73487123D01*
X138125828Y-73603238D01*
X137661371Y-74067695D01*
X138164533Y-74067695D01*
X138667695Y-73254895D02*
X138745104Y-73254895D01*
X138822514Y-73293600D01*
X138861219Y-73332304D01*
X138899923Y-73409714D01*
X138938628Y-73564533D01*
X138938628Y-73758057D01*
X138899923Y-73912876D01*
X138861219Y-73990285D01*
X138822514Y-74028990D01*
X138745104Y-74067695D01*
X138667695Y-74067695D01*
X138590285Y-74028990D01*
X138551580Y-73990285D01*
X138512876Y-73912876D01*
X138474171Y-73758057D01*
X138474171Y-73564533D01*
X138512876Y-73409714D01*
X138551580Y-73332304D01*
X138590285Y-73293600D01*
X138667695Y-73254895D01*
X139635314Y-73254895D02*
X139480495Y-73254895D01*
X139403085Y-73293600D01*
X139364380Y-73332304D01*
X139286971Y-73448419D01*
X139248266Y-73603238D01*
X139248266Y-73912876D01*
X139286971Y-73990285D01*
X139325676Y-74028990D01*
X139403085Y-74067695D01*
X139557904Y-74067695D01*
X139635314Y-74028990D01*
X139674019Y-73990285D01*
X139712723Y-73912876D01*
X139712723Y-73719352D01*
X139674019Y-73641942D01*
X139635314Y-73603238D01*
X139557904Y-73564533D01*
X139403085Y-73564533D01*
X139325676Y-73603238D01*
X139286971Y-73641942D01*
X139248266Y-73719352D01*
X137342095Y-75067695D02*
X136877638Y-75067695D01*
X137109866Y-75067695D02*
X137109866Y-74254895D01*
X137032457Y-74371009D01*
X136955047Y-74448419D01*
X136877638Y-74487123D01*
X137845257Y-74254895D02*
X137922666Y-74254895D01*
X138000076Y-74293600D01*
X138038780Y-74332304D01*
X138077485Y-74409714D01*
X138116190Y-74564533D01*
X138116190Y-74758057D01*
X138077485Y-74912876D01*
X138038780Y-74990285D01*
X138000076Y-75028990D01*
X137922666Y-75067695D01*
X137845257Y-75067695D01*
X137767847Y-75028990D01*
X137729142Y-74990285D01*
X137690438Y-74912876D01*
X137651733Y-74758057D01*
X137651733Y-74564533D01*
X137690438Y-74409714D01*
X137729142Y-74332304D01*
X137767847Y-74293600D01*
X137845257Y-74254895D01*
X138619352Y-74254895D02*
X138696761Y-74254895D01*
X138774171Y-74293600D01*
X138812876Y-74332304D01*
X138851580Y-74409714D01*
X138890285Y-74564533D01*
X138890285Y-74758057D01*
X138851580Y-74912876D01*
X138812876Y-74990285D01*
X138774171Y-75028990D01*
X138696761Y-75067695D01*
X138619352Y-75067695D01*
X138541942Y-75028990D01*
X138503238Y-74990285D01*
X138464533Y-74912876D01*
X138425828Y-74758057D01*
X138425828Y-74564533D01*
X138464533Y-74409714D01*
X138503238Y-74332304D01*
X138541942Y-74293600D01*
X138619352Y-74254895D01*
X139238628Y-74525828D02*
X139238628Y-75067695D01*
X139238628Y-74603238D02*
X139277333Y-74564533D01*
X139354742Y-74525828D01*
X139470857Y-74525828D01*
X139548266Y-74564533D01*
X139586971Y-74641942D01*
X139586971Y-75067695D01*
X140244952Y-74641942D02*
X139974019Y-74641942D01*
X139974019Y-75067695D02*
X139974019Y-74254895D01*
X140361066Y-74254895D01*
X135890438Y-60690285D02*
X135851733Y-60728990D01*
X135735619Y-60767695D01*
X135658209Y-60767695D01*
X135542095Y-60728990D01*
X135464685Y-60651580D01*
X135425980Y-60574171D01*
X135387276Y-60419352D01*
X135387276Y-60303238D01*
X135425980Y-60148419D01*
X135464685Y-60071009D01*
X135542095Y-59993600D01*
X135658209Y-59954895D01*
X135735619Y-59954895D01*
X135851733Y-59993600D01*
X135890438Y-60032304D01*
X136200076Y-60032304D02*
X136238780Y-59993600D01*
X136316190Y-59954895D01*
X136509714Y-59954895D01*
X136587123Y-59993600D01*
X136625828Y-60032304D01*
X136664533Y-60109714D01*
X136664533Y-60187123D01*
X136625828Y-60303238D01*
X136161371Y-60767695D01*
X136664533Y-60767695D01*
X137167695Y-59954895D02*
X137245104Y-59954895D01*
X137322514Y-59993600D01*
X137361219Y-60032304D01*
X137399923Y-60109714D01*
X137438628Y-60264533D01*
X137438628Y-60458057D01*
X137399923Y-60612876D01*
X137361219Y-60690285D01*
X137322514Y-60728990D01*
X137245104Y-60767695D01*
X137167695Y-60767695D01*
X137090285Y-60728990D01*
X137051580Y-60690285D01*
X137012876Y-60612876D01*
X136974171Y-60458057D01*
X136974171Y-60264533D01*
X137012876Y-60109714D01*
X137051580Y-60032304D01*
X137090285Y-59993600D01*
X137167695Y-59954895D01*
X137709561Y-59954895D02*
X138251428Y-59954895D01*
X137903085Y-60767695D01*
X135829142Y-61967695D02*
X135364685Y-61967695D01*
X135596914Y-61967695D02*
X135596914Y-61154895D01*
X135519504Y-61271009D01*
X135442095Y-61348419D01*
X135364685Y-61387123D01*
X136293600Y-61503238D02*
X136216190Y-61464533D01*
X136177485Y-61425828D01*
X136138780Y-61348419D01*
X136138780Y-61309714D01*
X136177485Y-61232304D01*
X136216190Y-61193600D01*
X136293600Y-61154895D01*
X136448419Y-61154895D01*
X136525828Y-61193600D01*
X136564533Y-61232304D01*
X136603238Y-61309714D01*
X136603238Y-61348419D01*
X136564533Y-61425828D01*
X136525828Y-61464533D01*
X136448419Y-61503238D01*
X136293600Y-61503238D01*
X136216190Y-61541942D01*
X136177485Y-61580647D01*
X136138780Y-61658057D01*
X136138780Y-61812876D01*
X136177485Y-61890285D01*
X136216190Y-61928990D01*
X136293600Y-61967695D01*
X136448419Y-61967695D01*
X136525828Y-61928990D01*
X136564533Y-61890285D01*
X136603238Y-61812876D01*
X136603238Y-61658057D01*
X136564533Y-61580647D01*
X136525828Y-61541942D01*
X136448419Y-61503238D01*
X136951580Y-61425828D02*
X136951580Y-62238628D01*
X136951580Y-61464533D02*
X137028990Y-61425828D01*
X137183809Y-61425828D01*
X137261219Y-61464533D01*
X137299923Y-61503238D01*
X137338628Y-61580647D01*
X137338628Y-61812876D01*
X137299923Y-61890285D01*
X137261219Y-61928990D01*
X137183809Y-61967695D01*
X137028990Y-61967695D01*
X136951580Y-61928990D01*
X137957904Y-61541942D02*
X137686971Y-61541942D01*
X137686971Y-61967695D02*
X137686971Y-61154895D01*
X138074019Y-61154895D01*
X132290438Y-60690285D02*
X132251733Y-60728990D01*
X132135619Y-60767695D01*
X132058209Y-60767695D01*
X131942095Y-60728990D01*
X131864685Y-60651580D01*
X131825980Y-60574171D01*
X131787276Y-60419352D01*
X131787276Y-60303238D01*
X131825980Y-60148419D01*
X131864685Y-60071009D01*
X131942095Y-59993600D01*
X132058209Y-59954895D01*
X132135619Y-59954895D01*
X132251733Y-59993600D01*
X132290438Y-60032304D01*
X132600076Y-60032304D02*
X132638780Y-59993600D01*
X132716190Y-59954895D01*
X132909714Y-59954895D01*
X132987123Y-59993600D01*
X133025828Y-60032304D01*
X133064533Y-60109714D01*
X133064533Y-60187123D01*
X133025828Y-60303238D01*
X132561371Y-60767695D01*
X133064533Y-60767695D01*
X133567695Y-59954895D02*
X133645104Y-59954895D01*
X133722514Y-59993600D01*
X133761219Y-60032304D01*
X133799923Y-60109714D01*
X133838628Y-60264533D01*
X133838628Y-60458057D01*
X133799923Y-60612876D01*
X133761219Y-60690285D01*
X133722514Y-60728990D01*
X133645104Y-60767695D01*
X133567695Y-60767695D01*
X133490285Y-60728990D01*
X133451580Y-60690285D01*
X133412876Y-60612876D01*
X133374171Y-60458057D01*
X133374171Y-60264533D01*
X133412876Y-60109714D01*
X133451580Y-60032304D01*
X133490285Y-59993600D01*
X133567695Y-59954895D01*
X134303085Y-60303238D02*
X134225676Y-60264533D01*
X134186971Y-60225828D01*
X134148266Y-60148419D01*
X134148266Y-60109714D01*
X134186971Y-60032304D01*
X134225676Y-59993600D01*
X134303085Y-59954895D01*
X134457904Y-59954895D01*
X134535314Y-59993600D01*
X134574019Y-60032304D01*
X134612723Y-60109714D01*
X134612723Y-60148419D01*
X134574019Y-60225828D01*
X134535314Y-60264533D01*
X134457904Y-60303238D01*
X134303085Y-60303238D01*
X134225676Y-60341942D01*
X134186971Y-60380647D01*
X134148266Y-60458057D01*
X134148266Y-60612876D01*
X134186971Y-60690285D01*
X134225676Y-60728990D01*
X134303085Y-60767695D01*
X134457904Y-60767695D01*
X134535314Y-60728990D01*
X134574019Y-60690285D01*
X134612723Y-60612876D01*
X134612723Y-60458057D01*
X134574019Y-60380647D01*
X134535314Y-60341942D01*
X134457904Y-60303238D01*
X132529142Y-61967695D02*
X132064685Y-61967695D01*
X132296914Y-61967695D02*
X132296914Y-61154895D01*
X132219504Y-61271009D01*
X132142095Y-61348419D01*
X132064685Y-61387123D01*
X132993600Y-61503238D02*
X132916190Y-61464533D01*
X132877485Y-61425828D01*
X132838780Y-61348419D01*
X132838780Y-61309714D01*
X132877485Y-61232304D01*
X132916190Y-61193600D01*
X132993600Y-61154895D01*
X133148419Y-61154895D01*
X133225828Y-61193600D01*
X133264533Y-61232304D01*
X133303238Y-61309714D01*
X133303238Y-61348419D01*
X133264533Y-61425828D01*
X133225828Y-61464533D01*
X133148419Y-61503238D01*
X132993600Y-61503238D01*
X132916190Y-61541942D01*
X132877485Y-61580647D01*
X132838780Y-61658057D01*
X132838780Y-61812876D01*
X132877485Y-61890285D01*
X132916190Y-61928990D01*
X132993600Y-61967695D01*
X133148419Y-61967695D01*
X133225828Y-61928990D01*
X133264533Y-61890285D01*
X133303238Y-61812876D01*
X133303238Y-61658057D01*
X133264533Y-61580647D01*
X133225828Y-61541942D01*
X133148419Y-61503238D01*
X133651580Y-61425828D02*
X133651580Y-62238628D01*
X133651580Y-61464533D02*
X133728990Y-61425828D01*
X133883809Y-61425828D01*
X133961219Y-61464533D01*
X133999923Y-61503238D01*
X134038628Y-61580647D01*
X134038628Y-61812876D01*
X133999923Y-61890285D01*
X133961219Y-61928990D01*
X133883809Y-61967695D01*
X133728990Y-61967695D01*
X133651580Y-61928990D01*
X134657904Y-61541942D02*
X134386971Y-61541942D01*
X134386971Y-61967695D02*
X134386971Y-61154895D01*
X134774019Y-61154895D01*
X131490438Y-135390285D02*
X131451733Y-135428990D01*
X131335619Y-135467695D01*
X131258209Y-135467695D01*
X131142095Y-135428990D01*
X131064685Y-135351580D01*
X131025980Y-135274171D01*
X130987276Y-135119352D01*
X130987276Y-135003238D01*
X131025980Y-134848419D01*
X131064685Y-134771009D01*
X131142095Y-134693600D01*
X131258209Y-134654895D01*
X131335619Y-134654895D01*
X131451733Y-134693600D01*
X131490438Y-134732304D01*
X131761371Y-134654895D02*
X132264533Y-134654895D01*
X131993600Y-134964533D01*
X132109714Y-134964533D01*
X132187123Y-135003238D01*
X132225828Y-135041942D01*
X132264533Y-135119352D01*
X132264533Y-135312876D01*
X132225828Y-135390285D01*
X132187123Y-135428990D01*
X132109714Y-135467695D01*
X131877485Y-135467695D01*
X131800076Y-135428990D01*
X131761371Y-135390285D01*
X132767695Y-134654895D02*
X132845104Y-134654895D01*
X132922514Y-134693600D01*
X132961219Y-134732304D01*
X132999923Y-134809714D01*
X133038628Y-134964533D01*
X133038628Y-135158057D01*
X132999923Y-135312876D01*
X132961219Y-135390285D01*
X132922514Y-135428990D01*
X132845104Y-135467695D01*
X132767695Y-135467695D01*
X132690285Y-135428990D01*
X132651580Y-135390285D01*
X132612876Y-135312876D01*
X132574171Y-135158057D01*
X132574171Y-134964533D01*
X132612876Y-134809714D01*
X132651580Y-134732304D01*
X132690285Y-134693600D01*
X132767695Y-134654895D01*
X133812723Y-135467695D02*
X133348266Y-135467695D01*
X133580495Y-135467695D02*
X133580495Y-134654895D01*
X133503085Y-134771009D01*
X133425676Y-134848419D01*
X133348266Y-134887123D01*
X131442095Y-136667695D02*
X130977638Y-136667695D01*
X131209866Y-136667695D02*
X131209866Y-135854895D01*
X131132457Y-135971009D01*
X131055047Y-136048419D01*
X130977638Y-136087123D01*
X131945257Y-135854895D02*
X132022666Y-135854895D01*
X132100076Y-135893600D01*
X132138780Y-135932304D01*
X132177485Y-136009714D01*
X132216190Y-136164533D01*
X132216190Y-136358057D01*
X132177485Y-136512876D01*
X132138780Y-136590285D01*
X132100076Y-136628990D01*
X132022666Y-136667695D01*
X131945257Y-136667695D01*
X131867847Y-136628990D01*
X131829142Y-136590285D01*
X131790438Y-136512876D01*
X131751733Y-136358057D01*
X131751733Y-136164533D01*
X131790438Y-136009714D01*
X131829142Y-135932304D01*
X131867847Y-135893600D01*
X131945257Y-135854895D01*
X132719352Y-135854895D02*
X132796761Y-135854895D01*
X132874171Y-135893600D01*
X132912876Y-135932304D01*
X132951580Y-136009714D01*
X132990285Y-136164533D01*
X132990285Y-136358057D01*
X132951580Y-136512876D01*
X132912876Y-136590285D01*
X132874171Y-136628990D01*
X132796761Y-136667695D01*
X132719352Y-136667695D01*
X132641942Y-136628990D01*
X132603238Y-136590285D01*
X132564533Y-136512876D01*
X132525828Y-136358057D01*
X132525828Y-136164533D01*
X132564533Y-136009714D01*
X132603238Y-135932304D01*
X132641942Y-135893600D01*
X132719352Y-135854895D01*
X133338628Y-136125828D02*
X133338628Y-136667695D01*
X133338628Y-136203238D02*
X133377333Y-136164533D01*
X133454742Y-136125828D01*
X133570857Y-136125828D01*
X133648266Y-136164533D01*
X133686971Y-136241942D01*
X133686971Y-136667695D01*
X134344952Y-136241942D02*
X134074019Y-136241942D01*
X134074019Y-136667695D02*
X134074019Y-135854895D01*
X134461066Y-135854895D01*
D16*
X142480952Y-129957142D02*
X142433333Y-130004761D01*
X142290476Y-130052380D01*
X142195238Y-130052380D01*
X142052380Y-130004761D01*
X141957142Y-129909523D01*
X141909523Y-129814285D01*
X141861904Y-129623809D01*
X141861904Y-129480952D01*
X141909523Y-129290476D01*
X141957142Y-129195238D01*
X142052380Y-129100000D01*
X142195238Y-129052380D01*
X142290476Y-129052380D01*
X142433333Y-129100000D01*
X142480952Y-129147619D01*
X142814285Y-129052380D02*
X143433333Y-129052380D01*
X143100000Y-129433333D01*
X143242857Y-129433333D01*
X143338095Y-129480952D01*
X143385714Y-129528571D01*
X143433333Y-129623809D01*
X143433333Y-129861904D01*
X143385714Y-129957142D01*
X143338095Y-130004761D01*
X143242857Y-130052380D01*
X142957142Y-130052380D01*
X142861904Y-130004761D01*
X142814285Y-129957142D01*
X144052380Y-129052380D02*
X144147619Y-129052380D01*
X144242857Y-129100000D01*
X144290476Y-129147619D01*
X144338095Y-129242857D01*
X144385714Y-129433333D01*
X144385714Y-129671428D01*
X144338095Y-129861904D01*
X144290476Y-129957142D01*
X144242857Y-130004761D01*
X144147619Y-130052380D01*
X144052380Y-130052380D01*
X143957142Y-130004761D01*
X143909523Y-129957142D01*
X143861904Y-129861904D01*
X143814285Y-129671428D01*
X143814285Y-129433333D01*
X143861904Y-129242857D01*
X143909523Y-129147619D01*
X143957142Y-129100000D01*
X144052380Y-129052380D01*
X144766666Y-129147619D02*
X144814285Y-129100000D01*
X144909523Y-129052380D01*
X145147619Y-129052380D01*
X145242857Y-129100000D01*
X145290476Y-129147619D01*
X145338095Y-129242857D01*
X145338095Y-129338095D01*
X145290476Y-129480952D01*
X144719047Y-130052380D01*
X145338095Y-130052380D01*
D20*
X134690438Y-124490285D02*
X134651733Y-124528990D01*
X134535619Y-124567695D01*
X134458209Y-124567695D01*
X134342095Y-124528990D01*
X134264685Y-124451580D01*
X134225980Y-124374171D01*
X134187276Y-124219352D01*
X134187276Y-124103238D01*
X134225980Y-123948419D01*
X134264685Y-123871009D01*
X134342095Y-123793600D01*
X134458209Y-123754895D01*
X134535619Y-123754895D01*
X134651733Y-123793600D01*
X134690438Y-123832304D01*
X134961371Y-123754895D02*
X135464533Y-123754895D01*
X135193600Y-124064533D01*
X135309714Y-124064533D01*
X135387123Y-124103238D01*
X135425828Y-124141942D01*
X135464533Y-124219352D01*
X135464533Y-124412876D01*
X135425828Y-124490285D01*
X135387123Y-124528990D01*
X135309714Y-124567695D01*
X135077485Y-124567695D01*
X135000076Y-124528990D01*
X134961371Y-124490285D01*
X135967695Y-123754895D02*
X136045104Y-123754895D01*
X136122514Y-123793600D01*
X136161219Y-123832304D01*
X136199923Y-123909714D01*
X136238628Y-124064533D01*
X136238628Y-124258057D01*
X136199923Y-124412876D01*
X136161219Y-124490285D01*
X136122514Y-124528990D01*
X136045104Y-124567695D01*
X135967695Y-124567695D01*
X135890285Y-124528990D01*
X135851580Y-124490285D01*
X135812876Y-124412876D01*
X135774171Y-124258057D01*
X135774171Y-124064533D01*
X135812876Y-123909714D01*
X135851580Y-123832304D01*
X135890285Y-123793600D01*
X135967695Y-123754895D01*
X136509561Y-123754895D02*
X137012723Y-123754895D01*
X136741790Y-124064533D01*
X136857904Y-124064533D01*
X136935314Y-124103238D01*
X136974019Y-124141942D01*
X137012723Y-124219352D01*
X137012723Y-124412876D01*
X136974019Y-124490285D01*
X136935314Y-124528990D01*
X136857904Y-124567695D01*
X136625676Y-124567695D01*
X136548266Y-124528990D01*
X136509561Y-124490285D01*
X134629142Y-125767695D02*
X134164685Y-125767695D01*
X134396914Y-125767695D02*
X134396914Y-124954895D01*
X134319504Y-125071009D01*
X134242095Y-125148419D01*
X134164685Y-125187123D01*
X135132304Y-124954895D02*
X135209714Y-124954895D01*
X135287123Y-124993600D01*
X135325828Y-125032304D01*
X135364533Y-125109714D01*
X135403238Y-125264533D01*
X135403238Y-125458057D01*
X135364533Y-125612876D01*
X135325828Y-125690285D01*
X135287123Y-125728990D01*
X135209714Y-125767695D01*
X135132304Y-125767695D01*
X135054895Y-125728990D01*
X135016190Y-125690285D01*
X134977485Y-125612876D01*
X134938780Y-125458057D01*
X134938780Y-125264533D01*
X134977485Y-125109714D01*
X135016190Y-125032304D01*
X135054895Y-124993600D01*
X135132304Y-124954895D01*
X135751580Y-125225828D02*
X135751580Y-125767695D01*
X135751580Y-125303238D02*
X135790285Y-125264533D01*
X135867695Y-125225828D01*
X135983809Y-125225828D01*
X136061219Y-125264533D01*
X136099923Y-125341942D01*
X136099923Y-125767695D01*
X136757904Y-125341942D02*
X136486971Y-125341942D01*
X136486971Y-125767695D02*
X136486971Y-124954895D01*
X136874019Y-124954895D01*
D16*
X122880952Y-120957142D02*
X122833333Y-121004761D01*
X122690476Y-121052380D01*
X122595238Y-121052380D01*
X122452380Y-121004761D01*
X122357142Y-120909523D01*
X122309523Y-120814285D01*
X122261904Y-120623809D01*
X122261904Y-120480952D01*
X122309523Y-120290476D01*
X122357142Y-120195238D01*
X122452380Y-120100000D01*
X122595238Y-120052380D01*
X122690476Y-120052380D01*
X122833333Y-120100000D01*
X122880952Y-120147619D01*
X123214285Y-120052380D02*
X123833333Y-120052380D01*
X123500000Y-120433333D01*
X123642857Y-120433333D01*
X123738095Y-120480952D01*
X123785714Y-120528571D01*
X123833333Y-120623809D01*
X123833333Y-120861904D01*
X123785714Y-120957142D01*
X123738095Y-121004761D01*
X123642857Y-121052380D01*
X123357142Y-121052380D01*
X123261904Y-121004761D01*
X123214285Y-120957142D01*
X124452380Y-120052380D02*
X124547619Y-120052380D01*
X124642857Y-120100000D01*
X124690476Y-120147619D01*
X124738095Y-120242857D01*
X124785714Y-120433333D01*
X124785714Y-120671428D01*
X124738095Y-120861904D01*
X124690476Y-120957142D01*
X124642857Y-121004761D01*
X124547619Y-121052380D01*
X124452380Y-121052380D01*
X124357142Y-121004761D01*
X124309523Y-120957142D01*
X124261904Y-120861904D01*
X124214285Y-120671428D01*
X124214285Y-120433333D01*
X124261904Y-120242857D01*
X124309523Y-120147619D01*
X124357142Y-120100000D01*
X124452380Y-120052380D01*
X125642857Y-120385714D02*
X125642857Y-121052380D01*
X125404761Y-120004761D02*
X125166666Y-120719047D01*
X125785714Y-120719047D01*
D20*
X127589695Y-123621495D02*
X127125238Y-123621495D01*
X127357466Y-123621495D02*
X127357466Y-122808695D01*
X127280057Y-122924809D01*
X127202647Y-123002219D01*
X127125238Y-123040923D01*
X128092857Y-122808695D02*
X128170266Y-122808695D01*
X128247676Y-122847400D01*
X128286380Y-122886104D01*
X128325085Y-122963514D01*
X128363790Y-123118333D01*
X128363790Y-123311857D01*
X128325085Y-123466676D01*
X128286380Y-123544085D01*
X128247676Y-123582790D01*
X128170266Y-123621495D01*
X128092857Y-123621495D01*
X128015447Y-123582790D01*
X127976742Y-123544085D01*
X127938038Y-123466676D01*
X127899333Y-123311857D01*
X127899333Y-123118333D01*
X127938038Y-122963514D01*
X127976742Y-122886104D01*
X128015447Y-122847400D01*
X128092857Y-122808695D01*
X128866952Y-122808695D02*
X128944361Y-122808695D01*
X129021771Y-122847400D01*
X129060476Y-122886104D01*
X129099180Y-122963514D01*
X129137885Y-123118333D01*
X129137885Y-123311857D01*
X129099180Y-123466676D01*
X129060476Y-123544085D01*
X129021771Y-123582790D01*
X128944361Y-123621495D01*
X128866952Y-123621495D01*
X128789542Y-123582790D01*
X128750838Y-123544085D01*
X128712133Y-123466676D01*
X128673428Y-123311857D01*
X128673428Y-123118333D01*
X128712133Y-122963514D01*
X128750838Y-122886104D01*
X128789542Y-122847400D01*
X128866952Y-122808695D01*
X129486228Y-123079628D02*
X129486228Y-123621495D01*
X129486228Y-123157038D02*
X129524933Y-123118333D01*
X129602342Y-123079628D01*
X129718457Y-123079628D01*
X129795866Y-123118333D01*
X129834571Y-123195742D01*
X129834571Y-123621495D01*
X130492552Y-123195742D02*
X130221619Y-123195742D01*
X130221619Y-123621495D02*
X130221619Y-122808695D01*
X130608666Y-122808695D01*
X140890438Y-78190285D02*
X140851733Y-78228990D01*
X140735619Y-78267695D01*
X140658209Y-78267695D01*
X140542095Y-78228990D01*
X140464685Y-78151580D01*
X140425980Y-78074171D01*
X140387276Y-77919352D01*
X140387276Y-77803238D01*
X140425980Y-77648419D01*
X140464685Y-77571009D01*
X140542095Y-77493600D01*
X140658209Y-77454895D01*
X140735619Y-77454895D01*
X140851733Y-77493600D01*
X140890438Y-77532304D01*
X141587123Y-77725828D02*
X141587123Y-78267695D01*
X141393600Y-77416190D02*
X141200076Y-77996761D01*
X141703238Y-77996761D01*
X142167695Y-77454895D02*
X142245104Y-77454895D01*
X142322514Y-77493600D01*
X142361219Y-77532304D01*
X142399923Y-77609714D01*
X142438628Y-77764533D01*
X142438628Y-77958057D01*
X142399923Y-78112876D01*
X142361219Y-78190285D01*
X142322514Y-78228990D01*
X142245104Y-78267695D01*
X142167695Y-78267695D01*
X142090285Y-78228990D01*
X142051580Y-78190285D01*
X142012876Y-78112876D01*
X141974171Y-77958057D01*
X141974171Y-77764533D01*
X142012876Y-77609714D01*
X142051580Y-77532304D01*
X142090285Y-77493600D01*
X142167695Y-77454895D01*
X143212723Y-78267695D02*
X142748266Y-78267695D01*
X142980495Y-78267695D02*
X142980495Y-77454895D01*
X142903085Y-77571009D01*
X142825676Y-77648419D01*
X142748266Y-77687123D01*
X140842095Y-79367695D02*
X140377638Y-79367695D01*
X140609866Y-79367695D02*
X140609866Y-78554895D01*
X140532457Y-78671009D01*
X140455047Y-78748419D01*
X140377638Y-78787123D01*
X141345257Y-78554895D02*
X141422666Y-78554895D01*
X141500076Y-78593600D01*
X141538780Y-78632304D01*
X141577485Y-78709714D01*
X141616190Y-78864533D01*
X141616190Y-79058057D01*
X141577485Y-79212876D01*
X141538780Y-79290285D01*
X141500076Y-79328990D01*
X141422666Y-79367695D01*
X141345257Y-79367695D01*
X141267847Y-79328990D01*
X141229142Y-79290285D01*
X141190438Y-79212876D01*
X141151733Y-79058057D01*
X141151733Y-78864533D01*
X141190438Y-78709714D01*
X141229142Y-78632304D01*
X141267847Y-78593600D01*
X141345257Y-78554895D01*
X142119352Y-78554895D02*
X142196761Y-78554895D01*
X142274171Y-78593600D01*
X142312876Y-78632304D01*
X142351580Y-78709714D01*
X142390285Y-78864533D01*
X142390285Y-79058057D01*
X142351580Y-79212876D01*
X142312876Y-79290285D01*
X142274171Y-79328990D01*
X142196761Y-79367695D01*
X142119352Y-79367695D01*
X142041942Y-79328990D01*
X142003238Y-79290285D01*
X141964533Y-79212876D01*
X141925828Y-79058057D01*
X141925828Y-78864533D01*
X141964533Y-78709714D01*
X142003238Y-78632304D01*
X142041942Y-78593600D01*
X142119352Y-78554895D01*
X142738628Y-78825828D02*
X142738628Y-79367695D01*
X142738628Y-78903238D02*
X142777333Y-78864533D01*
X142854742Y-78825828D01*
X142970857Y-78825828D01*
X143048266Y-78864533D01*
X143086971Y-78941942D01*
X143086971Y-79367695D01*
X143744952Y-78941942D02*
X143474019Y-78941942D01*
X143474019Y-79367695D02*
X143474019Y-78554895D01*
X143861066Y-78554895D01*
X141090438Y-93590285D02*
X141051733Y-93628990D01*
X140935619Y-93667695D01*
X140858209Y-93667695D01*
X140742095Y-93628990D01*
X140664685Y-93551580D01*
X140625980Y-93474171D01*
X140587276Y-93319352D01*
X140587276Y-93203238D01*
X140625980Y-93048419D01*
X140664685Y-92971009D01*
X140742095Y-92893600D01*
X140858209Y-92854895D01*
X140935619Y-92854895D01*
X141051733Y-92893600D01*
X141090438Y-92932304D01*
X141787123Y-93125828D02*
X141787123Y-93667695D01*
X141593600Y-92816190D02*
X141400076Y-93396761D01*
X141903238Y-93396761D01*
X142367695Y-92854895D02*
X142445104Y-92854895D01*
X142522514Y-92893600D01*
X142561219Y-92932304D01*
X142599923Y-93009714D01*
X142638628Y-93164533D01*
X142638628Y-93358057D01*
X142599923Y-93512876D01*
X142561219Y-93590285D01*
X142522514Y-93628990D01*
X142445104Y-93667695D01*
X142367695Y-93667695D01*
X142290285Y-93628990D01*
X142251580Y-93590285D01*
X142212876Y-93512876D01*
X142174171Y-93358057D01*
X142174171Y-93164533D01*
X142212876Y-93009714D01*
X142251580Y-92932304D01*
X142290285Y-92893600D01*
X142367695Y-92854895D01*
X142948266Y-92932304D02*
X142986971Y-92893600D01*
X143064380Y-92854895D01*
X143257904Y-92854895D01*
X143335314Y-92893600D01*
X143374019Y-92932304D01*
X143412723Y-93009714D01*
X143412723Y-93087123D01*
X143374019Y-93203238D01*
X142909561Y-93667695D01*
X143412723Y-93667695D01*
X141042095Y-94867695D02*
X140577638Y-94867695D01*
X140809866Y-94867695D02*
X140809866Y-94054895D01*
X140732457Y-94171009D01*
X140655047Y-94248419D01*
X140577638Y-94287123D01*
X141545257Y-94054895D02*
X141622666Y-94054895D01*
X141700076Y-94093600D01*
X141738780Y-94132304D01*
X141777485Y-94209714D01*
X141816190Y-94364533D01*
X141816190Y-94558057D01*
X141777485Y-94712876D01*
X141738780Y-94790285D01*
X141700076Y-94828990D01*
X141622666Y-94867695D01*
X141545257Y-94867695D01*
X141467847Y-94828990D01*
X141429142Y-94790285D01*
X141390438Y-94712876D01*
X141351733Y-94558057D01*
X141351733Y-94364533D01*
X141390438Y-94209714D01*
X141429142Y-94132304D01*
X141467847Y-94093600D01*
X141545257Y-94054895D01*
X142319352Y-94054895D02*
X142396761Y-94054895D01*
X142474171Y-94093600D01*
X142512876Y-94132304D01*
X142551580Y-94209714D01*
X142590285Y-94364533D01*
X142590285Y-94558057D01*
X142551580Y-94712876D01*
X142512876Y-94790285D01*
X142474171Y-94828990D01*
X142396761Y-94867695D01*
X142319352Y-94867695D01*
X142241942Y-94828990D01*
X142203238Y-94790285D01*
X142164533Y-94712876D01*
X142125828Y-94558057D01*
X142125828Y-94364533D01*
X142164533Y-94209714D01*
X142203238Y-94132304D01*
X142241942Y-94093600D01*
X142319352Y-94054895D01*
X142938628Y-94325828D02*
X142938628Y-94867695D01*
X142938628Y-94403238D02*
X142977333Y-94364533D01*
X143054742Y-94325828D01*
X143170857Y-94325828D01*
X143248266Y-94364533D01*
X143286971Y-94441942D01*
X143286971Y-94867695D01*
X143944952Y-94441942D02*
X143674019Y-94441942D01*
X143674019Y-94867695D02*
X143674019Y-94054895D01*
X144061066Y-94054895D01*
X205590438Y-82990285D02*
X205551733Y-83028990D01*
X205435619Y-83067695D01*
X205358209Y-83067695D01*
X205242095Y-83028990D01*
X205164685Y-82951580D01*
X205125980Y-82874171D01*
X205087276Y-82719352D01*
X205087276Y-82603238D01*
X205125980Y-82448419D01*
X205164685Y-82371009D01*
X205242095Y-82293600D01*
X205358209Y-82254895D01*
X205435619Y-82254895D01*
X205551733Y-82293600D01*
X205590438Y-82332304D01*
X205977485Y-83067695D02*
X206132304Y-83067695D01*
X206209714Y-83028990D01*
X206248419Y-82990285D01*
X206325828Y-82874171D01*
X206364533Y-82719352D01*
X206364533Y-82409714D01*
X206325828Y-82332304D01*
X206287123Y-82293600D01*
X206209714Y-82254895D01*
X206054895Y-82254895D01*
X205977485Y-82293600D01*
X205938780Y-82332304D01*
X205900076Y-82409714D01*
X205900076Y-82603238D01*
X205938780Y-82680647D01*
X205977485Y-82719352D01*
X206054895Y-82758057D01*
X206209714Y-82758057D01*
X206287123Y-82719352D01*
X206325828Y-82680647D01*
X206364533Y-82603238D01*
X206867695Y-82254895D02*
X206945104Y-82254895D01*
X207022514Y-82293600D01*
X207061219Y-82332304D01*
X207099923Y-82409714D01*
X207138628Y-82564533D01*
X207138628Y-82758057D01*
X207099923Y-82912876D01*
X207061219Y-82990285D01*
X207022514Y-83028990D01*
X206945104Y-83067695D01*
X206867695Y-83067695D01*
X206790285Y-83028990D01*
X206751580Y-82990285D01*
X206712876Y-82912876D01*
X206674171Y-82758057D01*
X206674171Y-82564533D01*
X206712876Y-82409714D01*
X206751580Y-82332304D01*
X206790285Y-82293600D01*
X206867695Y-82254895D01*
X207912723Y-83067695D02*
X207448266Y-83067695D01*
X207680495Y-83067695D02*
X207680495Y-82254895D01*
X207603085Y-82371009D01*
X207525676Y-82448419D01*
X207448266Y-82487123D01*
X205442095Y-84167695D02*
X204977638Y-84167695D01*
X205209866Y-84167695D02*
X205209866Y-83354895D01*
X205132457Y-83471009D01*
X205055047Y-83548419D01*
X204977638Y-83587123D01*
X205945257Y-83354895D02*
X206022666Y-83354895D01*
X206100076Y-83393600D01*
X206138780Y-83432304D01*
X206177485Y-83509714D01*
X206216190Y-83664533D01*
X206216190Y-83858057D01*
X206177485Y-84012876D01*
X206138780Y-84090285D01*
X206100076Y-84128990D01*
X206022666Y-84167695D01*
X205945257Y-84167695D01*
X205867847Y-84128990D01*
X205829142Y-84090285D01*
X205790438Y-84012876D01*
X205751733Y-83858057D01*
X205751733Y-83664533D01*
X205790438Y-83509714D01*
X205829142Y-83432304D01*
X205867847Y-83393600D01*
X205945257Y-83354895D01*
X206719352Y-83354895D02*
X206796761Y-83354895D01*
X206874171Y-83393600D01*
X206912876Y-83432304D01*
X206951580Y-83509714D01*
X206990285Y-83664533D01*
X206990285Y-83858057D01*
X206951580Y-84012876D01*
X206912876Y-84090285D01*
X206874171Y-84128990D01*
X206796761Y-84167695D01*
X206719352Y-84167695D01*
X206641942Y-84128990D01*
X206603238Y-84090285D01*
X206564533Y-84012876D01*
X206525828Y-83858057D01*
X206525828Y-83664533D01*
X206564533Y-83509714D01*
X206603238Y-83432304D01*
X206641942Y-83393600D01*
X206719352Y-83354895D01*
X207338628Y-83625828D02*
X207338628Y-84167695D01*
X207338628Y-83703238D02*
X207377333Y-83664533D01*
X207454742Y-83625828D01*
X207570857Y-83625828D01*
X207648266Y-83664533D01*
X207686971Y-83741942D01*
X207686971Y-84167695D01*
X208344952Y-83741942D02*
X208074019Y-83741942D01*
X208074019Y-84167695D02*
X208074019Y-83354895D01*
X208461066Y-83354895D01*
X199390438Y-98390285D02*
X199351733Y-98428990D01*
X199235619Y-98467695D01*
X199158209Y-98467695D01*
X199042095Y-98428990D01*
X198964685Y-98351580D01*
X198925980Y-98274171D01*
X198887276Y-98119352D01*
X198887276Y-98003238D01*
X198925980Y-97848419D01*
X198964685Y-97771009D01*
X199042095Y-97693600D01*
X199158209Y-97654895D01*
X199235619Y-97654895D01*
X199351733Y-97693600D01*
X199390438Y-97732304D01*
X199777485Y-98467695D02*
X199932304Y-98467695D01*
X200009714Y-98428990D01*
X200048419Y-98390285D01*
X200125828Y-98274171D01*
X200164533Y-98119352D01*
X200164533Y-97809714D01*
X200125828Y-97732304D01*
X200087123Y-97693600D01*
X200009714Y-97654895D01*
X199854895Y-97654895D01*
X199777485Y-97693600D01*
X199738780Y-97732304D01*
X199700076Y-97809714D01*
X199700076Y-98003238D01*
X199738780Y-98080647D01*
X199777485Y-98119352D01*
X199854895Y-98158057D01*
X200009714Y-98158057D01*
X200087123Y-98119352D01*
X200125828Y-98080647D01*
X200164533Y-98003238D01*
X200667695Y-97654895D02*
X200745104Y-97654895D01*
X200822514Y-97693600D01*
X200861219Y-97732304D01*
X200899923Y-97809714D01*
X200938628Y-97964533D01*
X200938628Y-98158057D01*
X200899923Y-98312876D01*
X200861219Y-98390285D01*
X200822514Y-98428990D01*
X200745104Y-98467695D01*
X200667695Y-98467695D01*
X200590285Y-98428990D01*
X200551580Y-98390285D01*
X200512876Y-98312876D01*
X200474171Y-98158057D01*
X200474171Y-97964533D01*
X200512876Y-97809714D01*
X200551580Y-97732304D01*
X200590285Y-97693600D01*
X200667695Y-97654895D01*
X201248266Y-97732304D02*
X201286971Y-97693600D01*
X201364380Y-97654895D01*
X201557904Y-97654895D01*
X201635314Y-97693600D01*
X201674019Y-97732304D01*
X201712723Y-97809714D01*
X201712723Y-97887123D01*
X201674019Y-98003238D01*
X201209561Y-98467695D01*
X201712723Y-98467695D01*
X198742095Y-99667695D02*
X198277638Y-99667695D01*
X198509866Y-99667695D02*
X198509866Y-98854895D01*
X198432457Y-98971009D01*
X198355047Y-99048419D01*
X198277638Y-99087123D01*
X199245257Y-98854895D02*
X199322666Y-98854895D01*
X199400076Y-98893600D01*
X199438780Y-98932304D01*
X199477485Y-99009714D01*
X199516190Y-99164533D01*
X199516190Y-99358057D01*
X199477485Y-99512876D01*
X199438780Y-99590285D01*
X199400076Y-99628990D01*
X199322666Y-99667695D01*
X199245257Y-99667695D01*
X199167847Y-99628990D01*
X199129142Y-99590285D01*
X199090438Y-99512876D01*
X199051733Y-99358057D01*
X199051733Y-99164533D01*
X199090438Y-99009714D01*
X199129142Y-98932304D01*
X199167847Y-98893600D01*
X199245257Y-98854895D01*
X200019352Y-98854895D02*
X200096761Y-98854895D01*
X200174171Y-98893600D01*
X200212876Y-98932304D01*
X200251580Y-99009714D01*
X200290285Y-99164533D01*
X200290285Y-99358057D01*
X200251580Y-99512876D01*
X200212876Y-99590285D01*
X200174171Y-99628990D01*
X200096761Y-99667695D01*
X200019352Y-99667695D01*
X199941942Y-99628990D01*
X199903238Y-99590285D01*
X199864533Y-99512876D01*
X199825828Y-99358057D01*
X199825828Y-99164533D01*
X199864533Y-99009714D01*
X199903238Y-98932304D01*
X199941942Y-98893600D01*
X200019352Y-98854895D01*
X200638628Y-99125828D02*
X200638628Y-99667695D01*
X200638628Y-99203238D02*
X200677333Y-99164533D01*
X200754742Y-99125828D01*
X200870857Y-99125828D01*
X200948266Y-99164533D01*
X200986971Y-99241942D01*
X200986971Y-99667695D01*
X201644952Y-99241942D02*
X201374019Y-99241942D01*
X201374019Y-99667695D02*
X201374019Y-98854895D01*
X201761066Y-98854895D01*
X153325980Y-136067695D02*
X153325980Y-135254895D01*
X153519504Y-135254895D01*
X153635619Y-135293600D01*
X153713028Y-135371009D01*
X153751733Y-135448419D01*
X153790438Y-135603238D01*
X153790438Y-135719352D01*
X153751733Y-135874171D01*
X153713028Y-135951580D01*
X153635619Y-136028990D01*
X153519504Y-136067695D01*
X153325980Y-136067695D01*
X154061371Y-135254895D02*
X154564533Y-135254895D01*
X154293600Y-135564533D01*
X154409714Y-135564533D01*
X154487123Y-135603238D01*
X154525828Y-135641942D01*
X154564533Y-135719352D01*
X154564533Y-135912876D01*
X154525828Y-135990285D01*
X154487123Y-136028990D01*
X154409714Y-136067695D01*
X154177485Y-136067695D01*
X154100076Y-136028990D01*
X154061371Y-135990285D01*
X155067695Y-135254895D02*
X155145104Y-135254895D01*
X155222514Y-135293600D01*
X155261219Y-135332304D01*
X155299923Y-135409714D01*
X155338628Y-135564533D01*
X155338628Y-135758057D01*
X155299923Y-135912876D01*
X155261219Y-135990285D01*
X155222514Y-136028990D01*
X155145104Y-136067695D01*
X155067695Y-136067695D01*
X154990285Y-136028990D01*
X154951580Y-135990285D01*
X154912876Y-135912876D01*
X154874171Y-135758057D01*
X154874171Y-135564533D01*
X154912876Y-135409714D01*
X154951580Y-135332304D01*
X154990285Y-135293600D01*
X155067695Y-135254895D01*
X156112723Y-136067695D02*
X155648266Y-136067695D01*
X155880495Y-136067695D02*
X155880495Y-135254895D01*
X155803085Y-135371009D01*
X155725676Y-135448419D01*
X155648266Y-135487123D01*
X142859940Y-133661655D02*
X142859940Y-132848855D01*
X143053464Y-132848855D01*
X143169579Y-132887560D01*
X143246988Y-132964969D01*
X143285693Y-133042379D01*
X143324398Y-133197198D01*
X143324398Y-133313312D01*
X143285693Y-133468131D01*
X143246988Y-133545540D01*
X143169579Y-133622950D01*
X143053464Y-133661655D01*
X142859940Y-133661655D01*
X143595331Y-132848855D02*
X144098493Y-132848855D01*
X143827560Y-133158493D01*
X143943674Y-133158493D01*
X144021083Y-133197198D01*
X144059788Y-133235902D01*
X144098493Y-133313312D01*
X144098493Y-133506836D01*
X144059788Y-133584245D01*
X144021083Y-133622950D01*
X143943674Y-133661655D01*
X143711445Y-133661655D01*
X143634036Y-133622950D01*
X143595331Y-133584245D01*
X144601655Y-132848855D02*
X144679064Y-132848855D01*
X144756474Y-132887560D01*
X144795179Y-132926264D01*
X144833883Y-133003674D01*
X144872588Y-133158493D01*
X144872588Y-133352017D01*
X144833883Y-133506836D01*
X144795179Y-133584245D01*
X144756474Y-133622950D01*
X144679064Y-133661655D01*
X144601655Y-133661655D01*
X144524245Y-133622950D01*
X144485540Y-133584245D01*
X144446836Y-133506836D01*
X144408131Y-133352017D01*
X144408131Y-133158493D01*
X144446836Y-133003674D01*
X144485540Y-132926264D01*
X144524245Y-132887560D01*
X144601655Y-132848855D01*
X145182226Y-132926264D02*
X145220931Y-132887560D01*
X145298340Y-132848855D01*
X145491864Y-132848855D01*
X145569274Y-132887560D01*
X145607979Y-132926264D01*
X145646683Y-133003674D01*
X145646683Y-133081083D01*
X145607979Y-133197198D01*
X145143521Y-133661655D01*
X145646683Y-133661655D01*
X132825980Y-127767695D02*
X132825980Y-126954895D01*
X133019504Y-126954895D01*
X133135619Y-126993600D01*
X133213028Y-127071009D01*
X133251733Y-127148419D01*
X133290438Y-127303238D01*
X133290438Y-127419352D01*
X133251733Y-127574171D01*
X133213028Y-127651580D01*
X133135619Y-127728990D01*
X133019504Y-127767695D01*
X132825980Y-127767695D01*
X133561371Y-126954895D02*
X134064533Y-126954895D01*
X133793600Y-127264533D01*
X133909714Y-127264533D01*
X133987123Y-127303238D01*
X134025828Y-127341942D01*
X134064533Y-127419352D01*
X134064533Y-127612876D01*
X134025828Y-127690285D01*
X133987123Y-127728990D01*
X133909714Y-127767695D01*
X133677485Y-127767695D01*
X133600076Y-127728990D01*
X133561371Y-127690285D01*
X134567695Y-126954895D02*
X134645104Y-126954895D01*
X134722514Y-126993600D01*
X134761219Y-127032304D01*
X134799923Y-127109714D01*
X134838628Y-127264533D01*
X134838628Y-127458057D01*
X134799923Y-127612876D01*
X134761219Y-127690285D01*
X134722514Y-127728990D01*
X134645104Y-127767695D01*
X134567695Y-127767695D01*
X134490285Y-127728990D01*
X134451580Y-127690285D01*
X134412876Y-127612876D01*
X134374171Y-127458057D01*
X134374171Y-127264533D01*
X134412876Y-127109714D01*
X134451580Y-127032304D01*
X134490285Y-126993600D01*
X134567695Y-126954895D01*
X135109561Y-126954895D02*
X135612723Y-126954895D01*
X135341790Y-127264533D01*
X135457904Y-127264533D01*
X135535314Y-127303238D01*
X135574019Y-127341942D01*
X135612723Y-127419352D01*
X135612723Y-127612876D01*
X135574019Y-127690285D01*
X135535314Y-127728990D01*
X135457904Y-127767695D01*
X135225676Y-127767695D01*
X135148266Y-127728990D01*
X135109561Y-127690285D01*
X148454971Y-133141942D02*
X148184038Y-133141942D01*
X148184038Y-133567695D02*
X148184038Y-132754895D01*
X148571085Y-132754895D01*
X148803314Y-132754895D02*
X149306476Y-132754895D01*
X149035542Y-133064533D01*
X149151657Y-133064533D01*
X149229066Y-133103238D01*
X149267771Y-133141942D01*
X149306476Y-133219352D01*
X149306476Y-133412876D01*
X149267771Y-133490285D01*
X149229066Y-133528990D01*
X149151657Y-133567695D01*
X148919428Y-133567695D01*
X148842019Y-133528990D01*
X148803314Y-133490285D01*
X149809638Y-132754895D02*
X149887047Y-132754895D01*
X149964457Y-132793600D01*
X150003161Y-132832304D01*
X150041866Y-132909714D01*
X150080571Y-133064533D01*
X150080571Y-133258057D01*
X150041866Y-133412876D01*
X150003161Y-133490285D01*
X149964457Y-133528990D01*
X149887047Y-133567695D01*
X149809638Y-133567695D01*
X149732228Y-133528990D01*
X149693523Y-133490285D01*
X149654819Y-133412876D01*
X149616114Y-133258057D01*
X149616114Y-133064533D01*
X149654819Y-132909714D01*
X149693523Y-132832304D01*
X149732228Y-132793600D01*
X149809638Y-132754895D01*
X150854666Y-133567695D02*
X150390209Y-133567695D01*
X150622438Y-133567695D02*
X150622438Y-132754895D01*
X150545028Y-132871009D01*
X150467619Y-132948419D01*
X150390209Y-132987123D01*
D18*
X166539862Y-113671063D02*
X166539862Y-114578206D01*
X166479386Y-114759635D01*
X166358434Y-114880587D01*
X166177005Y-114941063D01*
X166056053Y-114941063D01*
X167809862Y-114941063D02*
X167084148Y-114941063D01*
X167447005Y-114941063D02*
X167447005Y-113671063D01*
X167326053Y-113852492D01*
X167205100Y-113973444D01*
X167084148Y-114033920D01*
X168596053Y-113671063D02*
X168717005Y-113671063D01*
X168837958Y-113731540D01*
X168898434Y-113792016D01*
X168958910Y-113912968D01*
X169019386Y-114154873D01*
X169019386Y-114457254D01*
X168958910Y-114699159D01*
X168898434Y-114820111D01*
X168837958Y-114880587D01*
X168717005Y-114941063D01*
X168596053Y-114941063D01*
X168475100Y-114880587D01*
X168414624Y-114820111D01*
X168354148Y-114699159D01*
X168293672Y-114457254D01*
X168293672Y-114154873D01*
X168354148Y-113912968D01*
X168414624Y-113792016D01*
X168475100Y-113731540D01*
X168596053Y-113671063D01*
X169503196Y-113792016D02*
X169563672Y-113731540D01*
X169684624Y-113671063D01*
X169987005Y-113671063D01*
X170107958Y-113731540D01*
X170168434Y-113792016D01*
X170228910Y-113912968D01*
X170228910Y-114033920D01*
X170168434Y-114215349D01*
X169442720Y-114941063D01*
X170228910Y-114941063D01*
D20*
X125854971Y-55054895D02*
X125854971Y-55635466D01*
X125816266Y-55751580D01*
X125738857Y-55828990D01*
X125622742Y-55867695D01*
X125545333Y-55867695D01*
X126203314Y-55132304D02*
X126242019Y-55093600D01*
X126319428Y-55054895D01*
X126512952Y-55054895D01*
X126590361Y-55093600D01*
X126629066Y-55132304D01*
X126667771Y-55209714D01*
X126667771Y-55287123D01*
X126629066Y-55403238D01*
X126164609Y-55867695D01*
X126667771Y-55867695D01*
X127170933Y-55054895D02*
X127248342Y-55054895D01*
X127325752Y-55093600D01*
X127364457Y-55132304D01*
X127403161Y-55209714D01*
X127441866Y-55364533D01*
X127441866Y-55558057D01*
X127403161Y-55712876D01*
X127364457Y-55790285D01*
X127325752Y-55828990D01*
X127248342Y-55867695D01*
X127170933Y-55867695D01*
X127093523Y-55828990D01*
X127054819Y-55790285D01*
X127016114Y-55712876D01*
X126977409Y-55558057D01*
X126977409Y-55364533D01*
X127016114Y-55209714D01*
X127054819Y-55132304D01*
X127093523Y-55093600D01*
X127170933Y-55054895D01*
X128215961Y-55867695D02*
X127751504Y-55867695D01*
X127983733Y-55867695D02*
X127983733Y-55054895D01*
X127906323Y-55171009D01*
X127828914Y-55248419D01*
X127751504Y-55287123D01*
D16*
X122480952Y-131052380D02*
X122004761Y-131052380D01*
X122004761Y-130052380D01*
X122719047Y-130052380D02*
X123338095Y-130052380D01*
X123004761Y-130433333D01*
X123147619Y-130433333D01*
X123242857Y-130480952D01*
X123290476Y-130528571D01*
X123338095Y-130623809D01*
X123338095Y-130861904D01*
X123290476Y-130957142D01*
X123242857Y-131004761D01*
X123147619Y-131052380D01*
X122861904Y-131052380D01*
X122766666Y-131004761D01*
X122719047Y-130957142D01*
X123957142Y-130052380D02*
X124052380Y-130052380D01*
X124147619Y-130100000D01*
X124195238Y-130147619D01*
X124242857Y-130242857D01*
X124290476Y-130433333D01*
X124290476Y-130671428D01*
X124242857Y-130861904D01*
X124195238Y-130957142D01*
X124147619Y-131004761D01*
X124052380Y-131052380D01*
X123957142Y-131052380D01*
X123861904Y-131004761D01*
X123814285Y-130957142D01*
X123766666Y-130861904D01*
X123719047Y-130671428D01*
X123719047Y-130433333D01*
X123766666Y-130242857D01*
X123814285Y-130147619D01*
X123861904Y-130100000D01*
X123957142Y-130052380D01*
X125242857Y-131052380D02*
X124671428Y-131052380D01*
X124957142Y-131052380D02*
X124957142Y-130052380D01*
X124861904Y-130195238D01*
X124766666Y-130290476D01*
X124671428Y-130338095D01*
D20*
X173490438Y-56867695D02*
X173219504Y-56480647D01*
X173025980Y-56867695D02*
X173025980Y-56054895D01*
X173335619Y-56054895D01*
X173413028Y-56093600D01*
X173451733Y-56132304D01*
X173490438Y-56209714D01*
X173490438Y-56325828D01*
X173451733Y-56403238D01*
X173413028Y-56441942D01*
X173335619Y-56480647D01*
X173025980Y-56480647D01*
X173800076Y-56132304D02*
X173838780Y-56093600D01*
X173916190Y-56054895D01*
X174109714Y-56054895D01*
X174187123Y-56093600D01*
X174225828Y-56132304D01*
X174264533Y-56209714D01*
X174264533Y-56287123D01*
X174225828Y-56403238D01*
X173761371Y-56867695D01*
X174264533Y-56867695D01*
X174767695Y-56054895D02*
X174845104Y-56054895D01*
X174922514Y-56093600D01*
X174961219Y-56132304D01*
X174999923Y-56209714D01*
X175038628Y-56364533D01*
X175038628Y-56558057D01*
X174999923Y-56712876D01*
X174961219Y-56790285D01*
X174922514Y-56828990D01*
X174845104Y-56867695D01*
X174767695Y-56867695D01*
X174690285Y-56828990D01*
X174651580Y-56790285D01*
X174612876Y-56712876D01*
X174574171Y-56558057D01*
X174574171Y-56364533D01*
X174612876Y-56209714D01*
X174651580Y-56132304D01*
X174690285Y-56093600D01*
X174767695Y-56054895D01*
X175812723Y-56867695D02*
X175348266Y-56867695D01*
X175580495Y-56867695D02*
X175580495Y-56054895D01*
X175503085Y-56171009D01*
X175425676Y-56248419D01*
X175348266Y-56287123D01*
X173438780Y-57967695D02*
X172974323Y-57967695D01*
X173206552Y-57967695D02*
X173206552Y-57154895D01*
X173129142Y-57271009D01*
X173051733Y-57348419D01*
X172974323Y-57387123D01*
X173941942Y-57154895D02*
X174019352Y-57154895D01*
X174096761Y-57193600D01*
X174135466Y-57232304D01*
X174174171Y-57309714D01*
X174212876Y-57464533D01*
X174212876Y-57658057D01*
X174174171Y-57812876D01*
X174135466Y-57890285D01*
X174096761Y-57928990D01*
X174019352Y-57967695D01*
X173941942Y-57967695D01*
X173864533Y-57928990D01*
X173825828Y-57890285D01*
X173787123Y-57812876D01*
X173748419Y-57658057D01*
X173748419Y-57464533D01*
X173787123Y-57309714D01*
X173825828Y-57232304D01*
X173864533Y-57193600D01*
X173941942Y-57154895D01*
X174561219Y-57967695D02*
X174561219Y-57154895D01*
X175025676Y-57967695D02*
X174677333Y-57503238D01*
X175025676Y-57154895D02*
X174561219Y-57619352D01*
X173490438Y-54767695D02*
X173219504Y-54380647D01*
X173025980Y-54767695D02*
X173025980Y-53954895D01*
X173335619Y-53954895D01*
X173413028Y-53993600D01*
X173451733Y-54032304D01*
X173490438Y-54109714D01*
X173490438Y-54225828D01*
X173451733Y-54303238D01*
X173413028Y-54341942D01*
X173335619Y-54380647D01*
X173025980Y-54380647D01*
X173800076Y-54032304D02*
X173838780Y-53993600D01*
X173916190Y-53954895D01*
X174109714Y-53954895D01*
X174187123Y-53993600D01*
X174225828Y-54032304D01*
X174264533Y-54109714D01*
X174264533Y-54187123D01*
X174225828Y-54303238D01*
X173761371Y-54767695D01*
X174264533Y-54767695D01*
X174767695Y-53954895D02*
X174845104Y-53954895D01*
X174922514Y-53993600D01*
X174961219Y-54032304D01*
X174999923Y-54109714D01*
X175038628Y-54264533D01*
X175038628Y-54458057D01*
X174999923Y-54612876D01*
X174961219Y-54690285D01*
X174922514Y-54728990D01*
X174845104Y-54767695D01*
X174767695Y-54767695D01*
X174690285Y-54728990D01*
X174651580Y-54690285D01*
X174612876Y-54612876D01*
X174574171Y-54458057D01*
X174574171Y-54264533D01*
X174612876Y-54109714D01*
X174651580Y-54032304D01*
X174690285Y-53993600D01*
X174767695Y-53954895D01*
X175348266Y-54032304D02*
X175386971Y-53993600D01*
X175464380Y-53954895D01*
X175657904Y-53954895D01*
X175735314Y-53993600D01*
X175774019Y-54032304D01*
X175812723Y-54109714D01*
X175812723Y-54187123D01*
X175774019Y-54303238D01*
X175309561Y-54767695D01*
X175812723Y-54767695D01*
X173438780Y-55767695D02*
X172974323Y-55767695D01*
X173206552Y-55767695D02*
X173206552Y-54954895D01*
X173129142Y-55071009D01*
X173051733Y-55148419D01*
X172974323Y-55187123D01*
X173941942Y-54954895D02*
X174019352Y-54954895D01*
X174096761Y-54993600D01*
X174135466Y-55032304D01*
X174174171Y-55109714D01*
X174212876Y-55264533D01*
X174212876Y-55458057D01*
X174174171Y-55612876D01*
X174135466Y-55690285D01*
X174096761Y-55728990D01*
X174019352Y-55767695D01*
X173941942Y-55767695D01*
X173864533Y-55728990D01*
X173825828Y-55690285D01*
X173787123Y-55612876D01*
X173748419Y-55458057D01*
X173748419Y-55264533D01*
X173787123Y-55109714D01*
X173825828Y-55032304D01*
X173864533Y-54993600D01*
X173941942Y-54954895D01*
X174561219Y-55767695D02*
X174561219Y-54954895D01*
X175025676Y-55767695D02*
X174677333Y-55303238D01*
X175025676Y-54954895D02*
X174561219Y-55419352D01*
X127790438Y-50967695D02*
X127519504Y-50580647D01*
X127325980Y-50967695D02*
X127325980Y-50154895D01*
X127635619Y-50154895D01*
X127713028Y-50193600D01*
X127751733Y-50232304D01*
X127790438Y-50309714D01*
X127790438Y-50425828D01*
X127751733Y-50503238D01*
X127713028Y-50541942D01*
X127635619Y-50580647D01*
X127325980Y-50580647D01*
X128100076Y-50232304D02*
X128138780Y-50193600D01*
X128216190Y-50154895D01*
X128409714Y-50154895D01*
X128487123Y-50193600D01*
X128525828Y-50232304D01*
X128564533Y-50309714D01*
X128564533Y-50387123D01*
X128525828Y-50503238D01*
X128061371Y-50967695D01*
X128564533Y-50967695D01*
X129067695Y-50154895D02*
X129145104Y-50154895D01*
X129222514Y-50193600D01*
X129261219Y-50232304D01*
X129299923Y-50309714D01*
X129338628Y-50464533D01*
X129338628Y-50658057D01*
X129299923Y-50812876D01*
X129261219Y-50890285D01*
X129222514Y-50928990D01*
X129145104Y-50967695D01*
X129067695Y-50967695D01*
X128990285Y-50928990D01*
X128951580Y-50890285D01*
X128912876Y-50812876D01*
X128874171Y-50658057D01*
X128874171Y-50464533D01*
X128912876Y-50309714D01*
X128951580Y-50232304D01*
X128990285Y-50193600D01*
X129067695Y-50154895D01*
X129609561Y-50154895D02*
X130112723Y-50154895D01*
X129841790Y-50464533D01*
X129957904Y-50464533D01*
X130035314Y-50503238D01*
X130074019Y-50541942D01*
X130112723Y-50619352D01*
X130112723Y-50812876D01*
X130074019Y-50890285D01*
X130035314Y-50928990D01*
X129957904Y-50967695D01*
X129725676Y-50967695D01*
X129648266Y-50928990D01*
X129609561Y-50890285D01*
X130638780Y-52267695D02*
X130174323Y-52267695D01*
X130406552Y-52267695D02*
X130406552Y-51454895D01*
X130329142Y-51571009D01*
X130251733Y-51648419D01*
X130174323Y-51687123D01*
X131141942Y-51454895D02*
X131219352Y-51454895D01*
X131296761Y-51493600D01*
X131335466Y-51532304D01*
X131374171Y-51609714D01*
X131412876Y-51764533D01*
X131412876Y-51958057D01*
X131374171Y-52112876D01*
X131335466Y-52190285D01*
X131296761Y-52228990D01*
X131219352Y-52267695D01*
X131141942Y-52267695D01*
X131064533Y-52228990D01*
X131025828Y-52190285D01*
X130987123Y-52112876D01*
X130948419Y-51958057D01*
X130948419Y-51764533D01*
X130987123Y-51609714D01*
X131025828Y-51532304D01*
X131064533Y-51493600D01*
X131141942Y-51454895D01*
X131761219Y-52267695D02*
X131761219Y-51454895D01*
X132225676Y-52267695D02*
X131877333Y-51803238D01*
X132225676Y-51454895D02*
X131761219Y-51919352D01*
X124190438Y-50867695D02*
X123919504Y-50480647D01*
X123725980Y-50867695D02*
X123725980Y-50054895D01*
X124035619Y-50054895D01*
X124113028Y-50093600D01*
X124151733Y-50132304D01*
X124190438Y-50209714D01*
X124190438Y-50325828D01*
X124151733Y-50403238D01*
X124113028Y-50441942D01*
X124035619Y-50480647D01*
X123725980Y-50480647D01*
X124500076Y-50132304D02*
X124538780Y-50093600D01*
X124616190Y-50054895D01*
X124809714Y-50054895D01*
X124887123Y-50093600D01*
X124925828Y-50132304D01*
X124964533Y-50209714D01*
X124964533Y-50287123D01*
X124925828Y-50403238D01*
X124461371Y-50867695D01*
X124964533Y-50867695D01*
X125467695Y-50054895D02*
X125545104Y-50054895D01*
X125622514Y-50093600D01*
X125661219Y-50132304D01*
X125699923Y-50209714D01*
X125738628Y-50364533D01*
X125738628Y-50558057D01*
X125699923Y-50712876D01*
X125661219Y-50790285D01*
X125622514Y-50828990D01*
X125545104Y-50867695D01*
X125467695Y-50867695D01*
X125390285Y-50828990D01*
X125351580Y-50790285D01*
X125312876Y-50712876D01*
X125274171Y-50558057D01*
X125274171Y-50364533D01*
X125312876Y-50209714D01*
X125351580Y-50132304D01*
X125390285Y-50093600D01*
X125467695Y-50054895D01*
X126435314Y-50325828D02*
X126435314Y-50867695D01*
X126241790Y-50016190D02*
X126048266Y-50596761D01*
X126551428Y-50596761D01*
D16*
X126880952Y-84652380D02*
X126547619Y-84176190D01*
X126309523Y-84652380D02*
X126309523Y-83652380D01*
X126690476Y-83652380D01*
X126785714Y-83700000D01*
X126833333Y-83747619D01*
X126880952Y-83842857D01*
X126880952Y-83985714D01*
X126833333Y-84080952D01*
X126785714Y-84128571D01*
X126690476Y-84176190D01*
X126309523Y-84176190D01*
X127738095Y-83985714D02*
X127738095Y-84652380D01*
X127500000Y-83604761D02*
X127261904Y-84319047D01*
X127880952Y-84319047D01*
X128452380Y-83652380D02*
X128547619Y-83652380D01*
X128642857Y-83700000D01*
X128690476Y-83747619D01*
X128738095Y-83842857D01*
X128785714Y-84033333D01*
X128785714Y-84271428D01*
X128738095Y-84461904D01*
X128690476Y-84557142D01*
X128642857Y-84604761D01*
X128547619Y-84652380D01*
X128452380Y-84652380D01*
X128357142Y-84604761D01*
X128309523Y-84557142D01*
X128261904Y-84461904D01*
X128214285Y-84271428D01*
X128214285Y-84033333D01*
X128261904Y-83842857D01*
X128309523Y-83747619D01*
X128357142Y-83700000D01*
X128452380Y-83652380D01*
X129738095Y-84652380D02*
X129166666Y-84652380D01*
X129452380Y-84652380D02*
X129452380Y-83652380D01*
X129357142Y-83795238D01*
X129261904Y-83890476D01*
X129166666Y-83938095D01*
X148080952Y-103852380D02*
X147747619Y-103376190D01*
X147509523Y-103852380D02*
X147509523Y-102852380D01*
X147890476Y-102852380D01*
X147985714Y-102900000D01*
X148033333Y-102947619D01*
X148080952Y-103042857D01*
X148080952Y-103185714D01*
X148033333Y-103280952D01*
X147985714Y-103328571D01*
X147890476Y-103376190D01*
X147509523Y-103376190D01*
X148985714Y-102852380D02*
X148509523Y-102852380D01*
X148461904Y-103328571D01*
X148509523Y-103280952D01*
X148604761Y-103233333D01*
X148842857Y-103233333D01*
X148938095Y-103280952D01*
X148985714Y-103328571D01*
X149033333Y-103423809D01*
X149033333Y-103661904D01*
X148985714Y-103757142D01*
X148938095Y-103804761D01*
X148842857Y-103852380D01*
X148604761Y-103852380D01*
X148509523Y-103804761D01*
X148461904Y-103757142D01*
X149652380Y-102852380D02*
X149747619Y-102852380D01*
X149842857Y-102900000D01*
X149890476Y-102947619D01*
X149938095Y-103042857D01*
X149985714Y-103233333D01*
X149985714Y-103471428D01*
X149938095Y-103661904D01*
X149890476Y-103757142D01*
X149842857Y-103804761D01*
X149747619Y-103852380D01*
X149652380Y-103852380D01*
X149557142Y-103804761D01*
X149509523Y-103757142D01*
X149461904Y-103661904D01*
X149414285Y-103471428D01*
X149414285Y-103233333D01*
X149461904Y-103042857D01*
X149509523Y-102947619D01*
X149557142Y-102900000D01*
X149652380Y-102852380D01*
X150938095Y-103852380D02*
X150366666Y-103852380D01*
X150652380Y-103852380D02*
X150652380Y-102852380D01*
X150557142Y-102995238D01*
X150461904Y-103090476D01*
X150366666Y-103138095D01*
X142480952Y-103852380D02*
X142147619Y-103376190D01*
X141909523Y-103852380D02*
X141909523Y-102852380D01*
X142290476Y-102852380D01*
X142385714Y-102900000D01*
X142433333Y-102947619D01*
X142480952Y-103042857D01*
X142480952Y-103185714D01*
X142433333Y-103280952D01*
X142385714Y-103328571D01*
X142290476Y-103376190D01*
X141909523Y-103376190D01*
X143338095Y-102852380D02*
X143147619Y-102852380D01*
X143052380Y-102900000D01*
X143004761Y-102947619D01*
X142909523Y-103090476D01*
X142861904Y-103280952D01*
X142861904Y-103661904D01*
X142909523Y-103757142D01*
X142957142Y-103804761D01*
X143052380Y-103852380D01*
X143242857Y-103852380D01*
X143338095Y-103804761D01*
X143385714Y-103757142D01*
X143433333Y-103661904D01*
X143433333Y-103423809D01*
X143385714Y-103328571D01*
X143338095Y-103280952D01*
X143242857Y-103233333D01*
X143052380Y-103233333D01*
X142957142Y-103280952D01*
X142909523Y-103328571D01*
X142861904Y-103423809D01*
X144052380Y-102852380D02*
X144147619Y-102852380D01*
X144242857Y-102900000D01*
X144290476Y-102947619D01*
X144338095Y-103042857D01*
X144385714Y-103233333D01*
X144385714Y-103471428D01*
X144338095Y-103661904D01*
X144290476Y-103757142D01*
X144242857Y-103804761D01*
X144147619Y-103852380D01*
X144052380Y-103852380D01*
X143957142Y-103804761D01*
X143909523Y-103757142D01*
X143861904Y-103661904D01*
X143814285Y-103471428D01*
X143814285Y-103233333D01*
X143861904Y-103042857D01*
X143909523Y-102947619D01*
X143957142Y-102900000D01*
X144052380Y-102852380D01*
X145338095Y-103852380D02*
X144766666Y-103852380D01*
X145052380Y-103852380D02*
X145052380Y-102852380D01*
X144957142Y-102995238D01*
X144861904Y-103090476D01*
X144766666Y-103138095D01*
X164180952Y-103952380D02*
X163847619Y-103476190D01*
X163609523Y-103952380D02*
X163609523Y-102952380D01*
X163990476Y-102952380D01*
X164085714Y-103000000D01*
X164133333Y-103047619D01*
X164180952Y-103142857D01*
X164180952Y-103285714D01*
X164133333Y-103380952D01*
X164085714Y-103428571D01*
X163990476Y-103476190D01*
X163609523Y-103476190D01*
X164514285Y-102952380D02*
X165180952Y-102952380D01*
X164752380Y-103952380D01*
X165752380Y-102952380D02*
X165847619Y-102952380D01*
X165942857Y-103000000D01*
X165990476Y-103047619D01*
X166038095Y-103142857D01*
X166085714Y-103333333D01*
X166085714Y-103571428D01*
X166038095Y-103761904D01*
X165990476Y-103857142D01*
X165942857Y-103904761D01*
X165847619Y-103952380D01*
X165752380Y-103952380D01*
X165657142Y-103904761D01*
X165609523Y-103857142D01*
X165561904Y-103761904D01*
X165514285Y-103571428D01*
X165514285Y-103333333D01*
X165561904Y-103142857D01*
X165609523Y-103047619D01*
X165657142Y-103000000D01*
X165752380Y-102952380D01*
X167038095Y-103952380D02*
X166466666Y-103952380D01*
X166752380Y-103952380D02*
X166752380Y-102952380D01*
X166657142Y-103095238D01*
X166561904Y-103190476D01*
X166466666Y-103238095D01*
X158680952Y-103952380D02*
X158347619Y-103476190D01*
X158109523Y-103952380D02*
X158109523Y-102952380D01*
X158490476Y-102952380D01*
X158585714Y-103000000D01*
X158633333Y-103047619D01*
X158680952Y-103142857D01*
X158680952Y-103285714D01*
X158633333Y-103380952D01*
X158585714Y-103428571D01*
X158490476Y-103476190D01*
X158109523Y-103476190D01*
X159252380Y-103380952D02*
X159157142Y-103333333D01*
X159109523Y-103285714D01*
X159061904Y-103190476D01*
X159061904Y-103142857D01*
X159109523Y-103047619D01*
X159157142Y-103000000D01*
X159252380Y-102952380D01*
X159442857Y-102952380D01*
X159538095Y-103000000D01*
X159585714Y-103047619D01*
X159633333Y-103142857D01*
X159633333Y-103190476D01*
X159585714Y-103285714D01*
X159538095Y-103333333D01*
X159442857Y-103380952D01*
X159252380Y-103380952D01*
X159157142Y-103428571D01*
X159109523Y-103476190D01*
X159061904Y-103571428D01*
X159061904Y-103761904D01*
X159109523Y-103857142D01*
X159157142Y-103904761D01*
X159252380Y-103952380D01*
X159442857Y-103952380D01*
X159538095Y-103904761D01*
X159585714Y-103857142D01*
X159633333Y-103761904D01*
X159633333Y-103571428D01*
X159585714Y-103476190D01*
X159538095Y-103428571D01*
X159442857Y-103380952D01*
X160252380Y-102952380D02*
X160347619Y-102952380D01*
X160442857Y-103000000D01*
X160490476Y-103047619D01*
X160538095Y-103142857D01*
X160585714Y-103333333D01*
X160585714Y-103571428D01*
X160538095Y-103761904D01*
X160490476Y-103857142D01*
X160442857Y-103904761D01*
X160347619Y-103952380D01*
X160252380Y-103952380D01*
X160157142Y-103904761D01*
X160109523Y-103857142D01*
X160061904Y-103761904D01*
X160014285Y-103571428D01*
X160014285Y-103333333D01*
X160061904Y-103142857D01*
X160109523Y-103047619D01*
X160157142Y-103000000D01*
X160252380Y-102952380D01*
X161538095Y-103952380D02*
X160966666Y-103952380D01*
X161252380Y-103952380D02*
X161252380Y-102952380D01*
X161157142Y-103095238D01*
X161061904Y-103190476D01*
X160966666Y-103238095D01*
X212980952Y-88852380D02*
X212647619Y-88376190D01*
X212409523Y-88852380D02*
X212409523Y-87852380D01*
X212790476Y-87852380D01*
X212885714Y-87900000D01*
X212933333Y-87947619D01*
X212980952Y-88042857D01*
X212980952Y-88185714D01*
X212933333Y-88280952D01*
X212885714Y-88328571D01*
X212790476Y-88376190D01*
X212409523Y-88376190D01*
X213457142Y-88852380D02*
X213647619Y-88852380D01*
X213742857Y-88804761D01*
X213790476Y-88757142D01*
X213885714Y-88614285D01*
X213933333Y-88423809D01*
X213933333Y-88042857D01*
X213885714Y-87947619D01*
X213838095Y-87900000D01*
X213742857Y-87852380D01*
X213552380Y-87852380D01*
X213457142Y-87900000D01*
X213409523Y-87947619D01*
X213361904Y-88042857D01*
X213361904Y-88280952D01*
X213409523Y-88376190D01*
X213457142Y-88423809D01*
X213552380Y-88471428D01*
X213742857Y-88471428D01*
X213838095Y-88423809D01*
X213885714Y-88376190D01*
X213933333Y-88280952D01*
X214552380Y-87852380D02*
X214647619Y-87852380D01*
X214742857Y-87900000D01*
X214790476Y-87947619D01*
X214838095Y-88042857D01*
X214885714Y-88233333D01*
X214885714Y-88471428D01*
X214838095Y-88661904D01*
X214790476Y-88757142D01*
X214742857Y-88804761D01*
X214647619Y-88852380D01*
X214552380Y-88852380D01*
X214457142Y-88804761D01*
X214409523Y-88757142D01*
X214361904Y-88661904D01*
X214314285Y-88471428D01*
X214314285Y-88233333D01*
X214361904Y-88042857D01*
X214409523Y-87947619D01*
X214457142Y-87900000D01*
X214552380Y-87852380D01*
X215838095Y-88852380D02*
X215266666Y-88852380D01*
X215552380Y-88852380D02*
X215552380Y-87852380D01*
X215457142Y-87995238D01*
X215361904Y-88090476D01*
X215266666Y-88138095D01*
X174504761Y-103952380D02*
X174171428Y-103476190D01*
X173933333Y-103952380D02*
X173933333Y-102952380D01*
X174314285Y-102952380D01*
X174409523Y-103000000D01*
X174457142Y-103047619D01*
X174504761Y-103142857D01*
X174504761Y-103285714D01*
X174457142Y-103380952D01*
X174409523Y-103428571D01*
X174314285Y-103476190D01*
X173933333Y-103476190D01*
X175457142Y-103952380D02*
X174885714Y-103952380D01*
X175171428Y-103952380D02*
X175171428Y-102952380D01*
X175076190Y-103095238D01*
X174980952Y-103190476D01*
X174885714Y-103238095D01*
X176076190Y-102952380D02*
X176171428Y-102952380D01*
X176266666Y-103000000D01*
X176314285Y-103047619D01*
X176361904Y-103142857D01*
X176409523Y-103333333D01*
X176409523Y-103571428D01*
X176361904Y-103761904D01*
X176314285Y-103857142D01*
X176266666Y-103904761D01*
X176171428Y-103952380D01*
X176076190Y-103952380D01*
X175980952Y-103904761D01*
X175933333Y-103857142D01*
X175885714Y-103761904D01*
X175838095Y-103571428D01*
X175838095Y-103333333D01*
X175885714Y-103142857D01*
X175933333Y-103047619D01*
X175980952Y-103000000D01*
X176076190Y-102952380D01*
X177028571Y-102952380D02*
X177123809Y-102952380D01*
X177219047Y-103000000D01*
X177266666Y-103047619D01*
X177314285Y-103142857D01*
X177361904Y-103333333D01*
X177361904Y-103571428D01*
X177314285Y-103761904D01*
X177266666Y-103857142D01*
X177219047Y-103904761D01*
X177123809Y-103952380D01*
X177028571Y-103952380D01*
X176933333Y-103904761D01*
X176885714Y-103857142D01*
X176838095Y-103761904D01*
X176790476Y-103571428D01*
X176790476Y-103333333D01*
X176838095Y-103142857D01*
X176885714Y-103047619D01*
X176933333Y-103000000D01*
X177028571Y-102952380D01*
X178314285Y-103952380D02*
X177742857Y-103952380D01*
X178028571Y-103952380D02*
X178028571Y-102952380D01*
X177933333Y-103095238D01*
X177838095Y-103190476D01*
X177742857Y-103238095D01*
X169004761Y-103952380D02*
X168671428Y-103476190D01*
X168433333Y-103952380D02*
X168433333Y-102952380D01*
X168814285Y-102952380D01*
X168909523Y-103000000D01*
X168957142Y-103047619D01*
X169004761Y-103142857D01*
X169004761Y-103285714D01*
X168957142Y-103380952D01*
X168909523Y-103428571D01*
X168814285Y-103476190D01*
X168433333Y-103476190D01*
X169957142Y-103952380D02*
X169385714Y-103952380D01*
X169671428Y-103952380D02*
X169671428Y-102952380D01*
X169576190Y-103095238D01*
X169480952Y-103190476D01*
X169385714Y-103238095D01*
X170909523Y-103952380D02*
X170338095Y-103952380D01*
X170623809Y-103952380D02*
X170623809Y-102952380D01*
X170528571Y-103095238D01*
X170433333Y-103190476D01*
X170338095Y-103238095D01*
X171528571Y-102952380D02*
X171623809Y-102952380D01*
X171719047Y-103000000D01*
X171766666Y-103047619D01*
X171814285Y-103142857D01*
X171861904Y-103333333D01*
X171861904Y-103571428D01*
X171814285Y-103761904D01*
X171766666Y-103857142D01*
X171719047Y-103904761D01*
X171623809Y-103952380D01*
X171528571Y-103952380D01*
X171433333Y-103904761D01*
X171385714Y-103857142D01*
X171338095Y-103761904D01*
X171290476Y-103571428D01*
X171290476Y-103333333D01*
X171338095Y-103142857D01*
X171385714Y-103047619D01*
X171433333Y-103000000D01*
X171528571Y-102952380D01*
X172814285Y-103952380D02*
X172242857Y-103952380D01*
X172528571Y-103952380D02*
X172528571Y-102952380D01*
X172433333Y-103095238D01*
X172338095Y-103190476D01*
X172242857Y-103238095D01*
X188204761Y-103852380D02*
X187871428Y-103376190D01*
X187633333Y-103852380D02*
X187633333Y-102852380D01*
X188014285Y-102852380D01*
X188109523Y-102900000D01*
X188157142Y-102947619D01*
X188204761Y-103042857D01*
X188204761Y-103185714D01*
X188157142Y-103280952D01*
X188109523Y-103328571D01*
X188014285Y-103376190D01*
X187633333Y-103376190D01*
X189157142Y-103852380D02*
X188585714Y-103852380D01*
X188871428Y-103852380D02*
X188871428Y-102852380D01*
X188776190Y-102995238D01*
X188680952Y-103090476D01*
X188585714Y-103138095D01*
X189538095Y-102947619D02*
X189585714Y-102900000D01*
X189680952Y-102852380D01*
X189919047Y-102852380D01*
X190014285Y-102900000D01*
X190061904Y-102947619D01*
X190109523Y-103042857D01*
X190109523Y-103138095D01*
X190061904Y-103280952D01*
X189490476Y-103852380D01*
X190109523Y-103852380D01*
X190728571Y-102852380D02*
X190823809Y-102852380D01*
X190919047Y-102900000D01*
X190966666Y-102947619D01*
X191014285Y-103042857D01*
X191061904Y-103233333D01*
X191061904Y-103471428D01*
X191014285Y-103661904D01*
X190966666Y-103757142D01*
X190919047Y-103804761D01*
X190823809Y-103852380D01*
X190728571Y-103852380D01*
X190633333Y-103804761D01*
X190585714Y-103757142D01*
X190538095Y-103661904D01*
X190490476Y-103471428D01*
X190490476Y-103233333D01*
X190538095Y-103042857D01*
X190585714Y-102947619D01*
X190633333Y-102900000D01*
X190728571Y-102852380D01*
X192014285Y-103852380D02*
X191442857Y-103852380D01*
X191728571Y-103852380D02*
X191728571Y-102852380D01*
X191633333Y-102995238D01*
X191538095Y-103090476D01*
X191442857Y-103138095D01*
D20*
X127506628Y-65254895D02*
X127506628Y-65912876D01*
X127545333Y-65990285D01*
X127584038Y-66028990D01*
X127661447Y-66067695D01*
X127816266Y-66067695D01*
X127893676Y-66028990D01*
X127932380Y-65990285D01*
X127971085Y-65912876D01*
X127971085Y-65254895D01*
X128319428Y-65332304D02*
X128358133Y-65293600D01*
X128435542Y-65254895D01*
X128629066Y-65254895D01*
X128706476Y-65293600D01*
X128745180Y-65332304D01*
X128783885Y-65409714D01*
X128783885Y-65487123D01*
X128745180Y-65603238D01*
X128280723Y-66067695D01*
X128783885Y-66067695D01*
X129287047Y-65254895D02*
X129364457Y-65254895D01*
X129441866Y-65293600D01*
X129480571Y-65332304D01*
X129519276Y-65409714D01*
X129557980Y-65564533D01*
X129557980Y-65758057D01*
X129519276Y-65912876D01*
X129480571Y-65990285D01*
X129441866Y-66028990D01*
X129364457Y-66067695D01*
X129287047Y-66067695D01*
X129209638Y-66028990D01*
X129170933Y-65990285D01*
X129132228Y-65912876D01*
X129093523Y-65758057D01*
X129093523Y-65564533D01*
X129132228Y-65409714D01*
X129170933Y-65332304D01*
X129209638Y-65293600D01*
X129287047Y-65254895D01*
X130332076Y-66067695D02*
X129867619Y-66067695D01*
X130099847Y-66067695D02*
X130099847Y-65254895D01*
X130022438Y-65371009D01*
X129945028Y-65448419D01*
X129867619Y-65487123D01*
X125094057Y-67267695D02*
X124707009Y-67267695D01*
X124707009Y-66454895D01*
X125364990Y-67267695D02*
X125364990Y-66454895D01*
X125674628Y-66454895D01*
X125752038Y-66493600D01*
X125790742Y-66532304D01*
X125829447Y-66609714D01*
X125829447Y-66725828D01*
X125790742Y-66803238D01*
X125752038Y-66841942D01*
X125674628Y-66880647D01*
X125364990Y-66880647D01*
X126642247Y-67190285D02*
X126603542Y-67228990D01*
X126487428Y-67267695D01*
X126410019Y-67267695D01*
X126293904Y-67228990D01*
X126216495Y-67151580D01*
X126177790Y-67074171D01*
X126139085Y-66919352D01*
X126139085Y-66803238D01*
X126177790Y-66648419D01*
X126216495Y-66571009D01*
X126293904Y-66493600D01*
X126410019Y-66454895D01*
X126487428Y-66454895D01*
X126603542Y-66493600D01*
X126642247Y-66532304D01*
X127416342Y-67267695D02*
X126951885Y-67267695D01*
X127184114Y-67267695D02*
X127184114Y-66454895D01*
X127106704Y-66571009D01*
X127029295Y-66648419D01*
X126951885Y-66687123D01*
X128151733Y-66454895D02*
X127764685Y-66454895D01*
X127725980Y-66841942D01*
X127764685Y-66803238D01*
X127842095Y-66764533D01*
X128035619Y-66764533D01*
X128113028Y-66803238D01*
X128151733Y-66841942D01*
X128190438Y-66919352D01*
X128190438Y-67112876D01*
X128151733Y-67190285D01*
X128113028Y-67228990D01*
X128035619Y-67267695D01*
X127842095Y-67267695D01*
X127764685Y-67228990D01*
X127725980Y-67190285D01*
X128887123Y-66725828D02*
X128887123Y-67267695D01*
X128693600Y-66416190D02*
X128500076Y-66996761D01*
X129003238Y-66996761D01*
X129351580Y-67267695D02*
X129506400Y-67267695D01*
X129583809Y-67228990D01*
X129622514Y-67190285D01*
X129699923Y-67074171D01*
X129738628Y-66919352D01*
X129738628Y-66609714D01*
X129699923Y-66532304D01*
X129661219Y-66493600D01*
X129583809Y-66454895D01*
X129428990Y-66454895D01*
X129351580Y-66493600D01*
X129312876Y-66532304D01*
X129274171Y-66609714D01*
X129274171Y-66803238D01*
X129312876Y-66880647D01*
X129351580Y-66919352D01*
X129428990Y-66958057D01*
X129583809Y-66958057D01*
X129661219Y-66919352D01*
X129699923Y-66880647D01*
X129738628Y-66803238D01*
X130319200Y-66454895D02*
X130319200Y-67035466D01*
X130280495Y-67151580D01*
X130203085Y-67228990D01*
X130086971Y-67267695D01*
X130009561Y-67267695D01*
X130977180Y-66841942D02*
X131093295Y-66880647D01*
X131132000Y-66919352D01*
X131170704Y-66996761D01*
X131170704Y-67112876D01*
X131132000Y-67190285D01*
X131093295Y-67228990D01*
X131015885Y-67267695D01*
X130706247Y-67267695D01*
X130706247Y-66454895D01*
X130977180Y-66454895D01*
X131054590Y-66493600D01*
X131093295Y-66532304D01*
X131132000Y-66609714D01*
X131132000Y-66687123D01*
X131093295Y-66764533D01*
X131054590Y-66803238D01*
X130977180Y-66841942D01*
X130706247Y-66841942D01*
X131519047Y-67267695D02*
X131519047Y-66454895D01*
X131712571Y-66454895D01*
X131828685Y-66493600D01*
X131906095Y-66571009D01*
X131944800Y-66648419D01*
X131983504Y-66803238D01*
X131983504Y-66919352D01*
X131944800Y-67074171D01*
X131906095Y-67151580D01*
X131828685Y-67228990D01*
X131712571Y-67267695D01*
X131519047Y-67267695D01*
X132680190Y-66454895D02*
X132525371Y-66454895D01*
X132447961Y-66493600D01*
X132409257Y-66532304D01*
X132331847Y-66648419D01*
X132293142Y-66803238D01*
X132293142Y-67112876D01*
X132331847Y-67190285D01*
X132370552Y-67228990D01*
X132447961Y-67267695D01*
X132602780Y-67267695D01*
X132680190Y-67228990D01*
X132718895Y-67190285D01*
X132757600Y-67112876D01*
X132757600Y-66919352D01*
X132718895Y-66841942D01*
X132680190Y-66803238D01*
X132602780Y-66764533D01*
X132447961Y-66764533D01*
X132370552Y-66803238D01*
X132331847Y-66841942D01*
X132293142Y-66919352D01*
X133454285Y-66725828D02*
X133454285Y-67267695D01*
X133260761Y-66416190D02*
X133067238Y-66996761D01*
X133570400Y-66996761D01*
X134706628Y-115054895D02*
X134706628Y-115712876D01*
X134745333Y-115790285D01*
X134784038Y-115828990D01*
X134861447Y-115867695D01*
X135016266Y-115867695D01*
X135093676Y-115828990D01*
X135132380Y-115790285D01*
X135171085Y-115712876D01*
X135171085Y-115054895D01*
X135519428Y-115132304D02*
X135558133Y-115093600D01*
X135635542Y-115054895D01*
X135829066Y-115054895D01*
X135906476Y-115093600D01*
X135945180Y-115132304D01*
X135983885Y-115209714D01*
X135983885Y-115287123D01*
X135945180Y-115403238D01*
X135480723Y-115867695D01*
X135983885Y-115867695D01*
X136487047Y-115054895D02*
X136564457Y-115054895D01*
X136641866Y-115093600D01*
X136680571Y-115132304D01*
X136719276Y-115209714D01*
X136757980Y-115364533D01*
X136757980Y-115558057D01*
X136719276Y-115712876D01*
X136680571Y-115790285D01*
X136641866Y-115828990D01*
X136564457Y-115867695D01*
X136487047Y-115867695D01*
X136409638Y-115828990D01*
X136370933Y-115790285D01*
X136332228Y-115712876D01*
X136293523Y-115558057D01*
X136293523Y-115364533D01*
X136332228Y-115209714D01*
X136370933Y-115132304D01*
X136409638Y-115093600D01*
X136487047Y-115054895D01*
X137067619Y-115132304D02*
X137106323Y-115093600D01*
X137183733Y-115054895D01*
X137377257Y-115054895D01*
X137454666Y-115093600D01*
X137493371Y-115132304D01*
X137532076Y-115209714D01*
X137532076Y-115287123D01*
X137493371Y-115403238D01*
X137028914Y-115867695D01*
X137532076Y-115867695D01*
D16*
X134685714Y-84652380D02*
X134685714Y-85461904D01*
X134733333Y-85557142D01*
X134780952Y-85604761D01*
X134876190Y-85652380D01*
X135066666Y-85652380D01*
X135161904Y-85604761D01*
X135209523Y-85557142D01*
X135257142Y-85461904D01*
X135257142Y-84652380D01*
X136161904Y-84985714D02*
X136161904Y-85652380D01*
X135923809Y-84604761D02*
X135685714Y-85319047D01*
X136304761Y-85319047D01*
X136876190Y-84652380D02*
X136971428Y-84652380D01*
X137066666Y-84700000D01*
X137114285Y-84747619D01*
X137161904Y-84842857D01*
X137209523Y-85033333D01*
X137209523Y-85271428D01*
X137161904Y-85461904D01*
X137114285Y-85557142D01*
X137066666Y-85604761D01*
X136971428Y-85652380D01*
X136876190Y-85652380D01*
X136780952Y-85604761D01*
X136733333Y-85557142D01*
X136685714Y-85461904D01*
X136638095Y-85271428D01*
X136638095Y-85033333D01*
X136685714Y-84842857D01*
X136733333Y-84747619D01*
X136780952Y-84700000D01*
X136876190Y-84652380D01*
X138161904Y-85652380D02*
X137590476Y-85652380D01*
X137876190Y-85652380D02*
X137876190Y-84652380D01*
X137780952Y-84795238D01*
X137685714Y-84890476D01*
X137590476Y-84938095D01*
X159285714Y-86852380D02*
X159285714Y-87661904D01*
X159333333Y-87757142D01*
X159380952Y-87804761D01*
X159476190Y-87852380D01*
X159666666Y-87852380D01*
X159761904Y-87804761D01*
X159809523Y-87757142D01*
X159857142Y-87661904D01*
X159857142Y-86852380D01*
X160761904Y-87185714D02*
X160761904Y-87852380D01*
X160523809Y-86804761D02*
X160285714Y-87519047D01*
X160904761Y-87519047D01*
X161476190Y-86852380D02*
X161571428Y-86852380D01*
X161666666Y-86900000D01*
X161714285Y-86947619D01*
X161761904Y-87042857D01*
X161809523Y-87233333D01*
X161809523Y-87471428D01*
X161761904Y-87661904D01*
X161714285Y-87757142D01*
X161666666Y-87804761D01*
X161571428Y-87852380D01*
X161476190Y-87852380D01*
X161380952Y-87804761D01*
X161333333Y-87757142D01*
X161285714Y-87661904D01*
X161238095Y-87471428D01*
X161238095Y-87233333D01*
X161285714Y-87042857D01*
X161333333Y-86947619D01*
X161380952Y-86900000D01*
X161476190Y-86852380D01*
X162190476Y-86947619D02*
X162238095Y-86900000D01*
X162333333Y-86852380D01*
X162571428Y-86852380D01*
X162666666Y-86900000D01*
X162714285Y-86947619D01*
X162761904Y-87042857D01*
X162761904Y-87138095D01*
X162714285Y-87280952D01*
X162142857Y-87852380D01*
X162761904Y-87852380D01*
X147785714Y-86852380D02*
X147785714Y-87661904D01*
X147833333Y-87757142D01*
X147880952Y-87804761D01*
X147976190Y-87852380D01*
X148166666Y-87852380D01*
X148261904Y-87804761D01*
X148309523Y-87757142D01*
X148357142Y-87661904D01*
X148357142Y-86852380D01*
X149261904Y-87185714D02*
X149261904Y-87852380D01*
X149023809Y-86804761D02*
X148785714Y-87519047D01*
X149404761Y-87519047D01*
X149976190Y-86852380D02*
X150071428Y-86852380D01*
X150166666Y-86900000D01*
X150214285Y-86947619D01*
X150261904Y-87042857D01*
X150309523Y-87233333D01*
X150309523Y-87471428D01*
X150261904Y-87661904D01*
X150214285Y-87757142D01*
X150166666Y-87804761D01*
X150071428Y-87852380D01*
X149976190Y-87852380D01*
X149880952Y-87804761D01*
X149833333Y-87757142D01*
X149785714Y-87661904D01*
X149738095Y-87471428D01*
X149738095Y-87233333D01*
X149785714Y-87042857D01*
X149833333Y-86947619D01*
X149880952Y-86900000D01*
X149976190Y-86852380D01*
X150642857Y-86852380D02*
X151261904Y-86852380D01*
X150928571Y-87233333D01*
X151071428Y-87233333D01*
X151166666Y-87280952D01*
X151214285Y-87328571D01*
X151261904Y-87423809D01*
X151261904Y-87661904D01*
X151214285Y-87757142D01*
X151166666Y-87804761D01*
X151071428Y-87852380D01*
X150785714Y-87852380D01*
X150690476Y-87804761D01*
X150642857Y-87757142D01*
X128485714Y-101252380D02*
X128485714Y-102061904D01*
X128533333Y-102157142D01*
X128580952Y-102204761D01*
X128676190Y-102252380D01*
X128866666Y-102252380D01*
X128961904Y-102204761D01*
X129009523Y-102157142D01*
X129057142Y-102061904D01*
X129057142Y-101252380D01*
X130009523Y-101252380D02*
X129533333Y-101252380D01*
X129485714Y-101728571D01*
X129533333Y-101680952D01*
X129628571Y-101633333D01*
X129866666Y-101633333D01*
X129961904Y-101680952D01*
X130009523Y-101728571D01*
X130057142Y-101823809D01*
X130057142Y-102061904D01*
X130009523Y-102157142D01*
X129961904Y-102204761D01*
X129866666Y-102252380D01*
X129628571Y-102252380D01*
X129533333Y-102204761D01*
X129485714Y-102157142D01*
X130676190Y-101252380D02*
X130771428Y-101252380D01*
X130866666Y-101300000D01*
X130914285Y-101347619D01*
X130961904Y-101442857D01*
X131009523Y-101633333D01*
X131009523Y-101871428D01*
X130961904Y-102061904D01*
X130914285Y-102157142D01*
X130866666Y-102204761D01*
X130771428Y-102252380D01*
X130676190Y-102252380D01*
X130580952Y-102204761D01*
X130533333Y-102157142D01*
X130485714Y-102061904D01*
X130438095Y-101871428D01*
X130438095Y-101633333D01*
X130485714Y-101442857D01*
X130533333Y-101347619D01*
X130580952Y-101300000D01*
X130676190Y-101252380D01*
X131961904Y-102252380D02*
X131390476Y-102252380D01*
X131676190Y-102252380D02*
X131676190Y-101252380D01*
X131580952Y-101395238D01*
X131485714Y-101490476D01*
X131390476Y-101538095D01*
X128585714Y-97752380D02*
X128585714Y-98561904D01*
X128633333Y-98657142D01*
X128680952Y-98704761D01*
X128776190Y-98752380D01*
X128966666Y-98752380D01*
X129061904Y-98704761D01*
X129109523Y-98657142D01*
X129157142Y-98561904D01*
X129157142Y-97752380D01*
X130061904Y-97752380D02*
X129871428Y-97752380D01*
X129776190Y-97800000D01*
X129728571Y-97847619D01*
X129633333Y-97990476D01*
X129585714Y-98180952D01*
X129585714Y-98561904D01*
X129633333Y-98657142D01*
X129680952Y-98704761D01*
X129776190Y-98752380D01*
X129966666Y-98752380D01*
X130061904Y-98704761D01*
X130109523Y-98657142D01*
X130157142Y-98561904D01*
X130157142Y-98323809D01*
X130109523Y-98228571D01*
X130061904Y-98180952D01*
X129966666Y-98133333D01*
X129776190Y-98133333D01*
X129680952Y-98180952D01*
X129633333Y-98228571D01*
X129585714Y-98323809D01*
X130776190Y-97752380D02*
X130871428Y-97752380D01*
X130966666Y-97800000D01*
X131014285Y-97847619D01*
X131061904Y-97942857D01*
X131109523Y-98133333D01*
X131109523Y-98371428D01*
X131061904Y-98561904D01*
X131014285Y-98657142D01*
X130966666Y-98704761D01*
X130871428Y-98752380D01*
X130776190Y-98752380D01*
X130680952Y-98704761D01*
X130633333Y-98657142D01*
X130585714Y-98561904D01*
X130538095Y-98371428D01*
X130538095Y-98133333D01*
X130585714Y-97942857D01*
X130633333Y-97847619D01*
X130680952Y-97800000D01*
X130776190Y-97752380D01*
X132061904Y-98752380D02*
X131490476Y-98752380D01*
X131776190Y-98752380D02*
X131776190Y-97752380D01*
X131680952Y-97895238D01*
X131585714Y-97990476D01*
X131490476Y-98038095D01*
X128385714Y-108552380D02*
X128385714Y-109361904D01*
X128433333Y-109457142D01*
X128480952Y-109504761D01*
X128576190Y-109552380D01*
X128766666Y-109552380D01*
X128861904Y-109504761D01*
X128909523Y-109457142D01*
X128957142Y-109361904D01*
X128957142Y-108552380D01*
X129338095Y-108552380D02*
X130004761Y-108552380D01*
X129576190Y-109552380D01*
X130576190Y-108552380D02*
X130671428Y-108552380D01*
X130766666Y-108600000D01*
X130814285Y-108647619D01*
X130861904Y-108742857D01*
X130909523Y-108933333D01*
X130909523Y-109171428D01*
X130861904Y-109361904D01*
X130814285Y-109457142D01*
X130766666Y-109504761D01*
X130671428Y-109552380D01*
X130576190Y-109552380D01*
X130480952Y-109504761D01*
X130433333Y-109457142D01*
X130385714Y-109361904D01*
X130338095Y-109171428D01*
X130338095Y-108933333D01*
X130385714Y-108742857D01*
X130433333Y-108647619D01*
X130480952Y-108600000D01*
X130576190Y-108552380D01*
X131861904Y-109552380D02*
X131290476Y-109552380D01*
X131576190Y-109552380D02*
X131576190Y-108552380D01*
X131480952Y-108695238D01*
X131385714Y-108790476D01*
X131290476Y-108838095D01*
X128485714Y-104852380D02*
X128485714Y-105661904D01*
X128533333Y-105757142D01*
X128580952Y-105804761D01*
X128676190Y-105852380D01*
X128866666Y-105852380D01*
X128961904Y-105804761D01*
X129009523Y-105757142D01*
X129057142Y-105661904D01*
X129057142Y-104852380D01*
X129676190Y-105280952D02*
X129580952Y-105233333D01*
X129533333Y-105185714D01*
X129485714Y-105090476D01*
X129485714Y-105042857D01*
X129533333Y-104947619D01*
X129580952Y-104900000D01*
X129676190Y-104852380D01*
X129866666Y-104852380D01*
X129961904Y-104900000D01*
X130009523Y-104947619D01*
X130057142Y-105042857D01*
X130057142Y-105090476D01*
X130009523Y-105185714D01*
X129961904Y-105233333D01*
X129866666Y-105280952D01*
X129676190Y-105280952D01*
X129580952Y-105328571D01*
X129533333Y-105376190D01*
X129485714Y-105471428D01*
X129485714Y-105661904D01*
X129533333Y-105757142D01*
X129580952Y-105804761D01*
X129676190Y-105852380D01*
X129866666Y-105852380D01*
X129961904Y-105804761D01*
X130009523Y-105757142D01*
X130057142Y-105661904D01*
X130057142Y-105471428D01*
X130009523Y-105376190D01*
X129961904Y-105328571D01*
X129866666Y-105280952D01*
X130676190Y-104852380D02*
X130771428Y-104852380D01*
X130866666Y-104900000D01*
X130914285Y-104947619D01*
X130961904Y-105042857D01*
X131009523Y-105233333D01*
X131009523Y-105471428D01*
X130961904Y-105661904D01*
X130914285Y-105757142D01*
X130866666Y-105804761D01*
X130771428Y-105852380D01*
X130676190Y-105852380D01*
X130580952Y-105804761D01*
X130533333Y-105757142D01*
X130485714Y-105661904D01*
X130438095Y-105471428D01*
X130438095Y-105233333D01*
X130485714Y-105042857D01*
X130533333Y-104947619D01*
X130580952Y-104900000D01*
X130676190Y-104852380D01*
X131961904Y-105852380D02*
X131390476Y-105852380D01*
X131676190Y-105852380D02*
X131676190Y-104852380D01*
X131580952Y-104995238D01*
X131485714Y-105090476D01*
X131390476Y-105138095D01*
X203885714Y-89852380D02*
X203885714Y-90661904D01*
X203933333Y-90757142D01*
X203980952Y-90804761D01*
X204076190Y-90852380D01*
X204266666Y-90852380D01*
X204361904Y-90804761D01*
X204409523Y-90757142D01*
X204457142Y-90661904D01*
X204457142Y-89852380D01*
X204980952Y-90852380D02*
X205171428Y-90852380D01*
X205266666Y-90804761D01*
X205314285Y-90757142D01*
X205409523Y-90614285D01*
X205457142Y-90423809D01*
X205457142Y-90042857D01*
X205409523Y-89947619D01*
X205361904Y-89900000D01*
X205266666Y-89852380D01*
X205076190Y-89852380D01*
X204980952Y-89900000D01*
X204933333Y-89947619D01*
X204885714Y-90042857D01*
X204885714Y-90280952D01*
X204933333Y-90376190D01*
X204980952Y-90423809D01*
X205076190Y-90471428D01*
X205266666Y-90471428D01*
X205361904Y-90423809D01*
X205409523Y-90376190D01*
X205457142Y-90280952D01*
X206076190Y-89852380D02*
X206171428Y-89852380D01*
X206266666Y-89900000D01*
X206314285Y-89947619D01*
X206361904Y-90042857D01*
X206409523Y-90233333D01*
X206409523Y-90471428D01*
X206361904Y-90661904D01*
X206314285Y-90757142D01*
X206266666Y-90804761D01*
X206171428Y-90852380D01*
X206076190Y-90852380D01*
X205980952Y-90804761D01*
X205933333Y-90757142D01*
X205885714Y-90661904D01*
X205838095Y-90471428D01*
X205838095Y-90233333D01*
X205885714Y-90042857D01*
X205933333Y-89947619D01*
X205980952Y-89900000D01*
X206076190Y-89852380D01*
X207361904Y-90852380D02*
X206790476Y-90852380D01*
X207076190Y-90852380D02*
X207076190Y-89852380D01*
X206980952Y-89995238D01*
X206885714Y-90090476D01*
X206790476Y-90138095D01*
X170785714Y-86852380D02*
X170785714Y-87661904D01*
X170833333Y-87757142D01*
X170880952Y-87804761D01*
X170976190Y-87852380D01*
X171166666Y-87852380D01*
X171261904Y-87804761D01*
X171309523Y-87757142D01*
X171357142Y-87661904D01*
X171357142Y-86852380D01*
X171880952Y-87852380D02*
X172071428Y-87852380D01*
X172166666Y-87804761D01*
X172214285Y-87757142D01*
X172309523Y-87614285D01*
X172357142Y-87423809D01*
X172357142Y-87042857D01*
X172309523Y-86947619D01*
X172261904Y-86900000D01*
X172166666Y-86852380D01*
X171976190Y-86852380D01*
X171880952Y-86900000D01*
X171833333Y-86947619D01*
X171785714Y-87042857D01*
X171785714Y-87280952D01*
X171833333Y-87376190D01*
X171880952Y-87423809D01*
X171976190Y-87471428D01*
X172166666Y-87471428D01*
X172261904Y-87423809D01*
X172309523Y-87376190D01*
X172357142Y-87280952D01*
X172976190Y-86852380D02*
X173071428Y-86852380D01*
X173166666Y-86900000D01*
X173214285Y-86947619D01*
X173261904Y-87042857D01*
X173309523Y-87233333D01*
X173309523Y-87471428D01*
X173261904Y-87661904D01*
X173214285Y-87757142D01*
X173166666Y-87804761D01*
X173071428Y-87852380D01*
X172976190Y-87852380D01*
X172880952Y-87804761D01*
X172833333Y-87757142D01*
X172785714Y-87661904D01*
X172738095Y-87471428D01*
X172738095Y-87233333D01*
X172785714Y-87042857D01*
X172833333Y-86947619D01*
X172880952Y-86900000D01*
X172976190Y-86852380D01*
X173690476Y-86947619D02*
X173738095Y-86900000D01*
X173833333Y-86852380D01*
X174071428Y-86852380D01*
X174166666Y-86900000D01*
X174214285Y-86947619D01*
X174261904Y-87042857D01*
X174261904Y-87138095D01*
X174214285Y-87280952D01*
X173642857Y-87852380D01*
X174261904Y-87852380D01*
X179385714Y-86852380D02*
X179385714Y-87661904D01*
X179433333Y-87757142D01*
X179480952Y-87804761D01*
X179576190Y-87852380D01*
X179766666Y-87852380D01*
X179861904Y-87804761D01*
X179909523Y-87757142D01*
X179957142Y-87661904D01*
X179957142Y-86852380D01*
X180480952Y-87852380D02*
X180671428Y-87852380D01*
X180766666Y-87804761D01*
X180814285Y-87757142D01*
X180909523Y-87614285D01*
X180957142Y-87423809D01*
X180957142Y-87042857D01*
X180909523Y-86947619D01*
X180861904Y-86900000D01*
X180766666Y-86852380D01*
X180576190Y-86852380D01*
X180480952Y-86900000D01*
X180433333Y-86947619D01*
X180385714Y-87042857D01*
X180385714Y-87280952D01*
X180433333Y-87376190D01*
X180480952Y-87423809D01*
X180576190Y-87471428D01*
X180766666Y-87471428D01*
X180861904Y-87423809D01*
X180909523Y-87376190D01*
X180957142Y-87280952D01*
X181576190Y-86852380D02*
X181671428Y-86852380D01*
X181766666Y-86900000D01*
X181814285Y-86947619D01*
X181861904Y-87042857D01*
X181909523Y-87233333D01*
X181909523Y-87471428D01*
X181861904Y-87661904D01*
X181814285Y-87757142D01*
X181766666Y-87804761D01*
X181671428Y-87852380D01*
X181576190Y-87852380D01*
X181480952Y-87804761D01*
X181433333Y-87757142D01*
X181385714Y-87661904D01*
X181338095Y-87471428D01*
X181338095Y-87233333D01*
X181385714Y-87042857D01*
X181433333Y-86947619D01*
X181480952Y-86900000D01*
X181576190Y-86852380D01*
X182242857Y-86852380D02*
X182861904Y-86852380D01*
X182528571Y-87233333D01*
X182671428Y-87233333D01*
X182766666Y-87280952D01*
X182814285Y-87328571D01*
X182861904Y-87423809D01*
X182861904Y-87661904D01*
X182814285Y-87757142D01*
X182766666Y-87804761D01*
X182671428Y-87852380D01*
X182385714Y-87852380D01*
X182290476Y-87804761D01*
X182242857Y-87757142D01*
X185385714Y-86852380D02*
X185385714Y-87661904D01*
X185433333Y-87757142D01*
X185480952Y-87804761D01*
X185576190Y-87852380D01*
X185766666Y-87852380D01*
X185861904Y-87804761D01*
X185909523Y-87757142D01*
X185957142Y-87661904D01*
X185957142Y-86852380D01*
X186480952Y-87852380D02*
X186671428Y-87852380D01*
X186766666Y-87804761D01*
X186814285Y-87757142D01*
X186909523Y-87614285D01*
X186957142Y-87423809D01*
X186957142Y-87042857D01*
X186909523Y-86947619D01*
X186861904Y-86900000D01*
X186766666Y-86852380D01*
X186576190Y-86852380D01*
X186480952Y-86900000D01*
X186433333Y-86947619D01*
X186385714Y-87042857D01*
X186385714Y-87280952D01*
X186433333Y-87376190D01*
X186480952Y-87423809D01*
X186576190Y-87471428D01*
X186766666Y-87471428D01*
X186861904Y-87423809D01*
X186909523Y-87376190D01*
X186957142Y-87280952D01*
X187576190Y-86852380D02*
X187671428Y-86852380D01*
X187766666Y-86900000D01*
X187814285Y-86947619D01*
X187861904Y-87042857D01*
X187909523Y-87233333D01*
X187909523Y-87471428D01*
X187861904Y-87661904D01*
X187814285Y-87757142D01*
X187766666Y-87804761D01*
X187671428Y-87852380D01*
X187576190Y-87852380D01*
X187480952Y-87804761D01*
X187433333Y-87757142D01*
X187385714Y-87661904D01*
X187338095Y-87471428D01*
X187338095Y-87233333D01*
X187385714Y-87042857D01*
X187433333Y-86947619D01*
X187480952Y-86900000D01*
X187576190Y-86852380D01*
X188766666Y-87185714D02*
X188766666Y-87852380D01*
X188528571Y-86804761D02*
X188290476Y-87519047D01*
X188909523Y-87519047D01*
X204009523Y-108152380D02*
X204009523Y-108961904D01*
X204057142Y-109057142D01*
X204104761Y-109104761D01*
X204200000Y-109152380D01*
X204390476Y-109152380D01*
X204485714Y-109104761D01*
X204533333Y-109057142D01*
X204580952Y-108961904D01*
X204580952Y-108152380D01*
X205580952Y-109152380D02*
X205009523Y-109152380D01*
X205295238Y-109152380D02*
X205295238Y-108152380D01*
X205200000Y-108295238D01*
X205104761Y-108390476D01*
X205009523Y-108438095D01*
X206200000Y-108152380D02*
X206295238Y-108152380D01*
X206390476Y-108200000D01*
X206438095Y-108247619D01*
X206485714Y-108342857D01*
X206533333Y-108533333D01*
X206533333Y-108771428D01*
X206485714Y-108961904D01*
X206438095Y-109057142D01*
X206390476Y-109104761D01*
X206295238Y-109152380D01*
X206200000Y-109152380D01*
X206104761Y-109104761D01*
X206057142Y-109057142D01*
X206009523Y-108961904D01*
X205961904Y-108771428D01*
X205961904Y-108533333D01*
X206009523Y-108342857D01*
X206057142Y-108247619D01*
X206104761Y-108200000D01*
X206200000Y-108152380D01*
X207152380Y-108152380D02*
X207247619Y-108152380D01*
X207342857Y-108200000D01*
X207390476Y-108247619D01*
X207438095Y-108342857D01*
X207485714Y-108533333D01*
X207485714Y-108771428D01*
X207438095Y-108961904D01*
X207390476Y-109057142D01*
X207342857Y-109104761D01*
X207247619Y-109152380D01*
X207152380Y-109152380D01*
X207057142Y-109104761D01*
X207009523Y-109057142D01*
X206961904Y-108961904D01*
X206914285Y-108771428D01*
X206914285Y-108533333D01*
X206961904Y-108342857D01*
X207009523Y-108247619D01*
X207057142Y-108200000D01*
X207152380Y-108152380D01*
X208438095Y-109152380D02*
X207866666Y-109152380D01*
X208152380Y-109152380D02*
X208152380Y-108152380D01*
X208057142Y-108295238D01*
X207961904Y-108390476D01*
X207866666Y-108438095D01*
X204009523Y-103952380D02*
X204009523Y-104761904D01*
X204057142Y-104857142D01*
X204104761Y-104904761D01*
X204200000Y-104952380D01*
X204390476Y-104952380D01*
X204485714Y-104904761D01*
X204533333Y-104857142D01*
X204580952Y-104761904D01*
X204580952Y-103952380D01*
X205580952Y-104952380D02*
X205009523Y-104952380D01*
X205295238Y-104952380D02*
X205295238Y-103952380D01*
X205200000Y-104095238D01*
X205104761Y-104190476D01*
X205009523Y-104238095D01*
X206533333Y-104952380D02*
X205961904Y-104952380D01*
X206247619Y-104952380D02*
X206247619Y-103952380D01*
X206152380Y-104095238D01*
X206057142Y-104190476D01*
X205961904Y-104238095D01*
X207152380Y-103952380D02*
X207247619Y-103952380D01*
X207342857Y-104000000D01*
X207390476Y-104047619D01*
X207438095Y-104142857D01*
X207485714Y-104333333D01*
X207485714Y-104571428D01*
X207438095Y-104761904D01*
X207390476Y-104857142D01*
X207342857Y-104904761D01*
X207247619Y-104952380D01*
X207152380Y-104952380D01*
X207057142Y-104904761D01*
X207009523Y-104857142D01*
X206961904Y-104761904D01*
X206914285Y-104571428D01*
X206914285Y-104333333D01*
X206961904Y-104142857D01*
X207009523Y-104047619D01*
X207057142Y-104000000D01*
X207152380Y-103952380D01*
X208438095Y-104952380D02*
X207866666Y-104952380D01*
X208152380Y-104952380D02*
X208152380Y-103952380D01*
X208057142Y-104095238D01*
X207961904Y-104190476D01*
X207866666Y-104238095D01*
X204109523Y-112252380D02*
X204109523Y-113061904D01*
X204157142Y-113157142D01*
X204204761Y-113204761D01*
X204300000Y-113252380D01*
X204490476Y-113252380D01*
X204585714Y-113204761D01*
X204633333Y-113157142D01*
X204680952Y-113061904D01*
X204680952Y-112252380D01*
X205680952Y-113252380D02*
X205109523Y-113252380D01*
X205395238Y-113252380D02*
X205395238Y-112252380D01*
X205300000Y-112395238D01*
X205204761Y-112490476D01*
X205109523Y-112538095D01*
X206061904Y-112347619D02*
X206109523Y-112300000D01*
X206204761Y-112252380D01*
X206442857Y-112252380D01*
X206538095Y-112300000D01*
X206585714Y-112347619D01*
X206633333Y-112442857D01*
X206633333Y-112538095D01*
X206585714Y-112680952D01*
X206014285Y-113252380D01*
X206633333Y-113252380D01*
X207252380Y-112252380D02*
X207347619Y-112252380D01*
X207442857Y-112300000D01*
X207490476Y-112347619D01*
X207538095Y-112442857D01*
X207585714Y-112633333D01*
X207585714Y-112871428D01*
X207538095Y-113061904D01*
X207490476Y-113157142D01*
X207442857Y-113204761D01*
X207347619Y-113252380D01*
X207252380Y-113252380D01*
X207157142Y-113204761D01*
X207109523Y-113157142D01*
X207061904Y-113061904D01*
X207014285Y-112871428D01*
X207014285Y-112633333D01*
X207061904Y-112442857D01*
X207109523Y-112347619D01*
X207157142Y-112300000D01*
X207252380Y-112252380D01*
X208538095Y-113252380D02*
X207966666Y-113252380D01*
X208252380Y-113252380D02*
X208252380Y-112252380D01*
X208157142Y-112395238D01*
X208061904Y-112490476D01*
X207966666Y-112538095D01*
D20*
X127361523Y-130154895D02*
X127632457Y-130967695D01*
X127903390Y-130154895D01*
X128638780Y-130967695D02*
X128367847Y-130580647D01*
X128174323Y-130967695D02*
X128174323Y-130154895D01*
X128483961Y-130154895D01*
X128561371Y-130193600D01*
X128600076Y-130232304D01*
X128638780Y-130309714D01*
X128638780Y-130425828D01*
X128600076Y-130503238D01*
X128561371Y-130541942D01*
X128483961Y-130580647D01*
X128174323Y-130580647D01*
X128909714Y-130154895D02*
X129412876Y-130154895D01*
X129141942Y-130464533D01*
X129258057Y-130464533D01*
X129335466Y-130503238D01*
X129374171Y-130541942D01*
X129412876Y-130619352D01*
X129412876Y-130812876D01*
X129374171Y-130890285D01*
X129335466Y-130928990D01*
X129258057Y-130967695D01*
X129025828Y-130967695D01*
X128948419Y-130928990D01*
X128909714Y-130890285D01*
X129916038Y-130154895D02*
X129993447Y-130154895D01*
X130070857Y-130193600D01*
X130109561Y-130232304D01*
X130148266Y-130309714D01*
X130186971Y-130464533D01*
X130186971Y-130658057D01*
X130148266Y-130812876D01*
X130109561Y-130890285D01*
X130070857Y-130928990D01*
X129993447Y-130967695D01*
X129916038Y-130967695D01*
X129838628Y-130928990D01*
X129799923Y-130890285D01*
X129761219Y-130812876D01*
X129722514Y-130658057D01*
X129722514Y-130464533D01*
X129761219Y-130309714D01*
X129799923Y-130232304D01*
X129838628Y-130193600D01*
X129916038Y-130154895D01*
X130961066Y-130967695D02*
X130496609Y-130967695D01*
X130728838Y-130967695D02*
X130728838Y-130154895D01*
X130651428Y-130271009D01*
X130574019Y-130348419D01*
X130496609Y-130387123D01*
X130861523Y-121154895D02*
X131132457Y-121967695D01*
X131403390Y-121154895D01*
X132138780Y-121967695D02*
X131867847Y-121580647D01*
X131674323Y-121967695D02*
X131674323Y-121154895D01*
X131983961Y-121154895D01*
X132061371Y-121193600D01*
X132100076Y-121232304D01*
X132138780Y-121309714D01*
X132138780Y-121425828D01*
X132100076Y-121503238D01*
X132061371Y-121541942D01*
X131983961Y-121580647D01*
X131674323Y-121580647D01*
X132409714Y-121154895D02*
X132912876Y-121154895D01*
X132641942Y-121464533D01*
X132758057Y-121464533D01*
X132835466Y-121503238D01*
X132874171Y-121541942D01*
X132912876Y-121619352D01*
X132912876Y-121812876D01*
X132874171Y-121890285D01*
X132835466Y-121928990D01*
X132758057Y-121967695D01*
X132525828Y-121967695D01*
X132448419Y-121928990D01*
X132409714Y-121890285D01*
X133416038Y-121154895D02*
X133493447Y-121154895D01*
X133570857Y-121193600D01*
X133609561Y-121232304D01*
X133648266Y-121309714D01*
X133686971Y-121464533D01*
X133686971Y-121658057D01*
X133648266Y-121812876D01*
X133609561Y-121890285D01*
X133570857Y-121928990D01*
X133493447Y-121967695D01*
X133416038Y-121967695D01*
X133338628Y-121928990D01*
X133299923Y-121890285D01*
X133261219Y-121812876D01*
X133222514Y-121658057D01*
X133222514Y-121464533D01*
X133261219Y-121309714D01*
X133299923Y-121232304D01*
X133338628Y-121193600D01*
X133416038Y-121154895D01*
X133996609Y-121232304D02*
X134035314Y-121193600D01*
X134112723Y-121154895D01*
X134306247Y-121154895D01*
X134383657Y-121193600D01*
X134422361Y-121232304D01*
X134461066Y-121309714D01*
X134461066Y-121387123D01*
X134422361Y-121503238D01*
X133957904Y-121967695D01*
X134461066Y-121967695D01*
X133567923Y-54854895D02*
X134109790Y-55667695D01*
X134109790Y-54854895D02*
X133567923Y-55667695D01*
X134380723Y-54932304D02*
X134419428Y-54893600D01*
X134496838Y-54854895D01*
X134690361Y-54854895D01*
X134767771Y-54893600D01*
X134806476Y-54932304D01*
X134845180Y-55009714D01*
X134845180Y-55087123D01*
X134806476Y-55203238D01*
X134342019Y-55667695D01*
X134845180Y-55667695D01*
X135348342Y-54854895D02*
X135425752Y-54854895D01*
X135503161Y-54893600D01*
X135541866Y-54932304D01*
X135580571Y-55009714D01*
X135619276Y-55164533D01*
X135619276Y-55358057D01*
X135580571Y-55512876D01*
X135541866Y-55590285D01*
X135503161Y-55628990D01*
X135425752Y-55667695D01*
X135348342Y-55667695D01*
X135270933Y-55628990D01*
X135232228Y-55590285D01*
X135193523Y-55512876D01*
X135154819Y-55358057D01*
X135154819Y-55164533D01*
X135193523Y-55009714D01*
X135232228Y-54932304D01*
X135270933Y-54893600D01*
X135348342Y-54854895D01*
X136393371Y-55667695D02*
X135928914Y-55667695D01*
X136161142Y-55667695D02*
X136161142Y-54854895D01*
X136083733Y-54971009D01*
X136006323Y-55048419D01*
X135928914Y-55087123D01*
D19*
X161044628Y-56281971D02*
X161044628Y-57479400D01*
X160964800Y-57718885D01*
X160805142Y-57878542D01*
X160565657Y-57958371D01*
X160406000Y-57958371D01*
X162721028Y-57958371D02*
X161763085Y-57958371D01*
X162242057Y-57958371D02*
X162242057Y-56281971D01*
X162082400Y-56521457D01*
X161922742Y-56681114D01*
X161763085Y-56760942D01*
X163758800Y-56281971D02*
X163918457Y-56281971D01*
X164078114Y-56361800D01*
X164157942Y-56441628D01*
X164237771Y-56601285D01*
X164317600Y-56920600D01*
X164317600Y-57319742D01*
X164237771Y-57639057D01*
X164157942Y-57798714D01*
X164078114Y-57878542D01*
X163918457Y-57958371D01*
X163758800Y-57958371D01*
X163599142Y-57878542D01*
X163519314Y-57798714D01*
X163439485Y-57639057D01*
X163359657Y-57319742D01*
X163359657Y-56920600D01*
X163439485Y-56601285D01*
X163519314Y-56441628D01*
X163599142Y-56361800D01*
X163758800Y-56281971D01*
X165914171Y-57958371D02*
X164956228Y-57958371D01*
X165435200Y-57958371D02*
X165435200Y-56281971D01*
X165275542Y-56521457D01*
X165115885Y-56681114D01*
X164956228Y-56760942D01*
M02*
