G04 #@! TF.GenerationSoftware,KiCad,Pcbnew,(5.0.0-rc2-dev-130-g0bdae22af-dirty)*
G04 #@! TF.CreationDate,2019-01-29T19:19:46+02:00*
G04 #@! TF.ProjectId,csb,6373622E6B696361645F706362000000,rev?*
G04 #@! TF.SameCoordinates,Original*
G04 #@! TF.FileFunction,Soldermask,Top*
G04 #@! TF.FilePolarity,Negative*
%FSLAX46Y46*%
G04 Gerber Fmt 4.6, Leading zero omitted, Abs format (unit mm)*
G04 Created by KiCad (PCBNEW (5.0.0-rc2-dev-130-g0bdae22af-dirty)) date Tue Jan 29 19:19:46 2019*
%MOMM*%
%LPD*%
G01*
G04 APERTURE LIST*
%ADD10R,1.350000X0.700000*%
%ADD11R,0.939800X0.762000*%
%ADD12R,0.762000X0.939800*%
%ADD13R,2.623820X2.623820*%
%ADD14C,2.623820*%
%ADD15C,2.999740*%
%ADD16R,1.297940X1.399540*%
%ADD17R,1.900000X2.179320*%
%ADD18R,0.998220X1.899920*%
%ADD19R,1.905000X0.635000*%
%ADD20R,0.398780X1.498600*%
%ADD21R,0.279400X1.498600*%
%ADD22R,1.498600X0.398780*%
%ADD23R,1.498600X0.279400*%
%ADD24R,0.600000X1.524000*%
%ADD25R,0.635000X1.524000*%
%ADD26R,3.600000X1.900000*%
%ADD27R,0.400000X1.200000*%
%ADD28R,2.000000X1.300000*%
%ADD29R,2.400000X2.700000*%
%ADD30R,2.800000X2.000000*%
%ADD31R,1.524000X0.600000*%
%ADD32R,1.524000X0.635000*%
%ADD33R,6.100000X5.970000*%
%ADD34R,1.400000X1.900000*%
%ADD35R,3.300000X2.400000*%
%ADD36R,0.998220X3.997960*%
%ADD37R,6.300000X6.100000*%
%ADD38R,0.650000X2.000000*%
%ADD39R,0.600000X2.000000*%
%ADD40R,0.830000X0.630000*%
%ADD41R,1.399540X1.297940*%
G04 APERTURE END LIST*
D10*
X148300000Y-134775000D03*
X148300000Y-136775000D03*
X150900000Y-135775000D03*
D11*
X182000000Y-136238200D03*
X182000000Y-134561800D03*
X172000000Y-134438200D03*
X172000000Y-132761800D03*
X146500000Y-136513200D03*
X146500000Y-134836800D03*
X137950000Y-111338200D03*
X137950000Y-109661800D03*
D12*
X149588200Y-121400000D03*
X147911800Y-121400000D03*
X132288200Y-115900000D03*
X130611800Y-115900000D03*
D13*
X164002040Y-119002040D03*
D14*
X168000000Y-119002040D03*
X171997960Y-119002040D03*
X166001020Y-123000000D03*
X169998980Y-123000000D03*
X164002040Y-126997960D03*
X168000000Y-126997960D03*
X171997960Y-126997960D03*
D15*
X154301780Y-112202460D03*
X181698220Y-112202460D03*
X183199360Y-130299960D03*
X152800640Y-130299960D03*
D13*
X154002060Y-61002040D03*
D14*
X158000020Y-61002040D03*
X162000520Y-61002040D03*
X166001020Y-61002040D03*
X169998980Y-61002040D03*
X173999480Y-61002040D03*
X177999980Y-61002040D03*
X181997940Y-61002040D03*
X156001040Y-65000000D03*
X160001540Y-65000000D03*
X164002040Y-65000000D03*
X168000000Y-65000000D03*
X171997960Y-65000000D03*
X175998460Y-65000000D03*
X179998960Y-65000000D03*
X154002060Y-68997960D03*
X158000020Y-68997960D03*
X162000520Y-68997960D03*
X166001020Y-68997960D03*
X169998980Y-68997960D03*
X173999480Y-68997960D03*
X177999980Y-68997960D03*
X181997940Y-68997960D03*
D15*
X144301800Y-54202460D03*
X191698200Y-54202460D03*
X142800660Y-72299960D03*
X193199340Y-72299960D03*
D12*
X132288200Y-117800000D03*
X130611800Y-117800000D03*
D16*
X202265300Y-116800000D03*
X198734700Y-116800000D03*
D17*
X202700000Y-123300000D03*
X197700000Y-123300000D03*
D16*
X179565300Y-131700000D03*
X176034700Y-131700000D03*
D18*
X202198600Y-119400000D03*
X199201400Y-119400000D03*
D12*
X148111800Y-118800000D03*
X149788200Y-118800000D03*
D11*
X138450000Y-127011800D03*
X138450000Y-128688200D03*
X134450000Y-130261800D03*
X134450000Y-131938200D03*
X134450000Y-133761800D03*
X134450000Y-135438200D03*
D12*
X146611800Y-125075000D03*
X148288200Y-125075000D03*
D19*
X142440000Y-135340000D03*
X137360000Y-135340000D03*
X142440000Y-134070000D03*
X137360000Y-134070000D03*
X142440000Y-132800000D03*
X137360000Y-132800000D03*
X137360000Y-131530000D03*
X142440000Y-130260000D03*
X137360000Y-130260000D03*
D12*
X143538200Y-65100000D03*
X141861800Y-65100000D03*
X141861800Y-63300000D03*
X143538200Y-63300000D03*
X139038200Y-137100000D03*
X137361800Y-137100000D03*
X142438200Y-137100000D03*
X140761800Y-137100000D03*
D11*
X163750000Y-99338200D03*
X163750000Y-97661800D03*
X166950000Y-97661800D03*
X166950000Y-99338200D03*
D20*
X144060000Y-113202120D03*
D21*
X143498660Y-113202120D03*
X142998280Y-113202120D03*
X142497900Y-113202120D03*
X141997520Y-113202120D03*
X141499680Y-113202120D03*
X140999300Y-113202120D03*
X140498920Y-113202120D03*
X140001080Y-113202120D03*
X139500700Y-113202120D03*
X139000320Y-113202120D03*
X138502480Y-113202120D03*
X138002100Y-113202120D03*
X137501720Y-113202120D03*
X137001340Y-113202120D03*
D20*
X136440000Y-113202120D03*
D22*
X134352120Y-115290000D03*
D23*
X134352120Y-115851340D03*
X134352120Y-116351720D03*
X134352120Y-116852100D03*
X134352120Y-117352480D03*
X134352120Y-117850320D03*
X134352120Y-118350700D03*
X134352120Y-118851080D03*
X134352120Y-119348920D03*
X134352120Y-119849300D03*
X134352120Y-120349680D03*
X134352120Y-120847520D03*
X134352120Y-121347900D03*
X134352120Y-121848280D03*
X134352120Y-122348660D03*
D22*
X134352120Y-122910000D03*
D20*
X136440000Y-124997880D03*
D21*
X137001340Y-124997880D03*
X137501720Y-124997880D03*
X138002100Y-124997880D03*
X138502480Y-124997880D03*
X139000320Y-124997880D03*
X139500700Y-124997880D03*
X140001080Y-124997880D03*
X140498920Y-124997880D03*
X140999300Y-124997880D03*
X141499680Y-124997880D03*
X141997520Y-124997880D03*
X142497900Y-124997880D03*
X142998280Y-124997880D03*
X143498660Y-124997880D03*
D20*
X144060000Y-124997880D03*
D22*
X146147880Y-122910000D03*
D23*
X146147880Y-122348660D03*
X146147880Y-121848280D03*
X146147880Y-121347900D03*
X146147880Y-120847520D03*
X146147880Y-120349680D03*
X146147880Y-119849300D03*
X146147880Y-119348920D03*
X146147880Y-118851080D03*
X146147880Y-118350700D03*
X146147880Y-117850320D03*
X146147880Y-117352480D03*
X146147880Y-116852100D03*
X146147880Y-116351720D03*
X146147880Y-115851340D03*
D22*
X146147880Y-115290000D03*
D24*
X149159031Y-132578103D03*
X147889031Y-132578103D03*
X146619031Y-132578103D03*
X145349031Y-132578103D03*
X145349031Y-126736103D03*
X146619031Y-126736103D03*
D25*
X147854031Y-126736103D03*
D24*
X149159031Y-126736103D03*
D26*
X165200000Y-92400000D03*
D27*
X163200000Y-89600000D03*
X164000000Y-89600000D03*
X164800000Y-89600000D03*
X165600000Y-89600000D03*
X166400000Y-89600000D03*
X167200000Y-89600000D03*
X167200000Y-95200000D03*
X166400000Y-95200000D03*
X165600000Y-95200000D03*
X164800000Y-95200000D03*
X164000000Y-95200000D03*
X163200000Y-95200000D03*
X168700000Y-95200000D03*
X169500000Y-95200000D03*
X170300000Y-95200000D03*
X171100000Y-95200000D03*
X171900000Y-95200000D03*
X172700000Y-95200000D03*
X172700000Y-89600000D03*
X171900000Y-89600000D03*
X171100000Y-89600000D03*
X170300000Y-89600000D03*
X169500000Y-89600000D03*
X168700000Y-89600000D03*
D26*
X170700000Y-92400000D03*
D28*
X131650000Y-130260000D03*
X131650000Y-135340000D03*
D29*
X157050000Y-135550000D03*
X163850000Y-135550000D03*
D30*
X168600000Y-137200000D03*
X168600000Y-133400000D03*
D31*
X173979000Y-133595000D03*
D32*
X173979000Y-134900000D03*
D31*
X173979000Y-136135000D03*
X173979000Y-137405000D03*
X179821000Y-137405000D03*
X179821000Y-136135000D03*
X179821000Y-134865000D03*
X179821000Y-133595000D03*
D33*
X174900000Y-109800000D03*
D34*
X177190000Y-115885000D03*
X172610000Y-115885000D03*
X158760000Y-115935000D03*
X163340000Y-115935000D03*
D33*
X161050000Y-109850000D03*
D11*
X160550000Y-99338200D03*
X160550000Y-97661800D03*
X158850000Y-97661800D03*
X158850000Y-99338200D03*
X170250000Y-99338200D03*
X170250000Y-97661800D03*
X168600000Y-97661800D03*
X168600000Y-99338200D03*
D35*
X167960000Y-114770000D03*
X167960000Y-108170000D03*
D36*
X193800000Y-136248380D03*
X193800000Y-129151620D03*
D37*
X149550000Y-92570000D03*
D38*
X147000000Y-86000000D03*
X147850000Y-86000000D03*
X148700000Y-86000000D03*
X150400000Y-86000000D03*
X151250000Y-86000000D03*
X152100000Y-86000000D03*
X159900000Y-86000000D03*
X159050000Y-86000000D03*
X158200000Y-86000000D03*
X156500000Y-86000000D03*
X155650000Y-86000000D03*
X154800000Y-86000000D03*
D37*
X157350000Y-92570000D03*
D38*
X181900000Y-86000000D03*
X181050000Y-86000000D03*
X180200000Y-86000000D03*
X178500000Y-86000000D03*
X177650000Y-86000000D03*
X176800000Y-86000000D03*
D37*
X179350000Y-92570000D03*
X187100000Y-92570000D03*
D39*
X184550000Y-86000000D03*
X185400000Y-86000000D03*
X186250000Y-86000000D03*
X187950000Y-86000000D03*
X188800000Y-86000000D03*
X189650000Y-86000000D03*
D11*
X171900000Y-99338200D03*
X171900000Y-97661800D03*
X175100000Y-97661800D03*
X175100000Y-99338200D03*
D40*
X162150000Y-99615000D03*
X162150000Y-97385000D03*
X165350000Y-97385000D03*
X165350000Y-99615000D03*
X173500000Y-99615000D03*
X173500000Y-97385000D03*
X176700000Y-97385000D03*
X176700000Y-99615000D03*
D41*
X162500000Y-81934700D03*
X162500000Y-85465300D03*
X167900000Y-81934700D03*
X167900000Y-85465300D03*
X168008886Y-79478452D03*
X168008886Y-75947852D03*
X173600000Y-85665300D03*
X173600000Y-82134700D03*
M02*
