M48
;DRILL file {KiCad (2017-01-11 revision e99b79c)-master} date Mon Jul  3 16:30:14 2017
;FORMAT={-:-/ absolute / metric / decimal}
FMAT,2
METRIC,TZ
T1C0.400
T2C1.748
T3C1.999
%
G90
G05
M71
T1
X119.6Y-64.7
X119.6Y-107.
X119.7Y-131.7
X119.8Y-68.1
X121.2Y-56.1
X121.6Y-99.5
X122.7Y-74.7
X124.1Y-114.4
X124.3Y-83.5
X124.5Y-137.9
X124.6Y-95.9
X125.Y-68.3
X126.1Y-98.3
X126.6Y-85.9
X126.8Y-54.
X127.Y-124.6
X127.2Y-135.3
X128.5Y-70.6
X128.7Y-116.6
X128.7Y-132.1
X128.8Y-64.7
X128.9Y-60.4
X129.1Y-101.9
X129.8Y-80.5
X130.874Y-122.748
X131.542Y-122.748
X131.9Y-109.1
X132.Y-101.8
X132.Y-105.4
X132.Y-115.3
X132.1Y-98.3
X132.7Y-68.3
X132.8Y-50.3
X132.8Y-70.8
X133.1Y-91.8
X133.4Y-77.9
X133.5Y-135.1
X134.1Y-106.4
X134.1Y-110.
X134.2Y-102.8
X134.2Y-99.2
X135.Y-128.7
X135.1Y-58.9
X136.6Y-121.5
X136.9Y-78.5
X136.9Y-93.7
X137.048Y-67.952
X137.688Y-104.103
X137.7Y-114.1
X137.9Y-106.2
X137.9Y-130.1
X137.917Y-105.2
X138.4Y-103.3
X139.3Y-64.1
X139.5Y-72.3
X139.6Y-59.5
X139.7Y-70.4
X139.7Y-99.2
X139.8Y-102.4
X139.8Y-107.
X139.9Y-110.2
X140.1Y-115.3
X140.1Y-135.9
X140.249Y-116.651
X140.8Y-108.6
X141.8Y-102.1
X143.7Y-103.4
X144.1Y-67.3
X144.7Y-133.5
X145.Y-89.3
X145.6Y-88.4
X145.8Y-91.8
X145.9Y-80.
X146.2Y-76.7
X147.1Y-75.8
X147.1Y-86.9
X147.9Y-74.8
X148.3Y-100.4
X148.4Y-127.2
X149.3Y-104.1
X149.6Y-72.9
X149.9Y-76.5
X150.135Y-89.075
X150.9Y-73.231
X151.1Y-68.9
X151.5Y-50.4
X151.6Y-72.3
X152.4Y-57.2
X153.2Y-79.9
X154.1Y-108.2
X155.Y-91.6
X155.1Y-103.3
X155.2Y-88.2
X156.Y-71.7
X157.4Y-135.4
X157.9Y-81.2
X159.095Y-89.075
X159.75Y-106.
X159.9Y-71.7
X161.635Y-89.075
X162.3Y-103.
X164.Y-71.6
X165.25Y-106.
X167.5Y-57.2
X167.9Y-84.9
X168.Y-71.5
X168.1Y-103.6
X168.7Y-80.9
X170.2Y-50.4
X170.595Y-89.075
X170.75Y-106.
X172.Y-71.6
X173.135Y-89.075
X173.4Y-103.5
X175.3Y-57.8
X176.25Y-106.
X176.7Y-87.2
X176.7Y-92.3
X178.3Y-103.5
X179.195Y-89.075
X181.735Y-89.075
X182.9Y-135.6
X185.195Y-89.075
X185.2Y-56.4
X186.Y-108.5
X187.735Y-89.075
X189.75Y-106.
X190.1Y-125.3
X191.2Y-75.2
X191.7Y-80.4
X191.8Y-87.3
X193.3Y-102.2
X193.4Y-92.7
X194.Y-76.2
X194.348Y-84.334
X194.6Y-108.3
X194.8Y-64.4
X194.8Y-77.2
X194.9Y-83.5
X195.3Y-78.2
X195.4Y-107.6
X195.7Y-82.7
X195.8Y-51.4
X196.4Y-112.
X197.5Y-80.6
X197.6Y-87.1
X197.6Y-94.
X197.7Y-101.
X198.4Y-99.4
X198.5Y-89.525
X198.5Y-90.554
X198.5Y-91.9
X198.6Y-108.7
X199.4Y-107.4
X199.6Y-103.7
X199.7Y-137.3
X199.9Y-135.2
X200.8Y-137.3
X200.9Y-116.4
X202.3Y-109.4
X202.4Y-113.4
X202.6Y-101.8
X203.8Y-136.8
X204.Y-74.5
X204.25Y-104.3
X204.25Y-108.5
X204.3Y-124.8
X204.5Y-112.6
X205.2Y-83.4
X205.4Y-98.3
X206.4Y-104.7
X207.Y-88.8
X209.8Y-51.1
X212.2Y-96.6
X212.3Y-85.2
X215.6Y-91.2
X216.3Y-131.3
X216.4Y-56.2
X216.4Y-115.9
X216.5Y-75.9
X216.5Y-105.
T2
X154.002Y-61.002
X154.002Y-68.998
X156.001Y-65.
X158.Y-61.002
X158.Y-68.998
X160.002Y-65.
X162.001Y-61.002
X162.001Y-68.998
X164.002Y-65.
X164.002Y-119.002
X164.002Y-126.998
X166.001Y-61.002
X166.001Y-68.998
X166.001Y-123.
X168.Y-65.
X168.Y-119.002
X168.Y-126.998
X169.999Y-61.002
X169.999Y-68.998
X169.999Y-123.
X171.998Y-65.
X171.998Y-119.002
X171.998Y-126.998
X173.999Y-61.002
X173.999Y-68.998
X175.998Y-65.
X178.Y-61.002
X178.Y-68.998
X179.999Y-65.
X181.998Y-61.002
X181.998Y-68.998
T3
X142.801Y-72.3
X144.302Y-54.202
X152.801Y-130.3
X154.302Y-112.202
X181.698Y-112.202
X183.199Y-130.3
X191.698Y-54.202
X193.199Y-72.3
T0
M30
