M48
INCH,TZ
T1C0.016
T2C0.069
T3C0.079
%
G90
G05
T1
X46831Y-34547
X46890Y-28051
X46890Y-47343
X47047Y-41752
X47165Y-26811
X47500Y-51417
X47717Y-22087
X47745Y-39209
X47815Y-34547
X47894Y-29331
X48622Y-45551
X48622Y-47323
X48819Y-30197
X48819Y-34547
X49016Y-54291
X49173Y-38681
X49213Y-26890
X50000Y-49055
X50079Y-53268
X50669Y-52008
X50709Y-24094
X50709Y-25472
X51102Y-46614
X51280Y-33406
X51870Y-45256
X51870Y-43878
X52067Y-28740
X52126Y-47638
X52185Y-21988
X52185Y-26791
X52185Y-42087
X52224Y-30236
X52441Y-38386
X52559Y-53189
X52933Y-24941
X53012Y-23740
X53150Y-50669
X53976Y-50787
X54016Y-49016
X54028Y-26740
X54134Y-21850
X54213Y-44921
X54685Y-28072
X54847Y-41519
X55157Y-35138
X55157Y-45394
X55157Y-53504
X55216Y-45926
X55237Y-41441
X55354Y-39843
X55565Y-40568
X55571Y-36576
X55744Y-41890
X55768Y-42598
X55801Y-40926
X55875Y-40325
X55965Y-36555
X56181Y-41028
X56220Y-37480
X56339Y-34744
X56457Y-36260
X56566Y-35486
X56614Y-33937
X56772Y-35945
X56831Y-27047
X56850Y-34980
X56870Y-29823
X57045Y-35342
X57047Y-25669
X57106Y-48799
X57244Y-24961
X58346Y-23996
X58504Y-36024
X58819Y-19843
X58819Y-34843
X59398Y-36043
X59843Y-53287
X60394Y-28780
X61489Y-36181
X61811Y-34823
X62391Y-36201
X63504Y-29193
X63681Y-34567
X63720Y-36516
X63957Y-40398
X64094Y-39823
X64154Y-19744
X64370Y-52657
X64587Y-40398
X65217Y-40398
X65846Y-40398
X65965Y-36673
X66122Y-27933
X66161Y-34803
X66260Y-39862
X66299Y-22815
X66476Y-40398
X67028Y-54331
X67106Y-40398
X67736Y-40398
X68189Y-29665
X68228Y-36063
X68366Y-40398
X68760Y-41063
X70059Y-19803
X70165Y-36024
X70433Y-34783
X70846Y-52087
X71063Y-36024
X73138Y-36024
X73484Y-34843
X73622Y-50138
X73760Y-23642
X74035Y-36024
X74921Y-54016
X75059Y-35098
X75138Y-31417
X75197Y-27264
X76220Y-19724
X76614Y-38819
X76673Y-41949
X76673Y-47264
X81161Y-19764
X82972Y-54035
X85039Y-29409
X85118Y-25413
X85118Y-33209
X85138Y-21732
X85177Y-36870
X85177Y-41043
X85197Y-50748
X85217Y-45472
T2
X60631Y-24017
X60631Y-27165
X61418Y-25591
X62205Y-24017
X62205Y-27165
X62993Y-25591
X63780Y-24017
X63780Y-27165
X64568Y-25591
X64568Y-46851
X64568Y-49999
X65355Y-24017
X65355Y-27165
X65355Y-48425
X66142Y-25591
X66142Y-46851
X66142Y-49999
X66929Y-24017
X66929Y-27165
X66929Y-48425
X67716Y-25591
X67716Y-46851
X67716Y-49999
X68504Y-24017
X68504Y-27165
X69291Y-25591
X70079Y-24017
X70079Y-27165
X70866Y-25591
X71653Y-24017
X71653Y-27165
T3
X56221Y-28465
X56812Y-21340
X60158Y-51299
X60749Y-44174
X71535Y-44174
X72126Y-51299
X75472Y-21340
X76063Y-28465
T0
M30
