M48
;DRILL file {KiCad (2017-01-11 revision e99b79cb2)-master} date Tue Sep  5 10:28:06 2017
;FORMAT={-:-/ absolute / metric / decimal}
FMAT,2
METRIC,TZ
T1C0.400
T2C1.748
T3C1.999
%
G90
G05
M71
T1
X119.6Y-64.7
X119.6Y-107.
X119.7Y-131.7
X119.8Y-68.1
X121.2Y-56.1
X121.6Y-99.5
X122.7Y-74.7
X124.1Y-114.4
X124.3Y-83.5
X124.5Y-137.9
X124.6Y-95.9
X125.Y-68.3
X126.1Y-98.3
X126.6Y-85.9
X126.8Y-54.
X127.Y-124.6
X127.2Y-135.3
X127.7Y-81.2
X128.138Y-90.1
X128.138Y-92.2
X128.5Y-70.6
X128.7Y-116.6
X128.7Y-132.1
X128.8Y-64.7
X128.9Y-60.4
X129.1Y-101.9
X129.338Y-82.1
X130.4Y-84.3
X130.6Y-86.6
X130.6Y-89.2
X130.8Y-79.
X130.874Y-122.748
X131.542Y-122.748
X131.9Y-109.1
X132.Y-101.8
X132.Y-105.4
X132.Y-115.3
X132.1Y-98.3
X132.7Y-68.3
X132.8Y-50.3
X132.8Y-70.8
X133.1Y-91.8
X133.4Y-77.9
X133.5Y-135.1
X133.8Y-99.2
X134.1Y-106.4
X134.1Y-110.
X134.2Y-102.8
X135.Y-128.7
X135.1Y-58.9
X136.2Y-96.1
X136.3Y-99.3
X136.4Y-106.3
X136.5Y-102.8
X136.6Y-121.5
X136.9Y-78.5
X137.048Y-67.952
X137.7Y-106.3
X137.7Y-114.1
X137.7Y-99.485
X137.9Y-130.1
X138.5Y-105.3
X139.3Y-63.9
X139.5Y-72.3
X139.6Y-59.5
X139.7Y-70.4
X139.8Y-99.2
X139.8Y-102.4
X139.8Y-107.
X139.9Y-110.2
X140.1Y-115.3
X140.1Y-135.9
X140.249Y-116.651
X140.8Y-108.6
X141.3Y-102.3
X143.1Y-94.8
X143.6Y-88.6
X143.7Y-103.4
X143.883Y-87.176
X143.9Y-86.177
X144.1Y-67.3
X144.15Y-89.7
X144.7Y-133.5
X145.2Y-77.
X145.8Y-91.8
X146.Y-80.2
X146.2Y-76.7
X147.1Y-75.8
X147.6Y-89.
X147.9Y-74.8
X148.4Y-127.2
X149.2Y-76.9
X149.3Y-104.1
X149.6Y-72.9
X150.135Y-89.
X150.752Y-73.231
X151.1Y-68.9
X151.452Y-72.3
X151.5Y-50.4
X152.152Y-73.2
X152.4Y-57.2
X153.4Y-92.
X153.7Y-88.2
X154.Y-108.3
X154.6Y-84.9
X154.9Y-81.6
X155.5Y-89.
X157.2Y-103.2
X157.4Y-135.4
X158.035Y-89.
X159.75Y-106.
X162.5Y-108.3
X163.5Y-89.
X165.25Y-106.
X166.035Y-89.
X167.5Y-57.2
X170.2Y-50.4
X170.75Y-106.
X171.8Y-89.
X173.5Y-108.3
X174.335Y-89.
X175.3Y-57.8
X176.25Y-106.
X177.8Y-89.
X180.335Y-89.
X182.9Y-135.6
X185.2Y-56.4
X185.9Y-89.
X186.6Y-106.1
X188.435Y-89.
X189.3Y-103.8
X189.3Y-108.6
X190.1Y-125.3
X191.8Y-87.3
X192.2Y-107.6
X192.4Y-74.8
X193.6Y-92.8
X193.6Y-75.2
X193.6Y-100.
X193.8Y-85.2
X194.Y-76.2
X194.Y-80.6
X194.348Y-84.334
X194.6Y-108.8
X194.8Y-64.4
X194.8Y-77.2
X194.9Y-83.5
X195.3Y-78.2
X195.4Y-108.
X195.7Y-82.7
X195.8Y-51.4
X196.203Y-107.404
X196.443Y-112.072
X197.349Y-110.141
X197.353Y-86.745
X197.5Y-80.6
X197.6Y-94.
X197.7Y-101.
X198.Y-110.9
X198.269Y-88.734
X198.4Y-99.4
X198.494Y-90.69
X198.5Y-91.9
X198.555Y-89.692
X198.9Y-107.1
X199.7Y-137.3
X199.9Y-135.2
X200.2Y-120.
X200.3Y-103.35
X200.3Y-107.45
X200.3Y-111.55
X200.3Y-115.65
X200.8Y-137.3
X202.3Y-109.4
X202.4Y-113.4
X202.4Y-117.6
X202.6Y-101.8
X203.8Y-136.8
X204.2Y-104.302
X204.25Y-108.5
X204.25Y-112.715
X204.3Y-124.8
X204.4Y-74.
X205.2Y-83.4
X205.3Y-98.3
X205.3Y-115.6
X206.1Y-107.4
X206.5Y-104.083
X206.9Y-111.5
X207.Y-88.8
X209.8Y-51.1
X210.942Y-102.152
X211.7Y-90.4
X211.7Y-92.8
X211.8Y-87.7
X212.2Y-96.6
X212.3Y-85.2
X214.262Y-85.5
X214.262Y-87.5
X214.262Y-93.7
X215.6Y-91.2
X216.3Y-131.3
X216.4Y-56.2
X216.4Y-115.9
X216.5Y-75.9
X216.5Y-105.
T2
X154.002Y-61.002
X154.002Y-68.998
X156.001Y-65.
X158.Y-61.002
X158.Y-68.998
X160.002Y-65.
X162.001Y-61.002
X162.001Y-68.998
X164.002Y-65.
X164.002Y-119.002
X164.002Y-126.998
X166.001Y-61.002
X166.001Y-68.998
X166.001Y-123.
X168.Y-65.
X168.Y-119.002
X168.Y-126.998
X169.999Y-61.002
X169.999Y-68.998
X169.999Y-123.
X171.998Y-65.
X171.998Y-119.002
X171.998Y-126.998
X173.999Y-61.002
X173.999Y-68.998
X175.998Y-65.
X178.Y-61.002
X178.Y-68.998
X179.999Y-65.
X181.998Y-61.002
X181.998Y-68.998
T3
X142.801Y-72.3
X144.302Y-54.202
X152.801Y-130.3
X154.302Y-112.202
X181.698Y-112.202
X183.199Y-130.3
X191.698Y-54.202
X193.199Y-72.3
T0
M30
